<svg xmlns="http://www.w3.org/2000/svg" xmlns:xlink="http://www.w3.org/1999/xlink">
   <defs>
      <clipPath id="clip0_142_2748">
         <path d="M0 0h17v13H0z"/>
      </clipPath>
      <clipPath id="clip0_405_6428">
         <path d="M0 0h19.636v19.636H0z" transform="translate(0 .364)"/>
      </clipPath>
      <clipPath id="clip0_319_12640">
         <path d="M0 0h36.13v35.377H0z" transform="translate(.84 .043)"/>
      </clipPath>
      <clipPath id="clip0_319_12652">
         <path d="M0 0h24.087v35.377H0z" transform="translate(.614 .043)"/>
      </clipPath>
      <clipPath id="clip0_319_12660">
         <path d="M0 0h35.377v35.377H0z" transform="translate(.592 .043)"/>
      </clipPath>
      <radialGradient id="paint0_radial_135_3665" cx="0" cy="0" r="1" gradientTransform="matrix(0 9 -9 0 9.5 9)" gradientUnits="userSpaceOnUse">
         <stop offset=".734" stop-color="#009EFF" stop-opacity="0"/>
         <stop offset="1" stop-color="#00A0FF"/>
      </radialGradient>
   </defs>
   <symbol id="amazon" viewBox="0 0 17 13">
      <g clip-path="url(#clip0_142_2748)">
         <path d="M2.78 12.769A7.346 7.346 0 011.67 9.162a7.384 7.384 0 01.815-3.692 7.01 7.01 0 012.513-2.735A6.623 6.623 0 018.5 1.73c1.232 0 2.442.348 3.5 1.006a7.01 7.01 0 012.514 2.735 7.384 7.384 0 01.816 3.692 7.347 7.347 0 01-1.112 3.607h1.914a9.194 9.194 0 00.858-4.355 9.14 9.14 0 00-1.275-4.241 8.665 8.665 0 00-3.089-3.063A8.225 8.225 0 008.5-.004 8.226 8.226 0 004.375 1.11a8.666 8.666 0 00-3.089 3.063A9.14 9.14 0 00.011 8.414a9.194 9.194 0 00.858 4.355H2.78z"/>
         <path d="M8.614 4.653c-1.245 0-2.678.613-3.456 1.26l.71 1.56C6.49 6.877 7.5 6.369 8.409 6.369c.865 0 1.341.3 1.341.909 0 .406-.316.638-.914.695-2.242.215-3.985.947-3.985 2.742 0 1.425.984 2.285 2.604 2.285.487 0 .965-.134 1.386-.39.42-.256.768-.624 1.006-1.067v1.224h2.02V7.635c0-2.12-1.413-2.976-3.253-2.976v-.006zm-.59 6.7c-.648 0-1.013-.291-1.013-.77 0-1.001 1.167-1.242 2.698-1.242 0 1.047-.672 2.013-1.686 2.013h.001z"/>
      </g>
   </symbol>
   <symbol id="arrow-next" viewBox="0 0 15 56">
      <path stroke-linecap="round" stroke-width="2" d="M1 1l10.759 24.133 1.241 2.8-1.241 2.8L1 55"/>
   </symbol>
   <symbol id="arrow-prev" viewBox="0 0 15 56">
      <path stroke-linecap="round" stroke-width="2" d="M14 55L3.241 30.867 2 28.067l1.241-2.8L14 1"/>
   </symbol>
   <symbol id="battery" viewBox="0 0 18 18">
      <path stroke-linecap="round" stroke-linejoin="round" stroke-miterlimit="10" d="M6.85.9v1.005H5.5c-.745 0-1.35.6-1.35 1.339v10.712c0 .74.605 1.339 1.35 1.339h5.398c.745 0 1.35-.6 1.35-1.34V3.245c0-.74-.604-1.34-1.35-1.34h-1.35V.9H6.85z"/>
      <rect width="3.599" height=".9" x="6.4" y="12.146" stroke-width=".9" rx=".45"/>
      <rect width="3.599" height=".9" x="6.4" y="8.547" stroke-width=".9" rx=".45"/>
      <rect width="3.599" height=".9" x="6.4" y="4.949" stroke-width=".9" rx=".45"/>
   </symbol>
   <symbol id="cart" viewBox="0 0 20 20">
      <g stroke-linecap="round" stroke-linejoin="round" stroke-width="1.276" clip-path="url(#clip0_405_6428)">
         <path d="M6.546 19.182a1.636 1.636 0 100-3.273 1.636 1.636 0 000 3.273zM16.364 19.182a1.636 1.636 0 100-3.273 1.636 1.636 0 000 3.273zM4.64 5.273h14.178l-1.374 6.864a1.636 1.636 0 01-1.636 1.318H7.159a1.637 1.637 0 01-1.636-1.424L4.279 2.605a1.636 1.636 0 00-1.62-1.423H.82"/>
      </g>
   </symbol>
   <symbol id="charge" viewBox="0 0 20 30">
      <path d="M19.5 8c0-.85-.65-1.5-1.5-1.5h-1.5v-5C16.5.65 15.85 0 15 0s-1.5.65-1.5 1.5v5h-7v-5C6.5.65 5.85 0 5 0S3.5.65 3.5 1.5v5H2C1.15 6.5.5 7.15.5 8c0 .673.408 1.22 1 1.42v9.08C1.5 21 3.5 23 6 23h1.5v2c0 .3.2.5.5.5h.5v2c0 .3.2.5.5.5h.5v1.5c0 .3.2.5.5.5s.5-.2.5-.5V28h.5c.3 0 .5-.2.5-.5v-2h.5c.3 0 .5-.2.5-.5v-2H14c2.5 0 4.5-2 4.5-4.5V9.42c.592-.2 1-.747 1-1.42zm-5-6.5c0-.3.2-.5.5-.5s.5.2.5.5v5h-1v-5zm-10 0c0-.25.2-.5.5-.5s.5.2.5.5v5h-1v-5zm6 25.5h-1v-1.5h1V27zm1-2.5h-3V23h3v1.5zm6-6c0 1.95-1.55 3.5-3.5 3.5H6c-1.95 0-3.5-1.55-3.5-3.5v-9h15v9zm.5-10H2c-.3 0-.5-.2-.5-.5s.2-.5.5-.5h16c.3 0 .5.2.5.5s-.2.5-.5.5z"/>
      <path d="M8 16h2.8l-2.65 2.65c-.2.2-.2.5 0 .7.1.1.2.15.35.15.15 0 .25-.05.35-.15l3.5-3.5c.15-.15.2-.35.1-.55-.05-.2-.25-.3-.45-.3H9.2l2.65-2.65c.2-.2.2-.5 0-.7-.2-.2-.5-.2-.7 0l-3.5 3.5c-.15.15-.15.35-.1.55.05.2.25.3.45.3z"/>
   </symbol>
   <symbol id="count" viewBox="0 0 18 18">
      <rect width="11.5" height=".5" x="4.25" y="14.751" stroke-width=".5" rx=".25" transform="rotate(-90 4.25 14.751)"/>
      <rect width="11.5" height=".5" x="7.25" y="14.751" stroke-width=".5" rx=".25" transform="rotate(-90 7.25 14.751)"/>
      <rect width="11.5" height=".5" x="10.25" y="14.751" stroke-width=".5" rx=".25" transform="rotate(-90 10.25 14.751)"/>
      <rect width="11.5" height=".5" x="13.25" y="14.751" stroke-width=".5" rx=".25" transform="rotate(-90 13.25 14.751)"/>
   </symbol>
   <symbol id="download" viewBox="0 0 25 25">
      <path d="M24.145 6.765L17.774.147A.48.48 0 0017.43 0H7.936A1.928 1.928 0 006.01 1.926v6.728H2.163c-.795 0-1.442.646-1.442 1.44v7.215c0 .795.647 1.441 1.442 1.441H6.01v4.328c0 1.06.864 1.922 1.926 1.922h14.416a1.926 1.926 0 001.927-1.921V7.099a.48.48 0 00-.134-.334zm-6.597-5.467l5.229 5.433h-5.229V1.298zM2.163 17.788a.48.48 0 01-.48-.479v-7.214a.48.48 0 01.48-.48h12.982a.48.48 0 01.48.48v7.214a.48.48 0 01-.48.48H2.163zm21.154 5.29c0 .53-.433.96-.965.96H7.936a.964.964 0 01-.965-.96V18.75h8.174c.795 0 1.442-.646 1.442-1.441v-7.214c0-.795-.647-1.441-1.442-1.441H6.971V1.926c0-.532.433-.964.965-.964h8.65v6.25c0 .265.216.48.481.48h6.25V23.08z"/>
      <path d="M6.469 12.202a1.083 1.083 0 00-.594-.405c-.154-.041-.485-.062-.992-.062H3.545v4.13h.834v-1.558h.543c.378 0 .666-.02.865-.059.147-.032.29-.097.433-.196.142-.098.258-.234.35-.407.092-.172.138-.386.138-.64 0-.328-.08-.596-.239-.803zm-.714 1.136a.548.548 0 01-.26.203c-.112.043-.331.065-.66.065H4.38v-1.172h.403c.3 0 .5.01.6.028a.576.576 0 01.335.183.533.533 0 01.132.372c0 .122-.031.23-.094.321zM10.717 12.864a1.805 1.805 0 00-.394-.67 1.382 1.382 0 00-.623-.38c-.18-.052-.442-.079-.786-.079H7.39v4.13h1.57c.307 0 .553-.029.737-.087.246-.08.442-.189.586-.33a1.82 1.82 0 00.443-.73c.084-.245.126-.538.126-.878 0-.387-.045-.713-.135-.976zm-.811 1.695c-.057.185-.13.318-.219.399a.77.77 0 01-.336.172 2.27 2.27 0 01-.504.04h-.623v-2.736h.375c.34 0 .568.013.684.04a.793.793 0 01.386.194c.102.096.18.229.237.4.056.17.084.416.084.735 0 .32-.028.571-.084.756zM14.396 12.434v-.699h-2.831v4.13h.834V14.11h1.724v-.698h-1.724v-.978h1.997z"/>
   </symbol>
   <symbol id="Frame1" viewBox="0 0 37 36">
      <g clip-path="url(#clip0_319_12640)">
         <path d="M34.046 25.891a.716.716 0 00-.925-.433l-7.485 2.806a.734.734 0 00-.426.939.72.72 0 00.925.432l7.485-2.805a.734.734 0 00.426-.939zM24.503 29.468a.717.717 0 00-.924-.433l-.317.119a.735.735 0 00-.426.939.72.72 0 00.924.433l.317-.12a.735.735 0 00.426-.938zM34.046 22.912a.717.717 0 00-.924-.433l-5.915 2.217a.734.734 0 00-.426.939.72.72 0 00.924.433l5.916-2.217a.734.734 0 00.425-.94zM34.046 19.965a.716.716 0 00-.924-.433l-5.915 2.217a.734.734 0 00-.426.939.72.72 0 00.924.433l5.916-2.217a.734.734 0 00.425-.94z"/>
         <path d="M36.5 6.59L19.153.088a.71.71 0 00-.498 0L1.31 6.589v.001a.733.733 0 00-.47.685V28.19c0 .306.187.58.47.686l17.346 6.5a.715.715 0 00.498 0l17.345-6.5a.73.73 0 00.47-.686V7.275a.73.73 0 00-.47-.686zM18.184 33.64L2.279 27.68V8.324l3.24 1.214v8.857c0 .306.187.58.47.686l7.773 2.913a.715.715 0 00.66-.086.734.734 0 00.309-.6V12.99l3.455 1.295-.001 19.356zM13.29 12.45v7.809l-6.333-2.374v-7.808l6.333 2.374zM8.317 9.024l5.694-2.134 5.694 2.134-5.694 2.133-5.694-2.133zm10.588 3.973l-2.823-1.058 5.95-2.23a.73.73 0 00.472-.686.73.73 0 00-.471-.686L14.26 5.423a.71.71 0 00-.498 0L6.229 8.246l-2.59-.97 15.266-5.722 15.266 5.72-15.266 5.722zM35.53 27.68l-15.905 5.96V14.286L35.53 8.324V27.68z"/>
      </g>
   </symbol>
   <symbol id="Frame2" viewBox="0 0 25 36">
      <g clip-path="url(#clip0_319_12652)">
         <path d="M24.038.043H1.276C.911.043.614.36.614.748v33.968c0 .389.297.705.662.705h17.308a.644.644 0 00.468-.207l5.454-5.804a.73.73 0 00.195-.498V.748c0-.389-.297-.705-.663-.705zm-4.793 32.973l-.003-3.403 3.199.003-3.196 3.4zm4.13-4.809l-4.795-.005a.644.644 0 00-.469.207.73.73 0 00-.194.499l.005 5.103H1.938V1.453h21.438v26.754z"/>
         <path d="M7.4 25.47c-1.666 0-3.02 1.44-3.02 3.213 0 1.773 1.354 3.214 3.02 3.214 1.665 0 3.02-1.441 3.02-3.214 0-1.772-1.355-3.213-3.02-3.213zm0 5.018c-.936 0-1.697-.81-1.697-1.805 0-.995.76-1.804 1.696-1.804.936 0 1.696.81 1.696 1.804 0 .995-.76 1.805-1.696 1.805z"/>
         <path d="M16.034 28.092H12.39c-.365 0-.662.315-.662.705 0 .389.297.704.662.704h3.643c.366 0 .662-.316.662-.704 0-.39-.296-.705-.662-.705zM7.16 4.271H5.24c-.366 0-.662.316-.662.705 0 .39.296.705.662.705h1.92c.366 0 .663-.316.663-.705 0-.389-.297-.705-.663-.705z"/>
         <path d="M20.34 4.271h-5.762c-.366 0-.662.316-.662.705 0 .39.296.705.662.705h5.761c.366 0 .662-.316.662-.705 0-.389-.296-.705-.662-.705zM20.34 7.302h-9.802c-.366 0-.663.316-.663.705 0 .389.297.705.663.705h9.801c.366 0 .662-.316.662-.705 0-.39-.296-.705-.662-.705z"/>
         <path d="M20.372 12.869H4.942c-.365 0-.662.316-.662.705 0 .389.297.705.662.705h15.43c.366 0 .663-.316.663-.705 0-.39-.297-.705-.663-.705zM20.372 15.265H4.942c-.365 0-.662.316-.662.705 0 .39.297.705.662.705h15.43c.366 0 .663-.316.663-.705 0-.389-.297-.705-.663-.705zM20.372 17.873H4.942c-.365 0-.662.316-.662.705 0 .389.297.705.662.705h15.43c.366 0 .663-.316.663-.705 0-.39-.297-.705-.663-.705zM20.372 20.27h-.364c-.366 0-.662.315-.662.704 0 .39.296.705.662.705h.364c.366 0 .663-.316.663-.705 0-.39-.297-.705-.663-.705zM17.69 20.27H4.942c-.365 0-.662.315-.662.704 0 .39.297.705.662.705h12.749c.365 0 .662-.316.662-.705 0-.39-.298-.705-.663-.705z"/>
      </g>
   </symbol>
   <symbol id="Frame3" viewBox="0 0 36 36">
      <g clip-path="url(#clip0_319_12660)">
         <path d="M34.863 3.264l-2.14-2.126C31.326-.248 28.973-.33 27.478.958l-3.762 3.239a.61.61 0 00-.122.144L19.933 10.4l-2.352.779a.596.596 0 00-.237.994l6.409 6.363a.605.605 0 001-.235l.784-2.336 6.189-3.712a.598.598 0 00.145-.122l3.183-3.664c1.29-1.482 1.204-3.816-.191-5.202zm-.722 4.42l-3.12 3.591-6.298 3.777a.6.6 0 00-.261.324L23.916 17l-1.444-1.434-2.137-2.122-1.445-1.435 1.636-.542a.604.604 0 00.327-.26l3.728-6.167 3.69-3.175c1.025-.884 2.64-.83 3.597.121l2.14 2.126c.959.952 1.018 2.554.133 3.571z"/>
         <path d="M33.15 24.152a6.68 6.68 0 00-6.75-1.611L13.56 9.789a6.572 6.572 0 00-1.622-6.704A6.68 6.68 0 004.81 1.606a.6.6 0 00-.207.984l3.844 3.816-2.563 2.546L2.04 5.134a.607.607 0 00-.99.206 6.571 6.571 0 001.49 7.079 6.681 6.681 0 006.75 1.612l4.8 4.769-5.979 5.938-3.803 2.111a.602.602 0 00-.245.256l-1.709 3.394a.596.596 0 00.114.692l2.135 2.122a.605.605 0 00.698.112l3.417-1.697a.603.603 0 00.257-.244l2.127-3.777 5.979-5.938 5.048 5.014a6.57 6.57 0 001.623 6.704 6.671 6.671 0 004.703 1.934 6.69 6.69 0 002.425-.456.6.6 0 00.207-.983l-3.843-3.817 2.563-2.545 3.843 3.817a.607.607 0 00.99-.206 6.572 6.572 0 00-1.49-7.079zm-22.962 2.765a.596.596 0 00-.1.131l-2.076 3.689-2.862 1.421-1.52-1.51 1.431-2.842 3.714-2.062a.582.582 0 00.132-.099l6.038-5.997 1.282 1.273-6.039 5.996zm23.597 2.957l-3.551-3.527a.607.607 0 00-.855 0l-3.417 3.394a.598.598 0 000 .849l3.552 3.527a5.467 5.467 0 01-4.907-1.479 5.377 5.377 0 01-1.218-5.792.597.597 0 00-.135-.643L9.874 12.914a.606.606 0 00-.648-.134 5.468 5.468 0 01-5.832-1.21 5.378 5.378 0 01-1.49-4.873l3.552 3.527a.607.607 0 00.855 0L9.728 6.83a.597.597 0 000-.849L6.176 2.454a5.465 5.465 0 014.907 1.479 5.376 5.376 0 011.219 5.792.597.597 0 00.135.643l13.38 13.29c.17.168.424.22.647.133a5.468 5.468 0 015.833 1.21 5.382 5.382 0 011.489 4.873z"/>
      </g>
   </symbol>
   <symbol id="Frame4" viewBox="0 0 33 36">
      <path d="M3 5h20.482a6.5 6.5 0 016.5 6.5v0a6.5 6.5 0 01-6.5 6.5H9.5A6.5 6.5 0 003 24.5v0A6.5 6.5 0 009.5 31H31"/>
      <circle cx="4.5" cy="4.5" r="4"/>
      <circle cx="28.5" cy="31.5" r="4"/>
   </symbol>
   <symbol id="incline" viewBox="0 0 14 10">
      <path stroke-linecap="round" stroke-linejoin="round" d="M13 9H1l8-8"/>
      <path d="M5.242 4.758a6 6 0 011.83 4.212"/>
   </symbol>
   <symbol id="inst" viewBox="0 0 18 18">
      <path d="M9.177 18h-.18a62.577 62.577 0 01-3.981-.11c-1.163-.07-2.224-.472-3.069-1.161-.815-.665-1.372-1.564-1.655-2.672-.246-.965-.26-1.912-.272-2.827C.011 10.572.002 9.794 0 9.002c.002-.795.011-1.574.02-2.23.013-.917.026-1.863.272-2.828.283-1.108.84-2.007 1.655-2.672C2.792.582 3.853.18 5.016.11A62.712 62.712 0 019 0a62.969 62.969 0 013.983.11c1.162.071 2.223.473 3.068 1.162.816.665 1.373 1.564 1.655 2.672.246.964.26 1.911.272 2.827.01.657.018 1.436.02 2.228v.003c-.002.792-.01 1.57-.02 2.228-.012.915-.025 1.862-.272 2.827-.282 1.108-.84 2.007-1.655 2.672-.845.69-1.906 1.09-3.068 1.162-1.214.073-2.462.11-3.807.11zm-.18-1.406a61.496 61.496 0 003.901-.107c.88-.053 1.641-.339 2.266-.848.577-.47.974-1.12 1.18-1.93.206-.803.217-1.665.229-2.499.009-.652.018-1.425.02-2.21-.002-.784-.011-1.557-.02-2.21-.012-.833-.023-1.696-.228-2.499-.207-.81-.604-1.459-1.181-1.93-.625-.508-1.387-.794-2.266-.847a61.449 61.449 0 00-3.897-.107 61.283 61.283 0 00-3.9.107c-.879.053-1.641.339-2.265.847-.577.471-.975 1.12-1.181 1.93-.205.803-.217 1.665-.229 2.5-.008.653-.018 1.426-.02 2.211.002.781.012 1.555.02 2.208.012.834.024 1.696.229 2.5.206.81.604 1.458 1.18 1.93.625.508 1.387.793 2.266.847 1.238.075 2.513.11 3.897.107zm-.033-3.2A4.4 4.4 0 014.57 9a4.4 4.4 0 014.394-4.394A4.4 4.4 0 0113.36 9a4.4 4.4 0 01-4.395 4.395zm0-7.382A2.992 2.992 0 005.976 9a2.992 2.992 0 002.988 2.989A2.992 2.992 0 0011.953 9a2.992 2.992 0 00-2.989-2.988zM13.851 3.2a1.055 1.055 0 100 2.109 1.055 1.055 0 000-2.11z"/>
   </symbol>
   <symbol id="light" viewBox="0 0 17 17">
      <path stroke-linecap="round" stroke-linejoin="round" stroke-miterlimit="10" d="M4.42 4.42L3.197 3.197M8.5 1v1.73V1zm0 13.27V16v-1.73zm5.303-11.073L12.58 4.42l1.223-1.223zM4.42 12.58l-1.223 1.223L4.42 12.58zM16 8.5h-1.73H16zm-13.27 0H1h1.73zm11.073 5.303L12.58 12.58l1.223 1.223zM8.5 11.227a2.727 2.727 0 100-5.454 2.727 2.727 0 000 5.454z"/>
   </symbol>
   <symbol id="line1" viewBox="0 0 252 110">
      <path stroke-linecap="round" stroke-linejoin="round" stroke-width="2" d="M251 1H139L1 109" opacity=".5"/>
   </symbol>
   <symbol id="line10" viewBox="0 0 528 28">
      <path stroke-linecap="round" stroke-linejoin="round" stroke-width="2" d="M526.5 1.5H46l-45 25" opacity=".1"/>
   </symbol>
   <symbol id="line11" viewBox="0 0 314 240">
      <path stroke-linecap="round" stroke-linejoin="round" stroke-width="2" d="M312.5 1.5h-84L1.5 239" opacity=".1"/>
   </symbol>
   <symbol id="line12" viewBox="0 0 270 172">
      <path stroke-linecap="round" stroke-linejoin="round" stroke-width="2" d="M268.5 1.5h-98L1.5 171" opacity=".1"/>
   </symbol>
   <symbol id="line13" viewBox="0 0 310 187">
      <path stroke-linecap="round" stroke-linejoin="round" stroke-width="2" d="M308.5 1.5H186L1.5 186" opacity=".1"/>
   </symbol>
   <symbol id="line14" viewBox="0 0 250 96">
      <path stroke-linecap="round" stroke-linejoin="round" stroke-width="2" d="M248.5 1.5h-103l-36-.5L1 94.5" opacity=".1"/>
   </symbol>
   <symbol id="line15" viewBox="0 0 204 66">
      <path stroke-linecap="round" stroke-linejoin="round" stroke-width="2" d="M1.5 65L81 1.5h121.5" opacity=".1"/>
   </symbol>
   <symbol id="line16" viewBox="0 0 181 50">
      <path stroke-linecap="round" stroke-linejoin="round" stroke-width="2" d="M180 1.5H68.5l-67 47" opacity=".1"/>
   </symbol>
   <symbol id="line17" viewBox="0 0 214 46">
      <path stroke-linecap="round" stroke-linejoin="round" stroke-width="2" d="M212.5 1.5H62L1.5 45" opacity=".1"/>
   </symbol>
   <symbol id="line2" viewBox="0 0 320 119">
      <path stroke-linecap="round" stroke-linejoin="round" stroke-width="2" d="M318.5 1h-68L106 117.5H1" opacity=".1"/>
   </symbol>
   <symbol id="line3" viewBox="0 0 207 131">
      <path stroke-linecap="round" stroke-linejoin="round" stroke-width="2" d="M206 1L41.5 129.5H1" opacity=".1"/>
   </symbol>
   <symbol id="line4" viewBox="0 0 298 161">
      <path stroke-linecap="round" stroke-linejoin="round" stroke-width="2" d="M296.5 1.5L96 159.5H1" opacity=".1"/>
   </symbol>
   <symbol id="line5" viewBox="0 0 180 19">
      <path stroke-linecap="round" stroke-linejoin="round" stroke-width="2" d="M178.5 1l-36 16.5H1" opacity=".1"/>
   </symbol>
   <symbol id="line6" viewBox="0 0 211 30">
      <path stroke-linecap="round" stroke-linejoin="round" stroke-width="2" d="M209.5 1.5L161 28.562H1" opacity=".1"/>
   </symbol>
   <symbol id="line7" viewBox="0 0 249 14">
      <path stroke-linecap="round" stroke-linejoin="round" stroke-width="2" d="M248 13L194 1.5H1.5" opacity=".1"/>
   </symbol>
   <symbol id="line8" viewBox="0 0 244 25">
      <path stroke-linecap="round" stroke-linejoin="round" stroke-width="2" d="M242.5 23.5H189l-27.5-22H1.5" opacity=".1"/>
   </symbol>
   <symbol id="line9" viewBox="0 0 332 60">
      <path stroke-linecap="round" stroke-linejoin="round" stroke-width="2" d="M330.5 58.5H134l-59-57H1" opacity=".1"/>
   </symbol>
   <symbol id="output" viewBox="0 0 18 18">
      <path d="M8.5 7.5a.5.5 0 001 0h-1zM9 2l.354-.354a.5.5 0 00-.708 0L9 2zm2.146 2.854a.5.5 0 00.708-.708l-.708.708zm-5-.708a.5.5 0 10.708.708l-.708-.708zM9.5 7.5V2h-1v5.5h1zm-.854-5.146l2.5 2.5.708-.708-2.5-2.5-.708.708zm0-.708l-2.5 2.5.708.708 2.5-2.5-.708-.708z"/>
      <path stroke-linecap="round" d="M5.806 6.653a5.118 5.118 0 106.493.113"/>
   </symbol>
   <symbol id="payload" viewBox="0 0 16 16">
      <mask id="a">
         <path d="M3.833 1.764a7.5 7.5 0 118.334 12.472A7.5 7.5 0 013.833 1.764z"/>
      </mask>
      <path d="M7.5 11a.5.5 0 001 0h-1zM8 5.5l.354-.354a.5.5 0 00-.708 0L8 5.5zm2.146 2.854a.5.5 0 00.708-.708l-.708.708zm-5-.708a.5.5 0 10.708.708l-.708-.708zM8.5 11V5.5h-1V11h1zm-.854-5.146l2.5 2.5.708-.708-2.5-2.5-.708.708zm0-.708l-2.5 2.5.708.708 2.5-2.5-.708-.708zM3.833 1.764l.556.831-.556-.831zm-1.136 11.54l-.707.706.707-.707zM14.929 5.13l-.924.383.924-.383zm-1.626-2.433l-.707.707.707-.707zM8-.5A8.5 8.5 0 003.278.933l1.11 1.662A6.5 6.5 0 018 1.5v-2zM3.278.933A8.5 8.5 0 00.147 4.747l1.848.766a6.5 6.5 0 012.394-2.918L3.278.933zM.147 4.747a8.5 8.5 0 00-.484 4.911l1.962-.39a6.5 6.5 0 01.37-3.755L.147 4.747zm-.484 4.911A8.5 8.5 0 001.99 14.01l1.414-1.414a6.5 6.5 0 01-1.78-3.328l-1.96.39zM1.99 14.01a8.5 8.5 0 004.352 2.327l.39-1.962a6.5 6.5 0 01-3.328-1.779L1.99 14.01zm4.352 2.327a8.5 8.5 0 004.91-.484l-.765-1.848a6.5 6.5 0 01-3.755.37l-.39 1.962zm4.91-.484a8.5 8.5 0 003.816-3.13l-1.663-1.112a6.5 6.5 0 01-2.918 2.394l.766 1.848zm3.816-3.13A8.5 8.5 0 0016.5 8h-2a6.5 6.5 0 01-1.095 3.611l1.663 1.111zM16.5 8c0-1.116-.22-2.222-.647-3.253l-1.848.766A6.5 6.5 0 0114.5 8h2zm-.647-3.253A8.5 8.5 0 0014.01 1.99l-1.414 1.414a6.499 6.499 0 011.41 2.109l1.847-.766zM14.01 1.99A8.5 8.5 0 0011.253.147l-.766 1.848a6.5 6.5 0 012.11 1.409L14.01 1.99zM11.253.147A8.5 8.5 0 008-.5v2a6.5 6.5 0 012.487.495l.766-1.848z" mask="url(#a)"/>
   </symbol>
   <symbol id="phone" viewBox="0 0 20 20">
      <path stroke-width="1.5" d="M4.648 12.965a19.158 19.158 0 006.376 4.976c.932.44 2.179.962 3.568 1.052.086.003.168.007.254.007.932 0 1.681-.32 2.291-.98.004-.005.012-.012.015-.02.217-.26.465-.496.723-.745a17.4 17.4 0 00.528-.523c.797-.828.797-1.88-.008-2.681l-2.25-2.242c-.382-.395-.838-.604-1.318-.604-.479 0-.94.209-1.332.6l-1.34 1.335c-.124-.07-.252-.134-.371-.194a4.646 4.646 0 01-.412-.223c-1.22-.772-2.329-1.78-3.389-3.074-.535-.675-.894-1.242-1.145-1.82.352-.317.681-.649 1-.973.112-.116.228-.231.344-.347.404-.403.621-.87.621-1.343 0-.474-.213-.94-.621-1.343L7.066 2.712c-.13-.13-.254-.257-.382-.388a20.496 20.496 0 00-.76-.75C5.54 1.198 5.086 1 4.606 1c-.475 0-.932.198-1.332.578l-1.4 1.395a2.862 2.862 0 00-.858 1.835c-.071.892.094 1.839.52 2.984.656 1.772 1.644 3.417 3.112 5.173z"/>
   </symbol>
   <symbol id="pin-gradient" viewBox="0 0 19 18">
      <circle cx="9.5" cy="9" r="9" opacity=".3"/>
   </symbol>
   <symbol id="pin" viewBox="0 0 15 14">
      <circle cx="7.5" cy="7" r="6" stroke-width="2"/>
   </symbol>
   <symbol id="power" viewBox="0 0 13 15">
      <path d="M11.642 5.99l.002.002a.209.209 0 01-.017.216s0 0 0 0l-5.665 7.79s0 0 0 0a.208.208 0 01-.238.073.208.208 0 01-.14-.197v-4.75H1.556a.208.208 0 01-.178-.132l-.007-.018-.008-.018a.208.208 0 01.014-.205L7.039.966s0 0 0 0a.208.208 0 01.233-.075h.002a.208.208 0 01.143.21v4.774h4.04a.208.208 0 01.185.114z"/>
   </symbol>
   <symbol id="range" viewBox="0 0 13 13">
      <path d="M2.844 7.313h7.312A2.847 2.847 0 0013 4.469a2.847 2.847 0 00-2.844-2.844H3.25A1.625 1.625 0 101.625 3.25c.6 0 1.118-.33 1.4-.813h7.131c1.12 0 2.031.912 2.031 2.032S11.277 6.5 10.158 6.5H2.843A2.847 2.847 0 000 9.344a2.847 2.847 0 002.844 2.844h7.131c.281.483.8.812 1.4.812a1.625 1.625 0 10-1.625-1.625H2.844A2.034 2.034 0 01.813 9.344c0-1.12.911-2.031 2.03-2.031z"/>
   </symbol>
   <symbol id="ride" viewBox="0 0 30 30">
      <path d="M25.607 4.393A14.902 14.902 0 0015 0C10.993 0 7.227 1.56 4.393 4.393A14.902 14.902 0 000 15c0 4.007 1.56 7.773 4.393 10.607A14.901 14.901 0 0015 30c4.007 0 7.773-1.56 10.607-4.393A14.902 14.902 0 0030 15c0-4.007-1.56-7.774-4.393-10.607zM15 28.813C7.384 28.813 1.187 22.616 1.187 15 1.187 7.384 7.384 1.187 15 1.187c7.616 0 13.813 6.197 13.813 13.813 0 7.616-6.197 13.813-13.813 13.813z"/>
      <path d="M15 3.756C8.8 3.756 3.756 8.8 3.756 15S8.8 26.244 15 26.244 26.244 21.2 26.244 15 21.2 3.756 15 3.756zm0 21.3c-5.545 0-10.057-4.51-10.057-10.056C4.943 9.455 9.455 4.943 15 4.943c5.545 0 10.056 4.512 10.056 10.057 0 5.545-4.51 10.056-10.056 10.056z"/>
      <path d="M17.087 15A2.09 2.09 0 0015 12.911 2.09 2.09 0 0012.913 15 2.09 2.09 0 0015 17.086 2.09 2.09 0 0017.087 15zM14.1 15a.9.9 0 011.8 0 .9.9 0 01-1.8 0z"/>
      <path d="M15 5.798c-5.074 0-9.202 4.128-9.202 9.202S9.926 24.202 15 24.202s9.202-4.128 9.202-9.202S20.074 5.798 15 5.798zM23.015 15c0 .865-.139 1.698-.393 2.479l-3.247-2.134A.408.408 0 0119.19 15c0-.067.018-.234.186-.344l3.247-2.135a7.98 7.98 0 01.393 2.48zm-2.061-5.36l-3.468 1.743a.408.408 0 01-.392-.012.408.408 0 01-.205-.333l-.225-3.878a8.017 8.017 0 014.29 2.48zm-7.618-2.48l-.225 3.879c-.012.2-.148.3-.206.333a.408.408 0 01-.39.011L9.045 9.641a8.017 8.017 0 014.29-2.481zM6.986 15c0-.865.138-1.698.392-2.479l3.247 2.135c.167.11.185.277.185.344a.408.408 0 01-.185.344L7.378 17.48A7.984 7.984 0 016.985 15zm2.06 5.36l3.468-1.743a.408.408 0 01.391.012.408.408 0 01.206.333l.225 3.878a8.017 8.017 0 01-4.29-2.48zM14.534 23l-.238-4.107A1.596 1.596 0 0013.5 17.6a1.595 1.595 0 00-1.518-.044l-3.675 1.846a8.01 8.01 0 01-.467-.805l3.438-2.26c.451-.297.72-.797.72-1.337 0-.54-.269-1.04-.72-1.337l-3.438-2.26c.14-.278.296-.547.467-.805l3.675 1.846a1.6 1.6 0 002.315-1.336l.238-4.109a8.127 8.127 0 01.931 0l.239 4.108c.03.54.329 1.023.797 1.293a1.597 1.597 0 001.518.044l3.675-1.846c.17.258.326.527.467.805l-3.438 2.26c-.452.297-.721.797-.721 1.337 0 .54.27 1.04.72 1.337l3.439 2.26a8.02 8.02 0 01-.467.805l-3.675-1.846a1.595 1.595 0 00-1.518.044c-.468.27-.766.753-.797 1.292l-.239 4.109a8.155 8.155 0 01-.93 0zm2.13-.16l.225-3.879c.012-.2.148-.3.206-.333a.408.408 0 01.39-.011l3.469 1.742a8.017 8.017 0 01-4.29 2.481z"/>
   </symbol>
   <symbol id="sefety" viewBox="0 0 12 15">
      <path stroke-linejoin="round" d="M9.625 5.105V4.25c0-.988-.377-1.94-1.055-2.645A3.565 3.565 0 006 .5c-.968 0-1.892.4-2.57 1.105A3.817 3.817 0 002.375 4.25v.855c-.448.1-.86.331-1.186.67A2.49 2.49 0 00.5 7.5v4.55c0 .644.246 1.265.689 1.725a2.34 2.34 0 001.686.725h6.25c.636 0 1.242-.263 1.686-.725a2.49 2.49 0 00.689-1.725V7.5a2.49 2.49 0 00-.689-1.725 2.355 2.355 0 00-1.186-.67zm-4.45-1.543a.5.5 0 01.5-.5H6.5a.5.5 0 01.5.5V5.05H5.174V3.562z"/>
   </symbol>
   <symbol id="shock" viewBox="0 0 16 16">
      <circle cx="8" cy="8" r="7.5"/>
      <circle cx="8" cy="8" r="2.5"/>
   </symbol>
   <symbol id="spec-next" viewBox="0 0 24 42">
      <path d="M21.1 18.9L2.9.8.8 2.9 18.9 21 .8 39.2l2.1 2.1 18.2-18.2 2.1-2.1-2.1-2.1z"/>
   </symbol>
   <symbol id="speed" viewBox="0 0 20 16">
      <path stroke-linecap="round" stroke-linejoin="round" stroke-miterlimit="10" d="M9.5 8a1.5 1.5 0 100 3 1.5 1.5 0 000-3z"/>
      <path stroke-linecap="round" stroke-linejoin="round" stroke-miterlimit="10" d="M17.485 15a8.968 8.968 0 001.494-5.626 8.984 8.984 0 00-1.274-4.03A8.991 8.991 0 0010 1C5.026 1 1 5.026 1 9.999c0 1.85.558 3.57 1.514 4.999"/>
      <path d="M14.312 6.39a.5.5 0 10-.624-.78l.624.78zm-5 4l5-4-.624-.78-5 4 .624.78z"/>
   </symbol>
   <symbol id="time" viewBox="0 0 13 13">
      <path d="M6.5 0A6.5 6.5 0 1013 6.5 6.507 6.507 0 006.5 0zm0 11.7a5.2 5.2 0 110-10.4 5.2 5.2 0 010 10.4zm.65-5.363V3.25a.65.65 0 10-1.3 0V6.5c0 .107.026.212.077.307l.975 1.82a.65.65 0 101.146-.615L7.15 6.337z"/>
   </symbol>
   <symbol id="weight" viewBox="0 0 12 15">
      <path d="M3.968 5.685a.237.237 0 00.134.042c.045 0 .09-.013.13-.04A3.59 3.59 0 016.2 5.09c.69 0 1.37.207 1.968.599a.233.233 0 00.264-.003.324.324 0 00.132-.269V4.14c0-1.08-.653-1.368-1.576-1.368H5.609c-.923 0-1.773.288-1.773 1.368v1.277c0 .11.05.212.132.268z"/>
      <path d="M10.168 5.995V3.976C10.168 2.336 8.74 1 6.985 1h-1.57C3.66 1 2.232 2.335 2.232 3.976v2.02A4.671 4.671 0 001 9.136C1 11.82 3.333 14 6.2 14s5.2-2.181 5.2-4.863a4.671 4.671 0 00-1.232-3.142z"/>
   </symbol>
</svg>