<svg xmlns="http://www.w3.org/2000/svg" xmlns:xlink="http://www.w3.org/1999/xlink">
   <symbol id="cart" viewBox="0 0 20 20">
      <g stroke-linecap="round" stroke-linejoin="round" stroke-width="1.276" clip-path="url(#clip0_405_6428)">
         <path d="M6.546 19.182a1.636 1.636 0 100-3.273 1.636 1.636 0 000 3.273zM16.364 19.182a1.636 1.636 0 100-3.273 1.636 1.636 0 000 3.273zM4.64 5.273h14.178l-1.374 6.864a1.636 1.636 0 01-1.636 1.318H7.159a1.637 1.637 0 01-1.636-1.424L4.279 2.605a1.636 1.636 0 00-1.62-1.423H.82"/>
      </g>
   </symbol>
   <symbol id="inst" viewBox="0 0 18 18">
      <path d="M9.177 18h-.18a62.577 62.577 0 01-3.981-.11c-1.163-.07-2.224-.472-3.069-1.161-.815-.665-1.372-1.564-1.655-2.672-.246-.965-.26-1.912-.272-2.827C.011 10.572.002 9.794 0 9.002c.002-.795.011-1.574.02-2.23.013-.917.026-1.863.272-2.828.283-1.108.84-2.007 1.655-2.672C2.792.582 3.853.18 5.016.11A62.712 62.712 0 019 0a62.969 62.969 0 013.983.11c1.162.071 2.223.473 3.068 1.162.816.665 1.373 1.564 1.655 2.672.246.964.26 1.911.272 2.827.01.657.018 1.436.02 2.228v.003c-.002.792-.01 1.57-.02 2.228-.012.915-.025 1.862-.272 2.827-.282 1.108-.84 2.007-1.655 2.672-.845.69-1.906 1.09-3.068 1.162-1.214.073-2.462.11-3.807.11zm-.18-1.406a61.496 61.496 0 003.901-.107c.88-.053 1.641-.339 2.266-.848.577-.47.974-1.12 1.18-1.93.206-.803.217-1.665.229-2.499.009-.652.018-1.425.02-2.21-.002-.784-.011-1.557-.02-2.21-.012-.833-.023-1.696-.228-2.499-.207-.81-.604-1.459-1.181-1.93-.625-.508-1.387-.794-2.266-.847a61.449 61.449 0 00-3.897-.107 61.283 61.283 0 00-3.9.107c-.879.053-1.641.339-2.265.847-.577.471-.975 1.12-1.181 1.93-.205.803-.217 1.665-.229 2.5-.008.653-.018 1.426-.02 2.211.002.781.012 1.555.02 2.208.012.834.024 1.696.229 2.5.206.81.604 1.458 1.18 1.93.625.508 1.387.793 2.266.847 1.238.075 2.513.11 3.897.107zm-.033-3.2A4.4 4.4 0 014.57 9a4.4 4.4 0 014.394-4.394A4.4 4.4 0 0113.36 9a4.4 4.4 0 01-4.395 4.395zm0-7.382A2.992 2.992 0 005.976 9a2.992 2.992 0 002.988 2.989A2.992 2.992 0 0011.953 9a2.992 2.992 0 00-2.989-2.988zM13.851 3.2a1.055 1.055 0 100 2.109 1.055 1.055 0 000-2.11z"/>
   </symbol>
   <symbol id="phone" viewBox="0 0 20 20">
      <path stroke-width="1.5" d="M4.648 12.965a19.158 19.158 0 006.376 4.976c.932.44 2.179.962 3.568 1.052.086.003.168.007.254.007.932 0 1.681-.32 2.291-.98.004-.005.012-.012.015-.02.217-.26.465-.496.723-.745a17.4 17.4 0 00.528-.523c.797-.828.797-1.88-.008-2.681l-2.25-2.242c-.382-.395-.838-.604-1.318-.604-.479 0-.94.209-1.332.6l-1.34 1.335c-.124-.07-.252-.134-.371-.194a4.646 4.646 0 01-.412-.223c-1.22-.772-2.329-1.78-3.389-3.074-.535-.675-.894-1.242-1.145-1.82.352-.317.681-.649 1-.973.112-.116.228-.231.344-.347.404-.403.621-.87.621-1.343 0-.474-.213-.94-.621-1.343L7.066 2.712c-.13-.13-.254-.257-.382-.388a20.496 20.496 0 00-.76-.75C5.54 1.198 5.086 1 4.606 1c-.475 0-.932.198-1.332.578l-1.4 1.395a2.862 2.862 0 00-.858 1.835c-.071.892.094 1.839.52 2.984.656 1.772 1.644 3.417 3.112 5.173z"/>
   </symbol>
   <symbol id="amazon" viewBox="0 0 17 13">
      <g clip-path="url(#clip0_142_2748)">
         <path d="M2.78 12.769A7.346 7.346 0 011.67 9.162a7.384 7.384 0 01.815-3.692 7.01 7.01 0 012.513-2.735A6.623 6.623 0 018.5 1.73c1.232 0 2.442.348 3.5 1.006a7.01 7.01 0 012.514 2.735 7.384 7.384 0 01.816 3.692 7.347 7.347 0 01-1.112 3.607h1.914a9.194 9.194 0 00.858-4.355 9.14 9.14 0 00-1.275-4.241 8.665 8.665 0 00-3.089-3.063A8.225 8.225 0 008.5-.004 8.226 8.226 0 004.375 1.11a8.666 8.666 0 00-3.089 3.063A9.14 9.14 0 00.011 8.414a9.194 9.194 0 00.858 4.355H2.78z"/>
         <path fill="currentColor" d="M8.614 4.653c-1.245 0-2.678.613-3.456 1.26l.71 1.56C6.49 6.877 7.5 6.369 8.409 6.369c.865 0 1.341.3 1.341.909 0 .406-.316.638-.914.695-2.242.215-3.985.947-3.985 2.742 0 1.425.984 2.285 2.604 2.285.487 0 .965-.134 1.386-.39.42-.256.768-.624 1.006-1.067v1.224h2.02V7.635c0-2.12-1.413-2.976-3.253-2.976v-.006zm-.59 6.7c-.648 0-1.013-.291-1.013-.77 0-1.001 1.167-1.242 2.698-1.242 0 1.047-.672 2.013-1.686 2.013h.001z"/>
      </g>
   </symbol>
   <symbol id="arrow-next" viewBox="0 0 15 56">
      <path stroke-linecap="round" stroke-width="2" d="M1 1l10.759 24.133 1.241 2.8-1.241 2.8L1 55"/>
   </symbol>
   <symbol id="arrow-prev" viewBox="0 0 15 56">
      <path stroke-linecap="round" stroke-width="2" d="M14 55L3.241 30.867 2 28.067l1.241-2.8L14 1"/>
   </symbol>
   <symbol id="Frame1" viewBox="0 0 37 36">
      <g clip-path="url(#clip0_319_12640)">
         <path fill="currentColor" d="M34.046 25.891a.716.716 0 00-.925-.433l-7.485 2.806a.734.734 0 00-.426.939.72.72 0 00.925.432l7.485-2.805a.734.734 0 00.426-.939zM24.503 29.468a.717.717 0 00-.924-.433l-.317.119a.735.735 0 00-.426.939.72.72 0 00.924.433l.317-.12a.735.735 0 00.426-.938zM34.046 22.912a.717.717 0 00-.924-.433l-5.915 2.217a.734.734 0 00-.426.939.72.72 0 00.924.433l5.916-2.217a.734.734 0 00.425-.94zM34.046 19.965a.716.716 0 00-.924-.433l-5.915 2.217a.734.734 0 00-.426.939.72.72 0 00.924.433l5.916-2.217a.734.734 0 00.425-.94z"/>
         <path d="M36.5 6.59L19.153.088a.71.71 0 00-.498 0L1.31 6.589v.001a.733.733 0 00-.47.685V28.19c0 .306.187.58.47.686l17.346 6.5a.715.715 0 00.498 0l17.345-6.5a.73.73 0 00.47-.686V7.275a.73.73 0 00-.47-.686zM18.184 33.64L2.279 27.68V8.324l3.24 1.214v8.857c0 .306.187.58.47.686l7.773 2.913a.715.715 0 00.66-.086.734.734 0 00.309-.6V12.99l3.455 1.295-.001 19.356zM13.29 12.45v7.809l-6.333-2.374v-7.808l6.333 2.374zM8.317 9.024l5.694-2.134 5.694 2.134-5.694 2.133-5.694-2.133zm10.588 3.973l-2.823-1.058 5.95-2.23a.73.73 0 00.472-.686.73.73 0 00-.471-.686L14.26 5.423a.71.71 0 00-.498 0L6.229 8.246l-2.59-.97 15.266-5.722 15.266 5.72-15.266 5.722zM35.53 27.68l-15.905 5.96V14.286L35.53 8.324V27.68z"/>
      </g>
   </symbol>
   <symbol id="Frame2" viewBox="0 0 25 36">
      <g clip-path="url(#clip0_319_12652)">
         <path  d="M24.038.043H1.276C.911.043.614.36.614.748v33.968c0 .389.297.705.662.705h17.308a.644.644 0 00.468-.207l5.454-5.804a.73.73 0 00.195-.498V.748c0-.389-.297-.705-.663-.705zm-4.793 32.973l-.003-3.403 3.199.003-3.196 3.4zm4.13-4.809l-4.795-.005a.644.644 0 00-.469.207.73.73 0 00-.194.499l.005 5.103H1.938V1.453h21.438v26.754z"/>
         <path fill="currentColor" d="M7.4 25.47c-1.666 0-3.02 1.44-3.02 3.213 0 1.773 1.354 3.214 3.02 3.214 1.665 0 3.02-1.441 3.02-3.214 0-1.772-1.355-3.213-3.02-3.213zm0 5.018c-.936 0-1.697-.81-1.697-1.805 0-.995.76-1.804 1.696-1.804.936 0 1.696.81 1.696 1.804 0 .995-.76 1.805-1.696 1.805z"/>
         <path d="M16.034 28.092H12.39c-.365 0-.662.315-.662.705 0 .389.297.704.662.704h3.643c.366 0 .662-.316.662-.704 0-.39-.296-.705-.662-.705zM7.16 4.271H5.24c-.366 0-.662.316-.662.705 0 .39.296.705.662.705h1.92c.366 0 .663-.316.663-.705 0-.389-.297-.705-.663-.705z"/>
         <path fill="currentColor" d="M20.34 4.271h-5.762c-.366 0-.662.316-.662.705 0 .39.296.705.662.705h5.761c.366 0 .662-.316.662-.705 0-.389-.296-.705-.662-.705zM20.34 7.302h-9.802c-.366 0-.663.316-.663.705 0 .389.297.705.663.705h9.801c.366 0 .662-.316.662-.705 0-.39-.296-.705-.662-.705z"/>
         <path d="M20.372 12.869H4.942c-.365 0-.662.316-.662.705 0 .389.297.705.662.705h15.43c.366 0 .663-.316.663-.705 0-.39-.297-.705-.663-.705zM20.372 15.265H4.942c-.365 0-.662.316-.662.705 0 .39.297.705.662.705h15.43c.366 0 .663-.316.663-.705 0-.389-.297-.705-.663-.705zM20.372 17.873H4.942c-.365 0-.662.316-.662.705 0 .389.297.705.662.705h15.43c.366 0 .663-.316.663-.705 0-.39-.297-.705-.663-.705zM20.372 20.27h-.364c-.366 0-.662.315-.662.704 0 .39.296.705.662.705h.364c.366 0 .663-.316.663-.705 0-.39-.297-.705-.663-.705zM17.69 20.27H4.942c-.365 0-.662.315-.662.704 0 .39.297.705.662.705h12.749c.365 0 .662-.316.662-.705 0-.39-.298-.705-.663-.705z"/>
      </g>
   </symbol>
   <symbol id="Frame3" viewBox="0 0 36 36">
      <g clip-path="url(#clip0_319_12660)">
         <path fill="currentColor" d="M34.863 3.264l-2.14-2.126C31.326-.248 28.973-.33 27.478.958l-3.762 3.239a.61.61 0 00-.122.144L19.933 10.4l-2.352.779a.596.596 0 00-.237.994l6.409 6.363a.605.605 0 001-.235l.784-2.336 6.189-3.712a.598.598 0 00.145-.122l3.183-3.664c1.29-1.482 1.204-3.816-.191-5.202zm-.722 4.42l-3.12 3.591-6.298 3.777a.6.6 0 00-.261.324L23.916 17l-1.444-1.434-2.137-2.122-1.445-1.435 1.636-.542a.604.604 0 00.327-.26l3.728-6.167 3.69-3.175c1.025-.884 2.64-.83 3.597.121l2.14 2.126c.959.952 1.018 2.554.133 3.571z"/>
         <path d="M33.15 24.152a6.68 6.68 0 00-6.75-1.611L13.56 9.789a6.572 6.572 0 00-1.622-6.704A6.68 6.68 0 004.81 1.606a.6.6 0 00-.207.984l3.844 3.816-2.563 2.546L2.04 5.134a.607.607 0 00-.99.206 6.571 6.571 0 001.49 7.079 6.681 6.681 0 006.75 1.612l4.8 4.769-5.979 5.938-3.803 2.111a.602.602 0 00-.245.256l-1.709 3.394a.596.596 0 00.114.692l2.135 2.122a.605.605 0 00.698.112l3.417-1.697a.603.603 0 00.257-.244l2.127-3.777 5.979-5.938 5.048 5.014a6.57 6.57 0 001.623 6.704 6.671 6.671 0 004.703 1.934 6.69 6.69 0 002.425-.456.6.6 0 00.207-.983l-3.843-3.817 2.563-2.545 3.843 3.817a.607.607 0 00.99-.206 6.572 6.572 0 00-1.49-7.079zm-22.962 2.765a.596.596 0 00-.1.131l-2.076 3.689-2.862 1.421-1.52-1.51 1.431-2.842 3.714-2.062a.582.582 0 00.132-.099l6.038-5.997 1.282 1.273-6.039 5.996zm23.597 2.957l-3.551-3.527a.607.607 0 00-.855 0l-3.417 3.394a.598.598 0 000 .849l3.552 3.527a5.467 5.467 0 01-4.907-1.479 5.377 5.377 0 01-1.218-5.792.597.597 0 00-.135-.643L9.874 12.914a.606.606 0 00-.648-.134 5.468 5.468 0 01-5.832-1.21 5.378 5.378 0 01-1.49-4.873l3.552 3.527a.607.607 0 00.855 0L9.728 6.83a.597.597 0 000-.849L6.176 2.454a5.465 5.465 0 014.907 1.479 5.376 5.376 0 011.219 5.792.597.597 0 00.135.643l13.38 13.29c.17.168.424.22.647.133a5.468 5.468 0 015.833 1.21 5.382 5.382 0 011.489 4.873z"/>
      </g>
   </symbol>
   <symbol id="Frame4" viewBox="0 0 33 36">
      <path d="M3 5h20.482a6.5 6.5 0 016.5 6.5v0a6.5 6.5 0 01-6.5 6.5H9.5A6.5 6.5 0 003 24.5v0A6.5 6.5 0 009.5 31H31"/>
      <circle fill="currentColor" cx="4.5" cy="4.5" r="4"/>
      <circle fill="currentColor" cx="28.5" cy="31.5" r="4"/>
   </symbol>
</svg>