<svg xmlns="http://www.w3.org/2000/svg" xmlns:xlink="http://www.w3.org/1999/xlink">
   <defs>
      <clipPath id="clip0_1170_7142">
         <path d="M0 0h20v20H0z"/>
      </clipPath>
      <clipPath id="clip0_1170_7144">
         <path d="M0 0h20v20H0z"/>
      </clipPath>
   </defs>
   <symbol id="arrow-drop" viewBox="0 0 12 8">
      <path stroke-linecap="round" stroke-width="1.5" d="M11 1L6 6 1 1"/>
   </symbol>
   <symbol id="arrow-next" viewBox="0 0 11 18">
      <path stroke-linecap="round" stroke-width="1.5" d="M1 1l8 8-8 8"/>
   </symbol>
   <symbol id="Calculator" viewBox="0 0 20 20">
      <path d="M15.2 20h-10c-1.7 0-3-1.3-3-3V3c0-1.7 1.3-3 3-3h10c1.7 0 3 1.3 3 3v14c0 1.6-1.3 3-3 3zM5.2 1.5c-.8 0-1.5.7-1.5 1.5v14c0 .8.7 1.5 1.5 1.5h10c.8 0 1.5-.7 1.5-1.5V3c0-.8-.7-1.5-1.5-1.5h-10z"/>
      <path d="M13 8H7.4C5.9 8 4.6 6.7 4.6 5.2c0-1.5 1.3-2.8 2.8-2.8H13c1.5 0 2.8 1.3 2.8 2.8C15.8 6.7 14.6 8 13 8zM7.4 3.9c-.7 0-1.3.6-1.3 1.3 0 .7.6 1.3 1.3 1.3H13c.7 0 1.3-.6 1.3-1.3 0-.7-.6-1.3-1.3-1.3H7.4zM7 10.4c0 .4-.4.8-.8.8s-.8-.4-.8-.8.4-.8.8-.8c.5 0 .8.3.8.8zM7 13.6c0 .4-.4.8-.8.8s-.8-.4-.8-.8.4-.8.8-.8c.5 0 .8.3.8.8zM7 16.8c0 .4-.4.8-.8.8s-.8-.4-.8-.8.4-.8.8-.8c.5 0 .8.3.8.8zM11 10.4c0 .4-.4.8-.8.8s-.8-.4-.8-.8.4-.8.8-.8c.5 0 .8.3.8.8zM11 13.6c0 .4-.4.8-.8.8s-.8-.4-.8-.8.4-.8.8-.8c.5 0 .8.3.8.8zM11 16.8c0 .4-.4.8-.8.8s-.8-.4-.8-.8.4-.8.8-.8.8.3.8.8zM15 10.4c0 .4-.4.8-.8.8s-.8-.4-.8-.8.4-.8.8-.8c.5 0 .8.3.8.8zM15 13.6c0 .4-.4.8-.8.8s-.8-.4-.8-.8.4-.8.8-.8c.5 0 .8.3.8.8zM15 16.8c0 .4-.4.8-.8.8s-.8-.4-.8-.8.4-.8.8-.8c.5 0 .8.3.8.8z"/>
   </symbol>
   <symbol id="file" viewBox="0 0 20 20">
      <path d="M5.9 4.4h4.5c.3 0 .6-.3.6-.7 0-.4-.3-.7-.7-.7H5.9c-.4 0-.7.3-.7.7 0 .4.3.7.7.7zM5.9 8.1h4.5c.3 0 .7-.3.6-.7 0-.4-.3-.7-.7-.7H5.9c-.4 0-.7.3-.7.7 0 .4.3.7.7.7zM5.2 11.1c0 .4.3.7.7.7h8.9c.4 0 .7-.3.7-.7 0-.4-.3-.7-.7-.7H5.9c-.4 0-.7.3-.7.7zM14.8 14.2H5.9c-.4 0-.7.3-.7.7 0 .4.3.7.7.7h8.9c.4 0 .7-.3.7-.7 0-.4-.3-.7-.7-.7z"/>
      <path d="M18.3 7.4l-5.2-7-.2-.3H2.3V20h16.2V7.7l-.2-.3zm-5-4.4l3.1 4.1h-3.1V3zm3.8 15.6H3.6V1.5h8.3v7h5.2v10.1z"/>
   </symbol>
   <symbol id="location" viewBox="0 0 20 20">
      <path d="M16.1 16.3c-.4-1.1-1.7-1.9-3.6-2.2l2.9-4.6v-.1c.6-1 .9-2.1.9-3.2 0-3.4-2.8-6.2-6.2-6.2-3.4 0-6.2 2.8-6.2 6.2 0 1.1.3 2.3.9 3.1L7.6 14c-2.3.6-3.7 1.6-3.7 2.9 0 1.8 2.7 3.1 6.2 3.1s6.2-1.3 6.2-3v-.2c0-.1 0-.2-.1-.3 0 0 0-.1-.1-.2zm-7.6-.8l1 1.5c.1.3.4.4.7.4.3 0 .6-.2.7-.4l.9-1.5c2.1.3 3 1.1 3 1.4 0 .4-1.6 1.5-4.6 1.5-3 0-4.6-1.1-4.6-1.5-.1-.4.9-1.2 2.9-1.4zm1.6-13.9c2.5 0 4.6 2.1 4.6 4.6 0 .8-.3 1.7-.5 2.4l-4 6.4-3.8-6.4c-.5-.8-.8-1.6-.8-2.4 0-2.6 2-4.6 4.5-4.6z"/>
      <path d="M10.1 8.8c1.4 0 2.6-1.2 2.6-2.6 0-1.4-1.2-2.6-2.6-2.6-1.4 0-2.5 1.2-2.5 2.6 0 1.4 1.1 2.6 2.5 2.6zm0-3.5c.6 0 .9.5.9.9s-.4.9-.9.9-.9-.5-.9-.9c0-.5.4-.9.9-.9z"/>
   </symbol>
   <symbol id="Phone" viewBox="0 0 20 20">
      <g clip-path="url(#clip0_1170_7142)">
         <path d="M19 14.2c-.9-.9-3.2-2.5-4.8-2.5-.4 0-.8.1-1 .3-.5.3-1.2.8-1.5.8-.1 0-.3-.2-.5-.4l-.1-.1c-1-.9-1.2-1.1-1.6-1.5l-.3-.3c-.3-.3-.6-.6-1.4-1.5l-.1-.1c-.3-.3-.6-.7-.6-.8 0-.1.2-.5.6-1.1.7-.9.7-2 .1-3.2-.4-1-1.2-1.9-1.8-2.6l-.1-.1C5.3.4 4.7 0 3.9 0 3 0 2.3.4 2 .7h-.1C1.1 1.3.5 2 .2 2.7c-.3 1.1-.6 2.5 1 5.3 1.3 2.4 2.5 4 4.4 6 1.8 1.8 2.6 2.4 4.4 3.7 2 1.5 3.9 2.3 5.3 2.3 1.2 0 2.3 0 3.8-1.7 1.5-1.9.8-3.1-.1-4.1zM2.6 1.9c.4-.2.8-.5 1.3-.5.4 0 .7.2 1 .6l.1.1c1.3 1.7 2.4 3.1 1.7 4.1-.7.8-1 1.4-1 2 .1.6.5 1.1 1 1.7.9 1 1.2 1.3 1.5 1.6l.3.3c.4.5.7.7 1.7 1.6l.1.1c.4.4.8.7 1.4.7.6 0 1.1-.3 2.2-1 .1 0 .2-.1.3-.1 1.1 0 3.1 1.3 3.8 2.1.6.6.9 1 0 2.1-1 1.3-1.6 1.3-2.7 1.3s-2.8-.8-4.5-2c-1.7-1.2-2.5-1.8-4.2-3.6-1.8-1.8-2.9-3.4-4.2-5.7C1.1 5 1.3 4 1.5 3.1c.2-.4.6-.8 1.1-1.2z"/>
      </g>
   </symbol>
   <symbol id="Search" viewBox="0 0 20 20">
      <g clip-path="url(#clip0_1170_7144)">
         <path d="M20 18.953l-7.333-7.238c1.047-1.238 1.619-2.762 1.619-4.476 0-3.905-3.238-7.143-7.143-7.143S0 3.239 0 7.239s3.238 7.142 7.143 7.142c1.714 0 3.238-.571 4.476-1.619L18.952 20 20 18.953zM7.143 12.858c-3.143 0-5.714-2.572-5.714-5.715S4 1.43 7.143 1.43c3.143 0 5.714 2.571 5.714 5.714 0 3.143-2.571 5.715-5.714 5.715z"/>
      </g>
   </symbol>
   <symbol id="Time" viewBox="0 0 20 20">
      <path d="M10 20C4.526 20 0 15.474 0 10S4.526 0 10 0s10 4.526 10 10-4.526 10-10 10zm0-18.632c-4.737 0-8.526 3.895-8.526 8.632A8.49 8.49 0 0010 18.526c4.737 0 8.526-3.894 8.526-8.526S14.736 1.368 10 1.368zm2.316 12.106c-.21 0-.316-.106-.527-.21l-2.526-2.527V5.368A.72.72 0 0110 4.632a.72.72 0 01.737.736v4.842l2.105 2.106c.316.316.316.737 0 1.052-.105.106-.316.106-.526.106z"/>
   </symbol>
   <symbol id="User" viewBox="0 0 20 20">
      <path d="M10 20c-2.7 0-5.3-1.1-7.2-3l-.4-.4.2-.5c1.3-2.8 4.2-4.5 7.3-4.5 3.1 0 6 1.8 7.3 4.5l.2.5-.2.4c-1.9 1.9-4.5 3-7.2 3zm-5.7-3.7c1.5 1.4 3.6 2.2 5.7 2.2s4.2-.8 5.7-2.2c-1.1-2-3.3-3.2-5.7-3.2-2.4 0-4.6 1.2-5.7 3.2zm5.7-5.5c-3.1 0-5.6-2.4-5.6-5.4C4.4 2.4 6.9 0 10 0c3.1 0 5.6 2.4 5.6 5.4 0 3-2.5 5.4-5.6 5.4zm0-9.3c-2.3 0-4.1 1.7-4.1 3.9S7.7 9.3 10 9.3s4.1-1.7 4.1-3.9-1.8-3.9-4.1-3.9z"/>
   </symbol>
</svg>