<svg xmlns="http://www.w3.org/2000/svg" xmlns:xlink="http://www.w3.org/1999/xlink">
   <defs>
      <clipPath id="a">
         <path d="M168.622 499.508h-2.032l1.945-2.456v-1.075h-4.186v1.354h1.9l-1.945 2.456v1.074h4.317z" transform="translate(-164.305 -495.978)"/>
      </clipPath>
      <clipPath id="b">
         <path d="M208.626 499.034h2.006v-1.256h-2.006v-.53h2.224v-1.27h-3.968v4.884h4.012v-1.284h-2.268z" data-name="SVGID" transform="translate(-206.882 -495.978)"/>
      </clipPath>
      <clipPath id="c">
         <path d="M247.858 495.978v4.884h3.75v-1.354H249.6v-3.53z" data-name="SVGID" transform="translate(-247.858 -495.978)"/>
      </clipPath>
      <clipPath id="d">
         <path d="M292 500.862v-4.884h-1.744l-1.439 1.989-1.439-1.989h-1.744v4.884h1.744v-2.379l1.361 1.828h.157l1.361-1.828v2.379z" data-name="SVGID" transform="translate(-285.633 -495.978)"/>
      </clipPath>
      <clipPath id="e">
         <path d="M343.419 500.234h1.762l.209.628h1.875l-1.945-4.884h-2.04l-1.945 4.884h1.875zm.881-2.616l.506 1.5h-1.012z" data-name="SVGID" transform="translate(-341.335 -495.978)"/>
      </clipPath>
      <clipPath id="f">
         <path d="M397.15 498.211l-1.919-2.233h-1.4v4.884h1.744v-2.233l1.919 2.233h1.4v-4.884h-1.744z" data-name="SVGID" transform="translate(-393.836 -495.978)"/>
      </clipPath>
      <clipPath id="g">
         <path d="M164.3 542.511h1.052v3.1h.343v-3.1h1.052v-.323H164.3z" data-name="SVGID" transform="translate(-164.305 -542.188)"/>
      </clipPath>
      <clipPath id="h">
         <path d="M189.8 544.048h1.517v-.323H189.8v-1.214h1.64v-.323h-1.982v3.426h2.007v-.323H189.8z" data-name="SVGID" transform="translate(-189.455 -542.188)"/>
      </clipPath>
      <clipPath id="i">
         <path d="M210.983 542.27a1.787 1.787 0 002.161 2.8 1.569 1.569 0 00.609-.617l-.3-.171a1.215 1.215 0 01-.48.5 1.361 1.361 0 01-.7.186 1.439 1.439 0 110-2.878 1.362 1.362 0 01.7.186 1.218 1.218 0 01.48.5l.3-.176a1.593 1.593 0 00-.612-.614 1.717 1.717 0 00-.871-.228 1.735 1.735 0 00-1.287.514" data-name="SVGID" transform="translate(-210.474 -541.756)"/>
      </clipPath>
      <clipPath id="j">
         <path d="M244.473 542.188v1.5h-1.86v-1.5h-.343v3.426h.343v-1.6h1.86v1.6h.343v-3.426z" data-name="SVGID" transform="translate(-242.271 -542.188)"/>
      </clipPath>
      <clipPath id="k">
         <path d="M272.5 542.188v2.79l-1.909-2.79h-.291v3.426h.343v-2.79l1.909 2.79h.294v-3.426z" data-name="SVGID" transform="translate(-270.296 -542.188)"/>
      </clipPath>
      <clipPath id="l">
         <path d="M297.637 544.548a1.472 1.472 0 010-2.041 1.448 1.448 0 012.036 0 1.472 1.472 0 010 2.041 1.448 1.448 0 01-2.036 0m-.24-2.276a1.79 1.79 0 101.258-.516 1.713 1.713 0 00-1.258.516" data-name="SVGID" transform="translate(-296.883 -541.756)"/>
      </clipPath>
      <clipPath id="m">
         <path d="M330.8 542.188v3.426h1.909v-.323h-1.566v-3.1z" data-name="SVGID" transform="translate(-330.8 -542.188)"/>
      </clipPath>
      <clipPath id="n">
         <path d="M349.518 544.548a1.472 1.472 0 010-2.041 1.447 1.447 0 012.036 0 1.472 1.472 0 010 2.041 1.448 1.448 0 01-2.036 0m-.24-2.276a1.79 1.79 0 101.258-.516 1.713 1.713 0 00-1.258.516" data-name="SVGID" transform="translate(-348.764 -541.756)"/>
      </clipPath>
      <clipPath id="o">
         <path d="M381.754 542.27a1.772 1.772 0 001.287 3.029 1.682 1.682 0 001.219-.438 1.432 1.432 0 00.455-1.074v-.176H383v.323h1.361a1.088 1.088 0 01-.4.742 1.46 1.46 0 01-2.379-1.148 1.406 1.406 0 011.454-1.439 1.362 1.362 0 01.7.186 1.217 1.217 0 01.48.5l.3-.176a1.62 1.62 0 00-.612-.612 1.707 1.707 0 00-.871-.23 1.735 1.735 0 00-1.287.514" data-name="SVGID" transform="translate(-381.245 -541.756)"/>
      </clipPath>
      <clipPath id="p">
         <path d="M412.74 542.188l-1.018 1.679-1.023-1.679h-.387l1.233 2.012v1.414h.342v-1.4l1.238-2.021z" data-name="SVGID" transform="translate(-410.312 -542.188)"/>
      </clipPath>
      <clipPath id="q">
         <path d="M290.949 357.453l-3.178 4.541h19.506v-4.541z" data-name="SVGID" transform="translate(-287.771 -357.453)"/>
      </clipPath>
      <clipPath id="r">
         <path d="M349.29 274.121l-3.179 4.54h11.559v-4.54z" data-name="SVGID" transform="translate(-346.111 -274.121)"/>
      </clipPath>
      <clipPath id="s">
         <path d="M341.971 274.121l-3.179 4.54h.665l3.18-4.54z" data-name="SVGID" transform="translate(-338.792 -274.121)"/>
      </clipPath>
      <clipPath id="t">
         <path d="M334.649 274.121l-3.178 4.54h.664l3.179-4.54z" data-name="SVGID" transform="translate(-331.471 -274.121)"/>
      </clipPath>
      <clipPath id="u">
         <path d="M327.324 274.121l-3.179 4.54h.665l3.179-4.54z" data-name="SVGID" transform="translate(-324.145 -274.121)"/>
      </clipPath>
      <clipPath id="v">
         <path d="M167.512 274.121l3.179 4.54h12.28L172.162 294.1h5.543l13.989-19.978z" data-name="SVGID" transform="translate(-167.512 -274.121)"/>
      </clipPath>
      <clipPath id="w">
         <path d="M167.484 440.787l-3.179 4.54h36.324v-4.54z" data-name="SVGID" transform="translate(-164.305 -440.787)"/>
      </clipPath>
      <clipPath id="x">
         <path d="M197.827 422.787l-.382.545h5.543l.382-.545z" data-name="SVGID" transform="translate(-197.445 -422.787)"/>
      </clipPath>
      <clipPath id="y">
         <path d="M193.625 428.786l-.381.545h5.543l.381-.545z" data-name="SVGID" transform="translate(-193.244 -428.786)"/>
      </clipPath>
      <clipPath id="z">
         <path d="M189.426 434.787l-.381.545h5.543l.381-.545z" data-name="SVGID" transform="translate(-189.045 -434.787)"/>
      </clipPath>
   </defs>
   <symbol id="arrow-open" viewBox="0 0 13.061 7.591">
      <path stroke-width="1.5" d="M12.53.53l-6 6-6-6"/>
   </symbol>
   <symbol id="cart" viewBox="0 0 24 24">
      <g transform="translate(-148 -530)">
         <path d="M169.342 547.855h-12.591l-.394-1.486h7.923a4.873 4.873 0 004.523-3.079l3.2-7.9h-18.561l-.385-1.45a5.264 5.264 0 00-5.06-3.937v1.515a3.766 3.766 0 013.619 2.816l3.988 15.038h13.738zm.427-10.951l-2.35 5.81a3.385 3.385 0 01-3.142 2.14h-8.325l-2.108-7.95z" data-name="&#x41A;&#x43E;&#x43D;&#x442;&#x443;&#x440; 33"/>
         <ellipse cx="1.493" cy="1.516" data-name="&#x42D;&#x43B;&#x43B;&#x438;&#x43F;&#x441; 4" rx="1.493" ry="1.516" transform="translate(166.36 550.968)"/>
         <ellipse cx="1.493" cy="1.516" data-name="&#x42D;&#x43B;&#x43B;&#x438;&#x43F;&#x441; 5" rx="1.493" ry="1.516" transform="translate(156.185 550.968)"/>
      </g>
   </symbol>
   <symbol id="catalog" viewBox="0 0 24 18">
      <path d="M7.278 0H24v1.5H7.278z" data-name="&#x41F;&#x440;&#x44F;&#x43C;&#x43E;&#x443;&#x433;&#x43E;&#x43B;&#x44C;&#x43D;&#x438;&#x43A; 31"/>
      <path d="M7.278 8.249H24v1.5H7.278z" data-name="&#x41F;&#x440;&#x44F;&#x43C;&#x43E;&#x443;&#x433;&#x43E;&#x43B;&#x44C;&#x43D;&#x438;&#x43A; 32"/>
      <path d="M7.278 16.5H24V18H7.278z" data-name="&#x41F;&#x440;&#x44F;&#x43C;&#x43E;&#x443;&#x433;&#x43E;&#x43B;&#x44C;&#x43D;&#x438;&#x43A; 33"/>
      <path d="M0 0h4.911v1.5H0z" data-name="&#x41F;&#x440;&#x44F;&#x43C;&#x43E;&#x443;&#x433;&#x43E;&#x43B;&#x44C;&#x43D;&#x438;&#x43A; 35"/>
      <path d="M0 8.249h4.911v1.5H0z" data-name="&#x41F;&#x440;&#x44F;&#x43C;&#x43E;&#x443;&#x433;&#x43E;&#x43B;&#x44C;&#x43D;&#x438;&#x43A; 36"/>
      <path d="M0 16.5h4.911V18H0z" data-name="&#x41F;&#x440;&#x44F;&#x43C;&#x43E;&#x443;&#x433;&#x43E;&#x43B;&#x44C;&#x43D;&#x438;&#x43A; 37"/>
   </symbol>
   <symbol id="Facebook" viewBox="0 0 8.309 18">
      <path d="M1.886 18H5.51V8.923h2.529l.27-3.039h-2.8V4.152c0-.716.144-1 .837-1h1.962V-.002h-2.51c-2.7 0-3.913 1.188-3.913 3.462v2.423H-.001V8.96h1.886z"/>
   </symbol>
   <symbol id="Instagram" viewBox="0 0 18 18">
      <path d="M9 1.621c2.4 0 2.688.009 3.637.053a4.955 4.955 0 011.671.31 2.79 2.79 0 011.035.673 2.789 2.789 0 01.674 1.035 4.992 4.992 0 01.309 1.672c.043.949.053 1.233.053 3.637s-.009 2.687-.053 3.636a4.992 4.992 0 01-.309 1.672 2.781 2.781 0 01-.674 1.035 2.79 2.79 0 01-1.035.673 4.955 4.955 0 01-1.671.31c-.949.043-1.233.053-3.637.053s-2.688-.009-3.637-.053a4.955 4.955 0 01-1.671-.31 2.79 2.79 0 01-1.035-.673 2.793 2.793 0 01-.674-1.035 4.992 4.992 0 01-.309-1.672c-.043-.949-.053-1.233-.053-3.636s.009-2.688.053-3.637a4.992 4.992 0 01.309-1.672 2.8 2.8 0 01.674-1.035 2.79 2.79 0 011.035-.673 4.955 4.955 0 011.671-.31c.949-.043 1.234-.053 3.637-.053M9 0C6.556 0 6.249.01 5.289.054a6.651 6.651 0 00-2.185.418A4.432 4.432 0 001.51 1.51 4.409 4.409 0 00.472 3.104a6.6 6.6 0 00-.418 2.185C.01 6.249 0 6.555 0 9s.01 2.751.054 3.711a6.6 6.6 0 00.418 2.184 4.41 4.41 0 001.038 1.594 4.42 4.42 0 001.594 1.038 6.6 6.6 0 002.185.418c.96.043 1.266.054 3.711.054s2.751-.011 3.711-.054a6.592 6.592 0 002.184-.418 4.415 4.415 0 001.6-1.038 4.41 4.41 0 001.038-1.594 6.6 6.6 0 00.418-2.184c.044-.96.054-1.266.054-3.711s-.01-2.751-.054-3.711a6.6 6.6 0 00-.418-2.185 4.41 4.41 0 00-1.038-1.594 4.428 4.428 0 00-1.6-1.038 6.64 6.64 0 00-2.184-.418C11.751.011 11.445 0 9 0" data-name="&#x41A;&#x43E;&#x43D;&#x442;&#x443;&#x440; 298"/>
      <path d="M9 4.378A4.622 4.622 0 004.378 9 4.621 4.621 0 009 13.621 4.621 4.621 0 0013.622 9 4.622 4.622 0 009 4.378M9 12a3 3 0 01-3-3 3 3 0 013-3 3 3 0 013 3 3 3 0 01-3 3" data-name="&#x41A;&#x43E;&#x43D;&#x442;&#x443;&#x440; 299"/>
      <path d="M14.885 4.195a1.08 1.08 0 01-1.08 1.08 1.08 1.08 0 01-1.08-1.08 1.08 1.08 0 011.08-1.08 1.08 1.08 0 011.08 1.08" data-name="&#x41A;&#x43E;&#x43D;&#x442;&#x443;&#x440; 300"/>
   </symbol>
   <symbol id="key" viewBox="0 0 24 13.49">
      <g transform="translate(-18 -23)">
         <circle cx="1.404" cy="1.404" r="1.404" data-name="&#x42D;&#x43B;&#x43B;&#x438;&#x43F;&#x441; 6" transform="translate(23.286 28.332)"/>
         <path d="M38.199 26.937h-7.327A6.765 6.765 0 0024.745 23 6.753 6.753 0 0018 29.745a6.753 6.753 0 006.745 6.745 6.767 6.767 0 006.127-3.937H42v-3.091zm2.269 4.084H29.823l-.184.5a5.228 5.228 0 01-4.894 3.434 5.219 5.219 0 01-5.213-5.213 5.219 5.219 0 015.213-5.213 5.226 5.226 0 014.894 3.433l.184.5h7.913l2.732 1.815z" data-name="&#x41A;&#x43E;&#x43D;&#x442;&#x443;&#x440; 35"/>
      </g>
   </symbol>
   <symbol id="LinkedIn" viewBox="0 0 17.992 18">
      <g data-name="&#x421;&#x433;&#x440;&#x443;&#x43F;&#x43F;&#x438;&#x440;&#x43E;&#x432;&#x430;&#x442;&#x44C; 16">
         <path d="M.357 6h3.715v12H.357z" data-name="&#x41F;&#x440;&#x44F;&#x43C;&#x43E;&#x443;&#x433;&#x43E;&#x43B;&#x44C;&#x43D;&#x438;&#x43A; 45"/>
         <path d="M2.196 4.428a2.214 2.214 0 10-2.2-2.215 2.206 2.206 0 002.2 2.215z" data-name="&#x41A;&#x43E;&#x43D;&#x442;&#x443;&#x440; 301"/>
      </g>
      <path d="M10.009 11.7c0-1.686.777-2.692 2.264-2.692 1.365 0 2.022.965 2.022 2.692V18h3.7v-7.6c0-3.214-1.822-4.768-4.366-4.768a4.184 4.184 0 00-3.616 1.983V5.998H6.45v12h3.563z" data-name="&#x41A;&#x43E;&#x43D;&#x442;&#x443;&#x440; 302"/>
   </symbol>
   <symbol id="Logo" viewBox="0 0 36.324 40">
      <g data-name="&#x421;&#x433;&#x440;&#x443;&#x43F;&#x43F;&#x438;&#x440;&#x43E;&#x432;&#x430;&#x442;&#x44C; 81">
         <g clip-path="url(#a)" data-name="&#x421;&#x433;&#x440;&#x443;&#x43F;&#x43F;&#x438;&#x440;&#x43E;&#x432;&#x430;&#x442;&#x44C; 80" transform="translate(0 30.221)">
            <path d="M0 0h4.317v4.884H0z" data-name="&#x41F;&#x440;&#x44F;&#x43C;&#x43E;&#x443;&#x433;&#x43E;&#x43B;&#x44C;&#x43D;&#x438;&#x43A; 157"/>
         </g>
      </g>
      <g data-name="&#x421;&#x433;&#x440;&#x443;&#x43F;&#x43F;&#x438;&#x440;&#x43E;&#x432;&#x430;&#x442;&#x44C; 83">
         <g clip-path="url(#b)" data-name="&#x421;&#x433;&#x440;&#x443;&#x43F;&#x43F;&#x438;&#x440;&#x43E;&#x432;&#x430;&#x442;&#x44C; 82" transform="translate(5.8 30.221)">
            <path d="M0 0h4.012v4.884H0z" data-name="&#x41F;&#x440;&#x44F;&#x43C;&#x43E;&#x443;&#x433;&#x43E;&#x43B;&#x44C;&#x43D;&#x438;&#x43A; 158"/>
         </g>
      </g>
      <g data-name="&#x421;&#x433;&#x440;&#x443;&#x43F;&#x43F;&#x438;&#x440;&#x43E;&#x432;&#x430;&#x442;&#x44C; 85">
         <g clip-path="url(#c)" data-name="&#x421;&#x433;&#x440;&#x443;&#x43F;&#x43F;&#x438;&#x440;&#x43E;&#x432;&#x430;&#x442;&#x44C; 84" transform="translate(11.381 30.221)">
            <path d="M0 0h3.75v4.884H0z" data-name="&#x41F;&#x440;&#x44F;&#x43C;&#x43E;&#x443;&#x433;&#x43E;&#x43B;&#x44C;&#x43D;&#x438;&#x43A; 159"/>
         </g>
      </g>
      <g data-name="&#x421;&#x433;&#x440;&#x443;&#x43F;&#x43F;&#x438;&#x440;&#x43E;&#x432;&#x430;&#x442;&#x44C; 87">
         <g clip-path="url(#d)" data-name="&#x421;&#x433;&#x440;&#x443;&#x43F;&#x43F;&#x438;&#x440;&#x43E;&#x432;&#x430;&#x442;&#x44C; 86" transform="translate(16.527 30.221)">
            <path d="M0 0h6.367v4.884H0z" data-name="&#x41F;&#x440;&#x44F;&#x43C;&#x43E;&#x443;&#x433;&#x43E;&#x43B;&#x44C;&#x43D;&#x438;&#x43A; 160"/>
         </g>
      </g>
      <g data-name="&#x421;&#x433;&#x440;&#x443;&#x43F;&#x43F;&#x438;&#x440;&#x43E;&#x432;&#x430;&#x442;&#x44C; 89">
         <g clip-path="url(#e)" data-name="&#x421;&#x433;&#x440;&#x443;&#x43F;&#x43F;&#x438;&#x440;&#x43E;&#x432;&#x430;&#x442;&#x44C; 88" transform="translate(24.115 30.221)">
            <path d="M0 0h5.931v4.884H0z" data-name="&#x41F;&#x440;&#x44F;&#x43C;&#x43E;&#x443;&#x433;&#x43E;&#x43B;&#x44C;&#x43D;&#x438;&#x43A; 161"/>
         </g>
      </g>
      <g data-name="&#x421;&#x433;&#x440;&#x443;&#x43F;&#x43F;&#x438;&#x440;&#x43E;&#x432;&#x430;&#x442;&#x44C; 91">
         <g clip-path="url(#f)" data-name="&#x421;&#x433;&#x440;&#x443;&#x43F;&#x43F;&#x438;&#x440;&#x43E;&#x432;&#x430;&#x442;&#x44C; 90" transform="translate(31.266 30.221)">
            <path d="M0 0h5.058v4.884H0z" data-name="&#x41F;&#x440;&#x44F;&#x43C;&#x43E;&#x443;&#x433;&#x43E;&#x43B;&#x44C;&#x43D;&#x438;&#x43A; 162"/>
         </g>
      </g>
      <g data-name="&#x421;&#x433;&#x440;&#x443;&#x43F;&#x43F;&#x438;&#x440;&#x43E;&#x432;&#x430;&#x442;&#x44C; 93">
         <g clip-path="url(#g)" data-name="&#x421;&#x433;&#x440;&#x443;&#x43F;&#x43F;&#x438;&#x440;&#x43E;&#x432;&#x430;&#x442;&#x44C; 92" transform="translate(0 36.515)">
            <path d="M0 0h2.447v3.426H0z" data-name="&#x41F;&#x440;&#x44F;&#x43C;&#x43E;&#x443;&#x433;&#x43E;&#x43B;&#x44C;&#x43D;&#x438;&#x43A; 163"/>
         </g>
      </g>
      <g data-name="&#x421;&#x433;&#x440;&#x443;&#x43F;&#x43F;&#x438;&#x440;&#x43E;&#x432;&#x430;&#x442;&#x44C; 95">
         <g clip-path="url(#h)" data-name="&#x421;&#x433;&#x440;&#x443;&#x43F;&#x43F;&#x438;&#x440;&#x43E;&#x432;&#x430;&#x442;&#x44C; 94" transform="translate(3.426 36.515)">
            <path d="M0 0h2.007v3.426H0z" data-name="&#x41F;&#x440;&#x44F;&#x43C;&#x43E;&#x443;&#x433;&#x43E;&#x43B;&#x44C;&#x43D;&#x438;&#x43A; 164"/>
         </g>
      </g>
      <g data-name="&#x421;&#x433;&#x440;&#x443;&#x43F;&#x43F;&#x438;&#x440;&#x43E;&#x432;&#x430;&#x442;&#x44C; 97">
         <g clip-path="url(#i)" data-name="&#x421;&#x433;&#x440;&#x443;&#x43F;&#x43F;&#x438;&#x440;&#x43E;&#x432;&#x430;&#x442;&#x44C; 96" transform="translate(6.289 36.456)">
            <path d="M0 0h3.279v3.544H0z" data-name="&#x41F;&#x440;&#x44F;&#x43C;&#x43E;&#x443;&#x433;&#x43E;&#x43B;&#x44C;&#x43D;&#x438;&#x43A; 165"/>
         </g>
      </g>
      <g data-name="&#x421;&#x433;&#x440;&#x443;&#x43F;&#x43F;&#x438;&#x440;&#x43E;&#x432;&#x430;&#x442;&#x44C; 99">
         <g clip-path="url(#j)" data-name="&#x421;&#x433;&#x440;&#x443;&#x43F;&#x43F;&#x438;&#x440;&#x43E;&#x432;&#x430;&#x442;&#x44C; 98" transform="translate(10.62 36.515)">
            <path d="M0 0h2.545v3.426H0z" data-name="&#x41F;&#x440;&#x44F;&#x43C;&#x43E;&#x443;&#x433;&#x43E;&#x43B;&#x44C;&#x43D;&#x438;&#x43A; 166"/>
         </g>
      </g>
      <g data-name="&#x421;&#x433;&#x440;&#x443;&#x43F;&#x43F;&#x438;&#x440;&#x43E;&#x432;&#x430;&#x442;&#x44C; 101">
         <g clip-path="url(#k)" data-name="&#x421;&#x433;&#x440;&#x443;&#x43F;&#x43F;&#x438;&#x440;&#x43E;&#x432;&#x430;&#x442;&#x44C; 100" transform="translate(14.438 36.515)">
            <path d="M0 0h2.545v3.426H0z" data-name="&#x41F;&#x440;&#x44F;&#x43C;&#x43E;&#x443;&#x433;&#x43E;&#x43B;&#x44C;&#x43D;&#x438;&#x43A; 167"/>
         </g>
      </g>
      <g data-name="&#x421;&#x433;&#x440;&#x443;&#x43F;&#x43F;&#x438;&#x440;&#x43E;&#x432;&#x430;&#x442;&#x44C; 103">
         <g clip-path="url(#l)" data-name="&#x421;&#x433;&#x440;&#x443;&#x43F;&#x43F;&#x438;&#x440;&#x43E;&#x432;&#x430;&#x442;&#x44C; 102" transform="translate(18.059 36.456)">
            <path d="M0 0h3.544v3.544H0z" data-name="&#x41F;&#x440;&#x44F;&#x43C;&#x43E;&#x443;&#x433;&#x43E;&#x43B;&#x44C;&#x43D;&#x438;&#x43A; 168"/>
         </g>
      </g>
      <g data-name="&#x421;&#x433;&#x440;&#x443;&#x43F;&#x43F;&#x438;&#x440;&#x43E;&#x432;&#x430;&#x442;&#x44C; 105">
         <g clip-path="url(#m)" data-name="&#x421;&#x433;&#x440;&#x443;&#x43F;&#x43F;&#x438;&#x440;&#x43E;&#x432;&#x430;&#x442;&#x44C; 104" transform="translate(22.679 36.515)">
            <path d="M0 0h1.909v3.426H0z" data-name="&#x41F;&#x440;&#x44F;&#x43C;&#x43E;&#x443;&#x433;&#x43E;&#x43B;&#x44C;&#x43D;&#x438;&#x43A; 169"/>
         </g>
      </g>
      <g data-name="&#x421;&#x433;&#x440;&#x443;&#x43F;&#x43F;&#x438;&#x440;&#x43E;&#x432;&#x430;&#x442;&#x44C; 107">
         <g clip-path="url(#n)" data-name="&#x421;&#x433;&#x440;&#x443;&#x43F;&#x43F;&#x438;&#x440;&#x43E;&#x432;&#x430;&#x442;&#x44C; 106" transform="translate(25.126 36.456)">
            <path d="M0 0h3.544v3.544H0z" data-name="&#x41F;&#x440;&#x44F;&#x43C;&#x43E;&#x443;&#x433;&#x43E;&#x43B;&#x44C;&#x43D;&#x438;&#x43A; 170"/>
         </g>
      </g>
      <g data-name="&#x421;&#x433;&#x440;&#x443;&#x43F;&#x43F;&#x438;&#x440;&#x43E;&#x432;&#x430;&#x442;&#x44C; 109">
         <g clip-path="url(#o)" data-name="&#x421;&#x433;&#x440;&#x443;&#x43F;&#x43F;&#x438;&#x440;&#x43E;&#x432;&#x430;&#x442;&#x44C; 108" transform="translate(29.551 36.456)">
            <path d="M0 0h3.47v3.544H0z" data-name="&#x41F;&#x440;&#x44F;&#x43C;&#x43E;&#x443;&#x433;&#x43E;&#x43B;&#x44C;&#x43D;&#x438;&#x43A; 171"/>
         </g>
      </g>
      <g data-name="&#x421;&#x433;&#x440;&#x443;&#x43F;&#x43F;&#x438;&#x440;&#x43E;&#x432;&#x430;&#x442;&#x44C; 111">
         <g clip-path="url(#p)" data-name="&#x421;&#x433;&#x440;&#x443;&#x43F;&#x43F;&#x438;&#x440;&#x43E;&#x432;&#x430;&#x442;&#x44C; 110" transform="translate(33.51 36.515)">
            <path d="M0 0h2.814v3.426H0z" data-name="&#x41F;&#x440;&#x44F;&#x43C;&#x43E;&#x443;&#x433;&#x43E;&#x43B;&#x44C;&#x43D;&#x438;&#x43A; 172"/>
         </g>
      </g>
      <g data-name="&#x421;&#x433;&#x440;&#x443;&#x43F;&#x43F;&#x438;&#x440;&#x43E;&#x432;&#x430;&#x442;&#x44C; 113">
         <g clip-path="url(#q)" data-name="&#x421;&#x433;&#x440;&#x443;&#x43F;&#x43F;&#x438;&#x440;&#x43E;&#x432;&#x430;&#x442;&#x44C; 112" transform="translate(16.818 11.351)">
            <path d="M0 0h19.506v4.541H0z" data-name="&#x41F;&#x440;&#x44F;&#x43C;&#x43E;&#x443;&#x433;&#x43E;&#x43B;&#x44C;&#x43D;&#x438;&#x43A; 173"/>
         </g>
      </g>
      <g data-name="&#x421;&#x433;&#x440;&#x443;&#x43F;&#x43F;&#x438;&#x440;&#x43E;&#x432;&#x430;&#x442;&#x44C; 115">
         <g clip-path="url(#r)" data-name="&#x421;&#x433;&#x440;&#x443;&#x43F;&#x43F;&#x438;&#x440;&#x43E;&#x432;&#x430;&#x442;&#x44C; 114" transform="translate(24.765)">
            <path d="M0 0h11.559v4.541H0z" data-name="&#x41F;&#x440;&#x44F;&#x43C;&#x43E;&#x443;&#x433;&#x43E;&#x43B;&#x44C;&#x43D;&#x438;&#x43A; 174"/>
         </g>
      </g>
      <g data-name="&#x421;&#x433;&#x440;&#x443;&#x43F;&#x43F;&#x438;&#x440;&#x43E;&#x432;&#x430;&#x442;&#x44C; 117">
         <g clip-path="url(#s)" data-name="&#x421;&#x433;&#x440;&#x443;&#x43F;&#x43F;&#x438;&#x440;&#x43E;&#x432;&#x430;&#x442;&#x44C; 116" transform="translate(23.768)">
            <path d="M0 0h3.845v4.541H0z" data-name="&#x41F;&#x440;&#x44F;&#x43C;&#x43E;&#x443;&#x433;&#x43E;&#x43B;&#x44C;&#x43D;&#x438;&#x43A; 175"/>
         </g>
      </g>
      <g data-name="&#x421;&#x433;&#x440;&#x443;&#x43F;&#x43F;&#x438;&#x440;&#x43E;&#x432;&#x430;&#x442;&#x44C; 119">
         <g clip-path="url(#t)" data-name="&#x421;&#x433;&#x440;&#x443;&#x43F;&#x43F;&#x438;&#x440;&#x43E;&#x432;&#x430;&#x442;&#x44C; 118" transform="translate(22.771)">
            <path d="M0 0h3.843v4.541H0z" data-name="&#x41F;&#x440;&#x44F;&#x43C;&#x43E;&#x443;&#x433;&#x43E;&#x43B;&#x44C;&#x43D;&#x438;&#x43A; 176"/>
         </g>
      </g>
      <g data-name="&#x421;&#x433;&#x440;&#x443;&#x43F;&#x43F;&#x438;&#x440;&#x43E;&#x432;&#x430;&#x442;&#x44C; 121">
         <g clip-path="url(#u)" data-name="&#x421;&#x433;&#x440;&#x443;&#x43F;&#x43F;&#x438;&#x440;&#x43E;&#x432;&#x430;&#x442;&#x44C; 120" transform="translate(21.773)">
            <path d="M0 0h3.844v4.541H0z" data-name="&#x41F;&#x440;&#x44F;&#x43C;&#x43E;&#x443;&#x433;&#x43E;&#x43B;&#x44C;&#x43D;&#x438;&#x43A; 177"/>
         </g>
      </g>
      <g data-name="&#x421;&#x433;&#x440;&#x443;&#x43F;&#x43F;&#x438;&#x440;&#x43E;&#x432;&#x430;&#x442;&#x44C; 123">
         <g clip-path="url(#v)" data-name="&#x421;&#x433;&#x440;&#x443;&#x43F;&#x43F;&#x438;&#x440;&#x43E;&#x432;&#x430;&#x442;&#x44C; 122" transform="translate(.437)">
            <path d="M0 0h24.182v19.978H0z" data-name="&#x41F;&#x440;&#x44F;&#x43C;&#x43E;&#x443;&#x433;&#x43E;&#x43B;&#x44C;&#x43D;&#x438;&#x43A; 178"/>
         </g>
      </g>
      <g data-name="&#x421;&#x433;&#x440;&#x443;&#x43F;&#x43F;&#x438;&#x440;&#x43E;&#x432;&#x430;&#x442;&#x44C; 125">
         <g clip-path="url(#w)" data-name="&#x421;&#x433;&#x440;&#x443;&#x43F;&#x43F;&#x438;&#x440;&#x43E;&#x432;&#x430;&#x442;&#x44C; 124" transform="translate(0 22.703)">
            <path d="M0 0h36.324v4.541H0z" data-name="&#x41F;&#x440;&#x44F;&#x43C;&#x43E;&#x443;&#x433;&#x43E;&#x43B;&#x44C;&#x43D;&#x438;&#x43A; 179"/>
         </g>
      </g>
      <g data-name="&#x421;&#x433;&#x440;&#x443;&#x43F;&#x43F;&#x438;&#x440;&#x43E;&#x432;&#x430;&#x442;&#x44C; 127">
         <g clip-path="url(#x)" data-name="&#x421;&#x433;&#x440;&#x443;&#x43F;&#x43F;&#x438;&#x440;&#x43E;&#x432;&#x430;&#x442;&#x44C; 126" transform="translate(4.514 20.251)">
            <path d="M0 0h5.925v.545H0z" data-name="&#x41F;&#x440;&#x44F;&#x43C;&#x43E;&#x443;&#x433;&#x43E;&#x43B;&#x44C;&#x43D;&#x438;&#x43A; 180"/>
         </g>
      </g>
      <g data-name="&#x421;&#x433;&#x440;&#x443;&#x43F;&#x43F;&#x438;&#x440;&#x43E;&#x432;&#x430;&#x442;&#x44C; 129">
         <g clip-path="url(#y)" data-name="&#x421;&#x433;&#x440;&#x443;&#x43F;&#x43F;&#x438;&#x440;&#x43E;&#x432;&#x430;&#x442;&#x44C; 128" transform="translate(3.942 21.068)">
            <path d="M0 0h5.925v.545H0z" data-name="&#x41F;&#x440;&#x44F;&#x43C;&#x43E;&#x443;&#x433;&#x43E;&#x43B;&#x44C;&#x43D;&#x438;&#x43A; 181"/>
         </g>
      </g>
      <g data-name="&#x421;&#x433;&#x440;&#x443;&#x43F;&#x43F;&#x438;&#x440;&#x43E;&#x432;&#x430;&#x442;&#x44C; 131">
         <g clip-path="url(#z)" data-name="&#x421;&#x433;&#x440;&#x443;&#x43F;&#x43F;&#x438;&#x440;&#x43E;&#x432;&#x430;&#x442;&#x44C; 130" transform="translate(3.37 21.885)">
            <path d="M0 0h5.924v.545H0z" data-name="&#x41F;&#x440;&#x44F;&#x43C;&#x43E;&#x443;&#x433;&#x43E;&#x43B;&#x44C;&#x43D;&#x438;&#x43A; 182"/>
         </g>
      </g>
   </symbol>
   <symbol id="Mail" viewBox="0 0 22 16.5">
      <path d="M0 0v13.887A2.614 2.614 0 002.614 16.5h16.773A2.613 2.613 0 0022 13.887V0zm19.4 1.572L11 7.299 2.6 1.572zm-.014 13.357H2.614a1.043 1.043 0 01-1.042-1.042V2.773l9.429 6.428 9.428-6.428v11.114a1.044 1.044 0 01-1.042 1.042z"/>
   </symbol>
   <symbol id="Next" viewBox="0 0 9 19.182">
      <path d="M5.171 0v16.611l2.88-2.88.949.949-4.5 4.5-4.5-4.5.949-.949 2.88 2.88V-.003z"/>
   </symbol>
   <symbol id="Operator" viewBox="0 0 22.003 24">
      <g>
         <path d="M9.733 10.581a1.618 1.618 0 00-1.619-1.618 1.618 1.618 0 00-1.619 1.618A1.619 1.619 0 008.114 12.2a1.619 1.619 0 001.619-1.619z" data-name="&#x41A;&#x43E;&#x43D;&#x442;&#x443;&#x440; 37"/>
         <path d="M15.513 10.581a1.618 1.618 0 00-1.619-1.618 1.618 1.618 0 00-1.619 1.618 1.619 1.619 0 001.619 1.619 1.619 1.619 0 001.619-1.619z" data-name="&#x41A;&#x43E;&#x43D;&#x442;&#x443;&#x440; 38"/>
         <path d="M22.003 11.381a2.883 2.883 0 00-2.65-2.865v-.17a8.359 8.359 0 00-8.349-8.349 8.3 8.3 0 00-5.2 1.827h-.075c0 .018.005.035.005.052a8.335 8.335 0 00-3.08 6.47v.239a2.884 2.884 0 00-2.655 2.866 2.885 2.885 0 002.655 2.866l1.532.02V8.346a6.794 6.794 0 012.058-4.873c1.453 2.273 5.884 3.877 11.52 4.041a6.72 6.72 0 01.056.832v5.879a6.784 6.784 0 01-3.6 5.992 2.489 2.489 0 00-2.235-1.408h-1.972a2.5 2.5 0 00-2.495 2.5v.2a2.5 2.5 0 002.495 2.5h1.972a2.491 2.491 0 002.464-2.185 8.315 8.315 0 004.9-7.565 2.884 2.884 0 002.654-2.878zm-20.471 0a1.357 1.357 0 011.123-1.334v2.668a1.357 1.357 0 01-1.123-1.334zm11.421 10.12a.964.964 0 01-.963.964h-1.972a.965.965 0 01-.963-.964v-.2a.964.964 0 01.963-.964h1.972a.964.964 0 01.963.964zM7.464 2.536a6.762 6.762 0 013.543-1.005 6.822 6.822 0 016.382 4.443c-5.266-.232-9.05-1.813-9.925-3.438zm11.892 10.182v-2.667a1.357 1.357 0 011.118 1.333 1.358 1.358 0 01-1.121 1.334z" data-name="&#x41A;&#x43E;&#x43D;&#x442;&#x443;&#x440; 39"/>
      </g>
   </symbol>
   <symbol id="question" viewBox="0 0 18 18">
      <circle cx="9" cy="9" r="9" data-name="&#x42D;&#x43B;&#x43B;&#x438;&#x43F;&#x441; 56"/>
      <g data-name="&#x421;&#x433;&#x440;&#x443;&#x43F;&#x43F;&#x438;&#x440;&#x43E;&#x432;&#x430;&#x442;&#x44C; 400">
         <path d="M7.922 11.39a3.524 3.524 0 01.241-1.495 4.331 4.331 0 011.039-1.13 6.586 6.586 0 00.906-1.064 1.994 1.994 0 00.337-1.122 1.506 1.506 0 00-.384-1.1 1.463 1.463 0 00-1.093-.391 1.616 1.616 0 00-1.031.333 1.173 1.173 0 00-.425.983H5.801l-.022-.044a2.415 2.415 0 01.874-2.029 3.555 3.555 0 012.315-.727 3.425 3.425 0 012.394.782 2.79 2.79 0 01.859 2.172 3.011 3.011 0 01-.537 1.722 6.644 6.644 0 01-1.356 1.451 1.671 1.671 0 00-.523.695 3.318 3.318 0 00-.106.965zm1.806 3.013H7.915v-1.7h1.813z" data-name="&#x41A;&#x43E;&#x43D;&#x442;&#x443;&#x440; 544"/>
      </g>
   </symbol>
   <symbol id="Search" viewBox="0 0 20.002 19.998">
      <path d="M13.334 14.382l1.046-1.047 5.621 5.616-1.046 1.047z" data-name="&#x41F;&#x440;&#x44F;&#x43C;&#x43E;&#x443;&#x433;&#x43E;&#x43B;&#x44C;&#x43D;&#x438;&#x43A; 185"/>
      <path d="M14.381 13.334a8.139 8.139 0 10-1.046 1.047zm-6.246 1.453a6.655 6.655 0 116.654-6.654 6.663 6.663 0 01-6.654 6.654z" data-name="&#x41A;&#x43E;&#x43D;&#x442;&#x443;&#x440; 41"/>
   </symbol>
   <symbol id="Twitter" viewBox="0 0 18 14.629">
      <path d="M0 12.969a10.454 10.454 0 005.66 1.66 10.446 10.446 0 0010.5-10.986 7.5 7.5 0 001.842-1.912 7.375 7.375 0 01-2.121.581A3.7 3.7 0 0017.505.269a7.4 7.4 0 01-2.345.9 3.689 3.689 0 00-2.7-1.167 3.7 3.7 0 00-3.6 4.535A10.482 10.482 0 011.248.678a3.7 3.7 0 001.143 4.931 3.679 3.679 0 01-1.674-.462 3.7 3.7 0 002.962 3.668 3.7 3.7 0 01-1.667.063 3.7 3.7 0 003.45 2.565A7.424 7.424 0 010 12.969z" data-name="Twitter"/>
   </symbol>
</svg>