<svg xmlns="http://www.w3.org/2000/svg" width="274.961" height="275" viewBox="0 0 274.961 275">
  <path id="gear" d="M476.694,415.216l-2.454,1.808c-1.056-1.279-2.114-2.542-3.234-3.789l2.148-2.146a6.977,6.977,0,0,0-9.836-9.9l-2.158,2.151c-1.847-1.665-3.736-3.244-5.647-4.785l1.783-2.48a6.98,6.98,0,0,0-11.357-8.118l-1.778,2.48c-1.7-1.086-3.421-2.132-5.169-3.126l1.357-2.71a6.986,6.986,0,0,0-12.5-6.245l-1.346,2.71c-2.093-.906-4.193-1.753-6.319-2.54l.9-2.905a6.982,6.982,0,1,0-13.34-4.131h0l-.9,2.885q-3.419-.863-6.9-1.532l.416-3a6.982,6.982,0,0,0-13.832-1.9l-.407,3.032c-1.04-.085-2.1-.173-3.145-.23l0-3.05a6.979,6.979,0,0,0-13.959-.106v.085l0,3.032c-1.242.069-2.475.159-3.722.26l-.407-3.027a6.984,6.984,0,0,0-13.839,1.9l.409,2.988q-2.971.562-5.912,1.29l-.86-2.892a6.985,6.985,0,0,0-13.372,4.042l.883,2.889c-2.153.775-4.26,1.613-6.356,2.493l-1.325-2.717a6.981,6.981,0,0,0-12.542,6.135l1.334,2.737q-3.057,1.7-6.041,3.6l-1.774-2.466a6.985,6.985,0,0,0-11.368,8.118l1.762,2.477q-2.643,2.115-5.215,4.407l-2.135-2.172a6.977,6.977,0,0,0-9.912,9.822l.016.016,2.137,2.155c-.987,1.1-1.942,2.224-2.885,3.352l-2.434-1.845a6.979,6.979,0,0,0-8.445,11.113l.067.051,2.4,1.813c-1.118,1.681-2.192,3.384-3.239,5.1l-2.657-1.405a6.977,6.977,0,0,0-7,12.075c.154.09.313.172.474.251l2.638,1.4q-1.425,3.1-2.671,6.273l-2.862-.962a6.98,6.98,0,1,0-4.447,13.234h0l2.892.966c-.633,2.275-1.194,4.548-1.7,6.85l-3-.492a6.983,6.983,0,0,0-2.224,13.788h0l2.993.488c-.2,2.031-.382,4.067-.485,6.1l-3.046-.012a6.984,6.984,0,0,0-.032,13.968l3.043.009c.094,1.856.209,3.715.4,5.546l-3,.451a6.984,6.984,0,0,0,2.093,13.809l3.007-.456c.414,1.969.872,3.936,1.36,5.887l-2.885.922a6.979,6.979,0,1,0,4.182,13.317l.039-.014,2.894-.918c.789,2.121,1.661,4.224,2.574,6.3l-2.717,1.406a6.982,6.982,0,1,0,6.333,12.445l2.682-1.364c1.2,2.029,2.392,4.042,3.692,6.013l-2.418,1.781A6.983,6.983,0,0,0,274.7,581.26l2.45-1.806c1.056,1.286,2.128,2.544,3.234,3.793l-2.151,2.144a6.976,6.976,0,0,0,9.841,9.889h0l2.158-2.144c1.84,1.659,3.731,3.248,5.636,4.782l-1.771,2.475a6.986,6.986,0,1,0,11.373,8.118l1.755-2.468c1.7,1.083,3.43,2.128,5.171,3.122l-1.343,2.712a6.979,6.979,0,1,0,12.406,6.4l.076-.152,1.369-2.71q3.106,1.359,6.31,2.54l-.9,2.9a6.985,6.985,0,0,0,13.342,4.138l.895-2.885q3.433.866,6.878,1.527l-.4,3a6.975,6.975,0,1,0,13.82,1.9l.428-3.036c1.042.1,2.077.2,3.131.242l-.007,3.039a6.982,6.982,0,0,0,13.963.034l.009-3.039c1.226-.064,2.461-.161,3.7-.255l.43,3.023a6.98,6.98,0,1,0,13.83-1.9l-.412-2.986c1.971-.377,3.941-.807,5.9-1.274l.865,2.878a6.98,6.98,0,0,0,13.365-4.026l-.87-2.9c2.153-.773,4.253-1.608,6.347-2.5l1.325,2.721a6.983,6.983,0,0,0,12.546-6.137l-1.325-2.726c2.038-1.15,4.06-2.351,6.05-3.619l1.76,2.478a6.976,6.976,0,0,0,11.35-8.113h0l-1.753-2.475c1.778-1.419,3.506-2.882,5.217-4.412l2.144,2.16a6.98,6.98,0,1,0,9.889-9.852l-2.142-2.148c1-1.1,1.948-2.227,2.882-3.342l2.45,1.829a6.98,6.98,0,0,0,8.382-11.164h0l-2.413-1.82c1.129-1.681,2.2-3.375,3.241-5.1l2.659,1.406a6.979,6.979,0,0,0,6.531-12.323l-2.641-1.406c.952-2.063,1.845-4.159,2.671-6.268l2.878.964a6.98,6.98,0,1,0,4.444-13.234l-2.891-.966c.626-2.268,1.194-4.552,1.688-6.85l3,.495a6.984,6.984,0,0,0,2.222-13.791l-3-.483q.314-3.04.492-6.107l3.036.016a6.985,6.985,0,0,0,.048-13.97l-3.053,0c-.094-1.856-.219-3.7-.4-5.548l2.988-.453a6.979,6.979,0,1,0-1.964-13.818l-.122.018-3.013.455c-.407-1.969-.867-3.931-1.364-5.875l2.9-.932A6.984,6.984,0,0,0,498,452.116l-2.889.92c-.8-2.121-1.663-4.223-2.572-6.31l2.7-1.373a6.978,6.978,0,1,0-6.328-12.438h0l-2.685,1.364q-1.763-3.043-3.692-6.008l2.411-1.778a6.981,6.981,0,0,0-8.081-11.387c-.064.046-.129.092-.191.14Zm-180.26,3.377a111.966,111.966,0,0,1,72.56-32.506l-.131,50.564A61.958,61.958,0,0,0,314.135,491.1l-50.548-.124A111.89,111.89,0,0,1,296.434,418.593Zm95.9,63.105a23.464,23.464,0,1,1-33.182-.069l.007,0a23.474,23.474,0,0,1,33.178.064ZM368.446,610.352a112.3,112.3,0,0,1-104.9-105.4l50.555.129a61.907,61.907,0,0,0,54.456,54.711Zm86.518-32.46a111.845,111.845,0,0,1-72.555,32.492l.12-50.566a61.949,61.949,0,0,0,54.728-54.454l50.538.124a111.845,111.845,0,0,1-32.828,72.394Zm32.863-86.355-50.552-.131a61.881,61.881,0,0,0-54.456-54.716l.115-50.559a112.275,112.275,0,0,1,104.9,105.406Z" transform="translate(-238.256 -360.668)" fill="#242568" opacity="0.05"/>
</svg>
