<svg width="101" height="52" viewBox="0 0 101 52" fill="none" xmlns="http://www.w3.org/2000/svg">
<rect x="1" y="26" width="51" height="24" stroke="#004486" stroke-width="2" stroke-linejoin="round"/>
<path d="M1 29H53" stroke="#004486" stroke-linejoin="round"/>
<path d="M1 32H53" stroke="#004486" stroke-linejoin="round"/>
<path d="M1 35H53" stroke="#004486" stroke-linejoin="round"/>
<path d="M1 38H53" stroke="#004486" stroke-linejoin="round"/>
<path d="M1 41H53" stroke="#004486" stroke-linejoin="round"/>
<path d="M1 44H53" stroke="#004486" stroke-linejoin="round"/>
<path d="M1 47H53" stroke="#004486" stroke-linejoin="round"/>
<path d="M33 26L33 50" stroke="#004486" stroke-linejoin="round"/>
<path d="M86.736 8.44678L100 8.44678V49.9361H69.2275V8.44678H82.4915" stroke="#004486" stroke-width="2" stroke-linecap="square" stroke-linejoin="round"/>
<path d="M90.9798 11.6383H96.8159V46.7447H72.4102V11.6383H77.7158" stroke="#004486" stroke-linejoin="round"/>
<rect x="-0.5" y="0.5" width="5.7646" height="5.78188" transform="matrix(-1 0 0 1 81.3584 15.8937)" stroke="#004486" stroke-linejoin="round"/>
<path d="M84.6133 18.1543H93.6328" stroke="#004486" stroke-linecap="round" stroke-linejoin="round"/>
<path d="M84.6133 21.1685H90.6263" stroke="#004486" stroke-linecap="round" stroke-linejoin="round"/>
<path d="M77.8496 19.4295L79.5111 21.1685L83.111 17.4008" stroke="#29A1F4" stroke-width="2" stroke-linecap="round" stroke-linejoin="round"/>
<rect x="-0.5" y="0.5" width="5.7646" height="5.78188" transform="matrix(-1 0 0 1 81.3584 26.4432)" stroke="#004486" stroke-linejoin="round"/>
<path d="M84.6133 28.7039H93.6328" stroke="#004486" stroke-linecap="round" stroke-linejoin="round"/>
<path d="M84.6133 31.718H90.6263" stroke="#004486" stroke-linecap="round" stroke-linejoin="round"/>
<path d="M77.8496 29.2255L79.5111 30.9645L83.111 27.1968" stroke="#29A1F4" stroke-width="2" stroke-linecap="round" stroke-linejoin="round"/>
<rect x="-0.5" y="0.5" width="5.7646" height="5.78188" transform="matrix(-1 0 0 1 81.3584 36.9928)" stroke="#004486" stroke-linejoin="round"/>
<path d="M84.6133 39.2534H93.6328" stroke="#004486" stroke-linecap="round" stroke-linejoin="round"/>
<path d="M84.6133 42.2676H90.6263" stroke="#004486" stroke-linecap="round" stroke-linejoin="round"/>
<path d="M77.8496 40.5286L79.5111 42.2676L83.111 38.4999" stroke="#29A1F4" stroke-width="2" stroke-linecap="round" stroke-linejoin="round"/>
<path d="M87.797 9.51063C90.3437 9.51063 91.511 11.6383 92.0415 12.7021H76.6553C77.1858 11.6383 78.8836 9.51063 81.4303 9.51063C83.977 9.51063 83.5526 6.67376 83.022 5.25532C82.4914 3.83688 81.9609 1 84.6137 1C86.7359 1 86.7359 3.83688 86.2054 5.25532C85.6748 6.67376 85.2503 9.51063 87.797 9.51063Z" stroke="#004486" stroke-width="2" stroke-linejoin="round"/>
<path d="M62.4264 16.3723L57.125 16.3723L57.0191 45.1186L59.6502 50.4419L62.3205 45.1186L62.4264 16.3723Z" stroke="#004486" stroke-width="2" stroke-linejoin="round"/>
<path d="M62.3201 45.1188L57.5488 45.1188" stroke="#004486" stroke-linejoin="round"/>
<path d="M62.3875 27.0189L57.6162 27.0189" stroke="#004486" stroke-linejoin="round"/>
<path d="M58.1392 12.4842C58.1423 11.6558 58.8163 10.9842 59.6448 10.9842H59.9461C60.7746 10.9842 61.4437 11.6558 61.4406 12.4842L61.426 16.437H58.1247L58.1392 12.4842Z" stroke="#004486" stroke-width="2" stroke-linejoin="round"/>
<path d="M62.4082 21.1637C63.4685 21.1637 66.1164 21.909 66.1054 24.8901C66.0917 28.6164 63.9594 31.8105 65.542 33.9398" stroke="#004486" stroke-width="2" stroke-linecap="round" stroke-linejoin="round"/>
</svg>
