<svg width="102" height="52" viewBox="0 0 102 52" fill="none" xmlns="http://www.w3.org/2000/svg">
<path d="M89.3578 33.6937H81.5615V38.0091H89.3578V33.6937Z" fill="#29A1F4"/>
<path d="M27.1261 16.9883H2.80176V32.9768H35.2342L27.1261 16.9883Z" fill="#29A1F4"/>
<ellipse cx="63.3694" cy="45.561" rx="5.19751" ry="5.39421" stroke="#004486" stroke-width="2" stroke-linejoin="round"/>
<ellipse cx="14.5139" cy="45.561" rx="5.19751" ry="5.39421" stroke="#004486" stroke-width="2" stroke-linejoin="round"/>
<path d="M88.3875 45.1785C88.3875 46.6291 87.7705 48.0204 86.6724 49.0462C85.5742 50.0719 84.0847 50.6482 82.5316 50.6482C80.9786 50.6482 79.4891 50.0719 78.3909 49.0462C77.2927 48.0204 76.6758 46.6291 76.6758 45.1785L82.5316 45.1785H88.3875Z" fill="#004486"/>
<path d="M40.6404 45.1785C40.6404 46.6291 40.0235 48.0204 38.9253 49.0462C37.8271 50.0719 36.3376 50.6482 34.7846 50.6482C33.2315 50.6482 31.742 50.0719 30.6439 49.0462C29.5457 48.0204 28.9287 46.6291 28.9287 45.1785L34.7846 45.1785H40.6404Z" fill="#004486"/>
<path d="M69.3255 44.7579H99.9561V37.6052H97.2858V27.9279L93.0133 15.5114V12.1454H80.7297V1L3.13627 1V37.6052H1L1 44.7579H9.10811M58.5147 44.7579H19.9189" stroke="#004486" stroke-width="2" stroke-linejoin="round"/>
<path d="M3.70312 5.13855H80.7302" stroke="#004486" stroke-linecap="round"/>
<path d="M84.7837 12.1453H56.4053L56.6943 44.7577" stroke="#004486" stroke-width="2"/>
<path d="M70.5429 15.9672L73.2456 27.9279M70.5429 15.9672H93.1818M70.5429 15.9672H56.6953M70.5429 15.9672V13.022M73.2456 27.9279V44.7579M73.2456 27.9279H56.6953M73.2456 27.9279H97.2359" stroke="#004486"/>
<path d="M73.2451 33.6937V38.0091H80.5216L78.5812 33.6937H73.2451Z" stroke="#004486" stroke-linecap="round"/>
<path d="M97.6738 33.6937V38.0091H90.3973L92.3377 33.6937H97.6738Z" stroke="#004486" stroke-linecap="round"/>
<path d="M98.2977 38.2606H52.5099H3.70312" stroke="#004486"/>
<path d="M49.6484 44.7578V1.42065" stroke="#004486"/>
<path d="M1 51L101 51" stroke="#004486" stroke-width="2" stroke-linecap="round" stroke-linejoin="round"/>
</svg>
