<svg xmlns="http://www.w3.org/2000/svg" width="104.421" height="120" viewBox="0 0 104.421 120">
  <g id="advantage_3" transform="translate(-178.039 -136.885)">
    <g id="Сгруппировать_194" data-name="Сгруппировать 194">
      <path id="Контур_401" data-name="Контур 401" d="M196.31,255.024l2.1-2.778.367-.482.366-.482,7.944-10.511,9.164-12.12,8.223-10.877,1.8-2.392,2.73-3.608,1.042-1.379,1.2-1.582,7.114-9.41,1.061-1.4,1.24-1.64,5.185-6.859.289-.381.439-.583.545-.714.1-.13,2.869-3.8,5.7-7.544a7.472,7.472,0,0,1-3.059-6.5,6.094,6.094,0,0,1,1.216-3.208l-.444-.333-.815-.622L243,158.377l-3.492-2.638-1.442-1.09a5.305,5.305,0,0,1-.448.526,7.1,7.1,0,0,1-9.391.352l-1.138,1.505-3.189,4.22L206.786,183.9l-6.863,9.077-9.449,12.5-3.371,4.461v45.261A7.11,7.11,0,0,1,196.31,255.024Z" fill="#242568"/>
      <path id="Контур_402" data-name="Контур 402" d="M194.6,184.659l.574-.762,2.8-3.709,8.508-28.655a6.583,6.583,0,0,1,.8-.381l10.321,3.063,3.077-4.071-16.278-4.833-7.476,25.173L192.953,183.9l-1.375,4.64-.057.2.149-.2Z" fill="#242568"/>
      <path id="Контур_403" data-name="Контур 403" d="M271.686,167.874l-5.74-4.341-5.97-4.519-9.989-7.548-19.273-14.581-10.028,13.259-3.077,4.071-2.734,3.617-4.617,6.106-2.826,3.743-9.453,12.507-2.8,3.709-.574.762-2.933,3.878-.149.2-.579.762-2.966,3.921-.02.02-.853,1.128v6.246L188.472,199l6.459-8.542,1-1.326.453-.6,3.507-4.64,4.485-5.933,13.9-18.386,3.188-4.215,3.077-4.071,5.932-7.847a7.073,7.073,0,0,1,.883-.082l15.2,11.493,6.483,4.9L255,161.238l1.027.776,7.491,5.662,2.59,1.963.521.391a5.841,5.841,0,0,1,.164.844l-5.436,7.187v0l-4.408,5.831-3.507,4.64-.733.964-.376.5-.511.68-.527.7-6.761,8.942-.7.921,0,.005-.343.453-.82,1.085-6.458,8.542-1.283,1.7-1.042,1.374-5.411,7.168-1.674,2.213L209.178,247.09v0l0,.006L206,251.3l-.372.487-.13.173-3.728,4.929h4.722L210,252.246H210l.463-.613,13.288-17.585,7.476-9.888,1.938-2.566,2.132-2.821.56-.738.039-.048.009-.014,1.341-1.775.207-.275.825-1.1,1.056-1.394.29-.386,7.177-9.492,1.032-1.37,6.608-8.74,1.036-1.374,6.179-8.175,2.388-3.159,8.966-11.861Z" fill="#242568"/>
    </g>
    <g id="Сгруппировать_196" data-name="Сгруппировать 196">
      <g id="Сгруппировать_195" data-name="Сгруппировать 195">
        <rect id="Прямоугольник_282" data-name="Прямоугольник 282" width="99.68" height="72.989" rx="1.447" transform="translate(178.039 183.897)" fill="#ea5e20"/>
        <path id="Контур_404" data-name="Контур 404" d="M183.446,188.537h-3.888a.482.482,0,0,0,0,.964h3.888a.482.482,0,0,0,0-.964Zm7.78,0h-3.9a.48.48,0,0,0-.468.482.461.461,0,0,0,.015.116.475.475,0,0,0,.467.366h3.888a.482.482,0,0,0,0-.964Zm7.779,0h-3.892a.482.482,0,1,0,0,.964h3.892a.482.482,0,1,0,0-.964Zm7.78,0h-3.892a.484.484,0,0,0-.483.482.491.491,0,0,0,.483.482h3.892a.124.124,0,0,0,.043-.005.477.477,0,0,0,.439-.477A.483.483,0,0,0,206.785,188.537Zm7.775,0h-3.887a.494.494,0,0,0-.328.125l-.029.029a.5.5,0,0,0-.126.328.482.482,0,0,0,.372.468.432.432,0,0,0,.111.014h3.887a.482.482,0,0,0,.463-.347c.005-.01.005-.024.01-.039a.571.571,0,0,0,.009-.1A.483.483,0,0,0,214.56,188.537Zm7.78,0h-3.887a.482.482,0,0,0-.01.964h3.9a.444.444,0,0,0,.212-.053.48.48,0,0,0-.212-.911Zm7.78,0h-3.893a.482.482,0,1,0,0,.964h3.893a.482.482,0,1,0,0-.964Zm7.779,0h-3.892a.521.521,0,0,0-.092.009.485.485,0,0,0-.39.473.508.508,0,0,0,.144.347.5.5,0,0,0,.338.135H237.9a.541.541,0,0,0,.179-.034.482.482,0,0,0-.179-.93Zm7.776,0h-3.888a.478.478,0,0,0-.478.438.132.132,0,0,0-.005.044.484.484,0,0,0,.483.482h3.888a.482.482,0,0,0,0-.964Zm7.779,0h-3.888a.482.482,0,0,0,0,.964h3.888a.482.482,0,1,0,0-.964Zm7.953.033a.408.408,0,0,0-.173-.033h-3.893a.482.482,0,0,0,0,.964h3.893a.481.481,0,0,0,.173-.931Zm7.607-.033h-3.893a.482.482,0,0,0,0,.964h3.893a.482.482,0,0,0,0-.964Zm3.236,1.234a.492.492,0,0,0-.482.492v3.888a.482.482,0,0,0,.964,0v-3.9A.474.474,0,0,0,272.25,189.771Zm0,7.79a.48.48,0,0,0-.482.482v3.888a.482.482,0,0,0,.964,0v-3.888A.477.477,0,0,0,272.25,197.561Zm0,7.775a.484.484,0,0,0-.482.482v3.892a.482.482,0,1,0,.964,0v-3.892A.48.48,0,0,0,272.25,205.336Zm0,7.779a.484.484,0,0,0-.482.483v3.892a.482.482,0,1,0,.964,0V213.6A.481.481,0,0,0,272.25,213.115Zm0,7.78a.484.484,0,0,0-.482.483v3.887a.482.482,0,0,0,.964,0v-3.887A.481.481,0,0,0,272.25,220.9Zm0,7.779a.481.481,0,0,0-.482.483v3.888a.482.482,0,0,0,.964,0v-3.888A.478.478,0,0,0,272.25,228.674Zm0,7.776a.484.484,0,0,0-.482.482v3.892a.482.482,0,1,0,.964,0v-3.892A.48.48,0,0,0,272.25,236.45Zm0,7.779a.484.484,0,0,0-.482.483V248.6a.482.482,0,0,0,.964,0v-3.888A.481.481,0,0,0,272.25,244.229Zm-94.211,7.337v.4a.465.465,0,0,0,0-.4Zm7.341-.284h-3.887a.482.482,0,1,0,0,.964h3.887a.482.482,0,0,0,0-.964Zm7.78,0h-3.888a.444.444,0,0,0-.226.057.472.472,0,0,0-.256.425.48.48,0,0,0,.482.482h3.888a.482.482,0,0,0,0-.964Zm8.243.351a.481.481,0,0,0-.464-.351h-3.892a.4.4,0,0,0-.111.014.481.481,0,0,0-.371.468v.019a.328.328,0,0,0,.014.1v.005a.487.487,0,0,0,.468.362h3.892a.484.484,0,0,0,.483-.482A.407.407,0,0,0,201.4,251.633Zm7.311-.351h-3.887a.482.482,0,0,0,0,.964h3.887a.482.482,0,1,0,0-.964Zm7.78,0h-3.887a.482.482,0,1,0,0,.964h3.887a.482.482,0,0,0,0-.964Zm7.78,0h-3.888a.482.482,0,0,0,0,.964h3.888a.482.482,0,0,0,0-.964Zm7.78,0h-3.893a.482.482,0,0,0,0,.964h3.893a.482.482,0,0,0,0-.964Zm7.775,0h-3.888a.482.482,0,0,0,0,.964h3.888a.482.482,0,1,0,0-.964Zm7.779,0h-3.887a.482.482,0,1,0,0,.964h3.887a.482.482,0,1,0,0-.964Zm7.78,0H251.5a.482.482,0,1,0,0,.964h3.892a.482.482,0,0,0,0-.964Zm7.78,0h-3.893a.482.482,0,0,0,0,.964h3.893a.482.482,0,0,0,0-.964Zm7.732-.006a.887.887,0,0,1-.126.006h-3.719a.482.482,0,0,0,0,.964h3.719c.072,0,.145-.005.217-.01a.482.482,0,0,0-.091-.96Z" fill="#242568"/>
        <path id="Контур_405" data-name="Контур 405" d="M282.46,214.847V225.94a5.793,5.793,0,0,1-3.043,5.1,5.867,5.867,0,0,1-1.7.594,5.8,5.8,0,0,1-1.046.1H249.181a5.784,5.784,0,0,1-5.619-4.4c-.02-.077-.039-.154-.053-.227-.005-.024-.01-.043-.015-.067a5.857,5.857,0,0,1-.1-1.091V214.847a5.786,5.786,0,0,1,5.788-5.788h27.492a5.707,5.707,0,0,1,1.046.1A5.785,5.785,0,0,1,282.46,214.847Z" fill="#242568"/>
      </g>
      <path id="Контур_406" data-name="Контур 406" d="M262.926,220.392a7.958,7.958,0,1,1-7.957-7.958A7.957,7.957,0,0,1,262.926,220.392Z" fill="#ea5e20"/>
    </g>
  </g>
</svg>
