<svg xmlns="http://www.w3.org/2000/svg" width="123.335" height="120" viewBox="0 0 123.335 120">
  <g id="advantage_1" transform="translate(-90.178 -75.313)">
    <path id="Контур_390" data-name="Контур 390" d="M199.959,169.486a5.2,5.2,0,0,1-.729-4.667c.45-1.569,1.539-2.928,1.949-4.467a37.862,37.862,0,0,0,.68-4.857c.21-1.739-.49-3-.54-4.657s1-3,1.359-4.677a49.591,49.591,0,0,0,1-5.077c.24-2.249,0-2.549-1.259-4.227a5.577,5.577,0,0,1-1.319-4.477c.26-1.279,1.569-3.288.39-4.447-1.429,1.3-2.508-.27-3.738-.8-1.539-.669-1.739.32-3.2,1a19.92,19.92,0,0,1-4.107,1.149,3.648,3.648,0,0,1-3.638-1,79.739,79.739,0,0,1-5.157-6.107,19.687,19.687,0,0,1-.919-2c-.36-.649-1.329-1.129-1.6-1.689-.64-1.289,1-3,1.209-4.517.34-2.789-2.169-6.386-.93-8.895.51-1,2.219-1.649,2.488-3,.2-.909-.669-1.159,0-2.139.36-.58.919-.61,1.449-.909,2-1.119,6.776-3.928,8.895-2.189.54.44.39,1.259,1,1.709.44.319,1.519.15,2.1.47,1.229.679,1.849,1.819,3.268,2.268.28-2.458,6,1.279,3.678-3.438a5.317,5.317,0,0,0-5.177-3.118c.15.19.3.71.58.94-1.9,1.529-1.819-.17-2.6-1.359a7.418,7.418,0,0,0-3.208-2.119c.09.66.63,1.18.51,1.889-1.159.12-1.7-1.389-2.538-2.049a3.418,3.418,0,0,0-2.858-1c-2.918.37-1,3.908-3.548,4.817a3.857,3.857,0,0,1-5-3.458c0-1.659,1.659-.83,2-2.139.24-1-1.189-1.759-1.909-2.189,1.289-3-4.747-2.508-4.847-5.2-.07-1.8,2.089-.93,2.818-.14.529.56,1.689,2.918,2.738,1.119s-1.6-1.9-2.449-2.189c-1.479-.5-2-1.529-2.808-2.669-.38-.52-.76-1-1.129-1.469a60.406,60.406,0,0,0-14.531-2.209c.22.73-.37,1.149-1.3,1.909-.74.59-3.818,4.268-4.867,3.7-.69-.36-.14-1-.37-1.579s-.69-.76-.94-1.2a15.683,15.683,0,0,1-1.279-2.469c-1.559.18-3.108.41-4.637.7v.07c.15.21.72.71.829.929.41.82.93,1.329-.19,2.179-2,1.509-3.118-1.089-4.727-.779s-2.3,2.278-4.217,2.538c-1.719.21-4.237.41-4.237,2.679a10.555,10.555,0,0,0,1.879.46,7.54,7.54,0,0,1-.15,2.858c2.278.39,1.689-.69,2.309-2.109s2.159-1.17,3-2.288.48-2.669,2.419-1.929c1.149.429,1.409,1.539,2.928,1.339a2.818,2.818,0,0,1,.06,1.879c1.809.05,2,.939,2.878,2.219.5.749,2.059,3-.19,3.068-1.169,0-.7-.679-1.509-1.219s-.7-.28-1.739-.1c-1.429.24-3.388,0-2,1.549,1.079,1.259,2.758,1.509.39,2.478a17,17,0,0,1-1.929.78c-1.169.26-.73-.29-1.609-.34-2.488-.16-.26,1.909-1.939,3-1.109.73-2.329.64-3.408,1.629a34.081,34.081,0,0,0-2.818,2.818c-1.109,1.209-1.249,2.638-2.129,3.9s-2,1.229-1.859,3.148c.07,1.139.51,3.278-1.17,3.658-.16-1.419.56-2.6,0-3.857a2.718,2.718,0,0,0-3-1.559c-1.689.21-5.267,2.669-6.256,4s-2.638,5.927-1.529,7.475c1.679,2.429,3.848-3.168,5.836-3.068,1,2.1-1.369,3.458-1.1,5.376,1.919.65,3.658.84,2.688,3.528l.39.77c-.15,2.408.31,3.408,2.908,2.918a16.049,16.049,0,0,0,4.817-1.789,8.882,8.882,0,0,1,2.219-1.29c1-.14,2,.59,2.918.69a23.947,23.947,0,0,0,2.679-.34c.979-.01,1.809.57,2.878.61.39,1,2.069,2,2.938,2.539a13.426,13.426,0,0,0,2.139,1.169c.63.25,1.779.29,2.3.58,1.369.76,1.889,3,2,4.428.07,1.129-1.559,3.478-1,4.317,1,1.529,2.559-.85,3.7-.87.77,0,.68.44,1.4.63s1.289-.11,2.138,0c1.429.17,2.689,1.2,4.078,1.559,1.839.48,2.559.12,3.938,1.489,2.8,2.8,1.809,5.267-.49,8.165a19.756,19.756,0,0,0-3.648,8.405c-.31,1.729.39,3.058-1.3,4.327-1.3,1-2.618,1-3.548,2.468-.81,1.309-.71,3.068-1.5,4.328a24.017,24.017,0,0,1-3,3.2,8.188,8.188,0,0,1-1.549,1.559c-1,.54-1.569-.31-1.519,1.419,0,1.379.8,1-.19,2.269-.51.649-1.189,1.189-1.689,1.839-1.4,1.839-1.429,3.088-1,5.207.2,1.069-.08,2.109.05,3.108s1.3,2,1.089,3.078c-2.928.47-4.947-3.068-5.457-5.417-.679-3.108-1.619-6.1-2.089-9.324s-1.749-5.717-1.749-9.125.16-6.246-2.138-8.545c-1.839-1.779-4.308-2.508-5.377-4.777-.69-1.479-.41-2.768-.77-4.327s-1.7-2.129-2.928-3.048c-2.388-1.809-2.238-5.507-1.269-8,.669-1.719,4.377-6.7,2.738-8.6-1-1.139-2.718.34-3.758.07a19.207,19.207,0,0,1-2.678-1.789c-.2-1.739-1.149-2-2.718-2.329-.85-2-1.689-2.878-3.718-3.118-2.219-.26-2.6-1.369-3.747-3-1.449-2.079-1-2.678-.72-5.1.19-1.769.61-4.767,0-6.386-2,.22-1,4.547-3.428,3.828-.21-2,.909-3.068,1.529-4.817.48-1.379.27-3.048.62-4.437a12.591,12.591,0,0,1,1.849-4.127c.93-1.249,2.419-1.779,3.318-3.108a7.879,7.879,0,0,0,.82-1.849c-.27.26-.55.51-.82.779a59.986,59.986,0,1,0,84.838,84.829c5.257-5.267,2.758-4.677,2-7.555A1.843,1.843,0,0,1,199.959,169.486Z" transform="translate(-3.91)" fill="#242568"/>
    <path id="Контур_391" data-name="Контур 391" d="M315.153,138.613l1.668-1.668a1.259,1.259,0,0,0-1.78-1.78l-.138.138-.536-7.087,1.676-1.677a1.259,1.259,0,1,0-1.78-1.78l-.146.146-.634-8.393c4.6-4.339,8.243-7.793,9.068-8.617,3.26-3.26,2.232-8.2,1.73-8.7s-5.441-1.53-8.7,1.73c-.824.824-4.278,4.469-8.617,9.068l-8.392-.634.146-.146a1.259,1.259,0,1,0-1.78-1.78l-1.676,1.676-7.088-.535.138-.138a1.259,1.259,0,0,0-1.78-1.78l-1.668,1.668-10.958-.828-2.457,2.457,20.01,5.768,5.739,4.645c-5.137,6.137-13.211,15.415-13.211,15.415L273.127,134.5l-1.655,1.655,7.824,4.815a1.809,1.809,0,0,0-.551,1.755,2.569,2.569,0,0,0-.853,2.858,2.57,2.57,0,0,0,2.859-.852,1.809,1.809,0,0,0,1.755-.552L287.32,152l1.655-1.655L287.7,139.49s9.278-8.074,15.415-13.211l4.646,5.738,5.767,20.01,2.458-2.458Z" transform="translate(-111.326 -14.323)" fill="#ea5e20"/>
    <path id="Контур_392" data-name="Контур 392" d="M143.512,240.834c-3.754,2.628-7.579,5.135-11.474,7.477a130.061,130.061,0,0,1-11.9,6.4c-2.015.941-4.047,1.8-6.077,2.544a42.627,42.627,0,0,1-6.015,1.755,20.168,20.168,0,0,1-2.805.382,9.245,9.245,0,0,1-2.3-.113,3.477,3.477,0,0,1-.718-.233.64.64,0,0,1-.27-.23c-.024-.054.029-.084.065-.1a.1.1,0,0,0,.086-.095c.02-.12-.018-.532.043-1.132.024-.236.063-.5.111-.777a59.925,59.925,0,0,1-8.082-16.878c-.718,1.743-1.386,3.531-1.988,5.384a43.127,43.127,0,0,0-1.832,8,23.953,23.953,0,0,0-.115,4.715,16.431,16.431,0,0,0,.44,2.685,13.018,13.018,0,0,0,1.081,2.888,11.234,11.234,0,0,0,4.748,4.822,12.425,12.425,0,0,0,2.924,1.069,15.014,15.014,0,0,0,2.688.332,19.977,19.977,0,0,0,4.6-.441,30.294,30.294,0,0,0,3.941-1.115,51.81,51.81,0,0,0,6.922-3.1c2.172-1.156,4.247-2.4,6.259-3.7A136.578,136.578,0,0,0,135.319,253c3.656-2.949,7.176-6.027,10.591-9.2a265.642,265.642,0,0,0,19.316-20.018A263.838,263.838,0,0,1,143.512,240.834Z" transform="translate(0 -91.181)" fill="#ea5e20"/>
  </g>
</svg>
