<svg xmlns="http://www.w3.org/2000/svg" width="142.263" height="120" viewBox="0 0 142.263 120">
  <g id="advantage_4" transform="translate(-880.69 -435.359)">
    <g id="Сгруппировать_396" data-name="Сгруппировать 396" transform="translate(902.548 435.359)">
      <path id="Контур_533" data-name="Контур 533" d="M994.453,462.158c-6.416-1.144-16.8-.42-29.537-9.9-9.2-6.843-17.939-16.9-17.939-16.9s-8.84,10.178-17.938,16.9c-12.486,9.227-23.122,8.754-29.537,9.9.043,7.176-5.634,56.533,25.844,79.108,8.583,6.156,21.569,14.117,21.631,14.093.062.024,13.048-7.937,21.631-14.093C1000.085,518.691,994.409,469.334,994.453,462.158Zm-11.558,39.714a59.328,59.328,0,0,1-7.351,18.677c-4.01,6.408-9.443,10.979-15.655,15.155q-4.835,3.251-9.79,6.321c-1.018.634-2.41,2.014-3.638,1.6a14.557,14.557,0,0,1-2.607-1.6q-2.113-1.318-4.209-2.663c-3.591-2.3-7.21-4.616-10.623-7.178-11.134-8.356-16.718-21.637-18.864-35.048a105.126,105.126,0,0,1-1.24-17c.011-3.276.293-6.546.29-9.82a.678.678,0,0,1,.494-.65c2.963-.5,5.964-.685,8.909-1.309a35.549,35.549,0,0,0,12.242-5.124A79.827,79.827,0,0,0,946.5,448.9a.676.676,0,0,1,.953,0c4.684,5.372,10,10.67,15.984,14.568a34.792,34.792,0,0,0,12.224,5.008c2.842.567,5.737.707,8.589,1.19a.538.538,0,0,1,.485.551.69.69,0,0,1,.011.1c0,3.912.328,7.816.282,11.733A96.769,96.769,0,0,1,982.895,501.872Z" transform="translate(-899.127 -435.359)" fill="#242568"/>
    </g>
    <path id="Контур_535" data-name="Контур 535" d="M1022.953,516.026l-14.864-4.248,1.7-5.22-.439-.142a185.77,185.77,0,0,0-57.494-9.107h-.012q-3.652,0-7.305.142c-.284.012-.568.03-.851.041-.921.042-1.841.082-2.761.136a185.735,185.735,0,0,0-46.565,8.786l-.44.142,1.792,5.515-15.021,4.507,9.2,9.773-2.3,13.224,24.04-7.215.541-.015-.04-.135-1.649-5.493a161.151,161.151,0,0,1,82.762.007l-1.054,3.692-.512,1.789.542.008,24.134,6.9-2.474-13.193Z" transform="translate(0 11.493)" fill="#ea5e20"/>
    <path id="Контур_536" data-name="Контур 536" d="M936.839,462.654l4.111,8.33,9.193,1.336-6.652,6.484,1.57,9.156-8.223-4.323-8.223,4.323,1.57-9.156-6.652-6.484,9.193-1.336Z" transform="translate(13.558 -2.601)" fill="#ea5e20"/>
    <path id="Контур_537" data-name="Контур 537" d="M928.849,462.654l1.642,3.328,3.672.534-2.657,2.59.627,3.657-3.285-1.727-3.285,1.727.627-3.657-2.657-2.59,3.672-.534Z" transform="translate(-0.442 17.997)" fill="#ea5e20"/>
    <path id="Контур_538" data-name="Контур 538" d="M928.849,462.654l1.642,3.328,3.672.534-2.657,2.59.627,3.657-3.285-1.727-3.285,1.727.627-3.657-2.657-2.59,3.672-.534Z" transform="translate(43.536 17.997)" fill="#ea5e20"/>
    <path id="Контур_539" data-name="Контур 539" d="M928.849,462.654l1.642,3.328,3.672.534-2.657,2.59.627,3.657-3.285-1.727-3.285,1.727.627-3.657-2.657-2.59,3.672-.534Z" transform="translate(10.557 29.997)" fill="#ea5e20"/>
    <path id="Контур_540" data-name="Контур 540" d="M928.849,462.654l1.642,3.328,3.672.534-2.657,2.59.627,3.657-3.285-1.727-3.285,1.727.627-3.657-2.657-2.59,3.672-.534Z" transform="translate(32.535 29.997)" fill="#ea5e20"/>
  </g>
</svg>
