<svg width="132" height="67" viewBox="0 0 132 67" fill="none" xmlns="http://www.w3.org/2000/svg">
<path d="M65.5039 23.9853L65.5039 16.9898" stroke="#004486" stroke-width="2"/>
<rect x="1.99219" y="22.986" width="63.5114" height="16.9892" fill="#29A1F4"/>
<ellipse cx="72.9463" cy="60.4621" rx="5.45801" ry="5.4965" stroke="#004486" stroke-width="2" stroke-linejoin="round"/>
<ellipse cx="47.1455" cy="60.4621" rx="5.45801" ry="5.4965" stroke="#004486" stroke-width="2" stroke-linejoin="round"/>
<ellipse cx="9.43507" cy="60.4621" rx="5.45801" ry="5.4965" stroke="#004486" stroke-width="2" stroke-linejoin="round"/>
<ellipse cx="23.3281" cy="60.4621" rx="5.45801" ry="5.4965" stroke="#004486" stroke-width="2" stroke-linejoin="round"/>
<path d="M96.267 58.9631C96.267 60.8184 95.5874 62.5977 94.3777 63.9097C93.168 65.2216 91.5273 65.9586 89.8166 65.9586C88.1058 65.9586 86.4652 65.2216 85.2555 63.9097C84.0458 62.5977 83.3662 60.8184 83.3662 58.9631L89.8166 58.9631H96.267Z" fill="#004486"/>
<path d="M68.4808 58.9631C68.4808 60.8184 67.8012 62.5977 66.5916 63.9097C65.3819 65.2216 63.7412 65.9586 62.0305 65.9586C60.3197 65.9586 58.679 65.2216 57.4694 63.9097C56.2597 62.5977 55.5801 60.8184 55.5801 58.9631L62.0305 58.9631H68.4808Z" fill="#004486"/>
<path d="M31.2668 58.4634C31.2668 59.382 31.0999 60.7914 30.7758 61.6401C30.4516 62.4889 29.9765 63.2601 29.3775 63.9097C28.7785 64.5592 28.0675 65.0745 27.2849 65.4261C26.5023 65.7777 25.6635 65.9586 24.8164 65.9586L27.7935 62.4608L28.7859 58.4634H31.2668Z" fill="#004486"/>
<path d="M35.7329 58.963C35.7329 59.8204 35.9383 61.1358 36.3373 61.928C36.7362 62.7201 37.321 63.4399 38.0582 64.0462C38.7954 64.6525 39.6706 65.1334 40.6338 65.4615C41.597 65.7897 42.6293 65.9586 43.6719 65.9586L42.4505 62.694L41.8398 58.963L35.7329 58.963Z" fill="#004486"/>
<path d="M77.9082 57.9637H100.236V32.48L98.7312 26.9172H96.7241C96.7241 24.3346 95.4307 22.986 86.3433 22.986C78.7166 22.986 71.324 22.8355 65.4702 22.8355V47.4704M65.4702 57.9637H67.9846M65.4702 57.9637L52.1067 57.9637M65.4702 57.9637V47.4704M42.183 57.9637L28.2899 57.9637M65.4702 47.4704H1.99219V57.9637H4.4731M18.3662 57.9637L14.3968 57.9637" stroke="#004486" stroke-width="2" stroke-linecap="round"/>
<path d="M35.7324 57.9637V47.4704" stroke="#004486"/>
<path d="M100.236 32.4799H78.9004L79.3966 41.9739H100.236" stroke="#004486" stroke-linecap="round"/>
<path d="M98.7482 27.4831L77.9085 27.4831M77.9085 27.4831L78.9009 32.4799M77.9085 27.4831H65.5039" stroke="#004486" stroke-linecap="round"/>
<path d="M77.9084 27.9828C77.2468 25.9841 76.7506 22.986 71.458 22.986" stroke="#004486" stroke-linecap="round"/>
<path d="M79.3965 41.9739V57.9637" stroke="#004486" stroke-linecap="round"/>
<path d="M79.397 41.9739H65.5039V32.4799H78.9009" stroke="#004486" stroke-linecap="round"/>
<path d="M96.2668 44.972H86.9724H84.3584L84.9393 48.9694H95.6859L96.2668 44.972Z" fill="#29A1F4"/>
<path d="M95.2752 51.9675H87.5299H85.3516V55.965H95.2752V51.9675Z" fill="#29A1F4"/>
<rect x="79.8965" y="52.4675" width="3.96183" height="2.99745" stroke="#004486"/>
<rect x="96.7676" y="52.4675" width="2.96947" height="2.99745" stroke="#004486"/>
<path d="M100.237 50.4684H79.397H65.5039" stroke="#004486"/>
<path d="M66 17.4901H86.3359V22.9853H66.4962H65.4962V23.9853V31.4805V47.4697H2V16.9981L65.9923 17.4901H66Z" stroke="#004486" stroke-width="2"/>
<path d="M1 66L96.4656 66" stroke="#004486" stroke-width="2" stroke-linecap="round" stroke-linejoin="round"/>
<path d="M99.74 53.9662C101.141 53.9662 103.921 52.3579 106.023 56.4381C107.704 59.7023 111.394 58.7049 113.028 57.7982C114.196 57.5715 116.251 57.6622 115.13 59.8383C113.729 62.5584 113.028 65.9586 115.13 65.9586C117.232 65.9586 119.334 64.5985 120.034 62.5584C120.735 60.5183 120.735 53.718 117.932 48.9577C115.13 44.1975 114.43 45.5576 112.328 45.5576C110.226 45.5576 108.825 44.8775 110.226 42.8374C111.627 40.7973 108.124 40.1173 110.927 38.0772C113.729 36.0371 113.729 33.3169 115.831 33.3169C117.932 33.3169 118.633 30.5968 117.932 28.5567C117.232 26.5166 115.831 25.8366 117.932 25.1565C120.034 24.4765 122.136 24.4765 122.136 27.1966C122.136 29.9168 122.836 34.677 125.639 34.677C127.88 34.677 129.842 36.4904 130.543 37.3971C131.01 36.7171 131.523 34.677 129.842 31.9569C127.74 28.5567 127.04 25.1565 125.639 25.1565C124.238 25.1565 122.836 20.3963 124.238 19.0362C125.639 17.6761 127.04 12.9159 125.639 12.2359C124.238 11.5558 118.633 8.83571 121.435 6.79561C124.238 4.75551 124.938 2.03538 123.537 1.35535C122.136 0.675313 120.034 0.675313 117.232 4.07548C114.43 7.47565 110.927 5.43553 110.927 8.15567C110.927 10.8758 107.424 14.276 106.023 14.276C104.622 14.276 99.017 16.3161 98.3165 17.6761C97.6159 19.0362 96.6176 24.346 90.3125 22.986" stroke="#004486" stroke-width="2" stroke-linejoin="round"/>
</svg>
