<svg width="132" height="66" viewBox="0 0 132 66" fill="none" xmlns="http://www.w3.org/2000/svg">
<path d="M122.96 43.8143H108.197L109.877 50.5045H121.28L122.96 43.8143Z" fill="#29A1F4"/>
<path d="M102.938 44.2H106.882V50.7" stroke="#004486"/>
<path d="M127.921 44.2H123.976V50.7" stroke="#004486"/>
<path d="M30.6116 5.70389C18.9992 5.70389 6.31405 16.5139 4 23H52.8272H78.5V15C78.5 15 77.5 7.49999 71.5 6.5C65.5 5.50001 64 -2.00005 51.2802 0.87132C46.117 2.03687 45.127 5.70389 30.6116 5.70389Z" fill="#29A1F4"/>
<path d="M118.209 17.4548H122.751V10.9208L78.4616 10.9208V23.7437H1V39.9117L4.97469 50.5045H83.572V24.3012V17.4548H118.209ZM118.209 17.4548V20.7999" stroke="#004486" stroke-width="2" stroke-linejoin="round"/>
<path d="M43.2568 30.9716L55.7487 43.237" stroke="#004486" stroke-width="2" stroke-linecap="round" stroke-linejoin="round"/>
<path d="M54.0459 30.9716L66.5378 43.237" stroke="#004486" stroke-width="2" stroke-linecap="round" stroke-linejoin="round"/>
<path d="M64.2656 30.9716L76.7575 43.237" stroke="#004486" stroke-width="2" stroke-linecap="round" stroke-linejoin="round"/>
<path d="M12.2061 30.9716L24.6979 43.237" stroke="#004486" stroke-width="2" stroke-linecap="round" stroke-linejoin="round"/>
<path d="M22.9951 30.9716L35.487 43.237" stroke="#004486" stroke-width="2" stroke-linecap="round" stroke-linejoin="round"/>
<path d="M33.2148 30.9716L45.7067 43.237" stroke="#004486" stroke-width="2" stroke-linecap="round" stroke-linejoin="round"/>
<ellipse cx="94.3368" cy="59.126" rx="5.86418" ry="5.826" stroke="#004486" stroke-width="2" stroke-linejoin="round"/>
<ellipse cx="61.4638" cy="59.126" rx="5.86418" ry="5.826" stroke="#004486" stroke-width="2" stroke-linejoin="round"/>
<ellipse cx="11.496" cy="59.174" rx="5.86418" ry="5.826" stroke="#004486" stroke-width="2" stroke-linejoin="round"/>
<path d="M1 64.9999H130.471" stroke="#004486" stroke-width="2" stroke-linecap="round" stroke-linejoin="round"/>
<path d="M121.233 58.5086C121.233 60.1262 120.573 61.6774 119.399 62.8212C118.224 63.965 116.631 64.6075 114.97 64.6075C113.309 64.6075 111.716 63.965 110.541 62.8212C109.367 61.6774 108.707 60.1262 108.707 58.5086L114.97 58.5086H121.233Z" fill="#004486"/>
<ellipse cx="26.6718" cy="59.174" rx="5.86418" ry="5.826" stroke="#004486" stroke-width="2" stroke-linejoin="round"/>
<path d="M88.3603 58.5086C88.3603 60.1262 87.7004 61.6774 86.5259 62.8212C85.3513 63.965 83.7582 64.6075 82.0971 64.6075C80.436 64.6075 78.843 63.965 77.6684 62.8212C76.4939 61.6774 75.834 60.1262 75.834 58.5086L82.0971 58.5086H88.3603Z" fill="#004486"/>
<path d="M47.0868 58.5086C47.0868 60.1262 46.427 61.6774 45.2524 62.8212C44.0778 63.965 42.4848 64.6075 40.8237 64.6075C39.1626 64.6075 37.5696 63.965 36.395 62.8212C35.2204 61.6774 34.5605 60.1262 34.5605 58.5086L40.8237 58.5086H47.0868Z" fill="#004486"/>
<path d="M100.648 58.0394H130.779V50.0639H127.923V39.2736L125.669 24.6711L123.354 20.762H112.846M87.0961 50.5045L5.0934 50.5045L1.68652 58.0394L6.38333 58.0394M32.9157 58.0394H55.599M89.0855 58.0394L67.4334 58.0394M112.968 20.7685L86.8486 20.7685L87.158 58.0394M21.5594 58.0394H17.5847" stroke="#004486" stroke-width="2" stroke-linejoin="round"/>
<path d="M99.6501 20.8L102.575 39.2735M102.575 39.2735V58.0394M102.575 39.2735H87.1582M102.575 39.2735H127.921" stroke="#004486" stroke-linejoin="round"/>
<path d="M131 50.533H87.1582" stroke="#004486" stroke-linejoin="round"/>
</svg>
