<svg width="131" height="67" viewBox="0 0 131 67" fill="none" xmlns="http://www.w3.org/2000/svg">
<path d="M51.4863 26.3501C51.7485 25.8987 64.044 15.2015 70.1591 9.90929L110.234 7.5" stroke="#004486" stroke-width="2" stroke-linecap="round" stroke-linejoin="round"/>
<path d="M111.554 12.7L79.1031 16.2541L64.6885 30.6001" stroke="#004486" stroke-linecap="round" stroke-linejoin="round"/>
<path d="M67.9883 35.45C68.2504 34.9986 75.735 27.0922 81.85 21.8L112.214 16.6" stroke="#004486" stroke-width="2" stroke-linecap="round" stroke-linejoin="round"/>
<path d="M102.7 18.55L113.1 27" stroke="#004486" stroke-width="2" stroke-linecap="round"/>
<path d="M94.9004 19.85L113.1 32.85" stroke="#004486" stroke-width="2" stroke-linecap="round"/>
<circle cx="21.873" cy="58.9854" r="3.5" stroke="#004486" stroke-linejoin="round"/>
<circle cx="36" cy="58.9854" r="3.5" stroke="#004486" stroke-linejoin="round"/>
<circle cx="7" cy="58.9854" r="3.5" stroke="#004486" stroke-linejoin="round"/>
<path d="M62 62.5C63.6569 62.5 65 60.933 65 59C65 57.067 63.6569 55.5 62 55.5" stroke="#004486" stroke-linejoin="round"/>
<path d="M13.5219 58.85C13.5219 62.2321 10.7333 65 7.26093 65C3.78854 65 1 62.2321 1 58.85C1 55.4679 3.78854 52.7 7.26093 52.7C10.7333 52.7 13.5219 55.4679 13.5219 58.85Z" stroke="#004486" stroke-width="2" stroke-linejoin="round"/>
<path d="M42.5658 58.85C42.5658 62.2321 39.7773 65 36.3049 65C32.8325 65 30.0439 62.2321 30.0439 58.85C30.0439 55.4679 32.8325 52.7 36.3049 52.7C39.7773 52.7 42.5658 55.4679 42.5658 58.85Z" stroke="#004486" stroke-width="2" stroke-linejoin="round"/>
<path d="M1 58.2C1 55.1624 3.46243 52.7 6.5 52.7H37.0656C40.1031 52.7 42.5656 55.1624 42.5656 58.2V59.5C42.5656 62.5376 40.1031 65 37.0656 65H6.5C3.46243 65 1 62.5376 1 59.5V58.2Z" stroke="#004486" stroke-width="2" stroke-linejoin="round"/>
<path d="M43 52.5H43.4692C47.0711 52.5 49.9862 55.4289 49.9692 59.0307L49.9668 59.5307C49.9499 63.1085 47.0447 66 43.4669 66H43" stroke="#004486" stroke-width="2" stroke-linejoin="round"/>
<path d="M56 55.5C57.1307 53.6124 59.188 52.5 61.5385 52.5C65.1071 52.5 68 55.1501 68 59C68 62.8499 65.1071 66 61.5385 66C59.188 66 57.1307 64.3876 56 62.5" stroke="#004486" stroke-width="2" stroke-linejoin="round"/>
<path d="M45.0005 52.5H68.755C72.4391 52.5 75.3868 55.5588 75.2506 59.2403L75.2321 59.7403C75.1028 63.2343 72.2329 66 68.7365 66H44.501" stroke="#004486" stroke-width="2" stroke-linejoin="round"/>
<path d="M1.2998 66L130 66" stroke="#004486" stroke-width="2" stroke-linecap="round" stroke-linejoin="round"/>
<path d="M69 37L65.4583 27H52L54.8333 37H69Z" fill="#29A1F4"/>
<path d="M55 37L51.875 27H40V37H55Z" fill="#29A1F4"/>
<path d="M27 48.1042H52V52.5H27V48.1042Z" stroke="#004486" stroke-width="2" stroke-linejoin="round"/>
<path d="M49 55.5H62M62 62.5H50" stroke="#004486" stroke-linejoin="round"/>
<path d="M42.9004 53L42.9004 47.8" stroke="#004486" stroke-linecap="round" stroke-linejoin="round"/>
<path d="M18.1621 38.4H27V48.1H18.1621V38.4Z" stroke="#004486" stroke-width="2" stroke-linejoin="round"/>
<path d="M22.443 48.136H1.32031V33.5H22.443V38.7" stroke="#004486" stroke-width="2" stroke-linejoin="round"/>
<path d="M14.5215 34.15V48" stroke="#004486" stroke-linecap="round" stroke-linejoin="round"/>
<path d="M27.4033 26.7H51.4663L55.7672 37.5903V48.1H27.4033V26.7Z" stroke="#004486" stroke-width="2" stroke-linejoin="round"/>
<path d="M40.9248 27H64.4295L68.6483 37.4V48.1072H40.9248" stroke="#004486" stroke-width="2" stroke-linejoin="round"/>
<path d="M18.4829 33.5V28.3L13.8623 23.75" stroke="#004486" stroke-width="2" stroke-linecap="round" stroke-linejoin="round"/>
<path d="M120.796 46.5H115.515L110.895 5.91892L116.175 1H124.756L129.377 6.53378L126.076 46.5" stroke="#004486" stroke-width="2" stroke-linecap="round" stroke-linejoin="round"/>
<path d="M116.175 1L122.776 6.53378L121.309 46.5" stroke="#004486" stroke-linecap="round" stroke-linejoin="round"/>
<path d="M122.775 46.5H108.914C110.014 49.1 111.818 54.95 110.234 57.55C108.65 60.15 106.493 63.4 105.613 64.7H119.475" stroke="#004486" stroke-width="2" stroke-linecap="round" stroke-linejoin="round"/>
<path d="M114.194 46.5H128.056C129.156 49.1 130.96 54.95 129.376 57.55C127.792 60.15 125.635 63.4 124.755 64.7H110.894" stroke="#004486" stroke-width="2" stroke-linecap="round" stroke-linejoin="round"/>
<path d="M122.115 46.5C123.215 49.1 125.019 54.95 123.435 57.55C121.851 60.15 119.695 63.4 118.814 64.7" stroke="#004486" stroke-linecap="round" stroke-linejoin="round"/>
<path d="M68.6488 41.3L27.7236 41.3" stroke="#004486" stroke-linecap="round" stroke-linejoin="round"/>
<path d="M36.9648 47.8L36.9648 27" stroke="#004486" stroke-linecap="round" stroke-linejoin="round"/>
</svg>
