<svg width="94" height="53" viewBox="0 0 94 53" fill="none" xmlns="http://www.w3.org/2000/svg">
<path d="M43.9873 0.328125L17.7266 36.1084H30.5287L37.7504 25.9324H48.2547L55.8047 16.0846H45.3004L49.5677 10.8324H69.9198L77.7981 0.328125H43.9873Z" fill="#004486"/>
<path d="M14.4434 35.452L22.3216 24.2912H17.726C11.8173 24.2912 12.2807 17.8421 12.8021 15.7565C13.7869 11.8173 17.726 10.176 20.6804 10.176H32.4977L40.0477 0H21.6651C16.413 0 0 3.93911 0 19.3673C0 31.7099 9.19127 35.452 14.4434 35.452Z" fill="#004486"/>
<path d="M4.07028 52.5081C3.38221 52.5081 2.75906 52.3588 2.20081 52.0602C1.64906 51.7551 1.21415 51.3364 0.896079 50.8041C0.5845 50.2718 0.428711 49.6714 0.428711 49.0028C0.428711 48.3342 0.587746 47.7338 0.905815 47.2015C1.22389 46.6692 1.6588 46.2538 2.21055 45.9552C2.7688 45.6501 3.39195 45.4976 4.08002 45.4976C4.63827 45.4976 5.14783 45.5949 5.6087 45.7897C6.06958 45.9844 6.45905 46.2668 6.77712 46.6368L5.95923 47.406C5.4659 46.8737 4.85897 46.6076 4.13844 46.6076C3.67107 46.6076 3.25239 46.7114 2.88239 46.9191C2.51239 47.1204 2.22353 47.4027 2.01581 47.7662C1.80809 48.1297 1.70424 48.5419 1.70424 49.0028C1.70424 49.4637 1.80809 49.8759 2.01581 50.2394C2.22353 50.6029 2.51239 50.8885 2.88239 51.0962C3.25239 51.2975 3.67107 51.3981 4.13844 51.3981C4.85897 51.3981 5.4659 51.1287 5.95923 50.5899L6.77712 51.3689C6.45905 51.7389 6.06633 52.0212 5.59897 52.216C5.13809 52.4107 4.62853 52.5081 4.07028 52.5081Z" fill="#004486"/>
<path d="M12.2679 50.8333H8.85997L8.18812 52.4107H6.88339L9.95049 45.5949H11.1968L14.2736 52.4107H12.9494L12.2679 50.8333ZM11.8492 49.8402L10.5639 46.8607L9.28839 49.8402H11.8492Z" fill="#004486"/>
<path d="M19.5999 52.4107L18.2075 50.4147C18.1491 50.4211 18.0615 50.4244 17.9447 50.4244H16.4062V52.4107H15.1404V45.5949H17.9447C18.5354 45.5949 19.0482 45.6923 19.4831 45.887C19.9245 46.0818 20.262 46.3609 20.4957 46.7244C20.7294 47.0879 20.8462 47.5196 20.8462 48.0194C20.8462 48.5322 20.7196 48.9736 20.4665 49.3436C20.2198 49.7136 19.8628 49.9895 19.3954 50.1712L20.9631 52.4107H19.5999ZM19.5707 48.0194C19.5707 47.5845 19.4279 47.2502 19.1423 47.0165C18.8567 46.7828 18.438 46.666 17.8862 46.666H16.4062V49.3826H17.8862C18.438 49.3826 18.8567 49.2657 19.1423 49.032C19.4279 48.7919 19.5707 48.4543 19.5707 48.0194Z" fill="#004486"/>
<path d="M26.9166 48.9249H28.1142V51.6415C27.7637 51.9206 27.3548 52.1348 26.8874 52.2841C26.42 52.4334 25.9397 52.5081 25.4463 52.5081C24.7518 52.5081 24.1254 52.3588 23.5671 52.0602C23.0089 51.7551 22.5707 51.3364 22.2527 50.8041C21.9346 50.2718 21.7756 49.6714 21.7756 49.0028C21.7756 48.3342 21.9346 47.7338 22.2527 47.2015C22.5707 46.6692 23.0089 46.2538 23.5671 45.9552C24.1319 45.6501 24.7648 45.4976 25.4658 45.4976C26.037 45.4976 26.5563 45.5917 27.0237 45.7799C27.4911 45.9682 27.8838 46.244 28.2019 46.6076L27.4034 47.3865C26.8841 46.8672 26.2577 46.6076 25.5242 46.6076C25.0439 46.6076 24.6155 46.7082 24.239 46.9094C23.869 47.1106 23.5769 47.393 23.3627 47.7565C23.1549 48.12 23.0511 48.5354 23.0511 49.0028C23.0511 49.4572 23.1549 49.8661 23.3627 50.2297C23.5769 50.5932 23.869 50.8788 24.239 51.0865C24.6155 51.2942 25.0406 51.3981 25.5145 51.3981C26.0468 51.3981 26.5141 51.2812 26.9166 51.0475V48.9249Z" fill="#004486"/>
<path d="M32.9677 52.5081C32.2731 52.5081 31.6467 52.3588 31.0885 52.0602C30.5302 51.7551 30.0921 51.3364 29.774 50.8041C29.4559 50.2654 29.2969 49.6649 29.2969 49.0028C29.2969 48.3407 29.4559 47.7435 29.774 47.2112C30.0921 46.6725 30.5302 46.2538 31.0885 45.9552C31.6467 45.6501 32.2731 45.4976 32.9677 45.4976C33.6622 45.4976 34.2886 45.6501 34.8469 45.9552C35.4051 46.2538 35.8433 46.6692 36.1613 47.2015C36.4794 47.7338 36.6384 48.3342 36.6384 49.0028C36.6384 49.6714 36.4794 50.2718 36.1613 50.8041C35.8433 51.3364 35.4051 51.7551 34.8469 52.0602C34.2886 52.3588 33.6622 52.5081 32.9677 52.5081ZM32.9677 51.3981C33.422 51.3981 33.831 51.2975 34.1945 51.0962C34.558 50.8885 34.8436 50.6029 35.0513 50.2394C35.2591 49.8694 35.3629 49.4572 35.3629 49.0028C35.3629 48.5484 35.2591 48.1395 35.0513 47.776C34.8436 47.406 34.558 47.1204 34.1945 46.9191C33.831 46.7114 33.422 46.6076 32.9677 46.6076C32.5133 46.6076 32.1043 46.7114 31.7408 46.9191C31.3773 47.1204 31.0917 47.406 30.884 47.776C30.6763 48.1395 30.5724 48.5484 30.5724 49.0028C30.5724 49.4572 30.6763 49.8694 30.884 50.2394C31.0917 50.6029 31.3773 50.8885 31.7408 51.0962C32.1043 51.2975 32.5133 51.3981 32.9677 51.3981Z" fill="#004486"/>
<path d="M41.9369 46.6562V48.7302H45.2279V49.8012H41.9369V52.4107H40.6711V45.5949H45.6466V46.6562H41.9369Z" fill="#004486"/>
<path d="M49.9786 52.5081C49.284 52.5081 48.6576 52.3588 48.0994 52.0602C47.5411 51.7551 47.103 51.3364 46.7849 50.8041C46.4668 50.2654 46.3078 49.6649 46.3078 49.0028C46.3078 48.3407 46.4668 47.7435 46.7849 47.2112C47.103 46.6725 47.5411 46.2538 48.0994 45.9552C48.6576 45.6501 49.284 45.4976 49.9786 45.4976C50.6731 45.4976 51.2995 45.6501 51.8578 45.9552C52.416 46.2538 52.8542 46.6692 53.1723 47.2015C53.4903 47.7338 53.6494 48.3342 53.6494 49.0028C53.6494 49.6714 53.4903 50.2718 53.1723 50.8041C52.8542 51.3364 52.416 51.7551 51.8578 52.0602C51.2995 52.3588 50.6731 52.5081 49.9786 52.5081ZM49.9786 51.3981C50.433 51.3981 50.8419 51.2975 51.2054 51.0962C51.5689 50.8885 51.8545 50.6029 52.0623 50.2394C52.27 49.8694 52.3738 49.4572 52.3738 49.0028C52.3738 48.5484 52.27 48.1395 52.0623 47.776C51.8545 47.406 51.5689 47.1204 51.2054 46.9191C50.8419 46.7114 50.433 46.6076 49.9786 46.6076C49.5242 46.6076 49.1152 46.7114 48.7517 46.9191C48.3882 47.1204 48.1026 47.406 47.8949 47.776C47.6872 48.1395 47.5833 48.5484 47.5833 49.0028C47.5833 49.4572 47.6872 49.8694 47.8949 50.2394C48.1026 50.6029 48.3882 50.8885 48.7517 51.0962C49.1152 51.2975 49.5242 51.3981 49.9786 51.3981Z" fill="#004486"/>
<path d="M59.4505 52.4107L58.0582 50.4147C57.9997 50.4211 57.9121 50.4244 57.7953 50.4244H56.2569V52.4107H54.9911V45.5949H57.7953C58.386 45.5949 58.8988 45.6923 59.3337 45.887C59.7751 46.0818 60.1126 46.3609 60.3463 46.7244C60.58 47.0879 60.6968 47.5196 60.6968 48.0194C60.6968 48.5322 60.5703 48.9736 60.3171 49.3436C60.0704 49.7136 59.7134 49.9895 59.2461 50.1712L60.8137 52.4107H59.4505ZM59.4213 48.0194C59.4213 47.5845 59.2785 47.2502 58.9929 47.0165C58.7073 46.7828 58.2886 46.666 57.7369 46.666H56.2569V49.3826H57.7369C58.2886 49.3826 58.7073 49.2657 58.9929 49.032C59.2785 48.7919 59.4213 48.4543 59.4213 48.0194Z" fill="#004486"/>
<path d="M72.0738 45.5949L69.8148 52.4107H68.4712L66.7867 47.367L65.073 52.4107H63.7196L61.4607 45.5949H62.7751L64.4693 50.7749L66.2317 45.5949H67.4001L69.1235 50.8041L70.8664 45.5949H72.0738Z" fill="#004486"/>
<path d="M77.3068 50.8333H73.8989L73.2271 52.4107H71.9223L74.9894 45.5949H76.2358L79.3126 52.4107H77.9884L77.3068 50.8333ZM76.8881 49.8402L75.6029 46.8607L74.3273 49.8402H76.8881Z" fill="#004486"/>
<path d="M84.6389 52.4107L83.2465 50.4147C83.1881 50.4211 83.1004 50.4244 82.9836 50.4244H81.4452V52.4107H80.1794V45.5949H82.9836C83.5743 45.5949 84.0871 45.6923 84.522 45.887C84.9634 46.0818 85.301 46.3609 85.5347 46.7244C85.7683 47.0879 85.8852 47.5196 85.8852 48.0194C85.8852 48.5322 85.7586 48.9736 85.5054 49.3436C85.2588 49.7136 84.9018 49.9895 84.4344 50.1712L86.002 52.4107H84.6389ZM84.6097 48.0194C84.6097 47.5845 84.4668 47.2502 84.1812 47.0165C83.8956 46.7828 83.4769 46.666 82.9252 46.666H81.4452V49.3826H82.9252C83.4769 49.3826 83.8956 49.2657 84.1812 49.032C84.4668 48.7919 84.6097 48.4543 84.6097 48.0194Z" fill="#004486"/>
<path d="M87.3014 45.5949H90.2808C91.0078 45.5949 91.6537 45.7377 92.2185 46.0233C92.7832 46.3025 93.2213 46.7017 93.5329 47.221C93.8445 47.7338 94.0003 48.3277 94.0003 49.0028C94.0003 49.6779 93.8445 50.2751 93.5329 50.7944C93.2213 51.3072 92.7832 51.7064 92.2185 51.992C91.6537 52.2711 91.0078 52.4107 90.2808 52.4107H87.3014V45.5949ZM90.2224 51.3397C90.7222 51.3397 91.1604 51.2455 91.5369 51.0573C91.9199 50.8625 92.212 50.5899 92.4132 50.2394C92.6209 49.8824 92.7248 49.4702 92.7248 49.0028C92.7248 48.5354 92.6209 48.1265 92.4132 47.776C92.212 47.419 91.9199 47.1463 91.5369 46.9581C91.1604 46.7633 90.7222 46.666 90.2224 46.666H88.5671V51.3397H90.2224Z" fill="#004486"/>
</svg>
