<svg width="19" height="9" viewBox="0 0 19 9" fill="none" xmlns="http://www.w3.org/2000/svg">
<path d="M3.68897 1.44186C3.90256 1.17487 4.0474 0.81629 4.00921 0.449951C3.69673 0.465469 3.31548 0.656093 3.09458 0.923392C2.89635 1.1522 2.72094 1.52569 2.76658 1.87666C3.1174 1.90709 3.46792 1.70141 3.68897 1.44186Z" fill="black"/>
<path d="M4.00531 1.94528C3.49566 1.91485 3.06268 2.23434 2.81942 2.23434C2.57601 2.23434 2.20343 1.96049 1.80043 1.96795C1.27602 1.97556 0.789498 2.27222 0.523264 2.74383C-0.0241145 3.68706 0.378737 5.0867 0.911206 5.85497C1.16968 6.23531 1.48125 6.65368 1.89171 6.63861C2.27965 6.6234 2.43163 6.38759 2.90294 6.38759C3.3741 6.38759 3.51102 6.63861 3.92163 6.63101C4.3473 6.6234 4.61354 6.25067 4.87201 5.87034C5.16868 5.43676 5.28993 5.01839 5.29753 4.99557C5.28993 4.98796 4.47662 4.67593 4.46901 3.74031C4.4614 2.95682 5.10767 2.58409 5.1381 2.56112C4.77313 2.02135 4.20293 1.96049 4.00515 1.94528" fill="black"/>
<path d="M9.08462 0.885071C10.1919 0.885071 10.963 1.64833 10.963 2.75951C10.963 3.87466 10.176 4.64187 9.05693 4.64187H7.83104V6.59162H6.94531V0.885071H9.08462ZM7.83104 3.89839H8.84729C9.61861 3.89839 10.0574 3.48322 10.0574 2.76347C10.0574 2.04388 9.61846 1.6325 8.85125 1.6325H7.83104V3.89839Z" fill="black"/>
<path d="M11.1826 5.40908C11.1826 4.67747 11.7402 4.25834 12.7683 4.19505L13.8716 4.12781V3.81137C13.8716 3.34888 13.5672 3.09573 13.0254 3.09573C12.5784 3.09573 12.2541 3.325 12.1872 3.67688H11.3881C11.412 2.93751 12.1079 2.39972 13.0491 2.39972C14.0614 2.39972 14.7219 2.9296 14.7219 3.75219V6.59147H13.9034V5.90732H13.8836C13.6502 6.35414 13.136 6.63482 12.5784 6.63482C11.756 6.63482 11.1826 6.14465 11.1826 5.40908ZM13.8716 5.04137V4.72098L12.887 4.78427C12.3332 4.81987 12.0448 5.0254 12.0448 5.3852C12.0448 5.73328 12.3452 5.95874 12.8158 5.95874C13.4167 5.95874 13.8716 5.57506 13.8716 5.04137Z" fill="black"/>
<path d="M15.4744 8.1178V7.4338C15.5297 7.44156 15.6641 7.44947 15.7353 7.44947C16.1267 7.44947 16.3482 7.28365 16.4827 6.8563L16.5618 6.6033L15.063 2.45111H15.9883L17.0324 5.82027H17.0521L18.0961 2.45111H18.9978L17.4436 6.81279C17.0876 7.81338 16.6803 8.14168 15.8183 8.14168C15.7511 8.14168 15.5335 8.13377 15.4744 8.1178Z" fill="black"/>
</svg>
