<svg width="11" height="12" viewBox="0 0 11 12" fill="none" xmlns="http://www.w3.org/2000/svg">
<path d="M7.30579 0.955471C4.48464 0.0150862 1.46197 1.49283 0.454417 4.31399C-0.553138 7.13514 0.991779 10.1578 3.81293 11.1654C6.63409 12.1729 9.65675 10.628 10.6643 7.80684C11.6047 4.98569 10.1269 1.96303 7.30579 0.955471Z" fill="#EDA024"/>
<path d="M3.61132 3.57513L3.81283 2.90342C4.21586 3.03776 4.68605 3.1721 5.08907 3.37361C5.22341 3.03776 5.35775 2.70191 5.42492 2.29889L6.02946 2.5004L5.6936 3.50795L6.23097 3.70947L6.56682 2.70191L7.17135 2.90342C7.03701 3.23927 6.90267 3.57513 6.8355 3.97815L7.10418 4.11249C7.30569 4.24683 7.5072 4.38117 7.70871 4.58268C7.91022 4.78419 7.9774 4.9857 8.04457 5.25438C8.04457 5.45589 8.04456 5.65741 7.91022 5.85892C7.77588 6.19477 7.57437 6.39628 7.17135 6.46345H7.03701C7.17135 6.53062 7.23852 6.59779 7.30569 6.73213C7.57437 7.00081 7.64154 7.26949 7.57437 7.67251C7.57437 7.73969 7.57437 7.80686 7.5072 7.87403C7.5072 7.9412 7.5072 7.9412 7.44003 8.00837C7.37286 8.14271 7.30569 8.20988 7.30569 8.34422C7.10418 8.68007 6.76833 8.94875 6.29814 8.94875C5.96229 8.94875 5.62643 8.94875 5.35775 8.88158L5.08907 8.81441C4.95473 9.15026 4.82039 9.48611 4.75322 9.88914L4.14869 9.68763C4.28303 9.35177 4.41737 9.01592 4.48454 8.68007L3.94718 8.47856C3.81283 8.81441 3.67849 9.15026 3.61132 9.48611L3.00679 9.2846C3.14113 8.94875 3.27547 8.6129 3.34264 8.20988L2.06641 7.80686L2.46943 7.06798C2.60377 7.13515 2.80528 7.20232 2.93962 7.20232C3.07396 7.26949 3.2083 7.20232 3.27547 7.06798L4.21586 4.24683V4.17966C4.21586 3.97815 4.14869 3.84381 3.94718 3.84381C3.94718 3.70947 3.81283 3.6423 3.61132 3.57513ZM4.41737 7.60535C4.75322 7.73969 5.0219 7.80686 5.29058 7.87403C5.49209 7.9412 5.62643 7.9412 5.82794 7.9412C5.96228 7.9412 6.02945 7.9412 6.1638 7.87403C6.49965 7.67251 6.56682 7.20232 6.29814 6.93364L5.89511 6.59779C5.6936 6.46345 5.42492 6.39628 5.15624 6.32911C5.08907 6.32911 4.95473 6.26194 4.88756 6.19477L4.41737 7.60535ZM5.08907 5.52306C5.29058 5.59023 5.42492 5.65741 5.55926 5.65741C5.76077 5.72458 5.96228 5.79175 6.1638 5.72458C6.43248 5.72458 6.63399 5.65741 6.70116 5.38872C6.76833 5.18721 6.76833 4.9857 6.70116 4.85136C6.63399 4.71702 6.49965 4.64985 6.36531 4.58268C6.1638 4.44834 5.96229 4.38117 5.6936 4.314L5.49209 4.24683C5.42492 4.71702 5.22341 5.12004 5.08907 5.52306Z" fill="white"/>
</svg>
