<svg width="25" height="12" viewBox="0 0 25 12" fill="none" xmlns="http://www.w3.org/2000/svg">
<path d="M1.78797 0.809425H0.733398V4.50379H1.78797C2.34549 4.50379 2.74851 4.36945 3.10451 4.08062C3.52768 3.73133 3.77621 3.20741 3.77621 2.66333C3.7695 1.56845 2.95674 0.809425 1.78797 0.809425ZM2.63432 3.59028C2.40594 3.79179 2.11711 3.88583 1.64691 3.88583H1.45212V1.44083H1.64691C2.11039 1.44083 2.39251 1.52143 2.63432 1.73638C2.88285 1.95804 3.03062 2.30061 3.03062 2.65661C3.03062 3.01261 2.88285 3.36861 2.63432 3.59028ZM4.10535 0.809425H4.82407V4.50379H4.10535V0.809425ZM6.58393 2.22672C6.15404 2.06551 6.02642 1.95804 6.02642 1.76324C6.02642 1.52815 6.2548 1.3535 6.56378 1.3535C6.77873 1.3535 6.96009 1.44083 7.14145 1.65577L7.5176 1.16543C7.20862 0.896747 6.83918 0.755689 6.42944 0.755689C5.77789 0.755689 5.27411 1.21245 5.27411 1.81698C5.27411 2.32747 5.50921 2.58944 6.18091 2.83125C6.46303 2.93201 6.60409 2.99918 6.67797 3.03948C6.81903 3.13352 6.89292 3.26786 6.89292 3.42235C6.89292 3.72462 6.65782 3.94628 6.3354 3.94628C5.99284 3.94628 5.71744 3.77164 5.54951 3.45594L5.08604 3.90598C5.41517 4.39632 5.81819 4.61127 6.36227 4.61127C7.10786 4.61127 7.63851 4.11421 7.63851 3.39548C7.65194 2.79767 7.40341 2.52899 6.58393 2.22672ZM7.8736 2.66333C7.8736 3.75149 8.72667 4.59111 9.82154 4.59111C10.1305 4.59111 10.3992 4.53066 10.7216 4.37617V3.52982C10.4328 3.81866 10.1775 3.93285 9.85513 3.93285C9.12969 3.93285 8.61248 3.40892 8.61248 2.65661C8.61248 1.9446 9.14312 1.38709 9.82154 1.38709C10.1641 1.38709 10.4261 1.508 10.7216 1.80355V0.9572C10.4059 0.795991 10.144 0.728821 9.83498 0.728821C8.75354 0.728821 7.8736 1.5886 7.8736 2.66333ZM16.4445 3.29473L15.4571 0.809425H14.6712L16.2363 4.59783H16.6259L18.2178 0.809425H17.4387L16.4445 3.29473ZM18.547 4.50379H20.5889V3.87911H19.2657V2.88499H20.5419V2.2603H19.2657V1.44083H20.5889V0.809425H18.547V4.50379ZM23.4437 1.9043C23.4437 1.21245 22.9668 0.816142 22.1339 0.816142H21.0659V4.51051H21.7846V3.02605H21.8786L22.8727 4.51051H23.7594L22.5973 2.95216C23.1414 2.83797 23.4437 2.46853 23.4437 1.9043ZM21.9928 2.51555H21.7846V1.39381H22.0062C22.4563 1.39381 22.6981 1.58188 22.6981 1.9446C22.6981 2.31404 22.4563 2.51555 21.9928 2.51555Z" fill="#231F20"/>
<path d="M12.9317 4.63809C13.4538 4.63809 13.9546 4.43066 14.3238 4.06145C14.693 3.69223 14.9004 3.19147 14.9004 2.66932C14.9004 2.14718 14.693 1.64641 14.3238 1.2772C13.9546 0.907984 13.4538 0.700562 12.9317 0.700562C12.4095 0.700562 11.9087 0.907984 11.5395 1.2772C11.1703 1.64641 10.9629 2.14718 10.9629 2.66932C10.9629 3.19147 11.1703 3.69223 11.5395 4.06145C11.9087 4.43066 12.4095 4.63809 12.9317 4.63809Z" fill="url(#paint0_linear_5326_5882)"/>
<path opacity="0.65" d="M12.9317 4.63809C13.4538 4.63809 13.9546 4.43066 14.3238 4.06145C14.693 3.69223 14.9004 3.19147 14.9004 2.66932C14.9004 2.14718 14.693 1.64641 14.3238 1.2772C13.9546 0.907984 13.4538 0.700562 12.9317 0.700562C12.4095 0.700562 11.9087 0.907984 11.5395 1.2772C11.1703 1.64641 10.9629 2.14718 10.9629 2.66932C10.9629 3.19147 11.1703 3.69223 11.5395 4.06145C11.9087 4.43066 12.4095 4.63809 12.9317 4.63809Z" fill="url(#paint1_linear_5326_5882)"/>
<path d="M23.954 1.04159C23.954 0.974557 23.9071 0.94104 23.8333 0.94104H23.7261V1.2628H23.8065V1.13544L23.9004 1.2628H23.9942L23.887 1.12873C23.9272 1.12203 23.954 1.08851 23.954 1.04159ZM23.8199 1.08851H23.8065V1.00137H23.8199C23.8601 1.00137 23.8802 1.01478 23.8802 1.04159C23.8802 1.07511 23.8601 1.08851 23.8199 1.08851Z" fill="#231F20"/>
<path d="M23.8471 0.820129C23.6926 0.820129 23.5649 0.947753 23.5649 1.10224C23.5649 1.25674 23.6926 1.38436 23.8471 1.38436C24.0015 1.38436 24.1292 1.25674 24.1292 1.10224C24.1292 0.947753 24.0015 0.820129 23.8471 0.820129ZM23.8471 1.33734C23.7261 1.33734 23.6187 1.23659 23.6187 1.10224C23.6187 0.974621 23.7194 0.867148 23.8471 0.867148C23.968 0.867148 24.0687 0.974621 24.0687 1.10224C24.0687 1.22987 23.968 1.33734 23.8471 1.33734Z" fill="#231F20"/>
<path d="M24.2432 4.72137C24.2432 4.72137 17.5867 9.34874 5.41943 11.4492H22.8992C23.2536 11.4492 23.5937 11.3091 23.8453 11.0595C24.097 10.8099 24.2397 10.4709 24.2426 10.1165L24.2587 8.08795L24.2432 4.72205V4.72137Z" fill="#F48120"/>
<defs>
<linearGradient id="paint0_linear_5326_5882" x1="13.9372" y1="4.24514" x2="12.577" y2="2.11517" gradientUnits="userSpaceOnUse">
<stop stop-color="#F89F20"/>
<stop offset="0.25" stop-color="#F79A20"/>
<stop offset="0.533" stop-color="#F68D20"/>
<stop offset="0.62" stop-color="#F58720"/>
<stop offset="0.723" stop-color="#F48120"/>
<stop offset="1" stop-color="#F37521"/>
</linearGradient>
<linearGradient id="paint1_linear_5326_5882" x1="13.7229" y1="4.21626" x2="11.7347" y2="0.329782" gradientUnits="userSpaceOnUse">
<stop stop-color="#F58720"/>
<stop offset="0.359" stop-color="#E16F27"/>
<stop offset="0.703" stop-color="#D4602C"/>
<stop offset="0.982" stop-color="#D05B2E"/>
</linearGradient>
</defs>
</svg>
