<svg width="12" height="12" viewBox="0 0 12 12" fill="none" xmlns="http://www.w3.org/2000/svg">
<path d="M6.35562 11.5684C9.39759 11.5684 11.8636 9.10242 11.8636 6.06046C11.8636 3.01849 9.39759 0.55249 6.35562 0.55249C3.31366 0.55249 0.847656 3.01849 0.847656 6.06046C0.847656 9.10242 3.31366 11.5684 6.35562 11.5684Z" fill="#F5AC37"/>
<path d="M3.67032 9.05757V9.03742V8.25153V7.19225C3.67032 7.14792 3.67032 7.1412 3.61658 7.1412H2.88443C2.84412 7.1412 2.82666 7.1412 2.82666 7.08747V6.44666H3.60919C3.65353 6.44666 3.66965 6.44666 3.66965 6.3889V5.75481C3.66965 5.71451 3.66965 5.70443 3.61591 5.70443H2.88375C2.84345 5.70443 2.82666 5.70443 2.82666 5.6507V5.05624C2.82666 5.01929 2.82666 5.00922 2.8804 5.00922H3.60584C3.65689 5.00922 3.67032 5.00922 3.67032 4.94541V3.12644C3.67032 3.0727 3.67032 3.05927 3.73749 3.05927H6.2678C6.45128 3.06604 6.63403 3.08625 6.81456 3.11972C7.18638 3.18877 7.54355 3.32124 7.87048 3.51132C8.08681 3.63881 8.2863 3.79294 8.46427 3.97009C8.5974 4.10882 8.71809 4.25896 8.82497 4.41879C8.93133 4.58084 9.01963 4.75406 9.08828 4.93533C9.09237 4.958 9.10526 4.97813 9.12413 4.99134C9.143 5.00455 9.16633 5.00977 9.18903 5.00586H9.79357C9.87081 5.00586 9.87081 5.00586 9.87417 5.07975V5.63323C9.87417 5.68697 9.85402 5.7004 9.80028 5.7004H9.33479C9.28777 5.7004 9.27434 5.7004 9.27703 5.76153C9.29562 5.9671 9.29562 6.17392 9.27703 6.37949C9.27703 6.43659 9.27703 6.4433 9.34151 6.4433H9.87417C9.89768 6.47353 9.87417 6.50376 9.87417 6.53398C9.87763 6.57332 9.87763 6.61287 9.87417 6.6522V7.0606C9.87417 7.1177 9.85738 7.13449 9.807 7.13449H9.16888C9.14747 7.13066 9.12541 7.13523 9.10728 7.14723C9.08914 7.15924 9.07632 7.17777 9.07148 7.19897C8.91947 7.5939 8.67673 7.94756 8.36284 8.23138C8.24814 8.33479 8.12771 8.43167 8.00213 8.52155C7.86712 8.5988 7.73547 8.68008 7.5971 8.74389C7.34235 8.8585 7.07527 8.94347 6.80113 8.99712C6.54047 9.04364 6.27595 9.06501 6.0112 9.06093H3.67032V9.05757V9.05757ZM8.32925 7.14792C8.27213 7.1412 8.21442 7.1412 8.1573 7.14792H4.41591C4.36486 7.14792 4.34874 7.14792 4.34874 7.21509V8.38654C4.34874 8.44028 4.34874 8.45371 4.41591 8.45371H6.14286C6.22541 8.45992 6.30843 8.45426 6.38937 8.43692C6.63999 8.4188 6.88663 8.36426 7.12153 8.27504C7.20733 8.24536 7.28992 8.2071 7.36805 8.16085H7.39156C7.79625 7.95027 8.12521 7.61874 8.33261 7.21241C8.33261 7.21241 8.35612 7.15867 8.32925 7.14523V7.14792V7.14792ZM8.32925 5.0025C8.33524 4.9874 8.33524 4.97058 8.32925 4.95548C8.29559 4.88094 8.25511 4.80966 8.20835 4.74255C8.13728 4.62863 8.0532 4.52336 7.9578 4.42887C7.91319 4.37171 7.86125 4.32067 7.80331 4.27706C7.51123 4.02849 7.16429 3.85284 6.79105 3.76455C6.60295 3.7211 6.41047 3.69946 6.21742 3.70007H4.40583C4.35479 3.70007 4.34807 3.72022 4.34807 3.76455V4.9622C4.34807 5.01258 4.34807 5.02601 4.41255 5.02601H8.30574C8.30574 5.02601 8.33933 5.01929 8.34605 4.99914L8.32925 5.0025ZM6.43975 6.44666H8.49113C8.53479 6.44666 8.55495 6.44666 8.5583 6.3889C8.57517 6.18011 8.57517 5.97031 8.5583 5.76153C8.5583 5.72122 8.53815 5.70443 8.49449 5.70443H4.41255C4.3615 5.70443 4.34807 5.72122 4.34807 5.76824V6.36606C4.34807 6.4433 4.34807 6.4433 4.42867 6.4433L6.43975 6.44666V6.44666Z" fill="white"/>
</svg>
