<svg width="12" height="12" viewBox="0 0 12 12" fill="none" xmlns="http://www.w3.org/2000/svg">
<path d="M6.05071 11.2117C8.89569 11.2117 11.202 8.90539 11.202 6.06041C11.202 3.21543 8.89569 0.909119 6.05071 0.909119C3.20573 0.909119 0.899414 3.21543 0.899414 6.06041C0.899414 8.90539 3.20573 11.2117 6.05071 11.2117Z" fill="#CBA747"/>
<path d="M9.01592 5.39141C8.81777 4.21392 7.87403 3.61274 7.39644 3.45825C6.91886 3.30577 3.76051 3.36891 3.76051 3.36891C3.68931 3.45624 3.73297 4.64381 3.73297 4.64381L4.45237 4.63978L4.46648 5.55195H3.84582C3.83645 5.55186 3.82715 5.55364 3.81847 5.55719C3.80979 5.56073 3.8019 5.56598 3.79527 5.57261C3.78864 5.57923 3.7834 5.58712 3.77986 5.5958C3.77631 5.60448 3.77453 5.61378 3.77462 5.62315V6.52323C3.77462 6.56286 3.80619 6.59443 3.84582 6.59443H4.47655C4.47857 7.08007 4.47252 7.46899 4.45304 7.47638C4.3993 7.49788 3.81492 7.44683 3.75716 7.48646C3.7014 7.52407 3.73163 8.22801 3.73163 8.49737C3.72962 8.76672 3.80283 8.7553 3.80283 8.7553C7.15127 8.67 7.07 8.97764 8.01374 8.41206C8.95748 7.84716 9.21743 6.57025 9.01659 5.39074L9.01592 5.39141ZM5.45052 7.47302V6.58301L6.52592 6.59443C6.54504 6.59461 6.56347 6.58723 6.57718 6.5739C6.59089 6.56057 6.59878 6.54236 6.59913 6.52323V5.62315C6.59878 5.60403 6.59089 5.58582 6.57718 5.57248C6.56347 5.55915 6.54504 5.55177 6.52592 5.55195L5.45052 5.55396V4.56052C5.45052 4.56052 7.91298 4.28781 7.91298 6.13432C7.91298 7.90896 5.45052 7.47302 5.45052 7.47302Z" fill="white"/>
</svg>
