<svg width="25" height="16" viewBox="0 0 25 16" fill="none" xmlns="http://www.w3.org/2000/svg">
<path fill-rule="evenodd" clip-rule="evenodd" d="M23.0869 0.671692C23.8258 0.671692 24.4303 1.27622 24.4303 2.0151V14.1058C24.4303 14.8446 23.8258 15.4492 23.0869 15.4492H1.59243C0.853556 15.4492 0.249023 14.8446 0.249023 14.1058V2.0151C0.249023 1.27622 0.853556 0.671692 1.59243 0.671692H23.0869Z" fill="#3D95CE"/>
<path d="M16.1516 5.6154C16.1516 7.6735 14.434 10.3476 13.0396 12.225H9.85571L8.57812 4.41305L11.3664 4.14303L12.0414 9.70137C12.6728 8.64949 13.4513 6.99777 13.4513 5.87132C13.4513 5.2547 13.3479 4.83488 13.1867 4.48896L15.7257 3.96301C16.0193 4.45873 16.1516 4.9699 16.1516 5.6154Z" fill="white"/>
</svg>
