<svg width="20" height="20" viewBox="0 0 20 20" fill="none" xmlns="http://www.w3.org/2000/svg">
<path d="M15.2 20H5.19995C3.49995 20 2.19995 18.7 2.19995 17V3C2.19995 1.3 3.49995 0 5.19995 0H15.2C16.9 0 18.2 1.3 18.2 3V17C18.2 18.6 16.9 20 15.2 20ZM5.19995 1.5C4.39995 1.5 3.69995 2.2 3.69995 3V17C3.69995 17.8 4.39995 18.5 5.19995 18.5H15.2C16 18.5 16.7 17.8 16.7 17V3C16.7 2.2 16 1.5 15.2 1.5H5.19995Z" fill="#29A1F4"/>
<path d="M13.0001 8.00039H7.4001C5.9001 8.00039 4.6001 6.70039 4.6001 5.20039C4.6001 3.70039 5.9001 2.40039 7.4001 2.40039H13.0001C14.5001 2.40039 15.8001 3.70039 15.8001 5.20039C15.8001 6.70039 14.6001 8.00039 13.0001 8.00039ZM7.4001 3.90039C6.7001 3.90039 6.1001 4.50039 6.1001 5.20039C6.1001 5.90039 6.7001 6.50039 7.4001 6.50039H13.0001C13.7001 6.50039 14.3001 5.90039 14.3001 5.20039C14.3001 4.50039 13.7001 3.90039 13.0001 3.90039H7.4001Z" fill="#29A1F4"/>
<path d="M6.9999 10.3996C6.9999 10.7996 6.5999 11.1996 6.1999 11.1996C5.7999 11.1996 5.3999 10.7996 5.3999 10.3996C5.3999 9.99961 5.7999 9.59961 6.1999 9.59961C6.6999 9.59961 6.9999 9.89961 6.9999 10.3996Z" fill="#29A1F4"/>
<path d="M6.9999 13.5998C6.9999 13.9998 6.5999 14.3998 6.1999 14.3998C5.7999 14.3998 5.3999 13.9998 5.3999 13.5998C5.3999 13.1998 5.7999 12.7998 6.1999 12.7998C6.6999 12.7998 6.9999 13.0998 6.9999 13.5998Z" fill="#29A1F4"/>
<path d="M6.9999 16.8C6.9999 17.2 6.5999 17.6 6.1999 17.6C5.7999 17.6 5.3999 17.2 5.3999 16.8C5.3999 16.4 5.7999 16 6.1999 16C6.6999 16 6.9999 16.3 6.9999 16.8Z" fill="#29A1F4"/>
<path d="M10.9999 10.3996C10.9999 10.7996 10.5999 11.1996 10.1999 11.1996C9.7999 11.1996 9.3999 10.7996 9.3999 10.3996C9.3999 9.99961 9.7999 9.59961 10.1999 9.59961C10.6999 9.59961 10.9999 9.89961 10.9999 10.3996Z" fill="#29A1F4"/>
<path d="M10.9999 13.5998C10.9999 13.9998 10.5999 14.3998 10.1999 14.3998C9.7999 14.3998 9.3999 13.9998 9.3999 13.5998C9.3999 13.1998 9.7999 12.7998 10.1999 12.7998C10.6999 12.7998 10.9999 13.0998 10.9999 13.5998Z" fill="#29A1F4"/>
<path d="M10.9999 16.8C10.9999 17.2 10.5999 17.6 10.1999 17.6C9.7999 17.6 9.3999 17.2 9.3999 16.8C9.3999 16.4 9.7999 16 10.1999 16C10.5999 16 10.9999 16.3 10.9999 16.8Z" fill="#29A1F4"/>
<path d="M14.9999 10.3996C14.9999 10.7996 14.5999 11.1996 14.1999 11.1996C13.7999 11.1996 13.3999 10.7996 13.3999 10.3996C13.3999 9.99961 13.7999 9.59961 14.1999 9.59961C14.6999 9.59961 14.9999 9.89961 14.9999 10.3996Z" fill="#29A1F4"/>
<path d="M14.9999 13.5998C14.9999 13.9998 14.5999 14.3998 14.1999 14.3998C13.7999 14.3998 13.3999 13.9998 13.3999 13.5998C13.3999 13.1998 13.7999 12.7998 14.1999 12.7998C14.6999 12.7998 14.9999 13.0998 14.9999 13.5998Z" fill="#29A1F4"/>
<path d="M14.9999 16.8C14.9999 17.2 14.5999 17.6 14.1999 17.6C13.7999 17.6 13.3999 17.2 13.3999 16.8C13.3999 16.4 13.7999 16 14.1999 16C14.6999 16 14.9999 16.3 14.9999 16.8Z" fill="#29A1F4"/>
</svg>
