<svg width="20" height="20" viewBox="0 0 20 20" fill="none" xmlns="http://www.w3.org/2000/svg">
<path d="M5.89995 4.4H10.4C10.7 4.4 11 4.1 11 3.7C11 3.3 10.7 3 10.3 3H5.89995C5.49995 3 5.19995 3.3 5.19995 3.7C5.19995 4.1 5.49995 4.4 5.89995 4.4Z" fill="#29A1F4"/>
<path d="M5.89995 8.09922H10.4C10.7 8.09922 11.1 7.79922 11 7.39922C11 6.99922 10.7 6.69922 10.3 6.69922H5.89995C5.49995 6.69922 5.19995 6.99922 5.19995 7.39922C5.19995 7.79922 5.49995 8.09922 5.89995 8.09922Z" fill="#29A1F4"/>
<path d="M5.19995 11.0994C5.19995 11.4994 5.49995 11.7994 5.89995 11.7994H14.8C15.2 11.7994 15.5 11.4994 15.5 11.0994C15.5 10.6994 15.2 10.3994 14.8 10.3994H5.89995C5.49995 10.3994 5.19995 10.6994 5.19995 11.0994Z" fill="#29A1F4"/>
<path d="M14.8 14.1992H5.89995C5.49995 14.1992 5.19995 14.4992 5.19995 14.8992C5.19995 15.2992 5.49995 15.5992 5.89995 15.5992H14.8C15.2 15.5992 15.5 15.2992 15.5 14.8992C15.5 14.4992 15.2 14.1992 14.8 14.1992Z" fill="#29A1F4"/>
<path d="M18.3 7.39961L13.1 0.399609L12.9 0.0996094H12.5H2.90005H2.30005V0.799609V19.2996V19.9996H2.90005H3.00005H17.7H18.5V19.2996V7.79961V7.69961L18.3 7.39961ZM13.3 2.99961L16.4 7.09961H13.3V2.99961V2.99961ZM17.1 18.5996H3.60005V1.49961H11.9V7.79961V8.49961H12.6H17.1V18.5996Z" fill="#29A1F4"/>
</svg>
