<svg width="25" height="36" viewBox="0 0 25 36" fill="none" xmlns="http://www.w3.org/2000/svg">
<g clip-path="url(#clip0_319_12652)">
<path d="M24.0382 0.043335H1.27606C0.910504 0.043335 0.61377 0.359106 0.61377 0.74812V34.716C0.61377 35.105 0.910504 35.4208 1.27606 35.4208H18.584C18.7594 35.4208 18.9282 35.3461 19.0522 35.2142L24.5064 29.4101C24.6304 29.2781 24.7005 29.0984 24.7005 28.9119V0.74812C24.7005 0.359106 24.4038 0.043335 24.0382 0.043335ZM19.245 33.0162L19.2424 29.6125L22.4409 29.616L19.245 33.0162ZM23.3759 28.2071L18.5802 28.2023H18.5795C18.4042 28.2023 18.2354 28.2769 18.1113 28.4089C17.9873 28.5415 17.9172 28.7205 17.9172 28.9077L17.9218 34.0112H1.93836V1.4529H23.3759V28.2071Z" fill="#999999"/>
<path d="M7.39933 25.4695C5.73385 25.4695 4.37939 26.9108 4.37939 28.6832C4.37939 30.4555 5.7345 31.8968 7.39933 31.8968C9.06481 31.8968 10.4193 30.4555 10.4193 28.6832C10.4199 26.9108 9.06481 25.4695 7.39933 25.4695ZM7.39933 30.488C6.46433 30.488 5.70334 29.6782 5.70334 28.6832C5.70334 27.6882 6.46368 26.8791 7.39933 26.8791C8.33499 26.8791 9.09533 27.6882 9.09533 28.6832C9.09533 29.6782 8.33434 30.488 7.39933 30.488Z" fill="#00A0FF"/>
<path d="M16.0339 28.0917H12.3913C12.0257 28.0917 11.729 28.4074 11.729 28.7965C11.729 29.1855 12.0257 29.5012 12.3913 29.5012H16.0339C16.3995 29.5012 16.6962 29.1855 16.6962 28.7965C16.6962 28.4074 16.4001 28.0917 16.0339 28.0917Z" fill="#999999"/>
<path d="M7.15994 4.27136H5.23993C4.87437 4.27136 4.57764 4.58713 4.57764 4.97615C4.57764 5.36516 4.87437 5.68093 5.23993 5.68093H7.16059C7.52615 5.68093 7.82289 5.36516 7.82289 4.97615C7.82289 4.58713 7.52615 4.27136 7.15994 4.27136Z" fill="#999999"/>
<path d="M20.3391 4.27136H14.5778C14.2123 4.27136 13.9155 4.58713 13.9155 4.97615C13.9155 5.36516 14.2123 5.68093 14.5778 5.68093H20.3391C20.7047 5.68093 21.0014 5.36516 21.0014 4.97615C21.0014 4.58713 20.7047 4.27136 20.3391 4.27136Z" fill="#00A0FF"/>
<path d="M20.3391 7.302H10.5378C10.1722 7.302 9.87549 7.61777 9.87549 8.00679C9.87549 8.3958 10.1722 8.71157 10.5378 8.71157H20.3391C20.7047 8.71157 21.0014 8.3958 21.0014 8.00679C21.0014 7.61777 20.7047 7.302 20.3391 7.302Z" fill="#00A0FF"/>
<path d="M20.3723 12.869H4.94208C4.57652 12.869 4.27979 13.1848 4.27979 13.5738C4.27979 13.9628 4.57652 14.2786 4.94208 14.2786H20.3723C20.7378 14.2786 21.0346 13.9628 21.0346 13.5738C21.0346 13.1848 20.7378 12.869 20.3723 12.869Z" fill="#999999"/>
<path d="M20.3723 15.2654H4.94208C4.57652 15.2654 4.27979 15.5812 4.27979 15.9702C4.27979 16.3592 4.57652 16.675 4.94208 16.675H20.3723C20.7378 16.675 21.0346 16.3592 21.0346 15.9702C21.0346 15.5812 20.7378 15.2654 20.3723 15.2654Z" fill="#999999"/>
<path d="M20.3723 17.873H4.94208C4.57652 17.873 4.27979 18.1888 4.27979 18.5778C4.27979 18.9668 4.57652 19.2826 4.94208 19.2826H20.3723C20.7378 19.2826 21.0346 18.9668 21.0346 18.5778C21.0346 18.1888 20.7378 17.873 20.3723 17.873Z" fill="#999999"/>
<path d="M20.3723 20.2693H20.008C19.6424 20.2693 19.3457 20.5851 19.3457 20.9741C19.3457 21.3631 19.6424 21.6789 20.008 21.6789H20.3723C20.7378 21.6789 21.0346 21.3631 21.0346 20.9741C21.0346 20.5844 20.7378 20.2693 20.3723 20.2693Z" fill="#999999"/>
<path d="M17.69 20.2693H4.94208C4.57652 20.2693 4.27979 20.5851 4.27979 20.9741C4.27979 21.3631 4.57652 21.6789 4.94208 21.6789H17.6906C18.0562 21.6789 18.3529 21.3631 18.3529 20.9741C18.3523 20.5844 18.0555 20.2693 17.69 20.2693Z" fill="#999999"/>
</g>
<defs>
<clipPath id="clip0_319_12652">
<rect width="24.0868" height="35.3774" fill="white" transform="translate(0.61377 0.043335)"/>
</clipPath>
</defs>
</svg>
