<svg width="36" height="36" viewBox="0 0 36 36" fill="none" xmlns="http://www.w3.org/2000/svg">
<g clip-path="url(#clip0_319_12660)">
<path d="M34.8629 3.2639L32.7222 1.1378C31.3265 -0.248277 28.9743 -0.32912 27.4785 0.958148L23.7174 4.1967C23.6694 4.23816 23.6277 4.28722 23.595 4.34112L19.9327 10.3995L17.5812 11.1775C17.3822 11.2432 17.2326 11.4069 17.1839 11.6087C17.1352 11.8105 17.1964 12.024 17.3446 12.1711L23.7529 18.5349C23.8677 18.6489 24.0215 18.7104 24.1801 18.7104C24.2267 18.7104 24.2726 18.7049 24.3185 18.6945C24.5224 18.6469 24.6866 18.4976 24.7527 18.3L25.5367 15.9638L31.7259 12.252C31.7802 12.2195 31.8295 12.178 31.8706 12.1304L35.0542 8.46618C36.3448 6.98406 36.2585 4.64998 34.8629 3.2639ZM34.1414 7.68331L31.0204 11.275L24.7228 15.0518C24.5996 15.1257 24.5071 15.2404 24.4619 15.3758L23.9164 17.0003L22.4721 15.5658L22.4714 15.5652L20.3355 13.4439L20.3348 13.4432L18.8905 12.0088L20.5262 11.467C20.6632 11.4214 20.7787 11.3295 20.8532 11.2065L24.5808 5.04037L28.2702 1.8647C29.2964 0.98095 30.9105 1.03554 31.8678 1.98631L34.0085 4.11241C34.9666 5.06387 35.0257 6.66552 34.1414 7.68331Z" fill="#009EFF"/>
<path d="M33.1503 24.1525C31.3762 22.3912 28.7659 21.7784 26.4004 22.5405L13.5609 9.78871C14.3276 7.43943 13.7111 4.84623 11.9378 3.08496C10.069 1.22903 7.27155 0.647924 4.81009 1.60629C4.62015 1.68023 4.48101 1.84399 4.43927 2.04229C4.39752 2.2406 4.45944 2.44582 4.60346 2.58954L8.44662 6.40643L5.88358 8.95195L2.04042 5.13437C1.8964 4.99134 1.68908 4.92984 1.48941 4.9713C1.28973 5.01276 1.12485 5.15095 1.05041 5.33958C0.0861358 7.78353 0.670542 10.5619 2.53925 12.4185C4.31334 14.1798 6.92369 14.7927 9.28914 14.0312L14.0903 18.7996L8.11129 24.7378L4.30847 26.8494C4.20272 26.9081 4.11715 26.9972 4.06288 27.105L2.35419 30.499C2.238 30.7298 2.28322 31.009 2.46759 31.1914L4.60346 33.3126C4.71964 33.428 4.87409 33.4882 5.03063 33.4882C5.12246 33.4882 5.215 33.4674 5.30057 33.4246L8.71795 31.7276C8.82649 31.6737 8.91623 31.5887 8.97537 31.4837L11.1015 27.7068L17.0805 21.7694L22.1287 26.783C21.362 29.1323 21.9784 31.7248 23.7525 33.4868C25.0229 34.7485 26.7232 35.4208 28.4549 35.4208C29.2703 35.4208 30.0926 35.2715 30.8802 34.9654C31.0701 34.8915 31.2092 34.7277 31.251 34.5294C31.2927 34.3311 31.2308 34.1259 31.0868 33.9822L27.2436 30.1653L29.8067 27.6198L33.6498 31.4367C33.7939 31.5797 34.0012 31.6412 34.2008 31.5997C34.4005 31.5583 34.5654 31.4201 34.6398 31.2315C35.6034 28.7868 35.019 26.0084 33.1503 24.1525ZM10.188 26.9171C10.1484 26.9564 10.115 27 10.0878 27.0483L8.0118 30.7367L5.15029 32.158L3.63014 30.6483L5.06124 27.8063L8.775 25.7445C8.8237 25.7175 8.86823 25.6844 8.90719 25.645L14.9454 19.6481L16.2269 20.9209L10.188 26.9171ZM33.7855 29.8744L30.2338 26.347C29.998 26.1128 29.6153 26.1128 29.3795 26.347L25.9621 29.741C25.8487 29.8537 25.7854 30.0064 25.7854 30.1653C25.7854 30.3242 25.8494 30.4769 25.9621 30.5895L29.5138 34.1169C27.7529 34.4645 25.9058 33.9276 24.6068 32.6383C23.0776 31.1195 22.5997 28.8462 23.3886 26.8459C23.4763 26.6241 23.4234 26.3712 23.2537 26.2026L9.87355 12.914C9.75806 12.7993 9.60361 12.7384 9.44637 12.7384C9.37263 12.7384 9.29749 12.7523 9.22583 12.7799C7.21241 13.5635 4.92279 13.0888 3.3936 11.57C2.09468 10.28 1.55411 8.44547 1.90475 6.69664L5.45641 10.224C5.69226 10.4583 6.07491 10.4583 6.31076 10.224L9.72814 6.83C9.96399 6.59576 9.96399 6.21573 9.72814 5.98149L6.17648 2.45411C7.93735 2.10586 9.7845 2.64343 11.0834 3.93278C12.6126 5.45152 13.0906 7.7248 12.3016 9.72514C12.214 9.94694 12.2668 10.1998 12.4366 10.3684L25.8167 23.6571C25.9865 23.8257 26.2411 23.8782 26.4644 23.7911C28.4785 23.0076 30.7675 23.4823 32.2967 25.001C33.5949 26.2911 34.1354 28.1256 33.7855 29.8744Z" fill="#999999"/>
</g>
<defs>
<clipPath id="clip0_319_12660">
<rect width="35.3774" height="35.3774" fill="white" transform="translate(0.591797 0.043335)"/>
</clipPath>
</defs>
</svg>
