<svg width="37" height="36" viewBox="0 0 37 36" fill="none" xmlns="http://www.w3.org/2000/svg">
<g clip-path="url(#clip0_319_12640)">
<path d="M34.0459 25.8913C33.9083 25.5121 33.4941 25.3186 33.1215 25.4584L25.6365 28.2636C25.2632 28.4034 25.0726 28.8241 25.2102 29.2025C25.3175 29.4978 25.5927 29.6806 25.8856 29.6806C25.9681 29.6806 26.0521 29.6663 26.1347 29.6354L33.6197 26.8302C33.993 26.6904 34.1835 26.2697 34.0459 25.8913Z" fill="white"/>
<path d="M24.5034 29.4678C24.3658 29.0887 23.9516 28.8952 23.579 29.0349L23.2621 29.1539C22.8895 29.2937 22.6983 29.7144 22.8359 30.0928C22.9432 30.3881 23.2184 30.5709 23.5112 30.5709C23.5938 30.5709 23.6778 30.5565 23.7603 30.5257L24.0772 30.4067C24.4498 30.2663 24.641 29.8463 24.5034 29.4678Z" fill="white"/>
<path d="M34.0461 22.9119C33.9085 22.5328 33.4943 22.3393 33.1217 22.479L27.2068 24.6958C26.8335 24.8356 26.643 25.2563 26.7806 25.6347C26.8878 25.93 27.163 26.1128 27.4559 26.1128C27.5384 26.1128 27.6224 26.0985 27.705 26.0677L33.6206 23.8508C33.9932 23.7111 34.1837 23.2911 34.0461 22.9119Z" fill="white"/>
<path d="M34.0461 19.9648C33.9085 19.5856 33.4943 19.3921 33.1217 19.5319L27.2068 21.7487C26.8335 21.8885 26.643 22.3092 26.7806 22.6876C26.8878 22.9829 27.163 23.1657 27.4559 23.1657C27.5384 23.1657 27.6224 23.1513 27.705 23.1205L33.6206 20.9037C33.9932 20.7639 34.1837 20.3432 34.0461 19.9648Z" fill="white"/>
<path d="M36.4991 6.58929L19.1538 0.0886106C18.9929 0.0284059 18.8165 0.0284059 18.6556 0.0886106L1.31028 6.58929V6.59C1.25383 6.61151 1.19878 6.63946 1.14798 6.67529C0.954623 6.81147 0.8396 7.03581 0.8396 7.27519V28.1892C0.8396 28.4952 1.02731 28.769 1.31028 28.8751L18.6556 35.3757C18.7367 35.4058 18.8207 35.4209 18.9047 35.4209C18.9894 35.4209 19.074 35.4051 19.1538 35.375V35.3757L36.4991 28.8751C36.782 28.769 36.9697 28.4952 36.9697 28.1892V7.27519C36.9697 6.96843 36.782 6.69536 36.4991 6.58929ZM18.1849 33.6406L2.27916 27.6796V8.32376L5.51817 9.53788V18.3951C5.51817 18.7012 5.70588 18.975 5.98885 19.081L13.7618 21.9938C13.8429 22.0239 13.9269 22.039 14.0109 22.039C14.1562 22.039 14.3002 21.9945 14.4223 21.9078C14.6156 21.7709 14.7307 21.5473 14.7307 21.3079V12.9903L18.1856 14.2847L18.1849 33.6406ZM13.2911 12.4506V20.2586L6.95773 17.8848V10.0769L13.2911 12.4506ZM8.31685 9.02256L14.0109 6.88888L19.7049 9.02256L14.0109 11.1562L8.31685 9.02256ZM18.9047 12.9961L16.082 11.9382L22.0329 9.70775C22.3159 9.60167 22.5036 9.32788 22.5036 9.02184C22.5036 8.7158 22.3159 8.44201 22.0329 8.33594L14.26 5.42318C14.0991 5.36297 13.9227 5.36297 13.7618 5.42318L6.22948 8.24635L3.63827 7.27519L18.9047 1.55359L34.1711 7.27447L18.9047 12.9961ZM35.5302 27.6796L19.6245 33.6406V14.2847L35.5302 8.32376V27.6796Z" fill="white"/>
</g>
<defs>
<clipPath id="clip0_319_12640">
<rect width="36.1301" height="35.3774" fill="white" transform="translate(0.8396 0.043457)"/>
</clipPath>
</defs>
</svg>
