<svg id="Instagram" xmlns="http://www.w3.org/2000/svg" width="18" height="18" viewBox="0 0 18 18">
  <path id="Контур_298" data-name="Контур 298" d="M-87.851,115.087c2.4,0,2.688.009,3.637.053a4.955,4.955,0,0,1,1.671.31,2.79,2.79,0,0,1,1.035.673,2.789,2.789,0,0,1,.674,1.035,4.992,4.992,0,0,1,.309,1.672c.043.949.053,1.233.053,3.637s-.009,2.687-.053,3.636a4.992,4.992,0,0,1-.309,1.672,2.781,2.781,0,0,1-.674,1.035,2.79,2.79,0,0,1-1.035.673,4.955,4.955,0,0,1-1.671.31c-.949.043-1.233.053-3.637.053s-2.688-.009-3.637-.053a4.955,4.955,0,0,1-1.671-.31,2.79,2.79,0,0,1-1.035-.673,2.793,2.793,0,0,1-.674-1.035,4.992,4.992,0,0,1-.309-1.672c-.043-.949-.053-1.233-.053-3.636s.009-2.688.053-3.637a4.992,4.992,0,0,1,.309-1.672,2.8,2.8,0,0,1,.674-1.035,2.79,2.79,0,0,1,1.035-.673,4.955,4.955,0,0,1,1.671-.31c.949-.043,1.234-.053,3.637-.053m0-1.621c-2.444,0-2.751.01-3.711.054a6.651,6.651,0,0,0-2.185.418,4.432,4.432,0,0,0-1.594,1.038,4.409,4.409,0,0,0-1.038,1.594,6.6,6.6,0,0,0-.418,2.185c-.044.96-.054,1.266-.054,3.711s.01,2.751.054,3.711a6.6,6.6,0,0,0,.418,2.184,4.41,4.41,0,0,0,1.038,1.594,4.42,4.42,0,0,0,1.594,1.038,6.6,6.6,0,0,0,2.185.418c.96.043,1.266.054,3.711.054s2.751-.011,3.711-.054a6.592,6.592,0,0,0,2.184-.418,4.415,4.415,0,0,0,1.6-1.038,4.41,4.41,0,0,0,1.038-1.594,6.6,6.6,0,0,0,.418-2.184c.044-.96.054-1.266.054-3.711s-.01-2.751-.054-3.711a6.6,6.6,0,0,0-.418-2.185,4.41,4.41,0,0,0-1.038-1.594,4.428,4.428,0,0,0-1.6-1.038,6.64,6.64,0,0,0-2.184-.418c-.96-.043-1.266-.054-3.711-.054" transform="translate(96.851 -113.466)" fill="#ea5e20"/>
  <path id="Контур_299" data-name="Контур 299" d="M-87.486,118.209a4.622,4.622,0,0,0-4.622,4.622,4.621,4.621,0,0,0,4.622,4.621,4.621,4.621,0,0,0,4.622-4.621,4.622,4.622,0,0,0-4.622-4.622m0,7.622a3,3,0,0,1-3-3,3,3,0,0,1,3-3,3,3,0,0,1,3,3,3,3,0,0,1-3,3" transform="translate(96.486 -113.831)" fill="#ea5e20"/>
  <path id="Контур_300" data-name="Контур 300" d="M-80.906,117.921a1.08,1.08,0,0,1-1.08,1.08,1.08,1.08,0,0,1-1.08-1.08,1.08,1.08,0,0,1,1.08-1.08,1.08,1.08,0,0,1,1.08,1.08" transform="translate(95.791 -113.726)" fill="#ea5e20"/>
</svg>
