<svg id="LinkedIn" xmlns="http://www.w3.org/2000/svg" width="17.992" height="18" viewBox="0 0 17.992 18">
  <g id="Сгруппировать_16" data-name="Сгруппировать 16">
    <rect id="Прямоугольник_45" data-name="Прямоугольник 45" width="3.715" height="12" transform="translate(0.357 6)" fill="#ea5e20"/>
    <path id="Контур_301" data-name="Контур 301" d="M258.371,142.906a2.214,2.214,0,1,0-2.2-2.215A2.206,2.206,0,0,0,258.371,142.906Z" transform="translate(-256.175 -138.478)" fill="#ea5e20"/>
  </g>
  <path id="Контур_302" data-name="Контур 302" d="M268.255,151.988c0-1.686.777-2.692,2.264-2.692,1.365,0,2.022.965,2.022,2.692v6.3h3.7v-7.6c0-3.214-1.822-4.768-4.366-4.768a4.184,4.184,0,0,0-3.616,1.983v-1.617h-3.563v12h3.563Z" transform="translate(-258.246 -140.288)" fill="#ea5e20"/>
</svg>
