<svg width="20" height="20" viewBox="0 0 20 20" fill="none" xmlns="http://www.w3.org/2000/svg">
<path d="M16.0999 16.3C15.6999 15.2 14.3999 14.4 12.4999 14.1L15.3999 9.5V9.4C15.9999 8.4 16.2999 7.3 16.2999 6.2C16.2999 2.8 13.4999 0 10.0999 0C6.6999 0 3.8999 2.8 3.8999 6.2C3.8999 7.3 4.1999 8.5 4.7999 9.3L7.5999 14C5.2999 14.6 3.8999 15.6 3.8999 16.9C3.8999 18.7 6.5999 20 10.0999 20C13.5999 20 16.2999 18.7 16.2999 17V16.8C16.2999 16.7 16.2999 16.6 16.1999 16.5C16.1999 16.5 16.1999 16.4 16.0999 16.3ZM8.4999 15.5L9.4999 17C9.5999 17.3 9.8999 17.4 10.1999 17.4C10.4999 17.4 10.7999 17.2 10.8999 17L11.7999 15.5C13.8999 15.8 14.7999 16.6 14.7999 16.9C14.7999 17.3 13.1999 18.4 10.1999 18.4C7.1999 18.4 5.5999 17.3 5.5999 16.9C5.4999 16.5 6.4999 15.7 8.4999 15.5ZM10.0999 1.6C12.5999 1.6 14.6999 3.7 14.6999 6.2C14.6999 7 14.3999 7.9 14.1999 8.6L10.1999 15L6.3999 8.6C5.8999 7.8 5.5999 7 5.5999 6.2C5.5999 3.6 7.5999 1.6 10.0999 1.6Z" fill="#29A1F4"/>
<path d="M10.0999 8.79961C11.4999 8.79961 12.6999 7.59961 12.6999 6.19961C12.6999 4.79961 11.4999 3.59961 10.0999 3.59961C8.69985 3.59961 7.59985 4.79961 7.59985 6.19961C7.59985 7.59961 8.69985 8.79961 10.0999 8.79961ZM10.0999 5.29961C10.6999 5.29961 10.9999 5.79961 10.9999 6.19961C10.9999 6.59961 10.5999 7.09961 10.0999 7.09961C9.59985 7.09961 9.19985 6.59961 9.19985 6.19961C9.19985 5.69961 9.59985 5.29961 10.0999 5.29961Z" fill="#29A1F4"/>
</svg>
