<svg width="20" height="20" viewBox="0 0 20 20" fill="none" xmlns="http://www.w3.org/2000/svg">
<g clip-path="url(#clip0_1170_7142)">
<path d="M19.0001 14.2C18.1001 13.3 15.8001 11.7 14.2001 11.7C13.8001 11.7 13.4001 11.8 13.2001 12C12.7001 12.3 12.0001 12.8 11.7001 12.8C11.6001 12.8 11.4001 12.6 11.2001 12.4L11.1001 12.3C10.1001 11.4 9.90009 11.2 9.50009 10.8L9.20009 10.5C8.90009 10.2 8.60009 9.9 7.80009 9L7.70009 8.9C7.40009 8.6 7.10009 8.2 7.10009 8.1C7.10009 8 7.30009 7.6 7.70009 7C8.40009 6.1 8.40009 5 7.80009 3.8C7.40009 2.8 6.60009 1.9 6.00009 1.2L5.90009 1.1C5.30009 0.4 4.70009 0 3.90009 0C3.00009 0 2.30009 0.4 2.00009 0.7H1.90009C1.10009 1.3 0.500086 2 0.200086 2.7C-0.0999143 3.8 -0.399914 5.2 1.20009 8C2.50009 10.4 3.70009 12 5.60009 14C7.40009 15.8 8.20009 16.4 10.0001 17.7C12.0001 19.2 13.9001 20 15.3001 20C16.5001 20 17.6001 20 19.1001 18.3C20.6001 16.4 19.9001 15.2 19.0001 14.2ZM2.60009 1.9C3.00009 1.7 3.40009 1.4 3.90009 1.4C4.30009 1.4 4.60009 1.6 4.90009 2L5.00009 2.1C6.30009 3.8 7.40009 5.2 6.70009 6.2C6.00009 7 5.70009 7.6 5.70009 8.2C5.80009 8.8 6.20009 9.3 6.70009 9.9C7.60009 10.9 7.90009 11.2 8.20009 11.5L8.50009 11.8C8.90009 12.3 9.20009 12.5 10.2001 13.4L10.3001 13.5C10.7001 13.9 11.1001 14.2 11.7001 14.2C12.3001 14.2 12.8001 13.9 13.9001 13.2C14.0001 13.2 14.1001 13.1 14.2001 13.1C15.3001 13.1 17.3001 14.4 18.0001 15.2C18.6001 15.8 18.9001 16.2 18.0001 17.3C17.0001 18.6 16.4001 18.6 15.3001 18.6C14.2001 18.6 12.5001 17.8 10.8001 16.6C9.10009 15.4 8.30009 14.8 6.60009 13C4.80009 11.2 3.70009 9.6 2.40009 7.3C1.10009 5 1.30009 4 1.50009 3.1C1.70009 2.7 2.10009 2.3 2.60009 1.9Z" fill="#29A1F4"/>
</g>
<defs>
<clipPath id="clip0_1170_7142">
<rect width="20" height="20" fill="white"/>
</clipPath>
</defs>
</svg>
