<svg id="question" xmlns="http://www.w3.org/2000/svg" width="18" height="18" viewBox="0 0 18 18">
  <circle id="Эллипс_56" data-name="Эллипс 56" cx="9" cy="9" r="9" fill="#ea5e20"/>
  <g id="Сгруппировать_400" data-name="Сгруппировать 400" transform="translate(-1134.662 141.89)">
    <path id="Контур_544" data-name="Контур 544" d="M1142.584-130.5a3.524,3.524,0,0,1,.241-1.495,4.331,4.331,0,0,1,1.039-1.13,6.586,6.586,0,0,0,.906-1.064,1.994,1.994,0,0,0,.337-1.122,1.506,1.506,0,0,0-.384-1.1,1.463,1.463,0,0,0-1.093-.391,1.616,1.616,0,0,0-1.031.333,1.173,1.173,0,0,0-.425.983h-1.711l-.022-.044a2.415,2.415,0,0,1,.874-2.029,3.555,3.555,0,0,1,2.315-.727,3.425,3.425,0,0,1,2.394.782,2.79,2.79,0,0,1,.859,2.172,3.011,3.011,0,0,1-.537,1.722,6.644,6.644,0,0,1-1.356,1.451,1.671,1.671,0,0,0-.523.695,3.318,3.318,0,0,0-.106.965Zm1.806,3.013h-1.813v-1.7h1.813Z" fill="#fff"/>
  </g>
</svg>
