<svg xmlns="http://www.w3.org/2000/svg" width="21.429" height="20" viewBox="0 0 21.429 20">
  <g id="Reset" transform="translate(-1141.91 6.466)">
    <path id="Контур_541" data-name="Контур 541" d="M1147.388,9.746l-.969-4.622a.431.431,0,0,0-.728-.217l-.95.948a8.322,8.322,0,0,1,2.086-8.218,8.349,8.349,0,0,1,8.939-1.864l1.264-1.263a9.992,9.992,0,0,0-13.615,12.671l-1.379,1.38a.431.431,0,0,0,.217.728l4.622.968A.431.431,0,0,0,1147.388,9.746Z" fill="#ea5e20"/>
    <path id="Контур_542" data-name="Контур 542" d="M1162.339-2.8l-4.623-.97a.432.432,0,0,0-.511.513l.969,4.622a.432.432,0,0,0,.729.217L1159.94.547a8.327,8.327,0,0,1-1.974,8.582,8.349,8.349,0,0,1-8.939,1.864l-1.264,1.264a9.989,9.989,0,0,0,13.471-13l1.323-1.323A.432.432,0,0,0,1162.339-2.8Z" transform="translate(0.655 0.301)" fill="#ea5e20"/>
  </g>
</svg>
