<svg width="20" height="20" viewBox="0 0 20 20" fill="none" xmlns="http://www.w3.org/2000/svg">
<g clip-path="url(#clip0_1170_7144)">
<path d="M20 18.9528L12.6667 11.7148C13.7143 10.4767 14.2857 8.95285 14.2857 7.23856C14.2857 3.3338 11.0476 0.0957031 7.14286 0.0957031C3.2381 0.0957031 0 3.23856 0 7.23856C0 11.2386 3.2381 14.3814 7.14286 14.3814C8.85714 14.3814 10.381 13.81 11.619 12.7624L18.9524 20.0005L20 18.9528ZM7.14286 12.8576C4 12.8576 1.42857 10.2862 1.42857 7.14332C1.42857 4.00047 4 1.42904 7.14286 1.42904C10.2857 1.42904 12.8571 4.00047 12.8571 7.14332C12.8571 10.2862 10.2857 12.8576 7.14286 12.8576Z" fill="#29A1F4"/>
</g>
<defs>
<clipPath id="clip0_1170_7144">
<rect width="20" height="20" fill="white"/>
</clipPath>
</defs>
</svg>
