<svg width="20" height="20" viewBox="0 0 20 20" fill="none" xmlns="http://www.w3.org/2000/svg">
<path d="M10 20C4.52632 20 0 15.4737 0 10C0 4.52632 4.52632 0 10 0C15.4737 0 20 4.52632 20 10C20 15.4737 15.4737 20 10 20ZM10 1.36842C5.26316 1.36842 1.47368 5.26316 1.47368 10C1.47368 14.7368 5.26316 18.5263 10 18.5263C14.7368 18.5263 18.5263 14.6316 18.5263 10C18.5263 5.36842 14.7368 1.36842 10 1.36842ZM12.3158 13.4737C12.1053 13.4737 12 13.3684 11.7895 13.2632L9.26316 10.7368V5.36842C9.26316 4.94737 9.57895 4.63158 10 4.63158C10.4211 4.63158 10.7368 4.94737 10.7368 5.36842V10.2105L12.8421 12.3158C13.1579 12.6316 13.1579 13.0526 12.8421 13.3684C12.7368 13.4737 12.5263 13.4737 12.3158 13.4737Z" fill="#29A1F4"/>
</svg>
