<svg id="Twitter" xmlns="http://www.w3.org/2000/svg" width="18" height="14.629" viewBox="0 0 18 14.629">
  <path id="Twitter-2" data-name="Twitter" d="M-195.717,134.586a10.454,10.454,0,0,0,5.66,1.66,10.446,10.446,0,0,0,10.5-10.986,7.5,7.5,0,0,0,1.842-1.912,7.375,7.375,0,0,1-2.121.581,3.7,3.7,0,0,0,1.624-2.043,7.4,7.4,0,0,1-2.345.9,3.689,3.689,0,0,0-2.7-1.167,3.7,3.7,0,0,0-3.6,4.535,10.482,10.482,0,0,1-7.612-3.859,3.7,3.7,0,0,0,1.143,4.931,3.679,3.679,0,0,1-1.674-.462,3.7,3.7,0,0,0,2.962,3.668,3.7,3.7,0,0,1-1.667.063,3.7,3.7,0,0,0,3.45,2.565A7.424,7.424,0,0,1-195.717,134.586Z" transform="translate(195.717 -121.617)" fill="#ea5e20"/>
</svg>
