<svg width="20" height="20" viewBox="0 0 20 20" fill="none" xmlns="http://www.w3.org/2000/svg">
<path d="M9.9999 20C7.2999 20 4.6999 18.9 2.7999 17L2.3999 16.6L2.5999 16.1C3.8999 13.3 6.7999 11.6 9.8999 11.6C12.9999 11.6 15.8999 13.4 17.1999 16.1L17.3999 16.6L17.1999 17C15.2999 18.9 12.6999 20 9.9999 20ZM4.2999 16.3C5.7999 17.7 7.8999 18.5 9.9999 18.5C12.0999 18.5 14.1999 17.7 15.6999 16.3C14.5999 14.3 12.3999 13.1 9.9999 13.1C7.5999 13.1 5.3999 14.3 4.2999 16.3ZM9.9999 10.8C6.8999 10.8 4.3999 8.4 4.3999 5.4C4.3999 2.4 6.8999 0 9.9999 0C13.0999 0 15.5999 2.4 15.5999 5.4C15.5999 8.4 13.0999 10.8 9.9999 10.8ZM9.9999 1.5C7.6999 1.5 5.8999 3.2 5.8999 5.4C5.8999 7.6 7.6999 9.3 9.9999 9.3C12.2999 9.3 14.0999 7.6 14.0999 5.4C14.0999 3.2 12.2999 1.5 9.9999 1.5Z" fill="#29A1F4"/>
</svg>
