<svg width="650" height="175" viewBox="0 0 650 175" fill="none" xmlns="http://www.w3.org/2000/svg">
<path d="M650 161.604H622.243V159.616H648.003V125.511L645.307 122.826L648.003 116.761V83.451C648.003 77.0874 647.504 62.9681 645.507 55.7096C643.61 48.4511 640.315 35.4256 638.617 28.9625C637.419 22.9966 632.128 11.6615 620.945 11.6615H570.922L570.722 11.562C564.831 8.08192 554.946 3.01091 551.951 3.01091H547.258C544.462 23.1955 539.27 66.3488 539.27 91.0078V119.346H422.75V117.357H537.373V90.9083C537.373 65.7522 542.665 21.6046 545.461 1.81774L545.561 0.922852H552.051C556.344 0.922852 569.624 8.47964 571.621 9.67282H621.045C633.525 9.67282 639.316 22.0023 640.714 28.4654C642.312 34.9284 645.607 47.9539 647.504 55.2124C649.501 62.6698 650 76.9879 650 83.451V117.258L647.704 122.428L650 124.715V161.604Z" fill="#004486"/>
<path d="M647.104 124.317C639.217 121.931 613.356 116.761 577.512 116.263C544.862 115.766 539.27 116.065 538.272 116.164V116.263C537.972 116.263 537.473 116.164 537.473 115.667C537.473 115.07 537.473 114.971 545.661 114.971C552.45 114.971 563.134 115.07 577.412 115.269C613.356 115.766 637.919 120.34 645.906 122.726L647.104 124.317Z" fill="#004486"/>
<path d="M449.309 161.604V150.965C449.309 136.15 437.427 124.118 422.75 124.118C408.072 124.118 396.19 136.15 396.19 150.965V161.604H389.401V149.672C389.401 131.775 404.378 117.258 422.75 117.258C441.121 117.258 456.098 131.775 456.098 149.672V161.604H449.309ZM451.306 159.616H454.101V149.672C454.101 132.868 440.023 119.246 422.75 119.246C405.476 119.246 391.398 132.868 391.398 149.672V159.616H394.194V150.965C394.194 135.056 406.974 122.13 422.75 122.13C438.525 122.13 451.306 135.056 451.306 150.965V159.616Z" fill="#004486"/>
<path d="M422.75 174.232C409.77 174.232 399.086 163.593 399.086 150.567C399.086 137.542 409.67 126.903 422.75 126.903C435.829 126.903 446.413 137.542 446.413 150.567C446.413 163.593 435.73 174.232 422.75 174.232ZM422.75 128.991C410.868 128.991 401.083 138.735 401.083 150.667C401.083 162.598 410.768 172.343 422.75 172.343C434.731 172.343 444.416 162.598 444.416 150.667C444.416 138.735 434.631 128.991 422.75 128.991Z" fill="#004486"/>
<path d="M422.75 166.775C413.863 166.775 406.575 159.516 406.575 150.567C406.575 141.618 413.863 134.36 422.75 134.36C431.636 134.36 438.925 141.618 438.925 150.567C438.925 159.516 431.636 166.775 422.75 166.775ZM422.75 135.454C414.363 135.454 407.573 142.314 407.573 150.667C407.573 159.019 414.363 165.88 422.75 165.88C431.137 165.88 437.926 159.019 437.926 150.667C437.926 142.314 431.037 135.454 422.75 135.454Z" fill="#004486"/>
<path d="M422.75 159.317C417.957 159.317 414.063 155.439 414.063 150.567C414.063 145.695 417.957 141.817 422.75 141.817C427.542 141.817 431.436 145.695 431.436 150.567C431.436 155.439 427.542 159.317 422.75 159.317ZM422.75 142.911C418.456 142.911 415.061 146.391 415.061 150.667C415.061 154.942 418.556 158.422 422.75 158.422C426.943 158.422 430.438 154.942 430.438 150.667C430.438 146.391 426.943 142.911 422.75 142.911Z" fill="#004486"/>
<path d="M622.642 161.604H616.052V151.562C616.052 135.354 614.255 124.715 590.591 124.715C566.928 124.715 565.131 135.354 565.131 151.562V161.604H558.541V150.269C558.541 132.868 558.541 117.854 590.591 117.854C622.642 117.854 622.642 132.868 622.642 150.269V161.604ZM618.049 159.616H620.645V150.269C620.645 132.57 620.645 119.843 590.591 119.843C560.538 119.843 560.538 132.57 560.538 150.269V159.616H563.134V151.562C563.134 135.255 565.131 122.726 590.591 122.726C616.052 122.726 618.049 135.255 618.049 151.562V159.616Z" fill="#004486"/>
<path d="M590.591 174.232C577.611 174.232 566.928 163.593 566.928 150.567C566.928 137.542 577.512 126.903 590.591 126.903C603.671 126.903 614.255 137.542 614.255 150.567C614.255 163.593 603.571 174.232 590.591 174.232ZM590.591 128.991C578.71 128.991 568.925 138.735 568.925 150.667C568.925 162.598 578.61 172.343 590.591 172.343C602.573 172.343 612.258 162.598 612.258 150.667C612.258 138.735 602.473 128.991 590.591 128.991Z" fill="#004486"/>
<path d="M590.591 166.775C581.705 166.775 574.416 159.516 574.416 150.567C574.416 141.618 581.705 134.36 590.591 134.36C599.478 134.36 606.767 141.618 606.767 150.567C606.767 159.516 599.478 166.775 590.591 166.775ZM590.591 135.454C582.204 135.454 575.415 142.314 575.415 150.667C575.415 159.019 582.204 165.88 590.591 165.88C598.979 165.88 605.768 159.019 605.768 150.667C605.768 142.215 598.879 135.454 590.591 135.454Z" fill="#004486"/>
<path d="M590.591 159.317C585.799 159.317 581.905 155.439 581.905 150.567C581.905 145.695 585.799 141.817 590.591 141.817C595.384 141.817 599.278 145.695 599.278 150.567C599.278 155.439 595.384 159.317 590.591 159.317ZM590.591 142.911C586.298 142.911 582.903 146.391 582.903 150.667C582.903 154.942 586.398 158.422 590.591 158.422C594.885 158.422 598.28 154.942 598.28 150.667C598.28 146.391 594.785 142.911 590.591 142.911Z" fill="#004486"/>
<path d="M561.336 159.616H455V161.604H561.336V159.616Z" fill="#004486"/>
<path d="M648.902 84.5447C625.937 80.468 580.806 72.3147 574.916 70.8232C567.627 69.0334 567.627 66.4482 567.727 65.951V52.9255C567.727 48.7494 571.221 46.2636 573.018 45.5676H644.109V46.5619H573.318C571.72 47.1585 568.725 49.346 568.725 52.9255V66.1499C568.625 66.5476 569.424 68.4368 575.215 69.9283C581.106 71.4198 626.137 79.5732 649.201 83.6499L648.902 84.5447Z" fill="#004486"/>
<path d="M636.022 78.9766C635.822 78.9766 635.522 78.9766 635.223 78.8771C630.63 77.9823 623.641 76.7891 616.851 75.5959C609.562 74.3033 602.773 73.1101 600.376 72.613C595.684 71.5192 594.386 68.5363 594.386 67.1442V53.5221C594.386 49.6443 597.581 48.65 599.278 48.65H622.942C633.226 48.65 633.925 50.5392 635.522 54.9142L635.822 55.809C637.12 59.2891 637.719 66.7465 638.118 71.6186C638.218 72.5135 638.218 73.309 638.318 74.005C638.518 76.2919 638.318 77.684 637.519 78.4794C637.12 78.7777 636.621 78.9766 636.022 78.9766ZM599.278 49.6443C599.078 49.6443 595.384 49.6443 595.384 53.5221V67.2437C595.384 68.4368 596.482 70.8232 600.576 71.7181C602.872 72.2152 609.762 73.4084 616.951 74.701C623.74 75.8942 630.73 77.0874 635.323 77.9823C636.221 78.1811 636.521 77.9823 636.72 77.7834C637.12 77.4851 637.519 76.5902 637.22 74.2039C637.12 73.5078 637.12 72.7124 637.02 71.8175C636.621 66.9454 636.022 59.5874 634.724 56.3062L634.424 55.4113C632.926 51.2352 632.327 49.7437 622.742 49.7437H599.278V49.6443Z" fill="#004486"/>
<path d="M642.212 118.749H642.112L639.616 118.153C633.625 115.667 604.27 112.783 591.29 112.584C590.991 112.584 590.791 112.386 590.791 112.087V37.2153H555.146V36.221H602.373C612.258 36.221 628.333 38.3091 635.422 39.3034C635.622 39.3034 635.722 39.5023 635.822 39.6017C641.313 57.0022 643.111 102.542 642.711 118.153C642.711 118.351 642.611 118.451 642.512 118.55C642.412 118.749 642.312 118.749 642.212 118.749ZM591.69 111.59C605.269 111.888 633.825 114.672 639.916 117.258L641.713 117.755C642.112 101.746 640.215 57.6982 634.923 40.3972C631.129 39.8006 621.943 38.508 612.757 38.0108C604.47 37.5136 595.883 37.2153 591.29 37.2153V36.4199C591.49 36.4199 591.79 36.6188 591.79 36.9171V111.59H591.69Z" fill="#004486"/>
<path d="M648.802 81.3629C644.808 80.0703 644.109 77.9823 643.51 73.5078C643.111 70.7238 642.012 64.4596 641.014 59.3886C640.515 56.4056 640.015 53.721 639.716 52.3289C639.516 51.2352 639.716 50.1414 640.315 49.346C641.214 48.1528 642.711 47.5562 643.81 47.3574L643.909 48.3517C643.011 48.4511 641.713 48.9483 641.114 49.9426C640.614 50.5392 640.515 51.3346 640.614 52.1301C640.814 53.5221 641.313 56.1073 641.912 59.1897C642.811 64.2607 644.009 70.6243 644.409 73.309C645.008 77.4851 645.607 79.1754 649.002 80.3686L648.802 81.3629Z" fill="#004486"/>
<path d="M550.253 160.61V130.582H536.375V160.61H535.376V130.582H462.988V160.61H461.989V130.582H448.21V129.587H535.876H550.253V68.4368C550.253 29.5591 565.23 13.5507 570.922 10.5677L571.421 11.4626C565.929 14.4455 551.352 30.0563 551.352 68.4368V160.61H550.253Z" fill="#004486"/>
<path d="M604.869 104.431H593.687C593.387 104.431 593.187 104.232 593.187 103.934V93.9907C593.187 93.6924 593.387 93.4936 593.687 93.4936H600.476C600.576 93.4936 600.776 93.593 600.876 93.6924L607.066 101.15C607.266 101.448 607.965 102.442 607.465 103.337C607.166 104.133 606.267 104.431 604.869 104.431ZM594.186 103.437H604.869C605.868 103.437 606.467 103.238 606.667 102.94C606.866 102.641 606.667 102.144 606.367 101.746L600.277 94.4879H594.186V103.437Z" fill="#004486"/>
<path d="M600.177 102.84L595.484 98.7634L598.08 95.8799L602.773 99.9566L600.177 102.84ZM596.982 98.664L600.177 101.448L601.375 100.056L598.18 97.272L596.982 98.664Z" fill="#004486"/>
<path d="M642.012 157.329H621.644V156.334H641.014V144.9H621.644V143.905H642.012V157.329Z" fill="#004486"/>
<path d="M641.513 152.655H621.644V153.65H641.513V152.655Z" fill="#004486"/>
<path d="M642.012 142.414H621.045V141.42H641.014V128.692H616.651V127.698H642.012V142.414Z" fill="#004486"/>
<path d="M642.012 142.414H621.644V141.42H641.014V138.635H621.045V137.641H642.012V142.414Z" fill="#004486"/>
<path d="M560.937 127.002H554.247C553.648 127.002 553.249 126.604 553.249 126.008V123.025C553.249 122.428 553.648 122.03 554.247 122.03H560.937C561.536 122.03 561.935 122.428 561.935 123.025V126.008C561.935 126.505 561.536 127.002 560.937 127.002ZM554.247 123.025V126.008H560.937V123.025H554.247Z" fill="#004486"/>
<path d="M457.796 127.002H451.106C450.507 127.002 450.108 126.604 450.108 126.008V123.025C450.108 122.428 450.507 122.03 451.106 122.03H457.796C458.395 122.03 458.794 122.428 458.794 123.025V126.008C458.794 126.505 458.295 127.002 457.796 127.002ZM451.106 123.025V126.008H457.796V123.025H451.106Z" fill="#004486"/>
<path d="M390.399 147.982H383.909C383.111 147.982 382.412 147.286 382.412 146.491V137.243C382.412 136.448 383.111 135.752 383.909 135.752H393.495V136.746H383.909C383.61 136.746 383.41 136.945 383.41 137.243V141.32H391.598V142.314H383.41V146.391C383.41 146.689 383.61 146.888 383.909 146.888H390.399V147.982Z" fill="#004486"/>
<path d="M648.003 147.883L644.908 144.8C644.808 144.701 644.808 144.601 644.808 144.402V131.974C644.808 131.874 644.908 131.675 644.908 131.576L648.003 128.493L648.702 129.189L645.707 132.172V144.204L648.702 147.187L648.003 147.883Z" fill="#004486"/>
<path d="M638.018 88.4226H632.527C631.928 88.4226 631.528 88.0248 631.528 87.4282V84.4453C631.528 83.8487 631.928 83.451 632.527 83.451H638.018C638.618 83.451 639.017 83.8487 639.017 84.4453V87.4282C639.017 87.9254 638.618 88.4226 638.018 88.4226ZM632.627 84.4453V87.4282H638.118V84.4453H632.627Z" fill="#004486"/>
<path d="M631.828 75.9936H628.833C628.234 75.9936 627.834 75.5959 627.834 74.9993V54.5164C627.834 53.9198 628.234 53.5221 628.833 53.5221H631.828C632.427 53.5221 632.826 53.9198 632.826 54.5164V74.8999C632.826 75.4965 632.427 75.9936 631.828 75.9936ZM628.833 54.5164V74.8999H631.828V54.5164H628.833Z" fill="#004486"/>
<path d="M634.823 84.147L631.828 65.6528L632.727 64.6584L635.822 83.9481L634.823 84.147Z" fill="#004486"/>
<path d="M523.195 153.749H472.773C470.576 153.749 468.779 151.959 468.779 149.772V140.326C468.779 138.138 470.576 136.349 472.773 136.349H523.195C525.392 136.349 527.189 138.138 527.189 140.326V149.772C527.189 151.959 525.392 153.749 523.195 153.749ZM472.673 137.343C470.975 137.343 469.677 138.635 469.677 140.326V149.772C469.677 151.462 470.975 152.755 472.673 152.755H523.195C524.893 152.755 526.19 151.462 526.19 149.772V140.326C526.19 138.635 524.893 137.343 523.195 137.343H472.673Z" fill="#004486"/>
<path d="M216.068 145.993H209.278V135.354C209.278 125.809 207.281 125.511 191.406 125.511H75.8833C60.1075 125.511 58.0108 125.908 58.0108 135.354V145.993H51.2212V134.062C51.2212 128.195 52.4194 124.218 54.9155 121.732C58.8095 117.854 65.2995 117.854 74.1859 117.854H193.003C201.989 117.854 208.379 117.854 212.273 121.732C214.77 124.218 215.968 128.195 215.968 134.062V145.993H216.068ZM211.275 144.005H214.071V134.062C214.071 128.692 213.072 125.212 210.975 123.124C207.68 119.843 201.59 119.843 193.103 119.843H74.2857C65.8986 119.843 59.7081 119.843 56.4132 123.124C54.3164 125.212 53.318 128.692 53.318 134.062V144.005H56.1137V135.354C56.1137 123.522 61.106 123.522 75.9831 123.522H191.605C206.482 123.522 211.475 123.522 211.475 135.354V144.005H211.275Z" fill="#004486"/>
<path d="M184.017 174.928C171.037 174.928 160.353 164.289 160.353 151.263C160.353 138.238 170.937 127.599 184.017 127.599C197.097 127.599 207.68 138.238 207.68 151.263C207.68 164.289 196.997 174.928 184.017 174.928ZM184.017 129.587C172.135 129.587 162.35 139.331 162.35 151.263C162.35 163.195 172.035 172.939 184.017 172.939C195.998 172.939 205.684 163.195 205.684 151.263C205.684 139.331 195.899 129.587 184.017 129.587Z" fill="#004486"/>
<path d="M184.017 167.471C175.131 167.471 167.842 160.212 167.842 151.263C167.842 142.314 175.131 135.056 184.017 135.056C192.903 135.056 200.192 142.314 200.192 151.263C200.192 160.212 192.903 167.471 184.017 167.471ZM184.017 136.05C175.63 136.05 168.84 142.911 168.84 151.263C168.84 159.616 175.63 166.476 184.017 166.476C192.404 166.476 199.194 159.616 199.194 151.263C199.194 142.911 192.404 136.05 184.017 136.05Z" fill="#004486"/>
<path d="M186.114 163.692C185.914 163.692 185.614 163.493 185.614 163.294C185.614 162.996 185.714 162.797 186.014 162.698C187.911 162.4 189.708 161.604 191.206 160.411C191.406 160.212 191.705 160.312 191.905 160.51C192.104 160.709 192.005 161.008 191.805 161.206C190.207 162.4 188.21 163.294 186.114 163.692ZM181.121 163.493H181.022C179.025 162.996 177.128 162.002 175.53 160.61C175.33 160.411 175.33 160.113 175.53 159.914C175.73 159.715 176.029 159.715 176.229 159.914C177.627 161.206 179.424 162.101 181.221 162.598C181.521 162.698 181.621 162.897 181.621 163.195C181.521 163.394 181.321 163.493 181.121 163.493ZM194.7 157.428C194.601 157.428 194.501 157.428 194.501 157.329C194.301 157.229 194.201 156.931 194.301 156.633C195.2 154.942 195.699 153.053 195.699 151.164C195.699 150.866 195.899 150.667 196.198 150.667C196.498 150.667 196.697 150.866 196.697 151.164C196.697 153.252 196.198 155.34 195.2 157.13C195 157.428 194.8 157.428 194.7 157.428ZM173.034 156.732C172.834 156.732 172.634 156.633 172.535 156.434C171.836 154.843 171.436 153.053 171.436 151.263C171.436 150.965 171.436 150.667 171.436 150.368C171.436 150.07 171.636 149.871 171.935 149.871C172.235 149.871 172.435 150.17 172.435 150.368C172.435 150.667 172.435 150.866 172.435 151.164C172.435 152.854 172.734 154.445 173.433 155.937C173.533 156.235 173.433 156.434 173.134 156.633C173.134 156.732 173.034 156.732 173.034 156.732ZM195.3 147.485C195.1 147.485 194.9 147.385 194.8 147.187C194.101 145.397 193.003 143.806 191.605 142.513C191.406 142.314 191.406 142.016 191.605 141.817C191.805 141.618 192.104 141.618 192.304 141.817C193.902 143.209 195.1 144.9 195.799 146.888C195.899 147.187 195.799 147.385 195.499 147.485C195.499 147.485 195.399 147.485 195.3 147.485ZM173.233 146.192C173.134 146.192 173.034 146.192 173.034 146.093C172.834 145.993 172.734 145.695 172.834 145.397C173.833 143.508 175.23 141.917 176.928 140.823C177.128 140.624 177.427 140.724 177.627 140.922C177.826 141.121 177.727 141.42 177.527 141.618C175.929 142.712 174.631 144.204 173.733 145.894C173.633 146.093 173.433 146.192 173.233 146.192ZM187.711 140.226C187.611 140.226 187.611 140.226 187.512 140.226C185.714 139.63 183.717 139.53 181.82 139.829C181.521 139.928 181.321 139.729 181.221 139.431C181.121 139.133 181.321 138.934 181.621 138.834C183.618 138.437 185.814 138.536 187.811 139.232C188.111 139.331 188.21 139.63 188.111 139.829C188.111 140.127 187.911 140.226 187.711 140.226Z" fill="#004486"/>
<path d="M424.747 163.096C424.547 163.096 424.347 162.897 424.247 162.698C424.247 162.4 424.347 162.201 424.647 162.101C426.544 161.803 428.341 161.008 429.839 159.814C430.038 159.615 430.338 159.715 430.538 159.914C430.737 160.113 430.638 160.411 430.438 160.61C428.84 161.803 426.943 162.698 424.747 163.096C424.846 163.096 424.846 163.096 424.747 163.096ZM419.854 162.897H419.754C417.757 162.4 415.86 161.405 414.263 160.013C414.063 159.814 414.063 159.516 414.263 159.317C414.462 159.118 414.762 159.118 414.962 159.317C416.359 160.61 418.157 161.505 419.954 162.002C420.253 162.101 420.353 162.3 420.353 162.598C420.253 162.698 420.054 162.897 419.854 162.897ZM433.333 156.831C433.233 156.831 433.134 156.831 433.134 156.732C432.934 156.633 432.834 156.334 432.934 156.036C433.833 154.346 434.332 152.456 434.332 150.567C434.332 150.269 434.531 150.07 434.831 150.07C435.131 150.07 435.33 150.269 435.33 150.567C435.33 152.655 434.831 154.743 433.833 156.533C433.733 156.732 433.533 156.831 433.333 156.831ZM411.667 156.135C411.467 156.135 411.267 156.036 411.167 155.837C410.469 154.246 410.069 152.456 410.069 150.667C410.069 150.368 410.069 150.07 410.069 149.772C410.069 149.473 410.369 149.275 410.568 149.275C410.868 149.275 411.068 149.573 411.068 149.772C411.068 150.07 411.068 150.269 411.068 150.567C411.068 152.258 411.367 153.848 412.066 155.34C412.166 155.638 412.066 155.837 411.767 156.036C411.866 156.135 411.767 156.135 411.667 156.135ZM434.032 146.888C433.833 146.888 433.633 146.789 433.533 146.59C432.834 144.8 431.736 143.209 430.338 141.917C430.138 141.718 430.138 141.42 430.338 141.221C430.538 141.022 430.837 141.022 431.037 141.221C432.634 142.613 433.833 144.303 434.532 146.292C434.631 146.59 434.531 146.789 434.232 146.888C434.132 146.888 434.132 146.888 434.032 146.888ZM411.966 145.496C411.866 145.496 411.767 145.496 411.767 145.397C411.567 145.297 411.467 144.999 411.567 144.701C412.565 142.812 413.963 141.221 415.661 140.127C415.86 139.928 416.16 140.027 416.359 140.226C416.559 140.425 416.459 140.724 416.26 140.922C414.662 142.016 413.364 143.508 412.465 145.198C412.366 145.397 412.166 145.496 411.966 145.496ZM426.444 139.63C426.344 139.63 426.344 139.63 426.244 139.63C424.447 139.033 422.45 138.934 420.553 139.232C420.253 139.331 420.054 139.133 419.954 138.834C419.854 138.536 420.054 138.337 420.353 138.238C422.35 137.84 424.547 137.939 426.544 138.635C426.843 138.735 426.943 139.033 426.843 139.232C426.843 139.431 426.644 139.63 426.444 139.63Z" fill="#004486"/>
<path d="M592.089 163.096C591.889 163.096 591.69 162.897 591.59 162.698C591.59 162.4 591.69 162.201 591.989 162.101C593.886 161.803 595.684 161.008 597.181 159.814C597.381 159.615 597.68 159.715 597.88 159.914C598.08 160.113 597.98 160.411 597.78 160.61C596.083 161.803 594.186 162.698 592.089 163.096ZM587.097 162.897H586.997C585 162.4 583.103 161.405 581.505 160.013C581.306 159.814 581.306 159.516 581.505 159.317C581.705 159.118 582.005 159.118 582.204 159.317C583.602 160.61 585.399 161.505 587.197 162.002C587.496 162.101 587.596 162.3 587.596 162.598C587.496 162.698 587.297 162.897 587.097 162.897ZM600.676 156.831C600.576 156.831 600.476 156.831 600.476 156.732C600.277 156.633 600.177 156.334 600.277 156.036C601.175 154.346 601.674 152.456 601.674 150.567C601.674 150.269 601.874 150.07 602.174 150.07C602.473 150.07 602.673 150.269 602.673 150.567C602.673 152.655 602.174 154.743 601.175 156.533C600.975 156.732 600.776 156.831 600.676 156.831ZM578.909 156.135C578.71 156.135 578.51 156.036 578.41 155.837C577.711 154.246 577.312 152.456 577.312 150.667C577.312 150.368 577.312 150.07 577.312 149.772C577.312 149.473 577.611 149.275 577.811 149.275C578.111 149.275 578.31 149.573 578.31 149.772C578.31 150.07 578.31 150.269 578.31 150.567C578.31 152.258 578.61 153.848 579.309 155.34C579.409 155.638 579.309 155.837 579.009 156.036C579.109 156.135 579.009 156.135 578.909 156.135ZM601.275 146.888C601.075 146.888 600.876 146.789 600.776 146.59C600.077 144.8 598.979 143.209 597.581 141.917C597.381 141.718 597.381 141.42 597.581 141.221C597.78 141.022 598.08 141.022 598.28 141.221C599.877 142.613 601.075 144.303 601.774 146.292C601.874 146.59 601.774 146.789 601.475 146.888C601.475 146.888 601.375 146.888 601.275 146.888ZM579.209 145.496C579.109 145.496 579.009 145.496 579.009 145.397C578.81 145.297 578.71 144.999 578.81 144.701C579.808 142.812 581.206 141.221 582.903 140.127C583.103 139.928 583.402 140.027 583.602 140.226C583.802 140.425 583.702 140.724 583.502 140.922C581.905 142.016 580.607 143.508 579.708 145.198C579.608 145.397 579.409 145.496 579.209 145.496ZM593.687 139.63C593.587 139.63 593.587 139.63 593.487 139.63C591.69 139.033 589.693 138.934 587.796 139.232C587.496 139.331 587.296 139.133 587.197 138.834C587.097 138.536 587.297 138.337 587.596 138.238C589.593 137.84 591.79 137.939 593.786 138.635C594.086 138.735 594.186 139.033 594.086 139.232C594.086 139.431 593.886 139.63 593.687 139.63Z" fill="#004486"/>
<path d="M136.39 163.692C136.19 163.692 135.891 163.493 135.891 163.294C135.891 162.996 135.991 162.797 136.29 162.698C138.187 162.4 139.985 161.604 141.482 160.411C141.682 160.212 141.982 160.312 142.181 160.51C142.381 160.709 142.281 161.008 142.081 161.206C140.384 162.4 138.487 163.294 136.39 163.692ZM131.398 163.493H131.298C129.301 162.996 127.404 162.002 125.806 160.61C125.607 160.411 125.607 160.113 125.806 159.914C126.006 159.715 126.306 159.715 126.505 159.914C127.903 161.206 129.7 162.101 131.498 162.598C131.797 162.698 131.897 162.897 131.897 163.195C131.797 163.394 131.598 163.493 131.398 163.493ZM144.977 157.428C144.877 157.428 144.777 157.428 144.777 157.329C144.578 157.229 144.478 156.931 144.578 156.633C145.476 154.942 145.975 153.053 145.975 151.164C145.975 150.866 146.175 150.667 146.475 150.667C146.774 150.667 146.974 150.866 146.974 151.164C146.974 153.252 146.475 155.34 145.476 157.13C145.277 157.428 145.077 157.428 144.977 157.428ZM123.21 156.732C123.011 156.732 122.811 156.633 122.711 156.434C122.012 154.843 121.613 153.053 121.613 151.263C121.613 150.965 121.613 150.667 121.613 150.368C121.613 150.07 121.912 149.871 122.112 149.871C122.412 149.871 122.611 150.17 122.611 150.368C122.611 150.667 122.611 150.866 122.611 151.164C122.611 152.854 122.911 154.445 123.61 155.937C123.71 156.235 123.61 156.434 123.31 156.633C123.41 156.732 123.31 156.732 123.21 156.732ZM145.576 147.485C145.376 147.485 145.177 147.385 145.077 147.187C144.378 145.397 143.28 143.806 141.882 142.513C141.682 142.314 141.682 142.016 141.882 141.817C142.081 141.618 142.381 141.618 142.581 141.817C144.178 143.209 145.376 144.9 146.075 146.888C146.175 147.187 146.075 147.385 145.776 147.485C145.776 147.485 145.676 147.485 145.576 147.485ZM123.51 146.192C123.41 146.192 123.31 146.192 123.31 146.093C123.111 145.993 123.011 145.695 123.111 145.397C124.109 143.508 125.507 141.917 127.204 140.823C127.404 140.624 127.704 140.724 127.903 140.922C128.103 141.121 128.003 141.42 127.803 141.618C126.206 142.712 124.908 144.204 124.009 145.894C123.909 146.093 123.71 146.192 123.51 146.192ZM137.988 140.226C137.888 140.226 137.888 140.226 137.788 140.226C136.69 139.829 135.492 139.63 134.293 139.63C133.594 139.63 132.896 139.729 132.197 139.829C131.897 139.928 131.697 139.729 131.598 139.431C131.498 139.133 131.697 138.934 131.997 138.834C132.796 138.735 133.495 138.635 134.293 138.635C135.591 138.635 136.889 138.834 138.088 139.232C138.387 139.331 138.487 139.63 138.387 139.829C138.387 140.127 138.187 140.226 137.988 140.226Z" fill="#004486"/>
<path d="M86.3671 163.692C86.1674 163.692 85.8679 163.493 85.8679 163.294C85.8679 162.996 85.9677 162.797 86.2673 162.698C88.1644 162.4 89.9616 161.604 91.4593 160.411C91.659 160.212 91.9585 160.312 92.1582 160.51C92.3579 160.709 92.2581 161.008 92.0584 161.206C90.4608 162.4 88.5638 163.294 86.3671 163.692C86.467 163.692 86.467 163.692 86.3671 163.692ZM81.4747 163.493H81.3748C79.3779 162.996 77.4808 162.002 75.8833 160.61C75.6836 160.411 75.6836 160.113 75.8833 159.914C76.083 159.715 76.3825 159.715 76.5822 159.914C77.98 161.206 79.7773 162.101 81.5745 162.598C81.874 162.698 81.9739 162.897 81.9739 163.195C81.874 163.394 81.6743 163.493 81.4747 163.493ZM94.9539 157.428C94.8541 157.428 94.7542 157.428 94.7542 157.329C94.5545 157.229 94.4547 156.931 94.5545 156.633C95.4531 154.942 95.9524 153.053 95.9524 151.164C95.9524 150.866 96.1521 150.667 96.4516 150.667C96.7512 150.667 96.9508 150.866 96.9508 151.164C96.9508 153.252 96.4516 155.34 95.4531 157.13C95.3533 157.428 95.1536 157.428 94.9539 157.428ZM73.2873 156.732C73.0876 156.732 72.8879 156.633 72.788 156.434C72.0891 154.843 71.6897 153.053 71.6897 151.263C71.6897 150.965 71.6897 150.667 71.6897 150.368C71.6897 150.07 71.9893 149.871 72.1889 149.871C72.4885 149.871 72.6882 150.17 72.6882 150.368C72.6882 150.667 72.6882 150.866 72.6882 151.164C72.6882 152.854 72.9877 154.445 73.6866 155.937C73.7865 156.235 73.6866 156.434 73.3871 156.633C73.4869 156.732 73.3871 156.732 73.2873 156.732ZM95.6528 147.485C95.4532 147.485 95.2535 147.385 95.1536 147.187C94.4547 145.397 93.3564 143.806 91.9585 142.513C91.7588 142.314 91.7588 142.016 91.9585 141.817C92.1582 141.618 92.4578 141.618 92.6575 141.817C94.255 143.209 95.4532 144.9 96.1521 146.888C96.2519 147.187 96.1521 147.385 95.8525 147.485C95.7527 147.485 95.7527 147.485 95.6528 147.485ZM73.5868 146.192C73.4869 146.192 73.3871 146.192 73.3871 146.093C73.1874 145.993 73.0876 145.695 73.1874 145.397C74.1859 143.508 75.5837 141.917 77.2811 140.823C77.4808 140.624 77.7803 140.724 77.98 140.922C78.1797 141.121 78.0799 141.42 77.8802 141.618C76.2826 142.712 74.9846 144.204 74.086 145.894C73.9862 146.093 73.7865 146.192 73.5868 146.192ZM88.0645 140.226C87.9647 140.226 87.9647 140.226 87.8648 140.226C86.0676 139.63 84.0707 139.53 82.1736 139.829C81.874 139.928 81.6743 139.729 81.5745 139.431C81.4747 139.133 81.6743 138.934 81.9739 138.834C83.9708 138.437 86.1674 138.536 88.1644 139.232C88.4639 139.331 88.5638 139.63 88.4639 139.829C88.4639 140.127 88.2642 140.226 88.0645 140.226Z" fill="#004486"/>
<path d="M184.017 159.914C179.224 159.914 175.33 156.036 175.33 151.164C175.33 146.292 179.224 142.414 184.017 142.414C188.81 142.414 192.704 146.292 192.704 151.164C192.704 156.036 188.81 159.914 184.017 159.914ZM184.017 143.508C179.724 143.508 176.329 146.988 176.329 151.263C176.329 155.539 179.823 159.019 184.017 159.019C188.31 159.019 191.705 155.539 191.705 151.263C191.705 146.988 188.21 143.508 184.017 143.508Z" fill="#004486"/>
<path d="M134.293 174.928C121.313 174.928 110.63 164.289 110.63 151.263C110.63 138.238 121.214 127.599 134.293 127.599C147.273 127.599 157.957 138.238 157.957 151.263C157.957 164.289 147.273 174.928 134.293 174.928ZM134.293 129.587C122.412 129.587 112.627 139.331 112.627 151.263C112.627 163.195 122.312 172.939 134.293 172.939C146.275 172.939 155.96 163.195 155.96 151.263C155.96 139.331 146.175 129.587 134.293 129.587Z" fill="#004486"/>
<path d="M134.293 167.471C125.407 167.471 118.118 160.212 118.118 151.263C118.118 142.314 125.407 135.056 134.293 135.056C143.18 135.056 150.469 142.314 150.469 151.263C150.469 160.212 143.18 167.471 134.293 167.471ZM134.293 136.05C125.906 136.05 119.117 142.911 119.117 151.263C119.117 159.616 125.906 166.476 134.293 166.476C142.68 166.476 149.47 159.616 149.47 151.263C149.47 142.911 142.68 136.05 134.293 136.05Z" fill="#004486"/>
<path d="M134.293 159.914C129.501 159.914 125.607 156.036 125.607 151.164C125.607 146.292 129.501 142.414 134.293 142.414C139.086 142.414 142.98 146.292 142.98 151.164C142.98 156.036 139.086 159.914 134.293 159.914ZM134.293 143.508C130 143.508 126.605 146.988 126.605 151.263C126.605 155.539 130.1 159.019 134.293 159.019C138.487 159.019 141.982 155.539 141.982 151.263C141.982 146.988 138.487 143.508 134.293 143.508Z" fill="#004486"/>
<path d="M84.3702 174.928C71.3902 174.928 60.7066 164.289 60.7066 151.263C60.7066 138.238 71.2903 127.599 84.3702 127.599C97.4501 127.599 108.034 138.238 108.034 151.263C108.034 164.289 97.3502 174.928 84.3702 174.928ZM84.3702 129.587C72.4885 129.587 62.7035 139.331 62.7035 151.263C62.7035 163.195 72.3886 172.939 84.3702 172.939C96.3518 172.939 106.037 163.195 106.037 151.263C106.037 139.331 96.2519 129.587 84.3702 129.587Z" fill="#004486"/>
<path d="M84.3702 167.471C75.4839 167.471 68.1951 160.212 68.1951 151.263C68.1951 142.314 75.4839 135.056 84.3702 135.056C93.2565 135.056 100.545 142.314 100.545 151.263C100.545 160.212 93.2565 167.471 84.3702 167.471ZM84.3702 136.05C75.9831 136.05 69.1936 142.911 69.1936 151.263C69.1936 159.616 75.9831 166.476 84.3702 166.476C92.7573 166.476 99.5469 159.616 99.5469 151.263C99.5469 142.911 92.6575 136.05 84.3702 136.05Z" fill="#004486"/>
<path d="M84.3702 159.914C79.5776 159.914 75.6836 156.036 75.6836 151.164C75.6836 146.292 79.5776 142.414 84.3702 142.414C89.1628 142.414 93.0568 146.292 93.0568 151.164C93.0568 156.036 89.1628 159.914 84.3702 159.914ZM84.3702 143.508C80.0768 143.508 76.682 146.988 76.682 151.263C76.682 155.539 80.1767 159.019 84.3702 159.019C88.5638 159.019 92.0584 155.539 92.0584 151.263C92.0584 146.988 88.5638 143.508 84.3702 143.508Z" fill="#004486"/>
<path d="M51.2212 150.269H9.18587C8.08756 150.269 7.18894 149.374 7.18894 148.28V138.536C7.18894 137.442 8.08756 136.547 9.18587 136.547H51.2212C52.3195 136.547 53.2181 137.442 53.2181 138.536V148.28C53.2181 149.374 52.3195 150.269 51.2212 150.269ZM9.18587 138.536V148.28H51.2212V138.536H9.18587Z" fill="#004486"/>
<path d="M52.2197 138.536H1.19816C0.599078 138.536 0.199693 138.138 0.199693 137.542V70.326C0.199693 69.7294 0.599078 69.3317 1.19816 69.3317H487.35C487.949 69.3317 488.349 69.7294 488.349 70.326V115.766C488.349 116.363 487.949 116.761 487.35 116.761H356.452L346.767 122.826L346.167 120.837L355.653 114.871C355.853 114.772 355.952 114.672 356.152 114.672H486.352V71.3204H2.19662V136.547H52.2197V138.536ZM325.3 134.758L323.402 133.564L340.776 123.621L341.375 125.61L325.3 134.758Z" fill="#004486"/>
<path d="M481.16 103.238H6.19048C5.89094 103.238 5.69124 103.039 5.69124 102.741V96.8742V69.3317H6.68971V78.7777H60.4071V69.4312H61.4055V78.7777H152.366V69.4312H153.364V78.7777H245.023V69.4312H246.021V78.7777H337.681V69.4312H338.679V78.7777H430.338V70.0277H431.336V78.7777H480.661V70.0277H481.659V96.8742V102.741C481.659 102.94 481.459 103.238 481.16 103.238ZM431.336 102.244H480.661V97.3714H431.336V102.244ZM338.679 102.244H430.338V97.3714H338.679V102.244ZM246.021 102.244H337.681V97.3714H246.021V102.244ZM153.464 102.244H245.123V97.3714H153.464V102.244ZM61.4055 102.244H152.366V97.3714H61.4055V102.244ZM6.68971 102.244H60.4071V97.3714H6.68971V102.244ZM431.336 96.3771H480.661V91.5049H431.336V96.3771ZM338.679 96.3771H430.338V91.5049H338.679V96.3771ZM246.021 96.3771H337.681V91.5049H246.021V96.3771ZM153.464 96.3771H245.123V91.5049H153.464V96.3771ZM61.4055 96.3771H152.366V91.5049H61.4055V96.3771ZM6.68971 96.3771H60.4071V91.5049H6.68971V96.3771ZM431.336 90.5106H480.661V79.772H431.336V90.5106ZM338.679 90.5106H430.338V79.772H338.679V90.5106ZM246.021 90.5106H337.681V79.772H246.021V90.5106ZM153.464 90.5106H245.123V79.772H153.464V90.5106ZM61.4055 90.5106H152.366V79.772H61.4055V90.5106ZM6.68971 90.5106H60.4071V79.772H6.68971V90.5106Z" fill="#004486"/>
<path d="M297.343 111.391H290.653C290.054 111.391 289.654 110.994 289.654 110.397V107.414C289.654 106.817 290.054 106.42 290.653 106.42H297.343C297.942 106.42 298.341 106.817 298.341 107.414V110.397C298.341 110.994 297.942 111.391 297.343 111.391ZM290.653 107.414V110.397H297.343V107.414H290.653Z" fill="#004486"/>
<path d="M197.896 111.391H191.206C190.607 111.391 190.207 110.994 190.207 110.397V107.414C190.207 106.817 190.607 106.42 191.206 106.42H197.896C198.495 106.42 198.894 106.817 198.894 107.414V110.397C198.894 110.994 198.495 111.391 197.896 111.391ZM191.206 107.414V110.397H197.896V107.414H191.206Z" fill="#004486"/>
<path d="M71.0906 111.391H64.4009C63.8018 111.391 63.4025 110.994 63.4025 110.397V107.414C63.4025 106.817 63.8018 106.42 64.4009 106.42H71.0906C71.6897 106.42 72.0891 106.817 72.0891 107.414V110.397C72.0891 110.994 71.6897 111.391 71.0906 111.391ZM64.4009 107.414V110.397H71.0906V107.414H64.4009Z" fill="#004486"/>
<path d="M30.4531 88.522C29.4547 88.522 28.5561 87.7265 28.5561 86.6328V82.8544C28.5561 81.8601 29.3548 80.9652 30.4531 80.9652C31.4516 80.9652 32.3502 81.7607 32.3502 82.8544V86.6328C32.3502 87.7265 31.4516 88.522 30.4531 88.522ZM30.4531 82.059C29.9539 82.059 29.5545 82.4567 29.5545 82.9538V86.7322C29.5545 87.2294 29.9539 87.6271 30.4531 87.6271C30.9524 87.6271 31.3518 87.2294 31.3518 86.7322V82.9538C31.3518 82.4567 30.9524 82.059 30.4531 82.059Z" fill="#004486"/>
<path d="M108.833 88.522C107.834 88.522 106.935 87.7265 106.935 86.6328V82.8544C106.935 81.8601 107.734 80.9652 108.833 80.9652C109.831 80.9652 110.73 81.7607 110.73 82.8544V86.6328C110.63 87.7265 109.831 88.522 108.833 88.522ZM108.833 82.059C108.333 82.059 107.934 82.4567 107.934 82.9538V86.7322C107.934 87.2294 108.333 87.6271 108.833 87.6271C109.332 87.6271 109.731 87.2294 109.731 86.7322V82.9538C109.631 82.4567 109.232 82.059 108.833 82.059Z" fill="#004486"/>
<path d="M201.989 88.522C200.991 88.522 200.092 87.7265 200.092 86.6328V82.8544C200.092 81.8601 200.891 80.9652 201.989 80.9652C203.088 80.9652 203.886 81.7607 203.886 82.8544V86.6328C203.886 87.7265 203.088 88.522 201.989 88.522ZM201.989 82.059C201.49 82.059 201.091 82.4567 201.091 82.9538V86.7322C201.091 87.2294 201.49 87.6271 201.989 87.6271C202.488 87.6271 202.888 87.2294 202.888 86.7322V82.9538C202.888 82.4567 202.488 82.059 201.989 82.059Z" fill="#004486"/>
<path d="M292.75 88.522C291.751 88.522 290.853 87.7265 290.853 86.6328V82.8544C290.853 81.8601 291.651 80.9652 292.75 80.9652C293.748 80.9652 294.647 81.7607 294.647 82.8544V86.6328C294.647 87.7265 293.848 88.522 292.75 88.522ZM292.75 82.059C292.25 82.059 291.851 82.4567 291.851 82.9538V86.7322C291.851 87.2294 292.25 87.6271 292.75 87.6271C293.249 87.6271 293.648 87.2294 293.648 86.7322V82.9538C293.648 82.4567 293.249 82.059 292.75 82.059Z" fill="#004486"/>
<path d="M384.808 88.522C383.81 88.522 382.911 87.7265 382.911 86.6328V82.8544C382.911 81.8601 383.71 80.9652 384.808 80.9652C385.806 80.9652 386.705 81.7607 386.705 82.8544V86.6328C386.705 87.7265 385.806 88.522 384.808 88.522ZM384.808 82.059C384.309 82.059 383.909 82.4567 383.909 82.9538V86.7322C383.909 87.2294 384.309 87.6271 384.808 87.6271C385.307 87.6271 385.707 87.2294 385.707 86.7322V82.9538C385.707 82.4567 385.307 82.059 384.808 82.059Z" fill="#004486"/>
<path d="M456.897 88.522C455.899 88.522 455 87.7265 455 86.6328V82.8544C455 81.8601 455.799 80.9652 456.897 80.9652C457.995 80.9652 458.794 81.7607 458.794 82.8544V86.6328C458.794 87.7265 457.896 88.522 456.897 88.522ZM456.897 82.059C456.398 82.059 455.998 82.4567 455.998 82.9538V86.7322C455.998 87.2294 456.398 87.6271 456.897 87.6271C457.396 87.6271 457.796 87.2294 457.796 86.7322V82.9538C457.796 82.4567 457.396 82.059 456.897 82.059Z" fill="#004486"/>
<path d="M3.99386 147.485H0.998464C0.399386 147.485 0 147.087 0 146.491V138.536C0 137.939 0.399386 137.542 0.998464 137.542H3.99386C4.59293 137.542 4.99232 137.939 4.99232 138.536V146.491C4.99232 146.988 4.49309 147.485 3.99386 147.485ZM0.998464 138.536V146.491H3.99386V138.536H0.998464Z" fill="#004486"/>
<path d="M425.445 111.391H418.756C418.157 111.391 417.757 110.994 417.757 110.397V107.414C417.757 106.817 418.157 106.42 418.756 106.42H425.445C426.045 106.42 426.444 106.817 426.444 107.414V110.397C426.444 110.994 426.045 111.391 425.445 111.391ZM418.756 107.414V110.397H425.445V107.414H418.756Z" fill="#004486"/>
<path d="M358.648 114.772H0.599078V115.766H358.648V114.772Z" fill="#004486"/>
<path d="M326.498 154.942H218.364V147.187H233.241V140.724H218.364V132.968H233.241V114.971H240.73V132.968H301.636V114.971H309.124V132.968H326.498V140.724H309.124V147.187H326.498V154.942ZM220.361 152.954H324.501V149.175H307.128V138.735H324.501V134.956H307.128V116.959H303.633V134.956H238.733V116.959H235.238V134.956H220.361V138.735H235.238V149.175H220.361V152.954ZM303.633 149.275H238.733V138.834H303.633V149.275ZM240.73 147.286H301.636V140.823H240.73V147.286Z" fill="#004486"/>
<path d="M210.277 160.411H204.785V159.417H209.278V136.249H210.277V160.411ZM163.848 160.411H155.76V159.417H163.848V160.411ZM114.324 160.411H104.739V159.417H113.725L114.324 160.411ZM63.702 160.411H56.9124V136.249H57.9109V159.417H63.702V160.411Z" fill="#004486"/>
<path d="M345.868 132.57H341.674C341.075 132.57 340.676 132.172 340.676 131.576V115.17H346.866V131.576C346.866 132.172 346.467 132.57 345.868 132.57ZM341.674 115.766V131.576H345.868V115.766H341.674Z" fill="#004486"/>
<path d="M345.668 147.485H341.974V131.974H345.668V147.485ZM342.872 146.491H344.57V132.272H342.872V146.491Z" fill="#004486"/>
<path d="M334.485 150.269V146.491H353.157V150.269H334.485ZM335.484 149.275H352.158V147.485H335.484V149.275Z" fill="#004486"/>
<path d="M219.263 135.851H215.069V137.84H219.263V135.851Z" fill="#004486"/>
<path d="M481.659 115.17H479.662V118.749H481.659V115.17Z" fill="#004486"/>
<path d="M449.209 115.17H447.212V118.749H449.209V115.17Z" fill="#004486"/>
<path d="M450.108 154.843H444.217V155.837H450.108V154.843Z" fill="#004486"/>
<path d="M569.224 154.843H563.333V155.837H569.224V154.843Z" fill="#004486"/>
<path d="M617.051 154.843H611.859V155.837H617.051V154.843Z" fill="#004486"/>
<path d="M400.684 154.843H394.793V155.837H400.684V154.843Z" fill="#004486"/>
</svg>
