<svg width="650" height="174" viewBox="0 0 650 174" fill="none" xmlns="http://www.w3.org/2000/svg">
<g clip-path="url(#clip0_894_15887)">
<path d="M593.673 174C582.707 174 573.735 165.052 573.735 153.916C573.735 142.78 582.707 133.831 593.673 133.831C604.64 133.831 613.612 142.78 613.612 153.916C613.612 165.052 604.64 174 593.673 174ZM593.673 135.919C583.804 135.919 575.728 144.072 575.728 154.015C575.728 163.958 583.804 172.111 593.673 172.111C603.543 172.111 611.618 163.958 611.618 154.015C611.618 144.072 603.543 135.919 593.673 135.919Z" fill="#004486"/>
<path d="M593.673 165.946C587.094 165.946 581.71 160.577 581.71 153.916C581.71 147.254 587.094 141.885 593.673 141.885C600.253 141.885 605.637 147.254 605.637 153.916C605.637 160.577 600.253 165.946 593.673 165.946ZM593.673 142.879C587.592 142.879 582.707 147.85 582.707 153.916C582.707 159.981 587.592 164.952 593.673 164.952C599.755 164.952 604.64 159.981 604.64 153.916C604.64 147.85 599.755 142.879 593.673 142.879Z" fill="#004486"/>
<path d="M593.673 159.981C590.383 159.981 587.692 157.296 587.692 153.916C587.692 150.535 590.383 147.851 593.673 147.851C596.963 147.851 599.655 150.535 599.655 153.916C599.655 157.296 596.963 159.981 593.673 159.981ZM593.673 148.944C590.882 148.944 588.689 151.231 588.689 154.015C588.689 156.799 590.882 159.086 593.673 159.086C596.465 159.086 598.658 156.799 598.658 154.015C598.658 151.231 596.465 148.944 593.673 148.944Z" fill="#004486"/>
<path d="M593.673 148.944C593.374 148.944 593.175 148.745 593.175 148.447V145.961C593.175 145.663 593.374 145.464 593.673 145.464C593.972 145.464 594.172 145.663 594.172 145.961V148.447C594.172 148.745 593.972 148.944 593.673 148.944Z" fill="#004486"/>
<path d="M593.673 161.969C593.374 161.969 593.175 161.77 593.175 161.472V159.483C593.175 159.185 593.374 158.986 593.673 158.986C593.972 158.986 594.172 159.185 594.172 159.483V161.472C594.172 161.77 593.972 161.969 593.673 161.969Z" fill="#004486"/>
<path d="M601.151 154.412H599.157C598.858 154.412 598.658 154.213 598.658 153.915C598.658 153.617 598.858 153.418 599.157 153.418H601.151C601.45 153.418 601.649 153.617 601.649 153.915C601.649 154.213 601.45 154.412 601.151 154.412Z" fill="#004486"/>
<path d="M588.19 154.412H585.698C585.399 154.412 585.199 154.213 585.199 153.915C585.199 153.617 585.399 153.418 585.698 153.418H588.19C588.489 153.418 588.689 153.617 588.689 153.915C588.689 154.213 588.489 154.412 588.19 154.412Z" fill="#004486"/>
<path d="M598.857 159.981C598.758 159.981 598.558 159.981 598.458 159.881L597.462 158.887C597.262 158.688 597.262 158.39 597.462 158.191C597.661 157.992 597.96 157.992 598.159 158.191L599.156 159.185C599.356 159.384 599.356 159.683 599.156 159.881C599.156 159.881 599.057 159.981 598.857 159.981Z" fill="#004486"/>
<path d="M589.387 150.435C589.287 150.435 589.087 150.435 588.988 150.336L587.492 148.844C587.293 148.645 587.293 148.347 587.492 148.148C587.692 147.949 587.991 147.949 588.19 148.148L589.686 149.64C589.885 149.838 589.885 150.137 589.686 150.336C589.686 150.336 589.586 150.435 589.387 150.435Z" fill="#004486"/>
<path d="M587.991 159.98C587.891 159.98 587.692 159.98 587.592 159.881C587.393 159.682 587.393 159.384 587.592 159.185L589.386 157.395C589.586 157.196 589.885 157.196 590.084 157.395C590.284 157.594 590.284 157.892 590.084 158.091L588.29 159.881C588.19 159.881 588.09 159.98 587.991 159.98Z" fill="#004486"/>
<path d="M597.461 150.436C597.362 150.436 597.162 150.436 597.063 150.337C596.863 150.138 596.863 149.839 597.063 149.641L598.558 148.149C598.757 147.95 599.056 147.95 599.256 148.149C599.455 148.348 599.455 148.646 599.256 148.845L597.76 150.337C597.661 150.337 597.561 150.436 597.461 150.436Z" fill="#004486"/>
<path d="M571.741 158.49V159.484C572.04 159.484 572.239 159.384 572.439 159.186C572.638 158.987 572.738 158.688 572.738 158.39L571.741 158.49ZM566.258 158.49H565.261C565.261 159.086 565.66 159.484 566.258 159.484V158.49ZM589.686 127.368H590.683V125.38H589.686V127.368ZM592.178 131.843V132.837V131.843ZM613.213 144.271C613.413 144.768 614.011 145.067 614.509 144.868C615.008 144.669 615.307 144.072 615.107 143.575L613.213 144.271ZM571.741 157.495H566.258V159.484H571.741V157.495ZM567.255 158.49C567.255 152.723 567.554 145.067 570.445 138.703C571.94 135.621 574.034 132.837 577.124 130.848C580.215 128.86 584.302 127.567 589.686 127.368V125.38C583.903 125.479 579.417 126.871 576.028 129.158C572.638 131.445 570.245 134.527 568.65 137.908C565.46 144.669 565.261 152.723 565.261 158.49H567.255ZM572.738 158.39C572.439 153.916 573.236 147.453 576.127 142.183C579.018 136.914 584.003 132.837 592.178 132.837V130.848C583.206 130.848 577.623 135.422 574.433 141.189C571.242 146.856 570.445 153.717 570.744 158.49L572.738 158.39ZM592.178 132.837C594.87 132.738 599.156 133.036 603.344 134.627C607.431 136.218 611.319 139.101 613.213 144.271L615.107 143.575C613.014 137.709 608.627 134.527 604.141 132.738C599.655 131.047 595.069 130.749 592.178 130.848V132.837Z" fill="#004486"/>
<path d="M636.043 144.37H613.612C613.313 144.37 613.113 144.171 613.113 143.873C613.113 143.575 613.313 143.376 613.612 143.376H635.544V124.783C635.544 124.683 635.644 124.484 635.644 124.385L637.339 122.695H560.774C560.475 122.695 560.276 122.496 560.276 122.198C560.276 121.899 560.475 121.7 560.774 121.7H596.963V96.2468L560.774 95.2525C560.475 95.2525 560.276 95.0536 560.276 94.7553C560.276 94.4571 560.475 94.2582 560.774 94.2582L596.863 95.2525V55.1828H560.675C560.376 55.1828 560.176 54.9839 560.176 54.6856C560.176 54.3873 560.376 54.1885 560.675 54.1885H634.049C634.348 54.1885 634.547 54.3873 634.547 54.5862L639.034 91.1759V97.2411V122.297C639.034 122.396 639.034 122.396 639.034 122.496C639.034 122.595 638.934 122.595 638.934 122.595L636.541 124.982V143.873C636.541 144.171 636.342 144.37 636.043 144.37ZM597.96 121.899H638.037V97.7382L597.86 96.2468V121.899H597.96ZM597.96 95.2525L638.136 96.7439V91.2753L633.75 55.1828H598.06V95.2525H597.96Z" fill="#004486"/>
<path d="M615.107 143.774C615.007 143.277 614.509 142.879 613.911 142.978C613.412 143.078 613.014 143.575 613.113 144.171L615.107 143.774ZM617.101 161.472L616.104 161.671C616.104 161.969 616.303 162.168 616.503 162.367C616.702 162.566 617.001 162.566 617.3 162.566L617.101 161.472ZM645.514 155.407L645.713 156.401C646.211 156.302 646.51 155.904 646.51 155.407H645.514ZM645.514 127.368H646.51C646.51 127.07 646.411 126.871 646.211 126.672L645.514 127.368ZM642.024 123.888V122.894C641.626 122.894 641.227 123.093 641.127 123.49C640.928 123.888 641.027 124.286 641.326 124.584L642.024 123.888ZM645.514 123.888V124.882C645.813 124.882 646.012 124.783 646.211 124.584L645.514 123.888ZM649.003 120.309L649.701 121.005C649.9 120.806 650 120.607 650 120.309H649.003ZM649.003 92.2698H650C650 92.1703 650 92.1703 650 92.0709L649.003 92.2698ZM642.024 60.6515V59.6572C641.725 59.6572 641.426 59.7566 641.227 60.0549C641.027 60.2537 640.928 60.552 641.027 60.8503L642.024 60.6515ZM645.514 60.6515V61.6457C645.813 61.6457 646.112 61.5463 646.311 61.248C646.51 61.0492 646.61 60.7509 646.51 60.4526L645.514 60.6515ZM640.03 34.104L641.027 33.9052C640.928 33.408 640.529 33.1097 640.03 33.1097V34.104ZM634.547 34.104L633.849 34.8C634.049 34.9989 634.348 35.0983 634.547 35.0983V34.104ZM625.076 23.5646L625.774 22.8686C625.575 22.6697 625.276 22.5703 625.076 22.5703V23.5646ZM560.774 23.5646V22.5703C560.176 22.5703 559.777 22.968 559.777 23.5646H560.774ZM560.774 127.368H559.777C559.777 127.666 559.877 127.865 560.076 128.064C560.276 128.263 560.575 128.362 560.774 128.362V127.368ZM590.184 126.374V125.379V126.374ZM616.104 143.376V144.37H618.098V143.376H616.104ZM613.113 144.072L616.104 161.671L618.098 161.373L615.107 143.774L613.113 144.072ZM617.3 162.466L645.713 156.401L645.314 154.413L616.902 160.478L617.3 162.466ZM646.51 155.407V127.368H644.517V155.407H646.51ZM646.211 126.672L642.722 123.192L641.326 124.584L644.816 128.064L646.211 126.672ZM642.024 124.882H645.514V122.894H642.024V124.882ZM646.211 124.584L649.701 121.104L648.305 119.712L644.816 123.192L646.211 124.584ZM650 120.309V92.2698H648.006V120.309H650ZM650 92.0709L643.021 60.4526L641.027 60.8503L648.006 92.4686L650 92.0709ZM642.024 61.6457H645.514V59.6572H642.024V61.6457ZM646.51 60.4526L641.027 33.9052L639.033 34.3029L644.517 60.8503L646.51 60.4526ZM640.03 33.1097H634.547V35.0983H640.03V33.1097ZM635.245 33.408L625.774 22.8686L624.279 24.1612L633.75 34.7006L635.245 33.408ZM625.076 22.5703H560.774V24.5589H625.076V22.5703ZM559.777 23.5646V127.368H561.771V23.5646H559.777ZM560.774 128.362L590.184 127.368L590.084 125.379L560.675 126.374L560.774 128.362ZM590.184 127.368C597.063 127.368 603.543 128.76 608.428 131.544C613.213 134.328 616.104 138.305 616.104 143.376H618.098C618.098 137.311 614.609 132.737 609.325 129.754C604.141 126.771 597.262 125.28 590.184 125.28V127.368Z" fill="#004486"/>
<path d="M589.685 84.7132H577.722C576.027 84.7132 574.731 83.4207 574.731 81.7304V59.6572H589.685C591.38 59.6572 592.676 60.9498 592.676 62.6401V81.7304C592.676 83.4207 591.38 84.7132 589.685 84.7132ZM575.728 60.6515V81.7304C575.728 82.8241 576.626 83.7189 577.722 83.7189H589.685C590.782 83.7189 591.679 82.8241 591.679 81.7304V62.6401C591.679 61.5464 590.782 60.6515 589.685 60.6515H575.728Z" fill="#004486"/>
<path d="M631.856 88.7899C631.557 88.7899 631.357 88.7899 631.258 88.7899L603.443 86.4037C601.948 86.3042 600.751 84.9122 600.751 83.3214V61.7454C600.751 60.0551 602.047 58.6631 603.742 58.6631H626.971C628.367 58.6631 629.363 58.7625 630.061 58.9614C630.46 59.0608 630.659 59.3591 630.859 59.5579C631.058 59.8562 631.158 60.2539 631.258 60.6517C632.055 66.5179 632.952 73.4779 633.65 78.6482C634.149 82.2277 634.448 84.9122 634.647 86.0059C634.747 86.6025 634.647 87.0997 634.448 87.4974C634.248 87.8951 633.949 88.0939 633.551 88.2928C632.952 88.6905 632.255 88.7899 631.856 88.7899ZM603.643 59.6574C602.546 59.6574 601.649 60.5522 601.649 61.7454V83.2219C601.649 84.3157 602.446 85.2105 603.443 85.3099L631.258 87.6962C631.756 87.7957 632.454 87.7957 632.952 87.4974C633.152 87.3979 633.251 87.2985 633.351 87.0997C633.451 86.9008 633.451 86.6025 633.451 86.2048C633.252 85.2105 632.952 82.4265 632.454 78.9465C631.756 73.7762 630.859 66.7168 630.061 60.9499C630.061 60.6517 629.962 60.4528 629.862 60.2539C629.762 60.1545 629.663 60.0551 629.463 59.9557C628.965 59.7568 627.968 59.6574 626.771 59.6574H603.643Z" fill="#004486"/>
<path d="M638.535 116.331H560.775C560.476 116.331 560.276 116.132 560.276 115.834C560.276 115.536 560.476 115.337 560.775 115.337H638.535C638.834 115.337 639.034 115.536 639.034 115.834C639.034 116.132 638.834 116.331 638.535 116.331Z" fill="#004486"/>
<path d="M645.514 142.879H640.529C639.432 142.879 638.535 141.984 638.535 140.89V137.808C638.535 136.714 639.432 135.819 640.529 135.819H645.514V142.879ZM640.529 136.913C639.931 136.913 639.532 137.311 639.532 137.907V140.99C639.532 141.586 639.931 141.984 640.529 141.984H644.517V136.913H640.529Z" fill="#004486"/>
<path d="M640.031 156.898C639.732 156.898 639.532 156.699 639.532 156.401V145.364C639.532 145.066 639.732 144.867 640.031 144.867H645.015C645.314 144.867 645.514 145.066 645.514 145.364C645.514 145.663 645.314 145.861 645.015 145.861H640.529V156.401C640.529 156.699 640.33 156.898 640.031 156.898Z" fill="#004486"/>
<path d="M645.514 148.446H614.609C614.31 148.446 614.11 148.248 614.11 147.949C614.11 147.651 614.31 147.452 614.609 147.452H645.514C645.813 147.452 646.012 147.651 646.012 147.949C646.012 148.248 645.813 148.446 645.514 148.446Z" fill="#004486"/>
<path d="M636.043 155.904H622.086C621.886 155.904 621.687 155.705 621.587 155.506L619.593 147.95C619.494 147.651 619.693 147.453 619.992 147.353C620.291 147.254 620.491 147.453 620.59 147.751L622.484 154.91H635.544V143.873C635.544 143.575 635.744 143.376 636.043 143.376C636.342 143.376 636.541 143.575 636.541 143.873V155.407C636.541 155.705 636.342 155.904 636.043 155.904Z" fill="#004486"/>
<path d="M621.089 144.37C620.79 144.37 620.59 144.171 620.59 143.873C619.593 129.854 611.219 122.794 595.667 122.794H576.227V126.771C576.227 127.07 576.028 127.268 575.728 127.268C575.429 127.268 575.23 127.07 575.23 126.771V122.297C575.23 121.999 575.429 121.8 575.728 121.8H595.667C611.618 121.8 620.59 129.456 621.587 143.873C621.587 144.171 621.388 144.37 621.089 144.37Z" fill="#004486"/>
<path d="M642.024 61.6458C641.925 61.6458 641.925 61.6458 641.825 61.6458L634.348 58.6629C634.149 58.5635 634.049 58.3647 634.049 58.1658V52.1007C634.049 51.8024 634.248 51.6035 634.547 51.6035H643.52C643.819 51.6035 644.018 51.8024 644.018 52.1007C644.018 52.3989 643.819 52.5978 643.52 52.5978H635.046V57.7681L642.224 60.6515C642.523 60.7509 642.622 61.0492 642.523 61.3475C642.423 61.5464 642.224 61.6458 642.024 61.6458Z" fill="#004486"/>
<path d="M648.006 89.2873C647.907 89.2873 647.907 89.2873 647.807 89.2873L640.33 86.8016C640.13 86.7021 640.031 86.6027 640.031 86.4038L636.542 59.3593C636.542 59.061 636.741 58.8621 636.94 58.7627C637.239 58.7627 637.439 58.9616 637.538 59.1604L641.028 85.9067L648.206 88.293C648.505 88.3924 648.604 88.6907 648.505 88.8896C648.405 89.0884 648.206 89.2873 648.006 89.2873Z" fill="#004486"/>
<path d="M624.578 78.7472V61.6455H628.566C629.662 61.6455 630.56 62.5404 630.56 63.6341V74.8695C630.56 75.6649 630.061 76.3609 629.363 76.6592L624.578 78.7472ZM625.575 62.6398V77.1564L628.965 75.7644C629.363 75.5655 629.563 75.2672 629.563 74.8695V63.6341C629.563 63.0375 629.164 62.6398 628.566 62.6398H625.575Z" fill="#004486"/>
<path d="M627.569 56.6738H626.572V62.739H627.569V56.6738Z" fill="#004486"/>
<path d="M629.065 88.7897H626.074V77.2559H627.071V87.7954H628.068V76.7588H629.065V88.7897Z" fill="#004486"/>
<path d="M631.557 92.7673H624.578V87.7959H631.557V92.7673ZM625.575 91.773H630.56V88.7902H625.575V91.773Z" fill="#004486"/>
<path d="M635.544 115.934H634.547V110.465H627.569V115.934H626.572V109.471H635.544V115.934Z" fill="#004486"/>
<path d="M552.799 147.154H542.83V142.183H552.799V147.154ZM543.827 146.16H551.802V143.177H543.827V146.16Z" fill="#004486"/>
<path d="M374.348 135.222H364.379V130.251H374.348V135.222ZM365.376 134.228H373.351V131.245H365.376V134.228Z" fill="#004486"/>
<path d="M249.732 135.222H239.762V130.251H249.732V135.222ZM240.759 134.228H248.735V131.245H240.759V134.228Z" fill="#004486"/>
<path d="M195.897 135.222H185.928V130.251H195.897V135.222ZM186.925 134.228H194.9V131.245H186.925V134.228Z" fill="#004486"/>
<path d="M141.066 135.222H131.097V130.251H141.066V135.222ZM132.094 134.228H140.069V131.245H132.094V134.228Z" fill="#004486"/>
<path d="M86.2347 135.222H76.2654V130.251H86.2347V135.222ZM77.2623 134.228H85.2378V131.245H77.2623V134.228Z" fill="#004486"/>
<path d="M18.4432 135.222H8.47388V130.251H18.4432V135.222ZM9.47081 134.228H17.4463V131.245H9.47081V134.228Z" fill="#004486"/>
<path d="M611.12 115.835H610.123V112.355H601.15V115.835H600.153V111.36H611.12V115.835Z" fill="#004486"/>
<path d="M558.282 137.908C557.883 137.908 557.584 137.709 557.385 137.311L552.898 127.766C552.799 127.666 552.799 127.468 552.799 127.368V123.391C552.799 122.794 553.198 122.397 553.796 122.397H555.291V120.408L554.294 111.957V111.857V60.6515C554.294 60.0549 554.693 59.6572 555.291 59.6572H560.774C561.372 59.6572 561.771 60.0549 561.771 60.6515C561.771 61.2481 561.372 61.6458 560.774 61.6458H556.288V111.758L557.285 120.209V120.309V122.297H560.774C561.372 122.297 561.771 122.695 561.771 123.292C561.771 123.888 561.372 124.286 560.774 124.286H554.793V127.07L559.179 136.416C559.379 136.913 559.179 137.51 558.681 137.709C558.581 137.808 558.382 137.908 558.282 137.908Z" fill="#004486"/>
<path d="M574.732 154.412H571.741C571.143 154.412 570.744 154.015 570.744 153.418C570.744 152.822 571.143 152.424 571.741 152.424H574.732C575.33 152.424 575.729 152.822 575.729 153.418C575.729 154.015 575.33 154.412 574.732 154.412Z" fill="#004486"/>
<path d="M565.759 157.992H536.848C536.25 157.992 535.851 157.595 535.851 156.998C535.851 156.402 536.25 156.004 536.848 156.004H565.759C566.357 156.004 566.756 156.402 566.756 156.998C566.756 157.595 566.357 157.992 565.759 157.992Z" fill="#004486"/>
<path d="M474.041 152.125H470.054C469.455 152.125 469.057 151.728 469.057 151.131C469.057 150.534 469.455 150.137 470.054 150.137H474.041C474.639 150.137 475.038 150.534 475.038 151.131C475.038 151.728 474.639 152.125 474.041 152.125Z" fill="#004486"/>
<path d="M466.066 148.149H462.078C461.48 148.149 461.081 147.751 461.081 147.154C461.081 146.558 461.48 146.16 462.078 146.16H466.066C466.664 146.16 467.063 146.558 467.063 147.154C467.063 147.751 466.664 148.149 466.066 148.149Z" fill="#004486"/>
<path d="M426.189 148.149H422.201C421.603 148.149 421.204 147.751 421.204 147.154C421.204 146.558 421.603 146.16 422.201 146.16H426.189C426.787 146.16 427.186 146.558 427.186 147.154C427.186 147.751 426.787 148.149 426.189 148.149Z" fill="#004486"/>
<path d="M615.606 154.412H612.615C612.017 154.412 611.618 154.015 611.618 153.418C611.618 152.822 612.017 152.424 612.615 152.424H615.606C616.204 152.424 616.603 152.822 616.603 153.418C616.603 154.015 616.204 154.412 615.606 154.412Z" fill="#004486"/>
<path d="M569.747 137.908H465.069C464.471 137.908 464.072 137.51 464.072 136.913C464.072 136.317 464.471 135.919 465.069 135.919H569.747C570.345 135.919 570.744 136.317 570.744 136.913C570.744 137.51 570.345 137.908 569.747 137.908Z" fill="#004486"/>
<path d="M536.848 148.446H473.543C473.244 148.446 473.044 148.248 473.044 147.949C473.044 147.651 473.244 147.452 473.543 147.452H536.848C537.147 147.452 537.347 147.651 537.347 147.949C537.347 148.248 537.147 148.446 536.848 148.446Z" fill="#004486"/>
<path d="M527.876 161.472C527.577 161.472 527.377 161.273 527.377 160.975V136.913C527.377 136.615 527.577 136.416 527.876 136.416C528.175 136.416 528.374 136.615 528.374 136.913V160.975C528.374 161.273 528.175 161.472 527.876 161.472Z" fill="#004486"/>
<path d="M482.017 161.472C481.718 161.472 481.518 161.273 481.518 160.975V136.913C481.518 136.615 481.718 136.416 482.017 136.416C482.316 136.416 482.515 136.615 482.515 136.913V160.975C482.515 161.273 482.316 161.472 482.017 161.472Z" fill="#004486"/>
<path d="M444.133 174C433.167 174 424.195 165.052 424.195 153.916C424.195 142.78 433.167 133.831 444.133 133.831C455.1 133.831 464.072 142.78 464.072 153.916C464.072 165.052 455.1 174 444.133 174ZM444.133 135.919C434.264 135.919 426.189 144.072 426.189 154.015C426.189 163.958 434.264 172.111 444.133 172.111C454.003 172.111 462.078 163.958 462.078 154.015C462.078 144.072 454.003 135.919 444.133 135.919Z" fill="#004486"/>
<path d="M444.133 165.946C437.554 165.946 432.17 160.577 432.17 153.916C432.17 147.254 437.554 141.885 444.133 141.885C450.713 141.885 456.097 147.254 456.097 153.916C456.097 160.577 450.713 165.946 444.133 165.946ZM444.133 142.879C438.052 142.879 433.167 147.85 433.167 153.916C433.167 159.981 438.052 164.952 444.133 164.952C450.215 164.952 455.1 159.981 455.1 153.916C455.1 147.85 450.215 142.879 444.133 142.879Z" fill="#004486"/>
<path d="M444.133 159.981C440.844 159.981 438.152 157.296 438.152 153.916C438.152 150.535 440.844 147.851 444.133 147.851C447.423 147.851 450.115 150.535 450.115 153.916C450.115 157.296 447.423 159.981 444.133 159.981ZM444.133 148.944C441.342 148.944 439.149 151.231 439.149 154.015C439.149 156.799 441.342 159.086 444.133 159.086C446.925 159.086 449.118 156.799 449.118 154.015C449.118 151.231 446.925 148.944 444.133 148.944Z" fill="#004486"/>
<path d="M444.133 148.944C443.834 148.944 443.635 148.745 443.635 148.447V145.961C443.635 145.663 443.834 145.464 444.133 145.464C444.433 145.464 444.632 145.663 444.632 145.961V148.447C444.632 148.745 444.433 148.944 444.133 148.944Z" fill="#004486"/>
<path d="M444.133 161.969C443.834 161.969 443.635 161.77 443.635 161.472V159.483C443.635 159.185 443.834 158.986 444.133 158.986C444.433 158.986 444.632 159.185 444.632 159.483V161.472C444.632 161.77 444.433 161.969 444.133 161.969Z" fill="#004486"/>
<path d="M451.61 154.412H449.617C449.318 154.412 449.118 154.213 449.118 153.915C449.118 153.617 449.318 153.418 449.617 153.418H451.61C451.91 153.418 452.109 153.617 452.109 153.915C452.109 154.213 451.91 154.412 451.61 154.412Z" fill="#004486"/>
<path d="M438.65 154.412H436.158C435.859 154.412 435.659 154.213 435.659 153.915C435.659 153.617 435.859 153.418 436.158 153.418H438.65C438.949 153.418 439.149 153.617 439.149 153.915C439.149 154.213 438.949 154.412 438.65 154.412Z" fill="#004486"/>
<path d="M449.317 159.981C449.218 159.981 449.018 159.981 448.919 159.881L447.922 158.887C447.722 158.688 447.722 158.39 447.922 158.191C448.121 157.992 448.42 157.992 448.62 158.191L449.617 159.185C449.816 159.384 449.816 159.683 449.617 159.881C449.617 159.881 449.517 159.981 449.317 159.981Z" fill="#004486"/>
<path d="M439.847 150.435C439.747 150.435 439.548 150.435 439.448 150.336L437.953 148.844C437.753 148.645 437.753 148.347 437.953 148.148C438.152 147.949 438.451 147.949 438.65 148.148L440.146 149.64C440.345 149.838 440.345 150.137 440.146 150.336C440.146 150.336 440.046 150.435 439.847 150.435Z" fill="#004486"/>
<path d="M438.451 159.98C438.351 159.98 438.152 159.98 438.052 159.881C437.853 159.682 437.853 159.384 438.052 159.185L439.847 157.395C440.046 157.196 440.345 157.196 440.544 157.395C440.744 157.594 440.744 157.892 440.544 158.091L438.75 159.881C438.65 159.881 438.551 159.98 438.451 159.98Z" fill="#004486"/>
<path d="M447.922 150.435C447.822 150.435 447.623 150.435 447.523 150.336C447.324 150.137 447.324 149.838 447.523 149.64L449.018 148.148C449.218 147.949 449.517 147.949 449.716 148.148C449.916 148.347 449.916 148.645 449.716 148.844L448.221 150.336C448.121 150.336 448.022 150.435 447.922 150.435Z" fill="#004486"/>
<path d="M469.555 154.91H467.063C466.465 154.91 466.066 154.512 466.066 153.916C466.066 133.93 446.426 133.334 444.133 133.334C437.454 133.334 421.902 135.322 421.902 153.916C421.902 154.512 421.503 154.91 420.905 154.91H418.413C417.914 154.91 417.515 154.512 417.416 154.015C416.817 149.342 417.914 141.885 422.998 136.118C427.784 130.749 435.061 127.865 444.233 127.865C453.405 127.865 460.483 130.649 465.169 136.018C470.253 141.785 471.35 149.143 470.652 154.114C470.452 154.612 470.054 154.91 469.555 154.91ZM468.06 152.921H468.658C468.957 148.546 467.86 142.183 463.574 137.311C459.187 132.34 452.707 129.854 444.133 129.854C435.46 129.854 428.88 132.439 424.394 137.41C420.008 142.382 418.911 148.646 419.21 152.921H419.808C420.307 133.533 436.856 131.345 444.034 131.345C452.807 131.345 467.462 135.919 468.06 152.921Z" fill="#004486"/>
<path d="M537.845 161.969H473.044V135.919H537.845V161.969ZM475.038 159.981H535.851V137.908H475.038V159.981Z" fill="#004486"/>
<path d="M493.98 164.455H487.998C487.4 164.455 487.001 164.057 487.001 163.461V158.986C487.001 158.39 487.4 157.992 487.998 157.992C488.597 157.992 488.995 158.39 488.995 158.986V162.466H492.983V158.986C492.983 158.39 493.382 157.992 493.98 157.992C494.578 157.992 494.977 158.39 494.977 158.986V163.461C494.977 164.057 494.578 164.455 493.98 164.455Z" fill="#004486"/>
<path d="M523.888 164.455H517.906C517.308 164.455 516.909 164.057 516.909 163.461V158.986C516.909 158.39 517.308 157.992 517.906 157.992C518.505 157.992 518.903 158.39 518.903 158.986V162.466H522.891V158.986C522.891 158.39 523.29 157.992 523.888 157.992C524.486 157.992 524.885 158.39 524.885 158.986V163.461C524.885 164.057 524.486 164.455 523.888 164.455Z" fill="#004486"/>
<path d="M508.934 139.398C508.336 139.398 507.937 139.001 507.937 138.404V134.924H503.949V138.404C503.949 139.001 503.551 139.398 502.952 139.398C502.354 139.398 501.956 139.001 501.956 138.404V133.93C501.956 133.333 502.354 132.936 502.952 132.936H508.934C509.532 132.936 509.931 133.333 509.931 133.93V138.404C509.931 138.901 509.532 139.398 508.934 139.398Z" fill="#004486"/>
<path d="M541.334 114.343H0.997001C0.697922 114.343 0.498535 114.144 0.498535 113.846C0.498535 113.547 0.697922 113.349 0.997001 113.349H541.334C541.633 113.349 541.833 113.547 541.833 113.846C541.833 114.144 541.633 114.343 541.334 114.343Z" fill="#004486"/>
<path d="M541.334 120.408H0.997001C0.697922 120.408 0.498535 120.209 0.498535 119.911C0.498535 119.613 0.697922 119.414 0.997001 119.414H541.334C541.633 119.414 541.833 119.613 541.833 119.911C541.833 120.209 541.633 120.408 541.334 120.408Z" fill="#004486"/>
<path d="M218.129 174C207.163 174 198.19 165.052 198.19 153.916C198.19 142.78 207.163 133.831 218.129 133.831C229.095 133.831 238.068 142.78 238.068 153.916C238.068 165.052 229.095 174 218.129 174ZM218.129 135.919C208.259 135.919 200.184 144.072 200.184 154.015C200.184 163.958 208.259 172.111 218.129 172.111C227.999 172.111 236.074 163.958 236.074 154.015C236.074 144.072 227.999 135.919 218.129 135.919Z" fill="#004486"/>
<path d="M218.129 165.946C211.549 165.946 206.166 160.577 206.166 153.916C206.166 147.254 211.549 141.885 218.129 141.885C224.708 141.885 230.092 147.254 230.092 153.916C230.092 160.577 224.708 165.946 218.129 165.946ZM218.129 142.879C212.047 142.879 207.162 147.85 207.162 153.916C207.162 159.981 212.047 164.952 218.129 164.952C224.21 164.952 229.095 159.981 229.095 153.916C229.095 147.85 224.21 142.879 218.129 142.879Z" fill="#004486"/>
<path d="M218.129 159.981C214.839 159.981 212.147 157.296 212.147 153.916C212.147 150.535 214.839 147.851 218.129 147.851C221.419 147.851 224.11 150.535 224.11 153.916C224.11 157.296 221.419 159.981 218.129 159.981ZM218.129 148.944C215.337 148.944 213.144 151.231 213.144 154.015C213.144 156.799 215.337 159.086 218.129 159.086C220.92 159.086 223.113 156.799 223.113 154.015C223.113 151.231 220.92 148.944 218.129 148.944Z" fill="#004486"/>
<path d="M218.129 148.944C217.83 148.944 217.63 148.745 217.63 148.447V145.961C217.63 145.663 217.83 145.464 218.129 145.464C218.428 145.464 218.627 145.663 218.627 145.961V148.447C218.627 148.745 218.428 148.944 218.129 148.944Z" fill="#004486"/>
<path d="M218.129 161.969C217.83 161.969 217.63 161.77 217.63 161.472V159.483C217.63 159.185 217.83 158.986 218.129 158.986C218.428 158.986 218.627 159.185 218.627 159.483V161.472C218.627 161.77 218.428 161.969 218.129 161.969Z" fill="#004486"/>
<path d="M225.606 154.412H223.612C223.313 154.412 223.114 154.213 223.114 153.915C223.114 153.617 223.313 153.418 223.612 153.418H225.606C225.905 153.418 226.104 153.617 226.104 153.915C226.104 154.213 225.905 154.412 225.606 154.412Z" fill="#004486"/>
<path d="M212.646 154.412H210.153C209.854 154.412 209.655 154.213 209.655 153.915C209.655 153.617 209.854 153.418 210.153 153.418H212.646C212.945 153.418 213.144 153.617 213.144 153.915C213.144 154.213 212.945 154.412 212.646 154.412Z" fill="#004486"/>
<path d="M223.313 159.981C223.213 159.981 223.014 159.981 222.914 159.881L221.917 158.887C221.718 158.688 221.718 158.39 221.917 158.191C222.117 157.992 222.416 157.992 222.615 158.191L223.612 159.185C223.811 159.384 223.811 159.683 223.612 159.881C223.612 159.881 223.512 159.981 223.313 159.981Z" fill="#004486"/>
<path d="M213.942 150.435C213.842 150.435 213.643 150.435 213.543 150.336L212.047 148.844C211.848 148.645 211.848 148.347 212.047 148.148C212.247 147.949 212.546 147.949 212.745 148.148L214.241 149.64C214.44 149.838 214.44 150.137 214.241 150.336C214.141 150.336 214.041 150.435 213.942 150.435Z" fill="#004486"/>
<path d="M212.446 159.98C212.347 159.98 212.147 159.98 212.047 159.881C211.848 159.682 211.848 159.384 212.047 159.185L213.842 157.395C214.041 157.196 214.34 157.196 214.54 157.395C214.739 157.594 214.739 157.892 214.54 158.091L212.745 159.881C212.646 159.881 212.546 159.98 212.446 159.98Z" fill="#004486"/>
<path d="M221.917 150.435C221.818 150.435 221.618 150.435 221.518 150.336C221.319 150.137 221.319 149.838 221.518 149.64L223.014 148.148C223.213 147.949 223.512 147.949 223.712 148.148C223.911 148.347 223.911 148.645 223.712 148.844L222.216 150.336C222.117 150.336 222.017 150.435 221.917 150.435Z" fill="#004486"/>
<path d="M243.551 154.91H241.058C240.46 154.91 240.061 154.512 240.061 153.916C240.061 133.93 220.422 133.334 218.129 133.334C211.449 133.334 195.897 135.322 195.897 153.916C195.897 154.512 195.498 154.91 194.9 154.91H192.408C191.909 154.91 191.511 154.512 191.411 154.015C190.813 149.342 191.909 141.885 196.994 136.118C201.779 130.749 209.057 127.865 218.228 127.865C227.4 127.865 234.379 130.649 239.164 136.018C244.248 141.785 245.345 149.143 244.647 154.114C244.448 154.612 244.049 154.91 243.551 154.91ZM242.055 152.921H242.653C242.952 148.546 241.856 142.183 237.569 137.311C233.182 132.34 226.702 129.854 218.129 129.854C209.455 129.854 202.876 132.439 198.39 137.41C194.003 142.382 192.906 148.646 193.205 152.921H193.804C194.302 133.533 210.851 131.345 218.029 131.345C226.902 131.345 241.457 135.919 242.055 152.921Z" fill="#004486"/>
<path d="M163.696 174C152.73 174 143.758 165.052 143.758 153.916C143.758 142.78 152.73 133.831 163.696 133.831C174.662 133.831 183.635 142.78 183.635 153.916C183.635 165.052 174.662 174 163.696 174ZM163.696 135.919C153.827 135.919 145.751 144.072 145.751 154.015C145.751 163.958 153.827 172.111 163.696 172.111C173.566 172.111 181.641 163.958 181.641 154.015C181.641 144.072 173.566 135.919 163.696 135.919Z" fill="#004486"/>
<path d="M163.696 165.946C157.117 165.946 151.733 160.577 151.733 153.916C151.733 147.254 157.117 141.885 163.696 141.885C170.276 141.885 175.66 147.254 175.66 153.916C175.66 160.577 170.276 165.946 163.696 165.946ZM163.696 142.879C157.615 142.879 152.73 147.85 152.73 153.916C152.73 159.981 157.615 164.952 163.696 164.952C169.778 164.952 174.663 159.981 174.663 153.916C174.663 147.85 169.678 142.879 163.696 142.879Z" fill="#004486"/>
<path d="M163.696 159.981C160.407 159.981 157.715 157.296 157.715 153.916C157.715 150.535 160.407 147.851 163.696 147.851C166.986 147.851 169.678 150.535 169.678 153.916C169.678 157.296 166.986 159.981 163.696 159.981ZM163.696 148.944C160.905 148.944 158.712 151.231 158.712 154.015C158.712 156.799 160.905 159.086 163.696 159.086C166.488 159.086 168.681 156.799 168.681 154.015C168.681 151.231 166.388 148.944 163.696 148.944Z" fill="#004486"/>
<path d="M163.696 148.944C163.397 148.944 163.198 148.745 163.198 148.447V145.961C163.198 145.663 163.397 145.464 163.696 145.464C163.995 145.464 164.195 145.663 164.195 145.961V148.447C164.195 148.745 163.896 148.944 163.696 148.944Z" fill="#004486"/>
<path d="M163.696 161.969C163.397 161.969 163.198 161.77 163.198 161.472V159.483C163.198 159.185 163.397 158.986 163.696 158.986C163.995 158.986 164.195 159.185 164.195 159.483V161.472C164.195 161.77 163.896 161.969 163.696 161.969Z" fill="#004486"/>
<path d="M171.173 154.412H169.179C168.88 154.412 168.681 154.213 168.681 153.915C168.681 153.617 168.88 153.418 169.179 153.418H171.173C171.472 153.418 171.672 153.617 171.672 153.915C171.672 154.213 171.373 154.412 171.173 154.412Z" fill="#004486"/>
<path d="M158.213 154.412H155.721C155.422 154.412 155.222 154.213 155.222 153.915C155.222 153.617 155.422 153.418 155.721 153.418H158.213C158.512 153.418 158.712 153.617 158.712 153.915C158.712 154.213 158.413 154.412 158.213 154.412Z" fill="#004486"/>
<path d="M168.88 159.981C168.781 159.981 168.581 159.981 168.482 159.881L167.485 158.887C167.285 158.688 167.285 158.39 167.485 158.191C167.684 157.992 167.983 157.992 168.183 158.191L169.18 159.185C169.379 159.384 169.379 159.683 169.18 159.881C169.08 159.881 168.98 159.981 168.88 159.981Z" fill="#004486"/>
<path d="M159.409 150.435C159.31 150.435 159.11 150.435 159.011 150.336L157.515 148.844C157.316 148.645 157.316 148.347 157.515 148.148C157.715 147.949 158.014 147.949 158.213 148.148L159.709 149.64C159.908 149.838 159.908 150.137 159.709 150.336C159.709 150.336 159.509 150.435 159.409 150.435Z" fill="#004486"/>
<path d="M157.914 159.98C157.814 159.98 157.615 159.98 157.515 159.881C157.316 159.682 157.316 159.384 157.515 159.185L159.31 157.395C159.509 157.196 159.808 157.196 160.008 157.395C160.207 157.594 160.207 157.892 160.008 158.091L158.213 159.881C158.213 159.881 158.113 159.98 157.914 159.98Z" fill="#004486"/>
<path d="M167.385 150.436C167.286 150.436 167.086 150.436 166.986 150.337C166.787 150.138 166.787 149.839 166.986 149.641L168.482 148.149C168.681 147.95 168.98 147.95 169.18 148.149C169.379 148.348 169.379 148.646 169.18 148.845L167.684 150.337C167.684 150.337 167.485 150.436 167.385 150.436Z" fill="#004486"/>
<path d="M189.118 154.91H186.626C186.028 154.91 185.629 154.512 185.629 153.916C185.629 133.93 165.989 133.334 163.696 133.334C157.017 133.334 141.465 135.322 141.465 153.916C141.465 154.512 141.066 154.91 140.468 154.91H137.976C137.477 154.91 137.078 154.512 136.979 154.015C136.38 149.342 137.477 141.885 142.561 136.118C147.347 130.749 154.624 127.865 163.796 127.865C172.968 127.865 180.046 130.649 184.732 136.018C189.816 141.785 190.913 149.143 190.215 154.114C190.015 154.612 189.617 154.91 189.118 154.91ZM187.523 152.921H188.121C188.42 148.546 187.324 142.183 183.037 137.311C178.65 132.34 172.17 129.854 163.597 129.854C154.923 129.854 148.344 132.439 143.857 137.41C139.471 142.382 138.374 148.646 138.673 152.921H139.272C139.77 133.533 156.319 131.345 163.497 131.345C172.37 131.345 187.025 135.919 187.523 152.921Z" fill="#004486"/>
<path d="M109.164 174C98.198 174 89.2256 165.052 89.2256 153.916C89.2256 142.78 98.198 133.831 109.164 133.831C120.13 133.831 129.103 142.78 129.103 153.916C129.103 165.052 120.13 174 109.164 174ZM109.164 135.919C99.2946 135.919 91.2195 144.072 91.2195 154.015C91.2195 163.958 99.2946 172.111 109.164 172.111C119.034 172.111 127.109 163.958 127.109 154.015C127.109 144.072 119.034 135.919 109.164 135.919Z" fill="#004486"/>
<path d="M109.164 165.946C102.584 165.946 97.2009 160.577 97.2009 153.916C97.2009 147.254 102.584 141.885 109.164 141.885C115.744 141.885 121.127 147.254 121.127 153.916C121.127 160.577 115.744 165.946 109.164 165.946ZM109.164 142.879C103.083 142.879 98.1979 147.85 98.1979 153.916C98.1979 159.981 103.083 164.952 109.164 164.952C115.245 164.952 120.13 159.981 120.13 153.916C120.13 147.85 115.245 142.879 109.164 142.879Z" fill="#004486"/>
<path d="M109.164 159.981C105.874 159.981 103.183 157.296 103.183 153.916C103.183 150.535 105.874 147.851 109.164 147.851C112.454 147.851 115.146 150.535 115.146 153.916C115.146 157.296 112.454 159.981 109.164 159.981ZM109.164 148.944C106.373 148.944 104.18 151.231 104.18 154.015C104.18 156.799 106.373 159.086 109.164 159.086C111.956 159.086 114.149 156.799 114.149 154.015C114.149 151.231 111.956 148.944 109.164 148.944Z" fill="#004486"/>
<path d="M109.164 148.944C108.865 148.944 108.666 148.745 108.666 148.447V145.961C108.666 145.663 108.865 145.464 109.164 145.464C109.463 145.464 109.662 145.663 109.662 145.961V148.447C109.662 148.745 109.463 148.944 109.164 148.944Z" fill="#004486"/>
<path d="M109.164 161.969C108.865 161.969 108.666 161.77 108.666 161.472V159.483C108.666 159.185 108.865 158.986 109.164 158.986C109.463 158.986 109.662 159.185 109.662 159.483V161.472C109.662 161.77 109.463 161.969 109.164 161.969Z" fill="#004486"/>
<path d="M116.641 154.412H114.647C114.348 154.412 114.149 154.213 114.149 153.915C114.149 153.617 114.348 153.418 114.647 153.418H116.641C116.94 153.418 117.139 153.617 117.139 153.915C117.139 154.213 116.94 154.412 116.641 154.412Z" fill="#004486"/>
<path d="M103.681 154.412H101.189C100.89 154.412 100.69 154.213 100.69 153.915C100.69 153.617 100.89 153.418 101.189 153.418H103.681C103.98 153.418 104.18 153.617 104.18 153.915C104.18 154.213 103.98 154.412 103.681 154.412Z" fill="#004486"/>
<path d="M114.348 159.981C114.249 159.981 114.049 159.981 113.949 159.881L112.953 158.887C112.753 158.688 112.753 158.39 112.953 158.191C113.152 157.992 113.451 157.992 113.65 158.191L114.647 159.185C114.847 159.384 114.847 159.683 114.647 159.881C114.647 159.881 114.548 159.981 114.348 159.981Z" fill="#004486"/>
<path d="M104.877 150.435C104.778 150.435 104.578 150.435 104.478 150.336L102.983 148.844C102.784 148.645 102.784 148.347 102.983 148.148C103.182 147.949 103.481 147.949 103.681 148.148L105.176 149.64C105.376 149.838 105.376 150.137 105.176 150.336C105.176 150.336 105.077 150.435 104.877 150.435Z" fill="#004486"/>
<path d="M103.482 159.98C103.382 159.98 103.183 159.98 103.083 159.881C102.884 159.682 102.884 159.384 103.083 159.185L104.877 157.395C105.077 157.196 105.376 157.196 105.575 157.395C105.775 157.594 105.775 157.892 105.575 158.091L103.781 159.881C103.681 159.881 103.581 159.98 103.482 159.98Z" fill="#004486"/>
<path d="M112.853 150.435C112.753 150.435 112.554 150.435 112.454 150.336C112.255 150.137 112.255 149.838 112.454 149.64L113.949 148.148C114.149 147.949 114.448 147.949 114.647 148.148C114.847 148.347 114.847 148.645 114.647 148.844L113.152 150.336C113.152 150.336 113.052 150.435 112.853 150.435Z" fill="#004486"/>
<path d="M134.586 154.91H132.094C131.495 154.91 131.097 154.512 131.097 153.916C131.097 133.93 111.457 133.334 109.164 133.334C102.485 133.334 86.9326 135.322 86.9326 153.916C86.9326 154.512 86.5338 154.91 85.9357 154.91H83.4433C82.9449 154.91 82.5461 154.512 82.4464 154.015C81.8482 149.342 82.9449 141.885 88.0292 136.118C92.8145 130.749 100.092 127.865 109.264 127.865C118.436 127.865 125.514 130.649 130.199 136.018C135.284 141.785 136.38 149.143 135.683 154.114C135.483 154.612 135.084 154.91 134.586 154.91ZM133.091 152.921H133.689C133.988 148.546 132.891 142.183 128.604 137.311C124.218 132.34 117.738 129.854 109.164 129.854C100.491 129.854 93.9111 132.439 89.4249 137.41C85.0384 142.382 83.9418 148.646 84.2409 152.921H84.839C85.3375 133.533 101.887 131.345 109.064 131.345C117.838 131.345 132.492 135.919 133.091 152.921Z" fill="#004486"/>
<path d="M393.788 145.862H387.308C386.71 145.862 386.311 145.464 386.311 144.868C386.311 144.271 386.71 143.874 387.308 143.874H393.589L428.581 131.445L432.968 126.275H6.47995V143.874H83.7422C84.3404 143.874 84.7392 144.271 84.7392 144.868C84.7392 145.464 84.3404 145.862 83.7422 145.862H5.48302C4.88486 145.862 4.48608 145.464 4.48608 144.868V125.28C4.48608 124.684 4.88486 124.286 5.48302 124.286H435.161C435.56 124.286 435.859 124.485 436.058 124.883C436.258 125.28 436.158 125.678 435.958 125.976L429.977 133.036C429.877 133.135 429.678 133.235 429.578 133.334L394.187 145.862C393.988 145.862 393.888 145.862 393.788 145.862ZM382.324 145.862H243.75C243.152 145.862 242.753 145.464 242.753 144.868C242.753 144.271 243.152 143.874 243.75 143.874H382.324C382.922 143.874 383.32 144.271 383.32 144.868C383.32 145.464 382.922 145.862 382.324 145.862Z" fill="#004486"/>
<path d="M194.9 140.89H186.925C186.327 140.89 185.928 140.492 185.928 139.896C185.928 139.299 186.327 138.901 186.925 138.901H194.9C195.499 138.901 195.897 139.299 195.897 139.896C195.897 140.492 195.499 140.89 194.9 140.89Z" fill="#004486"/>
<path d="M141.066 140.89H132.094C131.495 140.89 131.097 140.492 131.097 139.896C131.097 139.299 131.495 138.901 132.094 138.901H141.066C141.664 138.901 142.063 139.299 142.063 139.896C142.063 140.492 141.664 140.89 141.066 140.89Z" fill="#004486"/>
<path d="M484.509 137.907C484.31 137.907 484.21 137.907 484.11 137.808L476.135 133.831C475.836 133.632 475.637 133.334 475.637 132.936V129.456C475.637 129.158 475.736 128.859 476.035 128.661L478.827 126.374H434.663C434.064 126.374 433.666 125.976 433.666 125.379C433.666 124.783 434.064 124.385 434.663 124.385H481.518H540.337V1.98857H1.99387V124.385H5.9816C6.57975 124.385 6.97853 124.783 6.97853 125.379C6.97853 125.976 6.57975 126.374 5.9816 126.374H0.996933C0.398773 126.374 0 125.976 0 125.379V0.994286C0 0.397714 0.398773 0 0.996933 0H541.334C541.932 0 542.331 0.397714 542.331 0.994286V125.379C542.331 125.976 541.932 126.374 541.334 126.374H481.917L477.531 129.854V132.24L485.008 136.018C485.506 136.217 485.706 136.814 485.406 137.311C485.207 137.709 484.908 137.907 484.509 137.907Z" fill="#004486"/>
<path d="M388.305 155.705H381.327V131.842H388.305V155.705ZM383.321 154.114H386.311V133.532H383.321V154.114Z" fill="#004486"/>
<path d="M387.308 162.367H382.324V154.114H387.308V162.367ZM384.318 160.677H385.315V155.705H384.318V160.677Z" fill="#004486"/>
<path d="M389.302 166.444H380.33V163.56L382.324 160.677H387.308L389.302 163.56V166.444ZM382.324 164.853H387.308V164.057L386.112 162.367H383.42L382.224 164.057V164.853H382.324Z" fill="#004486"/>
<path d="M70.2837 158.986H26.4187C25.322 158.986 24.4248 158.092 24.4248 156.998V145.961C24.4248 144.868 25.322 143.973 26.4187 143.973H70.2837C71.3803 143.973 72.2776 144.868 72.2776 145.961V156.998C72.2776 158.092 71.3803 158.986 70.2837 158.986ZM26.4187 145.862V156.898H70.2837V145.862H26.4187Z" fill="#004486"/>
<path d="M8.47395 172.012C7.87579 172.012 7.47702 171.614 7.47702 171.017V156.998H6.48009C5.88193 156.998 5.48315 156.6 5.48315 156.004V144.967C5.48315 144.37 5.88193 143.973 6.48009 143.973C7.07825 143.973 7.47702 144.37 7.47702 144.967V155.009H9.96935L18.6427 144.37C18.9417 143.973 19.6396 143.873 20.0384 144.271C20.4371 144.569 20.5368 145.265 20.1381 145.663L11.1657 156.7C10.9663 156.898 10.6672 157.097 10.3681 157.097H9.37119V171.017C9.47088 171.514 9.07211 172.012 8.47395 172.012Z" fill="#004486"/>
<path d="M6.48013 156.899H0.498535V147.95H6.48013V149.939H2.4924V154.91H6.48013V156.899Z" fill="#004486"/>
<path d="M240.759 150.833H235.874" stroke="#004486" stroke-miterlimit="10"/>
<path d="M199.386 150.833H194.501" stroke="#004486" stroke-miterlimit="10"/>
<path d="M186.925 150.833H182.04" stroke="#004486" stroke-miterlimit="10"/>
<path d="M145.253 150.833H140.368" stroke="#004486" stroke-miterlimit="10"/>
<path d="M132.093 150.833H127.208" stroke="#004486" stroke-miterlimit="10"/>
<path d="M90.7209 150.833H85.8359" stroke="#004486" stroke-miterlimit="10"/>
</g>
<defs>
<clipPath id="clip0_894_15887">
<rect width="650" height="174" fill="white"/>
</clipPath>
</defs>
</svg>
