<svg width="650" height="175" viewBox="0 0 650 175" fill="none" xmlns="http://www.w3.org/2000/svg">
<path d="M592.395 174.927C581.532 174.927 572.762 165.978 572.762 155.041C572.762 144.103 581.632 135.154 592.395 135.154C603.159 135.154 612.029 144.103 612.029 155.041C612.029 165.978 603.259 174.927 592.395 174.927ZM592.395 137.143C582.628 137.143 574.755 145.197 574.755 155.041C574.755 164.884 582.728 172.938 592.395 172.938C602.063 172.938 610.036 164.884 610.036 155.041C610.036 145.197 602.162 137.143 592.395 137.143Z" fill="#004486"/>
<path d="M592.395 162.399C588.409 162.399 585.12 159.117 585.12 155.041C585.12 150.964 588.409 147.683 592.395 147.683C596.382 147.683 599.671 150.964 599.671 155.041C599.671 159.117 596.382 162.399 592.395 162.399ZM592.395 148.677C588.907 148.677 586.117 151.561 586.117 155.041C586.117 158.521 588.907 161.404 592.395 161.404C595.883 161.404 598.674 158.521 598.674 155.041C598.674 151.561 595.784 148.677 592.395 148.677Z" fill="#004486"/>
<path d="M454.163 174.927C443.3 174.927 434.529 165.978 434.529 155.041C434.529 144.103 443.399 135.154 454.163 135.154C464.927 135.154 473.797 144.103 473.797 155.041C473.797 165.978 465.026 174.927 454.163 174.927ZM454.163 137.143C444.396 137.143 436.523 145.197 436.523 155.041C436.523 164.884 444.496 172.938 454.163 172.938C463.83 172.938 471.803 164.884 471.803 155.041C471.803 145.197 463.93 137.143 454.163 137.143Z" fill="#004486"/>
<path d="M454.163 162.399C450.176 162.399 446.887 159.117 446.887 155.041C446.887 150.964 450.176 147.683 454.163 147.683C458.149 147.683 461.438 150.964 461.438 155.041C461.438 159.117 458.249 162.399 454.163 162.399ZM454.163 148.677C450.675 148.677 447.884 151.561 447.884 155.041C447.884 158.521 450.675 161.404 454.163 161.404C457.651 161.404 460.442 158.521 460.442 155.041C460.442 151.561 457.651 148.677 454.163 148.677Z" fill="#004486"/>
<path d="M570.071 170.154H563.692V159.614C563.692 143.904 563.692 129.089 594.189 129.089H597.079L594.887 136.049H594.189C571.765 136.049 570.071 145.793 570.071 160.808V170.154ZM565.686 168.166H568.078V160.808C568.078 145.793 569.971 134.359 593.492 134.061L594.389 131.078H594.189C565.686 131.078 565.686 143.705 565.686 159.614V168.166Z" fill="#004486"/>
<path d="M625.384 163.89H619.902L619.803 162.995C619.504 160.012 617.909 151.958 614.321 142.512C610.933 133.464 602.96 131.077 599.272 131.077H569.772L564.29 124.117V115.566H600.867C611.531 115.566 615.417 119.345 619.304 126.703C621.995 131.972 624.088 149.771 625.384 162.697V163.89ZM621.596 161.901H623.091C622.194 153.648 620.002 132.967 617.311 127.697C613.723 120.836 610.335 117.654 600.667 117.654H566.084V123.521L570.569 129.188H599.172C603.358 129.188 612.328 131.873 616.115 141.916C619.504 150.665 621.098 158.322 621.596 161.901Z" fill="#004486"/>
<path d="M638.937 162.498C638.14 162.498 637.542 162.498 637.243 162.498L624.187 162.001L624.287 160.012L637.343 160.51C641.329 160.708 646.312 160.211 647.608 159.018C647.807 158.819 647.807 158.72 647.807 158.62V135.055C647.608 133.365 646.811 131.177 645.814 131.177H642.824C642.226 131.177 641.828 130.779 641.828 130.183V127.797C641.828 127.2 642.226 126.802 642.824 126.802C642.824 126.802 647.309 126.802 647.309 123.919C647.309 120.836 647.608 104.629 647.807 96.4756C647.807 94.0893 647.508 89.7143 646.811 87.6262C646.013 85.3393 639.236 64.5581 635.748 53.919C635.649 53.5212 635.748 53.1235 636.047 52.8252C636.346 52.5269 636.845 52.5269 637.243 52.8252L639.436 54.2173L637.841 49.0468L637.243 48.7485C636.944 48.6491 636.745 48.3508 636.745 48.1519C636.645 47.8536 636.745 47.5553 636.845 47.3565L637.542 46.3622L635.051 41.0923L629.071 40.1974C628.872 40.1974 628.672 40.098 628.573 39.8991C626.779 38.1093 622.194 34.7287 618.208 34.4304C613.822 34.0327 598.973 33.3366 591.697 32.9389H558.709C558.011 52.9246 556.815 91.6035 557.214 101.348C557.513 108.209 557.812 112.385 558.111 114.672C558.111 115.169 558.211 115.467 558.211 115.765H565.785V117.754H557.314C556.716 117.754 556.317 117.356 556.317 116.76C556.317 116.461 556.217 115.765 556.217 114.771C556.018 112.484 555.619 108.308 555.32 101.348C554.922 91.4046 556.118 51.5326 556.815 31.8452C556.815 31.348 557.314 30.8509 557.812 30.8509H591.897C599.272 31.1491 614.121 31.9446 618.507 32.3423C622.991 32.74 627.775 36.2202 629.868 38.2088L636.047 39.1037C636.346 39.1037 636.645 39.402 636.845 39.7003L639.834 45.9644C640.034 46.2627 639.934 46.6605 639.735 46.9587L639.436 47.4559C639.635 47.5553 639.834 47.7542 639.934 48.0525L642.426 56.2059C642.525 56.6036 642.426 57.0013 642.027 57.2996C641.728 57.5979 641.23 57.5979 640.931 57.2996L638.738 55.9076C642.326 67.0439 648.106 84.8422 648.904 86.9302C649.9 89.9132 650 96.1773 650 96.3762C649.801 105.822 649.502 121.035 649.502 123.819C649.502 126.802 646.811 128.294 644.02 128.592V129.089H646.013C648.704 129.089 649.801 132.669 650 134.757V158.421C650 159.117 649.701 159.714 649.203 160.211C647.11 162.2 641.828 162.498 638.937 162.498Z" fill="#004486"/>
<path d="M590.203 32.2427H588.21V29.3592C588.21 28.7626 588.608 28.3649 589.206 28.3649H592.993C593.093 28.0666 592.993 26.4757 588.11 22.399C580.137 15.7371 578.343 14.4445 569.174 13.4501C564.789 13.0524 561.5 12.5553 559.706 12.257L558.809 29.3592V32.2427H556.816V29.3592L557.812 10.9644C557.812 10.6661 558.012 10.3678 558.311 10.1689C558.61 9.97004 558.909 9.97004 559.208 10.1689C559.507 10.2683 562.098 10.7655 569.373 11.5609C579.14 12.5553 581.432 14.1462 589.405 20.9075C593.591 24.3876 595.385 26.9728 594.987 28.862C594.787 29.558 594.289 30.1546 593.492 30.3535C593.392 30.3535 593.292 30.3535 593.193 30.3535H590.203V32.2427Z" fill="#004486"/>
<path d="M589.206 28.3649L558.211 28.3651V29.3594H589.206L589.206 28.3649Z" fill="#004486"/>
<path d="M570.198 12.8658L568.694 28.8039L569.686 28.897L571.19 12.959L570.198 12.8658Z" fill="#004486"/>
<path d="M564.689 116.163C563.692 74.7 568.675 32.1434 568.675 31.7456L569.672 31.8451C569.672 32.2428 564.689 74.7 565.685 116.064L564.689 116.163Z" fill="#004486"/>
<path d="M632.559 84.9414C632.26 84.9414 631.861 84.9414 631.662 84.842C624.088 84.1459 609.039 82.8533 606.647 82.4556C603.956 82.0579 603.258 79.3732 603.258 78.0806V59.7852C603.258 56.9017 605.451 55.1119 606.547 54.5154C606.647 54.5154 606.647 54.5154 606.746 54.5154H627.277C630.964 54.5154 633.456 57.3989 634.752 63.0665C635.549 66.5466 635.748 76.2908 635.748 80.9641C635.748 82.555 635.35 83.6488 634.453 84.3448C633.954 84.7425 633.257 84.9414 632.559 84.9414ZM606.846 55.4102C605.849 55.9074 604.255 57.3989 604.255 59.6858V77.9812C604.255 78.9755 604.753 81.0636 606.846 81.3619C609.238 81.7596 624.187 83.0522 631.861 83.7482C632.459 83.9471 633.356 83.9471 633.954 83.4499C634.552 82.9528 634.851 82.1573 634.851 80.8647C634.851 76.1914 634.652 66.5466 633.855 63.1659C632.659 57.9955 630.466 55.3108 627.377 55.3108L606.846 55.4102Z" fill="#004486"/>
<path d="M632.459 99.3591C632.16 99.3591 631.961 99.2596 631.762 99.0608L630.068 97.3704C629.868 97.1716 629.769 96.9727 629.769 96.6744V93.3932C629.769 92.7966 630.167 92.3988 630.765 92.3988H634.054C634.652 92.3988 635.051 92.7966 635.051 93.3932V96.6744C635.051 96.9727 634.951 97.1716 634.752 97.3704L633.057 99.0608C632.958 99.2596 632.659 99.3591 632.459 99.3591ZM631.762 96.2767L632.459 96.9727L633.157 96.2767V94.3875H631.861V96.2767H631.762Z" fill="#004486"/>
<path d="M632.659 93.7909C632.061 93.7909 631.662 93.3932 631.662 92.7966V90.9074C631.662 90.6091 631.762 90.4102 631.961 90.2114L633.755 88.4216V67.541C633.755 65.4529 633.257 64.7569 633.157 64.558H628.075C627.477 64.558 627.078 64.1603 627.078 63.5637C627.078 62.9671 627.477 62.5694 628.075 62.5694H633.257C633.656 62.5694 635.749 62.7683 635.749 67.541V88.9187C635.749 89.217 635.649 89.4159 635.45 89.6148L633.656 91.4045V92.896C633.656 93.3932 633.257 93.7909 632.659 93.7909Z" fill="#004486"/>
<path d="M631.164 83.2511H627.875C627.277 83.2511 626.878 82.8533 626.878 82.2567V66.4471C626.878 65.8505 627.277 65.4528 627.875 65.4528H631.164C631.563 65.4528 631.862 65.6517 632.061 65.95L635.549 72.6119L633.755 73.5068L630.466 67.4414H628.872V81.2624H630.765L634.054 77.9812L635.449 79.3732L631.961 82.8533C631.762 83.1516 631.463 83.2511 631.164 83.2511Z" fill="#004486"/>
<path d="M637.044 54.4161C635.948 53.7201 633.257 51.7315 630.466 49.0468C629.968 48.5497 629.57 48.0525 629.271 47.4559C627.676 44.6718 628.274 40.9929 628.872 39.3025L629.769 39.6008C629.271 41.0923 628.772 44.1747 629.968 46.6605H637.244V47.6548H630.566C630.765 47.8536 630.865 48.0525 631.064 48.2514C633.855 50.936 636.446 52.8252 637.543 53.5212L637.044 54.4161Z" fill="#004486"/>
<path d="M638.34 161.404H637.343V158.521H623.789V157.526H637.343V156.632H623.789V155.637H637.343V147.484H622.792V146.489H637.343V145.793H622.294V144.799H637.343V129.686H619.304V128.691H637.841H641.828V117.157H599.77C599.471 117.157 599.272 116.958 599.272 116.66V52.5267H567.779V51.5324H632.36H634.852V52.5267H633.157C634.951 56.504 643.423 76.092 643.423 89.6147C643.423 100.453 642.924 116.163 642.924 116.561V129.188C642.924 129.487 642.725 129.686 642.426 129.686H638.439V158.024H637.841H638.34V161.404ZM600.269 116.163H641.828C641.928 113.379 642.326 99.5578 642.326 89.7141C642.326 75.7937 633.157 55.3108 631.961 52.6262H600.269V116.163Z" fill="#004486"/>
<path d="M585.718 113.279H570.669C568.974 113.279 567.679 111.987 567.679 110.296V105.623C567.679 103.933 568.974 102.64 570.669 102.64H585.718C587.412 102.64 588.708 103.933 588.708 105.623V110.296C588.708 111.887 587.412 113.279 585.718 113.279ZM570.669 103.634C569.572 103.634 568.676 104.529 568.676 105.623V110.296C568.676 111.39 569.572 112.285 570.669 112.285H585.718C586.814 112.285 587.711 111.39 587.711 110.296V105.623C587.711 104.529 586.814 103.634 585.718 103.634H570.669Z" fill="#004486"/>
<path d="M592.794 81.4612H584.721C583.027 81.4612 581.731 80.1686 581.731 78.4782V58.3931C581.731 56.7027 583.027 55.4101 584.721 55.4101H592.794C594.488 55.4101 595.784 56.7027 595.784 58.3931V78.4782C595.784 80.0691 594.389 81.4612 592.794 81.4612ZM584.721 56.4045C583.625 56.4045 582.728 57.2993 582.728 58.3931V78.4782C582.728 79.572 583.625 80.4669 584.721 80.4669H592.794C593.89 80.4669 594.787 79.572 594.787 78.4782V58.3931C594.787 57.2993 593.89 56.4045 592.794 56.4045H584.721Z" fill="#004486"/>
<path d="M609.338 108.407H604.155C602.86 108.407 601.763 107.313 601.763 106.021C601.763 104.728 602.86 103.634 604.155 103.634H609.338C610.633 103.634 611.729 104.728 611.729 106.021C611.729 107.313 610.633 108.407 609.338 108.407ZM604.155 104.629C603.358 104.629 602.76 105.225 602.76 106.021C602.76 106.816 603.358 107.413 604.155 107.413H609.338C610.135 107.413 610.733 106.816 610.733 106.021C610.733 105.225 610.135 104.629 609.338 104.629H604.155Z" fill="#004486"/>
<path d="M586.715 121.93H582.728C582.13 121.93 581.731 121.532 581.731 120.935V119.046C581.731 118.45 582.13 118.052 582.728 118.052H586.715C587.313 118.052 587.711 118.45 587.711 119.046V120.935C587.711 121.433 587.313 121.93 586.715 121.93ZM582.728 119.046V120.935H586.715V119.046H582.728Z" fill="#004486"/>
<path d="M638.739 92.0012C622.792 90.808 591.199 88.5211 585.718 88.1234C579.838 87.7257 577.944 84.1461 577.745 82.3564V57.6974H578.742V82.2569C578.941 83.7484 580.535 86.7313 585.818 87.0296C591.299 87.4274 622.892 89.7143 638.838 90.9075L638.739 92.0012Z" fill="#004486"/>
<path d="M648.804 148.876H640.831C640.632 148.876 640.532 148.777 640.433 148.677C640.333 148.578 640.333 148.379 640.333 148.279C640.532 147.285 640.931 145.396 641.33 143.904C641.828 142.115 644.02 141.319 645.216 141.12H648.804V142.115H645.316C644.319 142.313 642.625 143.009 642.326 144.103C642.027 145.396 641.629 146.887 641.429 147.782H648.804V148.876Z" fill="#004486"/>
<path d="M622.294 162.995C621.596 159.316 619.504 149.373 616.314 137.939C613.225 126.802 605.152 124.118 601.265 124.316H565.686V123.322H601.265C605.351 123.123 614.022 125.907 617.311 137.64C620.5 149.075 622.593 159.018 623.291 162.697L622.294 162.995Z" fill="#004486"/>
<path d="M619.703 158.521H610.733V160.509H619.703V158.521Z" fill="#004486"/>
<path d="M575.652 162.399H568.676V164.387H575.652V162.399Z" fill="#004486"/>
<path d="M564.191 166.774H535.189C534.79 166.774 534.491 166.575 534.292 166.277C534.093 165.978 534.093 165.581 534.292 165.282L535.787 162.896C535.787 162.896 536.285 162.001 534.89 160.808C533.694 159.615 532.498 160.609 532.299 160.808L527.814 166.078C527.615 166.277 527.316 166.476 527.017 166.476H477.484V164.487H526.618L530.804 159.515C530.804 159.515 530.804 159.416 530.903 159.416C532 158.422 534.292 157.527 536.285 159.416C538.378 161.404 537.88 163.294 537.382 164.089L536.883 164.984H564.091V166.774H564.191ZM568.177 139.331H473.597V137.342H568.177V139.331Z" fill="#004486"/>
<path d="M481.57 166.276H475.69V155.836C475.69 144.6 466.222 135.751 454.063 135.751C441.904 135.751 432.436 144.6 432.436 155.836V166.276H426.556V154.941C426.556 141.021 438.616 130.083 454.063 130.083C469.511 130.083 481.57 141.021 481.57 154.941V166.276ZM477.683 164.288H479.577V154.941C479.577 142.115 468.315 132.072 454.063 132.072C439.712 132.072 428.55 142.115 428.55 154.941V164.288H430.443V155.836C430.443 143.507 440.808 133.762 454.063 133.762C467.318 133.762 477.683 143.407 477.683 155.836V164.288Z" fill="#004486"/>
<path d="M176.901 174.927C166.038 174.927 157.268 165.978 157.268 155.041C157.268 144.103 166.138 135.154 176.901 135.154C187.665 135.154 196.535 144.103 196.535 155.041C196.535 165.978 187.665 174.927 176.901 174.927ZM176.901 137.143C167.134 137.143 159.261 145.197 159.261 155.041C159.261 164.884 167.234 172.938 176.901 172.938C186.568 172.938 194.541 164.884 194.541 155.041C194.541 145.197 186.568 137.143 176.901 137.143Z" fill="#004486"/>
<path d="M176.902 162.399C172.915 162.399 169.626 159.117 169.626 155.041C169.626 150.964 172.915 147.683 176.902 147.683C180.888 147.683 184.177 150.964 184.177 155.041C184.077 159.117 180.888 162.399 176.902 162.399ZM176.902 148.677C173.413 148.677 170.623 151.561 170.623 155.041C170.623 158.521 173.413 161.404 176.902 161.404C180.39 161.404 183.18 158.521 183.18 155.041C183.18 151.561 180.29 148.677 176.902 148.677Z" fill="#004486"/>
<path d="M204.209 166.276H198.329V155.836C198.329 144.501 188.662 135.254 176.702 135.254C164.743 135.254 155.075 144.501 155.075 155.836V166.276H149.195V154.941C149.195 141.021 161.553 129.586 176.702 129.586C191.851 129.586 204.209 140.921 204.209 154.941V166.276ZM200.322 164.288H202.216V154.941C202.216 142.115 190.755 131.575 176.702 131.575C162.65 131.575 151.189 142.015 151.189 154.941V164.288H153.082V155.836C153.082 143.407 163.646 133.265 176.702 133.265C189.758 133.265 200.322 143.407 200.322 155.836V164.288Z" fill="#004486"/>
<path d="M119.795 174.927C108.931 174.927 100.161 165.978 100.161 155.041C100.161 144.103 109.031 135.154 119.795 135.154C130.658 135.154 139.428 144.103 139.428 155.041C139.428 165.978 130.658 174.927 119.795 174.927ZM119.795 137.143C110.028 137.143 102.154 145.197 102.154 155.041C102.154 164.884 110.127 172.938 119.795 172.938C129.462 172.938 137.435 164.884 137.435 155.041C137.435 145.197 129.562 137.143 119.795 137.143Z" fill="#004486"/>
<path d="M119.794 162.399C115.808 162.399 112.519 159.117 112.519 155.041C112.519 150.964 115.808 147.683 119.794 147.683C123.781 147.683 127.07 150.964 127.07 155.041C127.07 159.117 123.781 162.399 119.794 162.399ZM119.794 148.677C116.306 148.677 113.516 151.561 113.516 155.041C113.516 158.521 116.306 161.404 119.794 161.404C123.283 161.404 126.073 158.521 126.073 155.041C126.073 151.561 123.283 148.677 119.794 148.677Z" fill="#004486"/>
<path d="M147.202 166.276H141.322V155.836C141.322 144.501 131.654 135.254 119.695 135.254C107.735 135.254 98.0681 144.501 98.0681 155.836V166.276H92.188V154.941C92.188 141.021 104.546 129.586 119.695 129.586C134.844 129.586 147.202 140.921 147.202 154.941V166.276ZM143.215 164.288H145.109V154.941C145.109 142.115 133.648 131.575 119.595 131.575C105.543 131.575 94.0816 142.015 94.0816 154.941V164.288H95.9752V155.836C95.9752 143.407 106.539 133.265 119.595 133.265C132.651 133.265 143.215 143.407 143.215 155.836V164.288Z" fill="#004486"/>
<path d="M427.055 160.012H421.075C420.477 160.012 420.078 159.614 420.078 159.018V134.955C420.078 134.359 420.477 133.961 421.075 133.961H439.513V135.95H421.972V158.023H426.955V160.012H427.055Z" fill="#004486"/>
<path d="M424.065 152.754H421.573V151.759H423.666L424.463 147.981H420.577V146.987H425.061C425.261 146.987 425.36 147.086 425.46 147.186C425.56 147.285 425.56 147.484 425.56 147.583L424.563 152.356C424.463 152.654 424.264 152.754 424.065 152.754Z" fill="#004486"/>
<path d="M541.169 132.072H4.48482C3.88685 132.072 3.48819 131.674 3.48819 131.078V115.666H0.996627C0.398651 115.666 0 115.268 0 114.672V1.91619C0 1.3196 0.398651 0.921875 0.996627 0.921875H541.169C541.766 0.921875 542.165 1.3196 542.165 1.91619V114.672V131.078C542.165 131.575 541.766 132.072 541.169 132.072ZM5.48145 130.083H540.172V115.666H5.48145V130.083ZM540.172 113.677V2.9105H1.99325V113.677H540.172Z" fill="#004486"/>
<path d="M92.5868 161.007H41.0611C40.4632 161.007 40.0645 160.609 40.0645 160.012V153.748H29.0019C28.404 153.748 28.0053 153.35 28.0053 152.754V145.098H25.0154V152.754C25.0154 153.35 24.6168 153.748 24.0188 153.748H18.039C17.4411 153.748 17.0424 153.35 17.0424 152.754V145.098H15.7468L11.4613 156.532C11.3616 156.93 10.963 157.228 10.5643 157.228H8.57109C7.97311 157.228 7.57446 156.83 7.57446 156.234V131.177H9.56772V155.24H9.8667L14.1522 143.805C14.2519 143.407 14.6505 143.109 15.0492 143.109H18.039C18.637 143.109 19.0357 143.507 19.0357 144.103V151.759H23.0222V144.103C23.0222 143.507 23.4208 143.109 24.0188 143.109H29.0019C29.5999 143.109 29.9986 143.507 29.9986 144.103V151.759H41.0611C41.6591 151.759 42.0578 152.157 42.0578 152.754V159.018H92.5868V161.007Z" fill="#004486"/>
<path d="M24.0188 138.336H20.0323C19.4343 138.336 19.0357 137.938 19.0357 137.342V135.452C19.0357 134.856 19.4343 134.458 20.0323 134.458H24.0188C24.6168 134.458 25.0154 134.856 25.0154 135.452V137.342C25.0154 137.839 24.6168 138.336 24.0188 138.336ZM20.0323 135.452V137.342H24.0188V135.452H20.0323Z" fill="#004486"/>
<path d="M96.0748 138.336H92.0882C91.4903 138.336 91.0916 137.938 91.0916 137.342V135.452C91.0916 134.856 91.4903 134.458 92.0882 134.458H96.0748C96.6727 134.458 97.0714 134.856 97.0714 135.452V137.342C97.0714 137.839 96.6727 138.336 96.0748 138.336ZM92.0882 135.452V137.342H96.0748V135.452H92.0882Z" fill="#004486"/>
<path d="M88.102 159.515H47.041C45.9447 159.515 45.0477 158.62 45.0477 157.526V145.098C45.0477 144.004 45.9447 143.109 47.041 143.109H88.102C89.1983 143.109 90.0953 144.004 90.0953 145.098V157.526C90.0953 158.62 89.1983 159.515 88.102 159.515ZM47.041 145.098V157.526H88.102V145.098H47.041Z" fill="#004486"/>
<path d="M46.0444 151.76L41.0611 151.759L41.0612 153.748H46.0444V151.76Z" fill="#004486"/>
<path d="M96.0748 143.109H87.6034V145.098H96.0748V143.109Z" fill="#004486"/>
<path d="M154.278 141.12H142.219V143.109H154.278V141.12Z" fill="#004486"/>
<path d="M211.285 142.115H199.226V144.103H211.285V142.115Z" fill="#004486"/>
<path d="M210.288 147.981V140.225H330.482V147.981H210.288ZM212.282 145.993H328.488V142.214H212.282V145.993Z" fill="#004486"/>
<path d="M210.288 159.515V151.76H330.482V159.515H210.288ZM212.282 157.527H328.488V153.748H212.282V157.527Z" fill="#004486"/>
<path d="M233.311 153.748H227.331V145.992H233.311V153.748ZM229.224 151.759H231.218V147.981H229.224V151.759Z" fill="#004486"/>
<path d="M317.426 153.748H311.446V145.992H317.426V153.748ZM313.34 151.759H315.333V147.981H313.34V151.759Z" fill="#004486"/>
<path d="M317.426 142.115H311.446V134.359H317.426V142.115ZM313.34 140.126H315.333V136.348H313.34V140.126Z" fill="#004486"/>
<path d="M406.524 132.072H400.544V113.777H406.524V132.072ZM401.541 131.078H405.527V114.771H401.541V131.078Z" fill="#004486"/>
<path d="M273.375 132.072H267.395V113.777H273.375V132.072ZM268.292 131.078H272.278V114.771H268.292V131.078Z" fill="#004486"/>
<path d="M142.219 132.072H136.239V113.777H142.219V132.072ZM137.136 131.078H141.123V114.771H137.136V131.078Z" fill="#004486"/>
<path d="M534.69 132.072H528.711V113.777H534.69V132.072ZM529.608 131.078H533.594V114.771H529.608V131.078Z" fill="#004486"/>
<path d="M15.0491 132.072H8.96964V113.777H14.9494V132.072H15.0491ZM9.96627 131.078H13.9528V114.771H9.96627V131.078Z" fill="#004486"/>
<path d="M233.311 142.115H227.331V134.359H233.311V142.115ZM229.224 140.126H231.218V136.348H229.224V140.126Z" fill="#004486"/>
<path d="M346.527 153.748H334.368C333.77 153.748 333.372 153.35 333.372 152.754V145.694H329.385V143.706H334.368C334.966 143.706 335.365 144.103 335.365 144.7V151.759H345.531V146.191C345.531 145.595 345.929 145.197 346.527 145.197H350.514L363.869 136.447C363.968 136.348 364.068 136.348 364.267 136.348L394.266 130.183L394.664 132.171L364.766 138.237L351.311 147.086C351.112 147.186 350.912 147.285 350.713 147.285H347.424V152.853C347.524 153.35 347.125 153.748 346.527 153.748Z" fill="#004486"/>
<path d="M344.434 160.509H336.461V151.859H344.434V160.509ZM338.455 158.521H342.441V153.847H338.455V158.521Z" fill="#004486"/>
<path d="M347.424 164.288H334.368V158.521H347.424V164.288ZM336.362 162.299H345.431V160.509H336.362V162.299Z" fill="#004486"/>
<path d="M485.557 139.33H475.591V137.342H483.564V132.072H463.033V130.083H485.557V139.33Z" fill="#004486"/>
<path d="M550.636 129.586H540.172V97.7681H550.636V129.586ZM542.165 127.597H548.643V99.7567H542.165V127.597Z" fill="#004486"/>
<path d="M553.427 138.933L551.932 137.64L554.423 134.856L556.217 131.774L556.716 126.205L557.214 117.058L559.207 117.157L558.709 126.305L558.211 132.072C558.211 132.171 558.111 132.37 558.111 132.47L556.118 135.85C556.118 135.95 556.018 135.95 556.018 135.95L553.427 138.933Z" fill="#004486"/>
<path d="M556.616 111.291C551.434 110.794 549.042 106.816 548.743 104.132L550.736 103.833C551.035 105.723 552.929 108.904 556.816 109.203L556.616 111.291Z" fill="#004486"/>
<path d="M554.623 128.492C554.424 128.492 554.224 128.492 554.025 128.492C551.633 128.095 549.74 125.609 548.743 123.322L550.537 122.526C551.334 124.416 552.829 126.305 554.224 126.603C555.022 126.703 555.919 126.305 556.816 125.211L558.311 126.504C557.214 127.796 556.018 128.492 554.623 128.492Z" fill="#004486"/>
<path d="M454.063 168.563C452.568 168.563 450.974 168.265 449.578 167.768C449.279 167.668 449.18 167.37 449.279 167.171C449.379 166.972 449.678 166.774 449.877 166.873C451.372 167.37 452.967 167.668 454.562 167.569C454.861 167.569 455.06 167.768 455.06 168.066C455.06 168.364 454.861 168.563 454.562 168.563C454.462 168.563 454.263 168.563 454.063 168.563ZM459.445 167.37C459.246 167.37 459.046 167.271 458.947 167.072C458.847 166.774 458.947 166.575 459.146 166.376C460.641 165.68 461.937 164.785 463.033 163.592C463.232 163.393 463.531 163.393 463.73 163.592C463.93 163.791 463.93 164.089 463.73 164.288C462.535 165.58 461.139 166.575 459.545 167.271C459.644 167.37 459.545 167.37 459.445 167.37ZM445.492 165.381C445.393 165.381 445.293 165.381 445.193 165.282C443.898 164.188 442.801 162.796 442.004 161.205C441.904 161.006 442.004 160.708 442.203 160.509C442.403 160.41 442.702 160.509 442.901 160.708C443.599 162.1 444.595 163.393 445.791 164.487C445.991 164.685 445.991 164.984 445.791 165.183C445.791 165.282 445.592 165.381 445.492 165.381ZM466.222 160.41C466.122 160.41 466.122 160.41 466.023 160.41C465.724 160.31 465.624 160.012 465.724 159.714C466.322 158.222 466.621 156.631 466.621 155.041C466.621 154.245 466.521 153.549 466.421 152.853C466.421 152.555 466.521 152.356 466.82 152.257C467.119 152.257 467.318 152.356 467.418 152.654C467.518 153.45 467.617 154.245 467.617 155.041C467.617 156.83 467.318 158.521 466.621 160.112C466.521 160.31 466.421 160.41 466.222 160.41ZM441.007 156.731C440.708 156.731 440.509 156.532 440.509 156.234C440.509 155.836 440.409 155.438 440.409 155.041C440.409 153.748 440.609 152.356 441.007 151.163C441.107 150.864 441.406 150.765 441.605 150.864C441.904 150.964 442.004 151.262 441.904 151.461C441.506 152.654 441.406 153.847 441.406 155.041C441.406 155.438 441.406 155.836 441.406 156.134C441.605 156.433 441.406 156.631 441.007 156.731C441.107 156.731 441.107 156.731 441.007 156.731ZM465.126 148.578C464.926 148.578 464.827 148.478 464.727 148.379C463.83 146.987 462.734 145.893 461.438 144.899C461.239 144.7 461.139 144.401 461.339 144.203C461.538 144.004 461.837 143.904 462.036 144.103C463.432 145.097 464.627 146.39 465.524 147.882C465.624 148.08 465.624 148.379 465.325 148.578C465.325 148.578 465.225 148.578 465.126 148.578ZM443.898 147.384C443.798 147.384 443.698 147.384 443.599 147.285C443.399 147.086 443.3 146.788 443.499 146.589C444.595 145.197 445.891 144.103 447.386 143.308C447.585 143.208 447.884 143.208 448.083 143.507C448.183 143.705 448.183 144.004 447.884 144.203C446.489 144.998 445.293 145.992 444.296 147.285C444.197 147.384 443.997 147.384 443.898 147.384ZM457.252 142.91H457.153C455.658 142.512 453.964 142.413 452.369 142.612C452.07 142.612 451.871 142.413 451.771 142.214C451.771 141.916 451.97 141.717 452.17 141.617C453.864 141.418 455.658 141.518 457.252 141.916C457.551 142.015 457.651 142.214 457.651 142.512C457.651 142.711 457.452 142.91 457.252 142.91Z" fill="#004486"/>
<path d="M592.395 168.563C590.9 168.563 589.305 168.265 587.91 167.768C587.611 167.668 587.511 167.37 587.611 167.171C587.711 166.873 588.01 166.774 588.209 166.873C589.704 167.37 591.299 167.668 592.893 167.569C593.192 167.569 593.392 167.768 593.392 168.066C593.392 168.364 593.192 168.563 592.893 168.563C592.794 168.563 592.594 168.563 592.395 168.563ZM597.777 167.37C597.577 167.37 597.378 167.271 597.278 167.072C597.179 166.774 597.278 166.575 597.478 166.376C598.973 165.68 600.268 164.785 601.365 163.592C601.564 163.393 601.863 163.393 602.062 163.592C602.262 163.791 602.262 164.089 602.062 164.288C600.866 165.58 599.471 166.575 597.876 167.271C597.976 167.37 597.876 167.37 597.777 167.37ZM583.824 165.381C583.724 165.381 583.625 165.381 583.525 165.282C582.229 164.188 581.133 162.796 580.336 161.205C580.236 161.006 580.336 160.708 580.535 160.509C580.734 160.41 581.033 160.509 581.233 160.708C581.93 162.1 582.927 163.393 584.123 164.487C584.322 164.685 584.322 164.984 584.123 165.183C584.123 165.282 583.924 165.381 583.824 165.381ZM604.554 160.41C604.454 160.41 604.454 160.41 604.354 160.41C604.056 160.31 603.956 160.012 604.055 159.714C604.653 158.222 604.952 156.631 604.952 155.041C604.952 154.245 604.853 153.549 604.753 152.853C604.753 152.555 604.853 152.356 605.152 152.257C605.451 152.257 605.65 152.356 605.75 152.654C605.849 153.45 605.949 154.245 605.949 155.041C605.949 156.83 605.65 158.521 604.952 160.112C604.853 160.31 604.753 160.41 604.554 160.41ZM579.439 156.731C579.14 156.731 578.94 156.532 578.94 156.234C578.94 155.836 578.841 155.438 578.841 155.041C578.841 153.748 579.04 152.356 579.439 151.163C579.539 150.864 579.837 150.765 580.037 150.864C580.336 150.964 580.435 151.262 580.336 151.461C579.937 152.654 579.837 153.847 579.837 155.041C579.837 155.438 579.837 155.836 579.837 156.134C579.937 156.433 579.738 156.631 579.439 156.731ZM603.458 148.578C603.258 148.578 603.159 148.478 603.059 148.379C602.162 146.987 601.066 145.893 599.77 144.899C599.571 144.7 599.471 144.401 599.67 144.203C599.87 144.004 600.169 143.904 600.368 144.103C601.763 145.097 602.959 146.39 603.856 147.882C603.956 148.08 603.956 148.379 603.657 148.578C603.657 148.578 603.557 148.578 603.458 148.578ZM582.229 147.384C582.13 147.384 582.03 147.384 581.93 147.285C581.731 147.086 581.631 146.788 581.831 146.589C582.927 145.197 584.223 144.103 585.718 143.308C585.917 143.208 586.216 143.208 586.415 143.507C586.515 143.705 586.515 144.004 586.216 144.203C584.821 144.998 583.625 145.992 582.628 147.285C582.528 147.384 582.329 147.384 582.229 147.384ZM595.584 142.91H595.484C593.99 142.512 592.295 142.413 590.701 142.612C590.402 142.612 590.202 142.413 590.103 142.214C590.103 141.916 590.302 141.717 590.501 141.617C592.196 141.418 593.99 141.518 595.584 141.916C595.883 142.015 595.983 142.214 595.983 142.512C595.983 142.711 595.783 142.91 595.584 142.91Z" fill="#004486"/>
<path d="M176.901 168.563C175.406 168.563 173.812 168.265 172.416 167.768C172.117 167.668 172.018 167.37 172.117 167.171C172.217 166.873 172.516 166.774 172.715 166.873C174.21 167.37 175.805 167.668 177.4 167.569C177.599 167.569 177.898 167.768 177.898 168.066C177.898 168.364 177.699 168.563 177.4 168.563C177.3 168.563 177.101 168.563 176.901 168.563ZM182.283 167.37C182.084 167.37 181.884 167.271 181.785 167.072C181.685 166.774 181.785 166.575 181.984 166.376C183.479 165.68 184.775 164.785 185.871 163.592C186.07 163.393 186.369 163.393 186.568 163.592C186.768 163.791 186.768 164.089 186.568 164.288C185.373 165.58 183.977 166.575 182.383 167.271C182.482 167.37 182.383 167.37 182.283 167.37ZM168.33 165.381C168.231 165.381 168.131 165.381 168.031 165.282C166.736 164.188 165.639 162.796 164.842 161.205C164.742 161.006 164.842 160.708 165.041 160.509C165.241 160.41 165.54 160.509 165.739 160.708C166.437 162.1 167.433 163.393 168.629 164.487C168.829 164.685 168.829 164.984 168.629 165.183C168.629 165.282 168.43 165.381 168.33 165.381ZM189.06 160.41C188.96 160.41 188.96 160.41 188.861 160.41C188.562 160.31 188.462 160.012 188.562 159.714C189.16 158.222 189.459 156.631 189.459 155.041C189.459 154.245 189.359 153.549 189.259 152.853C189.259 152.555 189.359 152.356 189.658 152.257C189.957 152.257 190.156 152.356 190.256 152.654C190.356 153.45 190.455 154.245 190.455 155.041C190.455 156.83 190.156 158.521 189.459 160.112C189.359 160.31 189.259 160.41 189.06 160.41ZM163.945 156.731C163.646 156.731 163.447 156.532 163.447 156.234C163.447 155.836 163.347 155.438 163.347 155.041C163.347 153.748 163.546 152.356 163.945 151.163C164.045 150.864 164.344 150.765 164.543 150.864C164.842 150.964 164.942 151.262 164.842 151.461C164.443 152.654 164.344 153.847 164.344 155.041C164.344 155.438 164.344 155.836 164.344 156.134C164.443 156.433 164.244 156.631 163.945 156.731ZM187.964 148.578C187.764 148.578 187.665 148.478 187.565 148.379C186.668 146.987 185.572 145.893 184.276 144.899C184.077 144.7 183.977 144.401 184.177 144.203C184.376 144.004 184.675 143.904 184.874 144.103C186.27 145.097 187.465 146.39 188.362 147.882C188.462 148.08 188.462 148.379 188.163 148.578C188.163 148.578 188.063 148.578 187.964 148.578ZM166.736 147.384C166.636 147.384 166.536 147.384 166.437 147.285C166.237 147.086 166.138 146.788 166.337 146.589C167.433 145.197 168.729 144.103 170.224 143.308C170.423 143.208 170.722 143.208 170.921 143.507C171.021 143.705 171.021 144.004 170.722 144.203C169.327 144.998 168.131 145.992 167.134 147.285C167.035 147.384 166.835 147.384 166.736 147.384ZM180.09 142.91H179.991C178.496 142.512 176.802 142.413 175.207 142.612C174.908 142.612 174.709 142.413 174.609 142.214C174.609 141.916 174.808 141.717 175.008 141.617C176.702 141.418 178.496 141.518 180.09 141.916C180.389 142.015 180.489 142.214 180.489 142.512C180.489 142.711 180.29 142.91 180.09 142.91Z" fill="#004486"/>
<path d="M119.595 168.563C118.1 168.563 116.506 168.265 115.11 167.768C114.811 167.668 114.712 167.37 114.811 167.171C114.911 166.873 115.21 166.774 115.409 166.873C116.904 167.37 118.499 167.668 120.093 167.569C120.392 167.569 120.592 167.768 120.592 168.066C120.592 168.364 120.392 168.563 120.093 168.563C119.994 168.563 119.794 168.563 119.595 168.563ZM124.977 167.37C124.778 167.37 124.578 167.271 124.479 167.072C124.379 166.774 124.479 166.575 124.678 166.376C126.173 165.68 127.469 164.785 128.565 163.592C128.764 163.393 129.063 163.393 129.262 163.592C129.462 163.791 129.462 164.089 129.262 164.288C128.066 165.58 126.671 166.575 125.077 167.271C125.176 167.37 125.077 167.37 124.977 167.37ZM111.024 165.381C110.924 165.381 110.825 165.381 110.725 165.282C109.43 164.188 108.333 162.796 107.536 161.205C107.436 161.006 107.536 160.708 107.735 160.509C107.935 160.41 108.234 160.509 108.433 160.708C109.131 162.1 110.127 163.393 111.323 164.487C111.522 164.685 111.522 164.984 111.323 165.183C111.323 165.282 111.124 165.381 111.024 165.381ZM131.754 160.41C131.654 160.41 131.654 160.41 131.555 160.41C131.256 160.31 131.156 160.012 131.256 159.714C131.854 158.222 132.153 156.631 132.153 155.041C132.153 154.245 132.053 153.549 131.953 152.853C131.953 152.555 132.053 152.356 132.352 152.257C132.651 152.257 132.85 152.356 132.95 152.654C133.05 153.45 133.149 154.245 133.149 155.041C133.149 156.83 132.85 158.521 132.153 160.112C132.053 160.31 131.953 160.41 131.754 160.41ZM106.639 156.731C106.34 156.731 106.141 156.532 106.141 156.234C106.141 155.836 106.041 155.438 106.041 155.041C106.041 153.748 106.24 152.356 106.639 151.163C106.739 150.864 107.038 150.765 107.237 150.864C107.536 150.964 107.636 151.262 107.536 151.461C107.137 152.654 107.038 153.847 107.038 155.041C107.038 155.438 107.038 155.836 107.038 156.134C107.137 156.433 106.938 156.631 106.639 156.731ZM130.658 148.578C130.458 148.578 130.359 148.478 130.259 148.379C129.362 146.987 128.266 145.893 126.97 144.899C126.771 144.7 126.671 144.401 126.871 144.203C127.07 144.004 127.369 143.904 127.568 144.103C128.963 145.097 130.159 146.39 131.056 147.882C131.156 148.08 131.156 148.379 130.857 148.578C130.857 148.578 130.757 148.578 130.658 148.578ZM109.43 147.384C109.33 147.384 109.23 147.384 109.131 147.285C108.931 147.086 108.832 146.788 109.031 146.589C110.127 145.197 111.423 144.103 112.918 143.308C113.117 143.208 113.416 143.208 113.615 143.507C113.815 143.805 113.715 144.004 113.416 144.203C112.021 144.998 110.825 145.992 109.828 147.285C109.729 147.384 109.529 147.384 109.43 147.384ZM122.784 142.91H122.685C121.19 142.512 119.495 142.413 117.901 142.612C117.602 142.612 117.403 142.413 117.303 142.214C117.303 141.916 117.502 141.717 117.702 141.617C119.396 141.418 121.19 141.518 122.784 141.916C123.083 142.015 123.183 142.214 123.183 142.512C123.183 142.711 122.984 142.91 122.784 142.91Z" fill="#004486"/>
</svg>
