<svg width="650" height="175" viewBox="0 0 650 175" fill="none" xmlns="http://www.w3.org/2000/svg">
<path d="M628.728 159.422V155.422H618.248V154.422H628.728V153.122H618.248V152.122H628.728V146.321H618.248V145.321H628.728V144.321H618.248V143.321H628.728V137.321H617.25V136.321H629.227C632.521 136.321 634.717 135.821 634.717 129.821V119.321C634.717 119.221 634.817 119.021 634.817 118.921L636.214 117.521V96.0199L626.832 61.0189L593.195 62.9189V123.921H592.196V62.8189C589.901 61.9189 584.411 60.6188 577.723 61.0189C570.736 61.4189 556.164 62.4189 549.077 63.0189L542.988 106.12L541.99 106.02L548.178 62.5189L553.668 26.5178C553.668 26.4178 553.768 26.2178 553.868 26.1178L561.354 21.6177C562.452 20.9177 563.55 19.6176 563.45 18.1176C563.35 16.3175 561.554 14.5175 558.359 12.9174L558.759 12.0174C562.352 13.8175 564.248 15.8175 564.448 18.0176C564.548 20.4177 562.452 21.9177 561.853 22.4177L554.566 26.8178L552.77 38.5182H560.655V39.5182H552.67L549.276 62.0189C556.463 61.5189 570.736 60.4188 577.723 60.0188C584.81 59.6188 590.699 61.1189 592.895 62.0189L627.331 60.0188C627.531 60.0188 627.83 60.1188 627.83 60.4188L637.312 95.9199V118.021C637.312 118.121 637.213 118.321 637.213 118.421L635.815 119.821V130.121C635.815 136.721 633.12 137.521 629.826 137.621V155.122V159.422H628.728Z" fill="#004486"/>
<path d="M644.299 97.9199C640.906 97.9199 639.309 97.1199 638.81 95.0198C636.614 86.4196 632.122 69.4191 631.324 67.019C631.024 66.119 631.324 65.519 631.623 65.219C632.821 63.9189 636.314 64.7189 636.913 64.919C637.213 65.019 637.313 65.219 637.313 65.519C637.313 65.819 637.013 65.919 636.714 65.919C635.017 65.519 632.921 65.319 632.322 65.919C632.222 66.019 632.122 66.219 632.322 66.719C633.12 69.1191 637.612 85.9196 639.808 94.7198C640.107 95.7198 640.606 96.8199 644.299 96.8199C644.599 96.8199 644.799 97.0199 644.799 97.3199C644.799 97.6199 644.599 97.9199 644.299 97.9199Z" fill="#004486"/>
<path d="M593.694 174.922C582.614 174.922 573.631 165.922 573.631 154.922C573.631 143.921 582.614 134.921 593.694 134.921C604.773 134.921 613.756 143.921 613.756 154.922C613.756 165.922 604.673 174.922 593.694 174.922ZM593.694 136.921C583.712 136.921 575.627 145.021 575.627 154.922C575.627 164.822 583.712 172.922 593.694 172.922C603.675 172.922 611.76 164.822 611.76 154.922C611.76 145.021 603.575 136.921 593.694 136.921Z" fill="#004486"/>
<path d="M593.693 165.922C587.605 165.922 582.714 161.022 582.714 154.922C582.714 148.821 587.605 143.921 593.693 143.921C599.782 143.921 604.673 148.821 604.673 154.922C604.673 161.022 599.782 165.922 593.693 165.922ZM593.693 144.921C588.204 144.921 583.712 149.421 583.712 154.922C583.712 160.422 588.204 164.922 593.693 164.922C599.183 164.922 603.675 160.422 603.675 154.922C603.675 149.421 599.183 144.921 593.693 144.921Z" fill="#004486"/>
<path d="M594.692 149.921C595.243 149.921 595.69 149.474 595.69 148.921C595.69 148.369 595.243 147.921 594.692 147.921C594.14 147.921 593.693 148.369 593.693 148.921C593.693 149.474 594.14 149.921 594.692 149.921Z" fill="#004486"/>
<path d="M600.68 156.422C601.232 156.422 601.679 155.974 601.679 155.422C601.679 154.869 601.232 154.421 600.68 154.421C600.129 154.421 599.682 154.869 599.682 155.422C599.682 155.974 600.129 156.422 600.68 156.422Z" fill="#004486"/>
<path d="M594.692 162.922C595.243 162.922 595.69 162.474 595.69 161.922C595.69 161.369 595.243 160.922 594.692 160.922C594.14 160.922 593.693 161.369 593.693 161.922C593.693 162.474 594.14 162.922 594.692 162.922Z" fill="#004486"/>
<path d="M587.705 156.422C588.256 156.422 588.703 155.974 588.703 155.422C588.703 154.869 588.256 154.421 587.705 154.421C587.153 154.421 586.706 154.869 586.706 155.422C586.706 155.974 587.153 156.422 587.705 156.422Z" fill="#004486"/>
<path d="M598.784 161.022C599.335 161.022 599.782 160.574 599.782 160.022C599.782 159.469 599.335 159.022 598.784 159.022C598.233 159.022 597.786 159.469 597.786 160.022C597.786 160.574 598.233 161.022 598.784 161.022Z" fill="#004486"/>
<path d="M589.601 151.821C590.153 151.821 590.6 151.374 590.6 150.821C590.6 150.269 590.153 149.821 589.601 149.821C589.05 149.821 588.603 150.269 588.603 150.821C588.603 151.374 589.05 151.821 589.601 151.821Z" fill="#004486"/>
<path d="M589.601 161.022C590.153 161.022 590.6 160.574 590.6 160.022C590.6 159.469 590.153 159.022 589.601 159.022C589.05 159.022 588.603 159.469 588.603 160.022C588.603 160.574 589.05 161.022 589.601 161.022Z" fill="#004486"/>
<path d="M598.784 151.821C599.335 151.821 599.782 151.374 599.782 150.821C599.782 150.269 599.335 149.821 598.784 149.821C598.233 149.821 597.786 150.269 597.786 150.821C597.786 151.374 598.233 151.821 598.784 151.821Z" fill="#004486"/>
<path d="M446.468 174.922C435.389 174.922 426.406 165.922 426.406 154.922C426.406 143.921 435.389 134.921 446.468 134.921C457.547 134.921 466.531 143.921 466.531 154.922C466.531 165.922 457.547 174.922 446.468 174.922ZM446.468 136.921C436.487 136.921 428.402 145.021 428.402 154.922C428.402 164.822 436.487 172.922 446.468 172.922C456.45 172.922 464.534 164.822 464.534 154.922C464.534 145.021 456.45 136.921 446.468 136.921Z" fill="#004486"/>
<path d="M446.468 165.922C440.379 165.922 435.488 161.022 435.488 154.922C435.488 148.821 440.379 143.921 446.468 143.921C452.556 143.921 457.447 148.821 457.447 154.922C457.447 161.022 452.556 165.922 446.468 165.922ZM446.468 144.921C440.978 144.921 436.486 149.421 436.486 154.922C436.486 160.422 440.978 164.922 446.468 164.922C451.958 164.922 456.449 160.422 456.449 154.922C456.449 149.421 452.057 144.921 446.468 144.921Z" fill="#004486"/>
<path d="M447.466 149.921C448.017 149.921 448.464 149.474 448.464 148.921C448.464 148.369 448.017 147.921 447.466 147.921C446.915 147.921 446.468 148.369 446.468 148.921C446.468 149.474 446.915 149.921 447.466 149.921Z" fill="#004486"/>
<path d="M453.555 156.422C454.106 156.422 454.553 155.974 454.553 155.422C454.553 154.869 454.106 154.421 453.555 154.421C453.003 154.421 452.557 154.869 452.557 155.422C452.557 155.974 453.003 156.422 453.555 156.422Z" fill="#004486"/>
<path d="M447.466 162.922C448.017 162.922 448.464 162.474 448.464 161.922C448.464 161.369 448.017 160.922 447.466 160.922C446.915 160.922 446.468 161.369 446.468 161.922C446.468 162.474 446.915 162.922 447.466 162.922Z" fill="#004486"/>
<path d="M440.479 156.422C441.03 156.422 441.477 155.974 441.477 155.422C441.477 154.869 441.03 154.421 440.479 154.421C439.928 154.421 439.481 154.869 439.481 155.422C439.481 155.974 439.928 156.422 440.479 156.422Z" fill="#004486"/>
<path d="M451.658 161.022C452.21 161.022 452.656 160.574 452.656 160.022C452.656 159.469 452.21 159.022 451.658 159.022C451.107 159.022 450.66 159.469 450.66 160.022C450.66 160.574 451.107 161.022 451.658 161.022Z" fill="#004486"/>
<path d="M442.376 151.821C442.927 151.821 443.374 151.374 443.374 150.821C443.374 150.269 442.927 149.821 442.376 149.821C441.825 149.821 441.378 150.269 441.378 150.821C441.378 151.374 441.825 151.821 442.376 151.821Z" fill="#004486"/>
<path d="M442.376 161.022C442.927 161.022 443.374 160.574 443.374 160.022C443.374 159.469 442.927 159.022 442.376 159.022C441.825 159.022 441.378 159.469 441.378 160.022C441.378 160.574 441.825 161.022 442.376 161.022Z" fill="#004486"/>
<path d="M451.658 151.821C452.21 151.821 452.656 151.374 452.656 150.821C452.656 150.269 452.21 149.821 451.658 149.821C451.107 149.821 450.66 150.269 450.66 150.821C450.66 151.374 451.107 151.821 451.658 151.821Z" fill="#004486"/>
<path d="M210.707 174.922C199.628 174.922 190.645 165.922 190.645 154.922C190.645 143.921 199.628 134.921 210.707 134.921C221.787 134.921 230.77 143.921 230.77 154.922C230.77 165.922 221.787 174.922 210.707 174.922ZM210.707 136.921C200.726 136.921 192.641 145.021 192.641 154.922C192.641 164.822 200.726 172.922 210.707 172.922C220.689 172.922 228.774 164.822 228.774 154.922C228.774 145.021 220.689 136.921 210.707 136.921Z" fill="#004486"/>
<path d="M210.707 165.922C204.619 165.922 199.728 161.022 199.728 154.922C199.728 148.821 204.619 143.921 210.707 143.921C216.796 143.921 221.687 148.821 221.687 154.922C221.687 161.022 216.796 165.922 210.707 165.922ZM210.707 144.921C205.218 144.921 200.726 149.421 200.726 154.922C200.726 160.422 205.218 164.922 210.707 164.922C216.197 164.922 220.689 160.422 220.689 154.922C220.689 149.421 216.297 144.921 210.707 144.921Z" fill="#004486"/>
<path d="M211.706 149.921C212.257 149.921 212.704 149.474 212.704 148.921C212.704 148.369 212.257 147.921 211.706 147.921C211.154 147.921 210.707 148.369 210.707 148.921C210.707 149.474 211.154 149.921 211.706 149.921Z" fill="#004486"/>
<path d="M217.794 156.422C218.346 156.422 218.792 155.974 218.792 155.422C218.792 154.869 218.346 154.421 217.794 154.421C217.243 154.421 216.796 154.869 216.796 155.422C216.796 155.974 217.243 156.422 217.794 156.422Z" fill="#004486"/>
<path d="M211.706 162.922C212.257 162.922 212.704 162.474 212.704 161.922C212.704 161.369 212.257 160.922 211.706 160.922C211.154 160.922 210.707 161.369 210.707 161.922C210.707 162.474 211.154 162.922 211.706 162.922Z" fill="#004486"/>
<path d="M204.719 156.422C205.27 156.422 205.717 155.974 205.717 155.422C205.717 154.869 205.27 154.421 204.719 154.421C204.167 154.421 203.72 154.869 203.72 155.422C203.72 155.974 204.167 156.422 204.719 156.422Z" fill="#004486"/>
<path d="M215.798 161.022C216.349 161.022 216.796 160.574 216.796 160.022C216.796 159.469 216.349 159.022 215.798 159.022C215.247 159.022 214.8 159.469 214.8 160.022C214.8 160.574 215.247 161.022 215.798 161.022Z" fill="#004486"/>
<path d="M206.615 151.821C207.166 151.821 207.613 151.374 207.613 150.821C207.613 150.269 207.166 149.821 206.615 149.821C206.064 149.821 205.617 150.269 205.617 150.821C205.617 151.374 206.064 151.821 206.615 151.821Z" fill="#004486"/>
<path d="M206.615 161.022C207.166 161.022 207.613 160.574 207.613 160.022C207.613 159.469 207.166 159.022 206.615 159.022C206.064 159.022 205.617 159.469 205.617 160.022C205.617 160.574 206.064 161.022 206.615 161.022Z" fill="#004486"/>
<path d="M215.798 151.821C216.349 151.821 216.796 151.374 216.796 150.821C216.796 150.269 216.349 149.821 215.798 149.821C215.247 149.821 214.8 150.269 214.8 150.821C214.8 151.374 215.247 151.821 215.798 151.821Z" fill="#004486"/>
<path d="M153.713 174.922C142.634 174.922 133.651 165.922 133.651 154.922C133.651 143.921 142.634 134.921 153.713 134.921C164.793 134.921 173.776 143.921 173.776 154.922C173.776 165.922 164.693 174.922 153.713 174.922ZM153.713 136.921C143.732 136.921 135.647 145.021 135.647 154.922C135.647 164.822 143.732 172.922 153.713 172.922C163.695 172.922 171.78 164.822 171.78 154.922C171.78 145.021 163.595 136.921 153.713 136.921Z" fill="#004486"/>
<path d="M153.714 165.922C147.625 165.922 142.734 161.022 142.734 154.922C142.734 148.821 147.625 143.921 153.714 143.921C159.802 143.921 164.693 148.821 164.693 154.922C164.693 161.022 159.702 165.922 153.714 165.922ZM153.714 144.921C148.224 144.921 143.732 149.421 143.732 154.922C143.732 160.422 148.224 164.922 153.714 164.922C159.203 164.922 163.695 160.422 163.695 154.922C163.695 149.421 159.203 144.921 153.714 144.921Z" fill="#004486"/>
<path d="M154.712 149.921C155.263 149.921 155.71 149.474 155.71 148.921C155.71 148.369 155.263 147.921 154.712 147.921C154.16 147.921 153.714 148.369 153.714 148.921C153.714 149.474 154.16 149.921 154.712 149.921Z" fill="#004486"/>
<path d="M160.701 156.422C161.252 156.422 161.699 155.974 161.699 155.422C161.699 154.869 161.252 154.421 160.701 154.421C160.149 154.421 159.702 154.869 159.702 155.422C159.702 155.974 160.149 156.422 160.701 156.422Z" fill="#004486"/>
<path d="M154.712 162.922C155.263 162.922 155.71 162.474 155.71 161.922C155.71 161.369 155.263 160.922 154.712 160.922C154.16 160.922 153.714 161.369 153.714 161.922C153.714 162.474 154.16 162.922 154.712 162.922Z" fill="#004486"/>
<path d="M147.625 156.422C148.176 156.422 148.623 155.974 148.623 155.422C148.623 154.869 148.176 154.421 147.625 154.421C147.074 154.421 146.627 154.869 146.627 155.422C146.627 155.974 147.074 156.422 147.625 156.422Z" fill="#004486"/>
<path d="M158.804 161.022C159.355 161.022 159.802 160.574 159.802 160.022C159.802 159.469 159.355 159.022 158.804 159.022C158.253 159.022 157.806 159.469 157.806 160.022C157.806 160.574 158.253 161.022 158.804 161.022Z" fill="#004486"/>
<path d="M149.621 151.821C150.172 151.821 150.619 151.374 150.619 150.821C150.619 150.269 150.172 149.821 149.621 149.821C149.07 149.821 148.623 150.269 148.623 150.821C148.623 151.374 149.07 151.821 149.621 151.821Z" fill="#004486"/>
<path d="M149.621 161.022C150.172 161.022 150.619 160.574 150.619 160.022C150.619 159.469 150.172 159.022 149.621 159.022C149.07 159.022 148.623 159.469 148.623 160.022C148.623 160.574 149.07 161.022 149.621 161.022Z" fill="#004486"/>
<path d="M158.804 151.821C159.355 151.821 159.802 151.374 159.802 150.821C159.802 150.269 159.355 149.821 158.804 149.821C158.253 149.821 157.806 150.269 157.806 150.821C157.806 151.374 158.253 151.821 158.804 151.821Z" fill="#004486"/>
<path d="M96.6201 174.922C85.5408 174.922 76.5575 165.922 76.5575 154.922C76.5575 143.921 85.5408 134.921 96.6201 134.921C107.699 134.921 116.683 143.921 116.683 154.922C116.683 165.922 107.699 174.922 96.6201 174.922ZM96.6201 136.921C86.6387 136.921 78.5538 145.021 78.5538 154.922C78.5538 164.822 86.6387 172.922 96.6201 172.922C106.602 172.922 114.686 164.822 114.686 154.922C114.686 145.021 106.502 136.921 96.6201 136.921Z" fill="#004486"/>
<path d="M96.6197 165.922C90.5311 165.922 85.6402 161.022 85.6402 154.922C85.6402 148.821 90.5311 143.921 96.6197 143.921C102.708 143.921 107.599 148.821 107.599 154.922C107.599 161.022 102.708 165.922 96.6197 165.922ZM96.6197 144.921C91.13 144.921 86.6383 149.421 86.6383 154.922C86.6383 160.422 91.13 164.922 96.6197 164.922C102.11 164.922 106.601 160.422 106.601 154.922C106.601 149.421 102.11 144.921 96.6197 144.921Z" fill="#004486"/>
<path d="M97.6179 149.921C98.1691 149.921 98.616 149.474 98.616 148.921C98.616 148.369 98.1691 147.921 97.6179 147.921C97.0666 147.921 96.6197 148.369 96.6197 148.921C96.6197 149.474 97.0666 149.921 97.6179 149.921Z" fill="#004486"/>
<path d="M103.607 156.422C104.158 156.422 104.605 155.974 104.605 155.422C104.605 154.869 104.158 154.421 103.607 154.421C103.055 154.421 102.609 154.869 102.609 155.422C102.609 155.974 103.055 156.422 103.607 156.422Z" fill="#004486"/>
<path d="M97.6179 162.922C98.1691 162.922 98.616 162.474 98.616 161.922C98.616 161.369 98.1691 160.922 97.6179 160.922C97.0666 160.922 96.6197 161.369 96.6197 161.922C96.6197 162.474 97.0666 162.922 97.6179 162.922Z" fill="#004486"/>
<path d="M90.6309 156.422C91.1822 156.422 91.629 155.974 91.629 155.422C91.629 154.869 91.1822 154.421 90.6309 154.421C90.0796 154.421 89.6328 154.869 89.6328 155.422C89.6328 155.974 90.0796 156.422 90.6309 156.422Z" fill="#004486"/>
<path d="M101.71 161.022C102.262 161.022 102.708 160.574 102.708 160.022C102.708 159.469 102.262 159.022 101.71 159.022C101.159 159.022 100.712 159.469 100.712 160.022C100.712 160.574 101.159 161.022 101.71 161.022Z" fill="#004486"/>
<path d="M92.5278 151.821C93.079 151.821 93.5259 151.374 93.5259 150.821C93.5259 150.269 93.079 149.821 92.5278 149.821C91.9765 149.821 91.5296 150.269 91.5296 150.821C91.5296 151.374 91.9765 151.821 92.5278 151.821Z" fill="#004486"/>
<path d="M92.5278 161.022C93.079 161.022 93.5259 160.574 93.5259 160.022C93.5259 159.469 93.079 159.022 92.5278 159.022C91.9765 159.022 91.5296 159.469 91.5296 160.022C91.5296 160.574 91.9765 161.022 92.5278 161.022Z" fill="#004486"/>
<path d="M101.71 151.821C102.262 151.821 102.708 151.374 102.708 150.821C102.708 150.269 102.262 149.821 101.71 149.821C101.159 149.821 100.712 150.269 100.712 150.821C100.712 151.374 101.159 151.821 101.71 151.821Z" fill="#004486"/>
<path d="M570.138 160.922H567.143C566.844 160.922 566.644 160.822 566.444 160.622C566.245 160.422 566.145 160.122 566.145 159.922C566.145 159.522 566.145 159.022 566.245 158.522C566.444 152.721 566.844 143.221 573.531 132.121L538.397 122.921C537.898 122.821 537.598 122.221 537.698 121.721L540.992 106.22L532.009 104.42C531.509 104.32 531.11 103.82 531.21 103.22C531.909 99.4199 533.306 88.6196 533.705 74.9192C534.105 61.0188 540.792 26.5178 544.286 10.2173C544.385 9.7173 544.885 9.31728 545.483 9.41729C549.276 10.1173 560.755 11.8174 576.925 13.4174C593.294 15.0175 607.568 21.7176 612.858 25.0177C614.455 25.7178 617.948 27.2178 620.244 27.9178C623.438 28.9179 628.828 36.5181 629.726 37.7181C631.124 39.1182 633.619 41.3182 634.917 42.0182C637.013 43.0183 642.103 52.5186 643.8 55.7186L647.094 58.1187L647.194 58.2187C647.693 58.7187 650.188 61.3188 649.989 63.5189C649.889 64.2189 649.589 64.8189 649.09 65.2189C646.894 66.819 643.102 63.7189 641.405 62.2188L638.111 64.8189L646.495 97.7199C646.495 97.8199 646.495 97.9199 646.495 97.9199V117.92C646.495 118.02 646.495 118.12 646.495 118.12L645.497 122.021V127.421C645.497 127.721 645.397 128.021 645.098 128.221L642.602 130.321C643.7 134.021 645.497 142.021 645.497 150.021C645.497 155.322 643.8 157.922 642.403 159.122C641.105 160.222 639.408 160.722 637.911 160.522H618.946H615.453C614.954 160.522 614.455 160.122 614.455 159.622L613.457 146.221C612.159 141.721 604.973 132.521 590.899 132.521C577.025 132.521 572.034 150.521 571.335 160.122C571.136 160.522 570.637 160.922 570.138 160.922ZM568.241 158.922H569.239C570.237 148.521 575.727 130.421 590.699 130.421C605.472 130.421 613.557 139.721 615.154 145.621C615.154 145.721 615.154 145.721 615.154 145.821L616.052 158.422H617.549C617.349 154.522 617.05 147.821 617.05 144.921C617.05 140.621 614.155 129.221 609.664 127.321C603.974 124.921 589.601 124.521 581.017 124.921C579.021 127.221 577.324 129.621 575.727 132.021C568.64 143.221 568.241 152.822 568.041 158.622C568.241 158.722 568.241 158.822 568.241 158.922ZM619.645 158.422H637.712C637.811 158.422 637.811 158.422 637.911 158.422C638.31 158.522 639.608 158.622 640.806 157.522C641.904 156.622 643.201 154.522 643.201 149.921C643.201 141.721 641.305 133.421 640.207 130.221C640.107 129.821 640.207 129.421 640.506 129.121L643.102 126.921V121.921C643.102 121.821 643.102 121.721 643.102 121.721L644.1 117.82V98.0199L635.615 64.6189C635.516 64.2189 635.615 63.8189 636.015 63.6189L640.506 60.1188C640.906 59.8188 641.505 59.8188 641.804 60.2188C644.299 62.7188 646.894 64.1189 647.493 63.6189C647.593 63.5189 647.593 63.5189 647.593 63.3189C647.693 62.5188 646.495 60.8188 645.397 59.7188L642.004 57.2187C641.904 57.1187 641.804 57.0187 641.704 56.8187C638.211 50.1185 634.617 44.3183 633.619 43.7183C631.523 42.6183 628.03 39.2182 627.83 39.0182L627.73 38.9182C624.935 34.918 620.943 30.4179 619.246 29.8179C616.85 29.0179 613.257 27.5178 611.66 26.8178C611.66 26.8178 611.56 26.8178 611.56 26.7178C606.47 23.5177 592.496 16.9175 576.426 15.3175C561.354 13.8174 550.374 12.2174 545.783 11.5173C542.289 28.1178 535.901 61.4188 535.502 74.9192C535.103 87.8196 533.905 98.1199 533.106 102.62L542.19 104.42C542.489 104.52 542.689 104.62 542.788 104.82C542.888 105.02 542.988 105.32 542.888 105.62L539.594 121.221L574.43 130.321C576.026 127.921 577.723 125.621 579.72 123.321C579.919 123.121 580.119 123.021 580.418 123.021C589.102 122.621 604.274 123.021 610.363 125.621C616.351 128.121 618.946 141.221 618.946 145.021C619.246 147.821 619.446 154.522 619.645 158.422Z" fill="#004486"/>
<path d="M644.698 122.421L566.544 110.42C566.245 110.42 566.045 110.12 566.145 109.82C566.145 109.52 566.444 109.32 566.744 109.42L644.798 121.421C645.098 121.421 645.297 121.721 645.197 122.021C645.197 122.221 644.998 122.421 644.698 122.421Z" fill="#004486"/>
<path d="M623.838 95.9198C623.538 95.9198 623.139 95.9198 622.939 95.9198H622.34C615.553 95.9198 603.376 93.0197 598.485 91.4196C594.093 89.9196 594.093 83.9194 594.093 76.2192C594.093 75.4192 594.093 74.7192 594.093 73.9191C594.093 66.8189 596.888 64.9189 598.585 64.9189C603.376 64.6189 613.657 63.9188 617.649 63.9188C621.941 63.9188 624.337 65.0189 625.135 67.2189C625.534 68.419 627.63 73.6191 627.63 73.7191C627.83 74.3191 632.422 88.8196 630.625 93.6197C629.926 95.7198 626.333 95.9198 623.838 95.9198ZM617.749 64.9189C613.756 64.9189 603.575 65.6189 598.784 65.9189C597.786 65.9189 595.291 67.3189 595.291 73.9191C595.291 74.7192 595.291 75.5192 595.291 76.2192C595.291 83.4194 595.191 89.2196 598.984 90.4196C603.775 92.0197 615.753 94.9197 622.44 94.9197H623.039C624.936 94.9197 629.228 95.0197 629.826 93.2197C631.523 88.7196 626.832 74.2191 626.832 74.0191C626.732 73.8191 624.736 68.719 624.337 67.5189C624.037 66.9189 623.339 64.9189 617.749 64.9189Z" fill="#004486"/>
<path d="M556.663 127.021L555.665 126.921L556.663 113.42L561.154 96.9199C562.751 74.8192 565.147 41.2182 565.147 39.0182C565.147 35.8181 579.321 34.718 583.613 34.518L617.35 33.518L614.255 27.7178L615.154 27.2178L618.647 33.718C618.747 33.918 618.747 34.018 618.647 34.218C618.547 34.418 618.448 34.418 618.248 34.518L583.712 35.5181C574.23 36.0181 566.145 37.6181 566.145 39.0182C566.145 41.5182 563.35 80.8194 562.153 96.5198H592.696V97.5199H562.053L557.661 113.62L556.663 127.021Z" fill="#004486"/>
<path d="M631.523 102.92C631.224 102.92 630.924 102.92 630.625 102.82C628.728 102.52 625.734 101.52 625.334 100.22C625.235 99.82 625.334 99.42 625.634 99.12C627.331 97.5199 628.429 97.5199 631.523 97.5199C632.621 97.5199 633.22 98.0199 633.419 98.42C634.318 99.72 633.619 101.82 633.419 102.22C633.419 102.22 633.419 102.32 633.32 102.32C633.02 102.72 632.421 102.92 631.523 102.92ZM631.423 98.42C628.429 98.42 627.63 98.42 626.233 99.82C626.133 99.92 626.133 99.92 626.233 99.92C626.432 100.52 628.628 101.62 630.724 101.82C631.822 102.02 632.321 101.82 632.521 101.62C632.821 100.72 633.02 99.42 632.621 98.82C632.321 98.62 631.922 98.42 631.423 98.42Z" fill="#004486"/>
<path d="M616.751 126.921C616.551 126.921 616.352 126.821 616.252 126.521C615.254 122.721 607.867 121.121 603.176 120.921C587.705 119.72 564.249 117.92 563.151 117.92C562.851 117.92 562.652 117.72 562.652 117.42C562.652 117.12 562.851 116.92 563.151 116.92C564.348 116.92 589.901 118.92 603.276 119.92C603.775 119.92 615.653 120.521 617.25 126.321C617.35 126.621 617.15 126.821 616.851 126.921C616.751 126.921 616.751 126.921 616.751 126.921Z" fill="#004486"/>
<path d="M644.199 147.421H636.214C635.915 147.421 635.715 147.221 635.715 146.921V139.921C635.715 139.621 635.915 139.421 636.214 139.421H643.7V140.421H636.713V146.421H644.199V147.421Z" fill="#004486"/>
<path d="M636.314 64.7189L630.326 55.7186C630.226 55.5186 630.226 55.2186 630.425 55.0186C632.621 53.3186 637.013 49.5185 637.812 47.7184L638.71 48.1184C637.812 50.3185 633.22 54.1186 631.424 55.5186L637.213 64.1189L636.314 64.7189Z" fill="#004486"/>
<path d="M642.818 56.6725L640.292 61.2154L641.164 61.702L643.69 57.1591L642.818 56.6725Z" fill="#004486"/>
<path d="M553.569 31.9179L544.585 29.9178C544.286 29.8178 544.186 29.6178 544.186 29.3178L544.685 25.8177C544.685 25.7177 544.785 25.5177 544.885 25.5177C544.985 25.4177 545.084 25.4177 545.284 25.4177L553.768 26.9178L553.569 27.9178L545.583 26.5177L545.184 29.0178L553.768 30.9179L553.569 31.9179Z" fill="#004486"/>
<path d="M551.472 42.9182L543.487 40.9182C543.288 40.8182 543.088 40.6182 543.088 40.3181L543.587 36.818C543.587 36.718 543.687 36.518 543.787 36.518C543.887 36.418 543.986 36.418 544.186 36.418L552.67 37.9181L552.471 38.9181L544.485 37.5181L544.086 40.0181L551.672 41.9182L551.472 42.9182Z" fill="#004486"/>
<path d="M549.476 54.9186L541.491 52.9185C541.291 52.8185 541.092 52.6185 541.092 52.3185L541.591 48.8184C541.591 48.7184 541.691 48.5184 541.79 48.5184C541.89 48.4184 541.99 48.4184 542.19 48.4184L550.674 49.9184L550.474 50.9185L542.489 49.5184L542.09 52.0185L549.676 53.9185L549.476 54.9186Z" fill="#004486"/>
<path d="M546.482 75.9192L538.497 73.9191C538.297 73.8191 538.097 73.6191 538.097 73.3191L538.596 69.819C538.596 69.719 538.696 69.519 538.796 69.519C538.896 69.419 538.996 69.419 539.195 69.419L547.68 70.919L547.48 71.9191L539.495 70.519L539.095 73.0191L546.681 74.9192L546.482 75.9192Z" fill="#004486"/>
<path d="M558.659 162.922H487.591C484.797 162.922 482.601 160.722 482.601 157.922V139.921C482.601 137.121 484.797 134.921 487.591 134.921H558.659C561.454 134.921 563.65 137.121 563.65 139.921V157.922C563.65 160.722 561.354 162.922 558.659 162.922ZM487.491 136.921C485.795 136.921 484.497 138.221 484.497 139.921V157.922C484.497 159.622 485.795 160.922 487.491 160.922H558.559C560.256 160.922 561.553 159.622 561.553 157.922V139.921C561.553 138.221 560.256 136.921 558.559 136.921H487.491Z" fill="#004486"/>
<path d="M544.585 135.921H543.587V162.422H544.585V135.921Z" fill="#004486"/>
<path d="M567.143 154.922H562.153V156.922H567.143V154.922Z" fill="#004486"/>
<path d="M483.499 154.922H473.018V156.922H483.499V154.922Z" fill="#004486"/>
<path d="M541.591 126.921H528.615V124.921H540.892L541.691 122.621L543.587 123.221L542.589 126.221C542.389 126.621 542.09 126.921 541.591 126.921Z" fill="#004486"/>
<path d="M184.656 154.922H179.166V156.922H184.656V154.922Z" fill="#004486"/>
<path d="M127.662 154.922H122.172V156.922H127.662V154.922Z" fill="#004486"/>
<path d="M9.0934 137.418L8.91893 139.41L71.4634 144.908L71.6378 142.915L9.0934 137.418Z" fill="#004486"/>
<path d="M528.016 126.921H2.99442C2.39554 126.921 1.99628 126.521 1.99628 125.921V115.02C1.99628 114.42 2.39554 114.02 2.99442 114.02H518.534V1.91702C518.534 1.317 518.933 0.916992 519.532 0.916992H528.016C528.615 0.916992 529.014 1.317 529.014 1.91702V125.921C529.014 126.521 528.615 126.921 528.016 126.921ZM3.99256 124.921H527.018V2.91705H520.53V114.02C520.53 115.12 519.632 116.02 518.534 116.02H3.99256V124.921Z" fill="#004486"/>
<path d="M523.524 120.921H7.48605C7.18661 120.921 6.98698 120.721 6.98698 120.42C6.98698 120.12 7.18661 119.92 7.48605 119.92H523.025V8.91723C523.025 8.61722 523.225 8.41721 523.524 8.41721C523.824 8.41721 524.023 8.61722 524.023 8.91723V120.42C524.023 120.721 523.824 120.921 523.524 120.921Z" fill="#004486"/>
<path d="M574.629 152.921H571.635V154.922H574.629V152.921Z" fill="#004486"/>
<path d="M615.652 152.921H612.658V154.922H615.652V152.921Z" fill="#004486"/>
<path d="M558.559 145.421H545.583V146.421H558.559V145.421Z" fill="#004486"/>
<path d="M555.665 139.421H552.67V140.421H555.665V139.421Z" fill="#004486"/>
<path d="M537.598 139.421H534.604V140.421H537.598V139.421Z" fill="#004486"/>
<path d="M490.586 139.421H487.591V140.421H490.586V139.421Z" fill="#004486"/>
<path d="M558.559 153.421H545.583V154.421H558.559V153.421Z" fill="#004486"/>
<path d="M528.116 135.921H527.118V162.422H528.116V135.921Z" fill="#004486"/>
<path d="M513.044 135.921H512.046V162.422H513.044V135.921Z" fill="#004486"/>
<path d="M497.074 135.921H496.076V162.422H497.074V135.921Z" fill="#004486"/>
<path d="M236.26 160.422H232.766C232.467 160.422 232.167 160.322 232.068 160.122C231.868 159.922 231.768 159.622 231.868 159.322C232.467 153.822 231.569 145.521 226.778 140.221C223.384 136.421 218.593 134.521 212.404 134.521H209.011C202.822 134.521 198.031 136.421 194.637 140.221C189.846 145.621 188.848 153.922 189.547 159.322C189.547 159.622 189.447 159.922 189.347 160.122C189.148 160.322 188.848 160.422 188.649 160.422H185.155C184.656 160.422 184.257 160.122 184.157 159.722C182.66 153.922 183.458 145.021 188.549 138.421C193.04 132.621 200.227 129.521 209.21 129.521H213.602C222.086 129.721 228.874 132.821 233.166 138.421C238.256 145.021 239.055 153.922 237.557 159.722C237.158 160.122 236.759 160.422 236.26 160.422ZM233.864 158.422H235.461C236.559 153.022 235.761 145.421 231.269 139.521C227.077 134.121 220.689 131.421 212.205 131.421H208.811C200.327 131.421 193.939 134.121 189.747 139.521C185.255 145.321 184.357 153.022 185.554 158.422H187.151C186.652 152.322 187.95 144.321 192.841 138.821C196.634 134.521 201.924 132.421 208.711 132.421H212.604C219.092 132.521 224.282 134.721 227.975 138.821C233.066 144.421 234.363 152.422 233.864 158.422Z" fill="#004486"/>
<path d="M179.166 160.422H175.673C175.373 160.422 175.074 160.322 174.974 160.122C174.774 159.922 174.675 159.622 174.774 159.322C175.373 153.822 174.475 145.521 169.684 140.221C166.29 136.421 161.499 134.521 155.311 134.521H151.917C145.729 134.521 140.938 136.421 137.544 140.221C132.753 145.621 131.755 153.922 132.453 159.322C132.453 159.622 132.354 159.922 132.254 160.122C132.054 160.322 131.755 160.422 131.555 160.422H127.762C127.263 160.422 126.864 160.122 126.764 159.722C125.267 153.922 126.065 145.021 131.156 138.421C135.647 132.621 142.834 129.521 151.817 129.521H156.209C164.693 129.721 171.481 132.821 175.773 138.421C180.863 145.021 181.662 153.922 180.164 159.722C180.065 160.122 179.665 160.422 179.166 160.422ZM176.771 158.422H178.368C179.466 153.022 178.667 145.421 174.176 139.521C169.983 134.121 163.595 131.421 155.111 131.421H151.717C143.233 131.421 136.845 134.121 132.653 139.521C128.161 145.321 127.263 153.022 128.461 158.422H130.058C129.559 152.322 130.856 144.321 135.747 138.821C139.54 134.521 144.83 132.421 151.618 132.421H155.51C161.998 132.521 167.189 134.721 170.882 138.821C175.972 144.421 177.27 152.422 176.771 158.422Z" fill="#004486"/>
<path d="M472.02 160.422H468.527C468.227 160.422 467.928 160.322 467.828 160.122C467.629 159.922 467.529 159.622 467.628 159.322C468.227 153.921 466.73 146.121 462.039 140.721C458.346 136.521 453.155 134.421 446.568 134.421C426.904 134.421 422.413 153.721 421.514 159.622C421.415 160.122 421.015 160.422 420.516 160.422H416.025C415.725 160.422 415.426 160.322 415.226 160.022C415.027 159.822 414.927 159.522 415.027 159.222C416.823 151.121 421.514 129.421 446.568 129.421C458.446 129.421 464.934 134.621 468.327 139.021C473.518 145.721 474.416 154.221 473.018 159.622C472.919 160.122 472.519 160.422 472.02 160.422ZM469.625 158.422H471.222C472.22 153.621 471.222 146.121 466.73 140.221C463.636 136.221 457.547 131.421 446.568 131.421C426.405 131.421 420.217 145.621 417.322 158.422H419.718C420.816 152.521 425.906 132.421 446.568 132.421C453.655 132.421 459.344 134.821 463.536 139.421C468.227 144.821 470.024 152.721 469.625 158.422Z" fill="#004486"/>
<path d="M122.172 160.422H118.679C118.379 160.422 118.08 160.322 117.98 160.122C117.78 159.922 117.681 159.622 117.78 159.322C118.379 153.822 117.481 145.521 112.69 140.221C109.296 136.421 104.505 134.521 98.3166 134.521H94.923C88.7345 134.521 83.9434 136.421 80.5497 140.221C75.7587 145.621 74.7605 153.922 75.4592 159.322C75.4592 159.622 75.3594 159.922 75.2596 160.122C75.06 160.322 74.7605 160.422 74.5609 160.422H71.0674C70.5683 160.422 70.1691 160.122 70.0693 159.722C68.5721 153.922 69.3706 145.021 74.4611 138.421C78.9527 132.621 86.1393 129.521 95.1226 129.521H99.5144C107.999 129.721 114.786 132.821 119.078 138.421C124.168 145.021 124.967 153.922 123.47 159.722C122.971 160.122 122.571 160.422 122.172 160.422ZM119.777 158.422H121.374C122.472 153.022 121.673 145.421 117.181 139.521C112.989 134.121 106.601 131.421 98.117 131.421H94.7233C86.2392 131.421 79.8511 134.121 75.6589 139.521C71.1672 145.321 70.2689 153.022 71.4667 158.422H73.0637C72.5646 152.322 73.8622 144.321 78.7531 138.821C82.546 134.521 87.8362 132.421 94.6235 132.421H98.5163C105.004 132.521 110.195 134.721 113.888 138.821C118.878 144.421 120.176 152.422 119.777 158.422Z" fill="#004486"/>
<path d="M416.823 154.221L411.333 149.721C411.134 149.521 411.034 149.321 410.934 149.021L408.239 126.021L410.235 125.821L412.93 148.421L418.121 152.621L416.823 154.221Z" fill="#004486"/>
<path d="M375.5 158.922V131.921H396.062V137.421L385.582 141.421V158.922H375.5ZM383.386 156.922V140.021L393.866 136.021V133.921H377.297V156.922H383.386Z" fill="#004486"/>
<path d="M377.397 148.921H245.243V141.921H377.397V148.921ZM247.239 146.921H375.401V143.921H247.239V146.921Z" fill="#004486"/>
<path d="M336.373 153.921H295.349V146.921H336.373V153.921ZM296.348 152.921H335.375V147.921H296.348V152.921Z" fill="#004486"/>
<path d="M336.373 143.921H295.349V131.921H336.373V143.921ZM296.348 142.921H335.375V132.921H296.348V142.921Z" fill="#004486"/>
<path d="M267.302 143.921H261.313V131.921H267.302V143.921ZM263.309 141.921H265.305V133.921H263.309V141.921Z" fill="#004486"/>
<path d="M73.064 115.92H67.0752V60.9188H73.064V115.92ZM69.0715 113.92H71.0678V62.9188H69.0715V113.92Z" fill="#004486"/>
<path d="M483.599 115.92H477.61V60.9188H483.599V115.92ZM479.506 113.92H481.503V62.9188H479.506V113.92Z" fill="#004486"/>
<path d="M174.175 115.92H168.187V60.9188H174.175V115.92ZM170.183 113.92H172.179V62.9188H170.183V113.92Z" fill="#004486"/>
<path d="M224.282 115.92H218.293V60.9188H224.282V115.92ZM220.29 113.92H222.286V62.9188H220.29V113.92Z" fill="#004486"/>
<path d="M317.408 115.92H311.42V60.9188H317.408V115.92ZM313.316 113.92H315.312V62.9188H313.316V113.92Z" fill="#004486"/>
<path d="M64.0808 115.92H58.0919V69.919H64.0808V115.92ZM60.0882 113.92H62.0845V71.9191H60.0882V113.92Z" fill="#004486"/>
<path d="M367.415 115.92H361.427V60.9188H367.415V115.92ZM363.423 113.92H365.419V62.9188H363.423V113.92Z" fill="#004486"/>
<path d="M474.516 115.92H468.527V60.9188H474.516V115.92ZM470.523 113.92H472.519V62.9188H470.523V113.92Z" fill="#004486"/>
<path d="M267.302 153.921H261.313V146.921H267.302V153.921ZM263.309 151.921H265.305V148.921H263.309V151.921Z" fill="#004486"/>
<path d="M377.397 158.922H245.243V151.921H377.397V158.922ZM247.239 156.922H375.401V153.921H247.239V156.922Z" fill="#004486"/>
<path d="M360.927 143.921C360.528 143.921 360.129 143.621 360.029 143.221C359.829 142.721 360.129 142.121 360.628 141.921L376.099 136.421C376.598 136.221 377.197 136.521 377.397 137.021C377.596 137.521 377.297 138.121 376.798 138.321L361.326 143.821C361.127 143.921 361.027 143.921 360.927 143.921Z" fill="#004486"/>
<path d="M393.467 133.921C392.868 133.921 392.469 133.521 392.469 132.921V125.921C392.469 125.321 392.868 124.921 393.467 124.921C394.066 124.921 394.465 125.321 394.465 125.921V132.921C394.465 133.521 393.966 133.921 393.467 133.921Z" fill="#004486"/>
<path d="M241.75 159.422H236.759C236.16 159.422 235.761 159.022 235.761 158.422C235.761 157.822 236.16 157.422 236.759 157.422H240.752V151.921C240.752 151.721 240.752 151.621 240.851 151.421L244.844 144.421C245.143 143.921 245.742 143.821 246.241 144.021C246.74 144.221 246.84 144.921 246.641 145.421L242.748 152.221V158.422C242.748 159.022 242.349 159.422 241.75 159.422Z" fill="#004486"/>
<path d="M9.9814 140.921H0V126.921H9.9814V140.921ZM1.99628 138.921H7.98512V128.921H1.99628V138.921Z" fill="#004486"/>
<path d="M35.0348 153.921H23.0571V139.421H25.0534V151.921H33.0385V140.421H35.0348V153.921Z" fill="#004486"/>
<path d="M40.5246 167.922H36.0329V140.921H38.0292V165.922H38.6281L40.0255 140.921L42.0218 141.021L40.5246 167.922Z" fill="#004486"/>
<path d="M31.0422 165.922H21.0608V151.921H31.0422V165.922ZM23.0571 163.922H29.046V153.921H23.0571V163.922Z" fill="#004486"/>
<path d="M422.512 137.921H413.529V131.921H422.512V137.921ZM415.426 135.921H420.416V133.921H415.426V135.921Z" fill="#004486"/>
<path d="M479.506 137.921H470.523V131.921H479.506V137.921ZM472.519 135.921H477.51V133.921H472.519V135.921Z" fill="#004486"/>
<path d="M287.364 137.921H278.381V131.921H287.364V137.921ZM280.278 135.921H285.268V133.921H280.278V135.921Z" fill="#004486"/>
<path d="M186.253 137.921H177.27V131.921H186.253V137.921ZM179.166 135.921H184.157V133.921H179.166V135.921Z" fill="#004486"/>
<path d="M129.159 137.921H120.176V131.921H129.159V137.921ZM122.172 135.921H127.163V133.921H122.172V135.921Z" fill="#004486"/>
<path d="M70.0696 137.921H61.0864V131.921H70.0696V137.921ZM63.0826 135.921H68.0733V133.921H63.0826V135.921Z" fill="#004486"/>
<path d="M427.503 154.922H421.215V156.922H427.503V154.922Z" fill="#004486"/>
<path d="M468.627 154.922H465.532V156.922H468.627V154.922Z" fill="#004486"/>
<path d="M232.866 154.922H229.772V156.922H232.866V154.922Z" fill="#004486"/>
<path d="M191.543 154.922H188.449V156.922H191.543V154.922Z" fill="#004486"/>
<path d="M175.772 154.922H172.678V156.922H175.772V154.922Z" fill="#004486"/>
<path d="M134.549 154.922H131.455V156.922H134.549V154.922Z" fill="#004486"/>
<path d="M118.679 154.922H115.584V156.922H118.679V154.922Z" fill="#004486"/>
<path d="M77.0565 154.922H73.9623V156.922H77.0565V154.922Z" fill="#004486"/>
</svg>
